<?xml version="1.0" encoding="UTF-8" standalone="no"?>
<svg width="100px" height="100px" viewBox="0 0 100 100" version="1.1" xmlns="http://www.w3.org/2000/svg" xmlns:xlink="http://www.w3.org/1999/xlink" xmlns:sketch="http://www.bohemiancoding.com/sketch/ns">
    <!-- Generator: Sketch 3.5.1 (25234) - http://www.bohemiancoding.com/sketch -->
    <title>bing-acm-logo-circle-0-bw</title>
    <desc>Created with Sketch.</desc>
    <defs></defs>
    <g id="Page-1" stroke="none" stroke-width="1" fill="none" fill-rule="evenodd" sketch:type="MSPage">
        <g id="bing-acm-logo-circle-0-bw" sketch:type="MSLayerGroup">
            <path d="M49.9141113,99.963772 C77.4809137,99.963772 99.8282225,77.6164632 99.8282225,50.0496608 C99.8282225,22.4828583 77.4809137,0.135549525 49.9141113,0.135549525 C22.3473088,0.135549525 0,22.4828583 0,50.0496608 C0,77.6164632 22.3473088,99.963772 49.9141113,99.963772 Z" id="Oval" fill="#9FB3D4" sketch:type="MSShapeGroup"></path>
            <circle id="Oval" fill="#738199" sketch:type="MSShapeGroup" cx="49.9563094" cy="50.0496608" r="45.6580733"></circle>
            <path d="M50.6527815,95.7023066 C50.0382632,95.7023066 65.509498,51.0039349 65.509498,51.0039349 L90.8175034,29.6549525 C90.8175034,29.6550882 95.54654,38.1816825 95.54654,50.1175034 C95.54654,76.5127544 73.7184532,95.7023066 50.6527815,95.7023066 Z" id="Shape" fill="#353C47" sketch:type="MSShapeGroup"></path>
            <path d="M21.990502,79.1358209 L50.6527815,95.7023066 L89.8864315,72.2084125 L90.8175034,29.6550882 L75.721981,20.8820896 L68.7881954,24.3191316 L60.8869742,19.7960651 L60.3195387,25.9700136 L49.5799186,19.7960651 L49.4816825,23.9516961 L42.2075984,19.7960651 L40.5434193,25.8004071 L32.2573948,21.0625509 L24.5233379,23.0526459 L21.5834464,46.5915875 L32.2122117,52.3610583 L21.990502,79.1358209 Z" id="Shape" fill="#353C47" sketch:type="MSShapeGroup"></path>
            <g id="Group" transform="translate(21.438263, 19.267300)" fill="#F2F2F2" sketch:type="MSShapeGroup">
                <path d="M0.104206242,27.356038 L0.104206242,0.475440977 L6.36092266,0.475440977 C8.53975577,0.475440977 10.2396201,1.09104478 11.4605156,2.32157395 C12.6812754,3.55251018 13.2917232,5.39253731 13.2917232,7.84165536 C13.2917232,9.08493894 13.0647218,10.1955224 12.6112619,11.1740841 C12.1576662,12.1525102 11.4985075,12.8881954 10.6337856,13.3803256 C11.7443691,13.7251018 12.5773406,14.4635007 13.1327001,15.5957938 C13.687924,16.7283582 13.9656716,18.0390773 13.9656716,19.5280868 C13.9656716,22.1006784 13.3807327,24.0483039 12.2107191,25.3712347 C11.0407056,26.6944369 9.38317503,27.3559023 7.23839891,27.3559023 L0.104206242,27.3559023 L0.104206242,27.356038 Z M3.81763908,11.7373134 L6.48819539,11.7373134 C7.48018996,11.7373134 8.2431479,11.4419267 8.77720488,10.8511533 C9.31126187,10.2603799 9.57842605,9.3990502 9.57842605,8.26648575 C9.57842605,7.02347354 9.30922659,6.10651289 8.77082768,5.51573948 C8.23229308,4.92496608 7.42917232,4.62957938 6.36092266,4.62957938 L3.81763908,4.62957938 L3.81763908,11.7373134 L3.81763908,11.7373134 Z M3.81763908,15.4666214 L3.81763908,23.202171 L7.23839891,23.202171 C8.22184532,23.202171 8.97204885,22.8924016 9.48941655,22.2721845 C10.0065129,21.6519674 10.2651289,20.734057 10.2651289,19.5184532 C10.2651289,18.204749 10.0446404,17.2012212 9.60379919,16.5074627 C9.16295794,15.8137042 8.46770692,15.4667571 7.5183175,15.4667571 L3.81763908,15.4667571 L3.81763908,15.4666214 Z" id="Shape"></path>
                <path d="M20.7565807,27.356038 L17.0432836,27.356038 L17.0432836,0.475440977 L20.7565807,0.475440977 L20.7565807,27.356038 L20.7565807,27.356038 Z" id="Shape"></path>
                <path d="M39.4251018,27.356038 L35.724559,27.356038 L28.2469471,8.98643148 L28.170692,9.00488467 L28.170692,27.356038 L24.4572592,27.356038 L24.4572592,0.475440977 L28.170692,0.475440977 L35.6481682,18.8265943 L35.724559,18.8081411 L35.724559,0.475440977 L39.4251018,0.475440977 L39.4251018,27.356038 L39.4251018,27.356038 Z" id="Shape"></path>
                <path d="M57.1143826,23.6822252 C56.5630936,24.7408412 55.704749,25.6824966 54.539213,26.5069199 C53.3734057,27.3316147 51.9004071,27.7438263 50.1200814,27.7438263 C47.856445,27.7438263 46.0081411,26.7223881 44.5755767,24.6791045 C43.1426052,22.636228 42.4263229,19.9837178 42.4263229,16.721981 L42.4263229,11.109498 C42.4263229,7.86024423 43.1150611,5.21085482 44.4928087,3.16160109 C45.8704206,1.11234735 47.6445047,0.0876526459 49.8149254,0.0876526459 C52.0700136,0.0876526459 53.797422,0.884667571 54.9970149,2.47856174 C56.1966079,4.07259159 56.8090909,6.16797829 56.8345997,8.76485753 L56.8090909,8.87557666 L53.312076,8.87557666 C53.2440977,7.44803256 52.9303935,6.31858887 52.3709634,5.48778833 C51.8113976,4.65698779 50.9930801,4.24165536 49.9165536,4.24165536 C48.7803256,4.24165536 47.8647218,4.878019 47.1696065,6.15074627 C46.4743555,7.42347354 46.1268657,9.06173677 46.1268657,11.065943 L46.1268657,16.7100407 C46.1268657,18.751289 46.4869742,20.4081411 47.2077341,21.6808684 C47.9283582,22.9535957 48.8991859,23.5896879 50.1199457,23.5896879 C50.9846676,23.5896879 51.6797829,23.4610583 52.2055631,23.2031208 C52.7310719,22.9455902 53.1295794,22.6264586 53.4009498,22.2459973 L53.4009498,17.2757123 L50.1199457,17.2757123 L50.1199457,13.5464043 L57.1143826,13.5464043 L57.1143826,23.6822252 L57.1143826,23.6822252 Z" id="Shape"></path>
                <path d="M12.1154681,54.1234735 L5.61696065,54.1234735 L4.35807327,59.9204885 L0.606648575,59.9204885 L6.97774763,33.0398915 L10.7800543,33.0398915 L17.1259159,59.9204885 L13.3744912,59.9204885 L12.1154681,54.1234735 L12.1154681,54.1234735 Z M6.53270014,49.8956581 L11.1997286,49.8956581 L8.91071913,39.3354138 L8.83432836,39.3354138 L6.53270014,49.8956581 L6.53270014,49.8956581 Z" id="Shape"></path>
                <path d="M32.8313433,50.763365 L32.8568521,50.8740841 C32.8906377,53.7664858 32.2824966,56.0618725 31.0320217,57.7603799 C29.7812754,59.4588874 28.0454545,60.3081411 25.8244233,60.3081411 C23.5944369,60.3081411 21.7846676,59.268114 20.3941655,57.1880597 C19.0036635,55.1082768 18.3086839,52.4312076 18.3086839,49.1571235 L18.3086839,43.8215739 C18.3086839,40.5601085 18.9868385,37.883175 20.3432836,35.7906377 C21.6995929,33.6983718 23.4630936,32.6521031 25.6335142,32.6521031 C27.9225237,32.6521031 29.7113976,33.5044776 31.0001357,35.2090909 C32.2887381,36.9139756 32.9160109,39.2370421 32.8822252,42.1785617 L32.8567164,42.2892809 L29.2451832,42.2892809 C29.2451832,40.516825 28.9526459,39.1599729 28.3675712,38.2184532 C27.7826323,37.2769335 26.8712347,36.8061058 25.6335142,36.8061058 C24.5226594,36.8061058 23.6411126,37.4609227 22.9884668,38.7705563 C22.3354138,40.08019 22.0092266,41.7492537 22.0092266,43.778019 L22.0092266,49.1453189 C22.0092266,51.1989145 22.3525102,52.8803256 23.0393487,54.190095 C23.7260516,55.4997286 24.6542741,56.1542741 25.8242877,56.1542741 C26.9857531,56.1542741 27.8440977,55.7020353 28.3994573,54.797422 C28.9546811,53.8928087 29.2325645,52.5481682 29.2325645,50.7635007 L32.8313433,50.7635007 L32.8313433,50.763365 Z" id="Shape"></path>
                <path d="M40.3469471,33.0398915 L45.0648575,52.8495251 L45.1412483,52.8495251 L49.897422,33.0398915 L54.7553596,33.0398915 L54.7553596,59.9204885 L51.0420624,59.9204885 L51.0420624,51.9080054 L51.3981004,40.0369064 L51.3217096,40.0184532 L46.3621438,59.9204885 L43.8696065,59.9204885 L38.9354138,40.0924016 L38.8590231,40.1108548 L39.2151967,51.9080054 L39.2151967,59.9204885 L35.5017639,59.9204885 L35.5017639,33.0398915 L40.3469471,33.0398915 L40.3469471,33.0398915 Z" id="Shape"></path>
            </g>
        </g>
    </g>
</svg>