<?xml version="1.0" encoding="UTF-8" standalone="no"?>
<svg width="265px" height="50px" viewBox="0 0 265 50" version="1.1" xmlns="http://www.w3.org/2000/svg" xmlns:xlink="http://www.w3.org/1999/xlink" xmlns:sketch="http://www.bohemiancoding.com/sketch/ns">
    <!-- Generator: Sketch 3.4.4 (17249) - http://www.bohemiancoding.com/sketch -->
    <title>Slice 1</title>
    <desc>Created with Sketch.</desc>
    <defs></defs>
    <g id="Page-1" stroke="none" stroke-width="1" fill="none" fill-rule="evenodd" sketch:type="MSPage">
        <g id="bu-cs-department" sketch:type="MSLayerGroup" fill="#000000">
            <path d="M174,29.5 C173.182409,29.5128253 172.395009,29.191364 171.82,28.61 C171.02,27.81 171.02,26.97 171.02,25.16 C171.02,23.35 171.02,22.51 171.82,21.71 C172.395009,21.128636 173.182409,20.8071747 174,20.82 C175.512172,20.7465424 176.823052,21.8564212 177,23.36 L176.06,23.36 C175.924067,22.361991 175.067182,21.6207852 174.06,21.63 C173.509298,21.6244236 172.979513,21.8406624 172.59,22.23 C172.05,22.78 171.99,23.37 171.99,25.16 C171.99,26.95 172.05,27.54 172.59,28.09 C173.143507,28.6379758 173.955805,28.8327046 174.6976,28.595246 C175.439395,28.3577875 175.987608,27.7275411 176.12,26.96 L177.03,26.96 C176.852484,28.4757287 175.523441,29.5898434 174,29.5 L174,29.5 Z" id="Shape" sketch:type="MSShapeGroup"></path>
            <path d="M182.49,28.83 C181.541687,29.7265385 180.058313,29.7265385 179.11,28.83 C178.148597,27.4108272 178.148597,25.5491728 179.11,24.13 C180.058313,23.2334615 181.541687,23.2334615 182.49,24.13 C183.451403,25.5491728 183.451403,27.4108272 182.49,28.83 L182.49,28.83 Z M181.88,24.66 C181.591807,24.3782868 181.202958,24.2234672 180.8,24.23 C180.400076,24.2239102 180.014496,24.3788629 179.73,24.66 C179.088131,25.79201 179.088131,27.17799 179.73,28.31 C180.014496,28.5911371 180.400076,28.7460898 180.8,28.74 C181.202958,28.7465328 181.591807,28.5917132 181.88,28.31 C182.510011,27.1713349 182.510011,25.7886651 181.88,24.65 L181.88,24.66 Z" id="Shape" sketch:type="MSShapeGroup"></path>
            <path d="M192.53,29.43 L192.53,25.8 C192.590139,25.2517127 192.338285,24.7158998 191.877749,24.4123513 C191.417212,24.1088027 190.825504,24.0886079 190.345343,24.3600508 C189.865183,24.6314936 189.577383,25.1488882 189.6,25.7 L189.6,29.43 L188.74,29.43 L188.74,25.8 C188.801661,25.3890992 188.673512,24.9724179 188.391605,24.6671805 C188.109697,24.361943 187.704498,24.2011364 187.29,24.23 C186.875267,24.2060698 186.471325,24.3675604 186.187393,24.6708075 C185.903461,24.9740545 185.768866,25.3877362 185.82,25.8 L185.82,29.43 L184.96,29.43 L184.96,23.57 L185.82,23.57 L185.82,24.22 C186.242763,23.744794 186.854237,23.4811643 187.49,23.5 C188.232217,23.4713693 188.929168,23.856425 189.3,24.5 C189.732187,23.8558084 190.464566,23.4782932 191.24,23.5 C191.79892,23.4786379 192.344164,23.6759301 192.76,24.05 C193.193336,24.4830822 193.425452,25.0778784 193.4,25.69 L193.4,29.47 L192.54,29.47 L192.53,29.43 Z" id="Shape" sketch:type="MSShapeGroup"></path>
            <path d="M199.34,28.99 C198.947969,29.347466 198.429971,29.534521 197.9,29.51 C197.248278,29.5558452 196.618337,29.2653935 196.23,28.74 L196.23,32.07 L195.37,32.07 L195.37,23.57 L196.23,23.57 L196.23,24.27 C196.61458,23.7400109 197.247222,23.4483134 197.9,23.5 C198.429971,23.475479 198.947969,23.662534 199.34,24.02 C200.282832,25.542522 200.282832,27.467478 199.34,28.99 L199.34,28.99 Z M197.72,24.23 C196.44,24.23 196.23,25.33 196.23,26.48 C196.23,27.63 196.43,28.73 197.72,28.73 C199.01,28.73 199.2,27.63 199.2,26.48 C199.2,25.33 199.01,24.22 197.72,24.22 L197.72,24.23 Z" id="Shape" sketch:type="MSShapeGroup"></path>
            <path d="M205.52,29.43 L205.52,28.77 C205.098277,29.2477723 204.487098,29.5149342 203.85,29.5 C203.290243,29.5268215 202.742986,29.3288006 202.33,28.95 C201.907061,28.5046724 201.689526,27.902826 201.73,27.29 L201.73,23.57 L202.59,23.57 L202.59,27.2 C202.528821,27.6090601 202.655722,28.0238641 202.935296,28.3286777 C203.21487,28.6334912 203.617188,28.795683 204.03,28.77 C204.444733,28.7939302 204.848675,28.6324396 205.132607,28.3291925 C205.416539,28.0259455 205.551134,27.6122638 205.5,27.2 L205.5,23.57 L206.36,23.57 L206.36,29.47 L205.51,29.47 L205.52,29.43 Z" id="Shape" sketch:type="MSShapeGroup"></path>
            <path d="M210.07,29.43 C209.6515,29.4490616 209.245208,29.2861867 208.955762,28.9833226 C208.666316,28.6804584 208.522007,28.2672077 208.56,27.85 L208.56,24.23 L207.82,24.23 L207.82,23.57 L208.56,23.57 L208.56,21.72 L209.42,21.72 L209.42,23.57 L210.68,23.57 L210.68,24.23 L209.42,24.23 L209.42,27.83 C209.385753,28.056177 209.456602,28.2856178 209.612408,28.4531092 C209.768214,28.6206006 209.991941,28.7078284 210.22,28.69 L210.68,28.69 L210.68,29.43 L210.07,29.43 L210.07,29.43 Z" id="Shape" sketch:type="MSShapeGroup"></path>
            <path d="M212.72,26.71 C212.72,28.01 213.33,28.71 214.46,28.71 C215.051862,28.7350315 215.622726,28.488271 216.01,28.04 L216.6,28.56 C216.056066,29.1763273 215.260986,29.5112917 214.44,29.47 C212.88,29.47 211.86,28.53 211.86,26.47 C211.86,24.56 212.78,23.47 214.28,23.47 C215.78,23.47 216.7,24.57 216.7,26.32 L216.7,26.72 L212.7,26.72 L212.72,26.71 Z M215.66,25.08 C215.417719,24.5345216 214.876864,24.1829437 214.28,24.1829437 C213.683136,24.1829437 213.142281,24.5345216 212.9,25.08 C212.771064,25.3971752 212.709757,25.7377726 212.72,26.08 L215.84,26.08 C215.851648,25.7344245 215.790315,25.3902751 215.66,25.07 L215.66,25.08 Z" id="Shape" sketch:type="MSShapeGroup"></path>
            <path d="M221.72,24.65 C221.471683,24.3589426 221.102068,24.2000081 220.72,24.22 C220.317784,24.2264698 219.93661,24.400887 219.668769,24.7010213 C219.400927,25.0011556 219.270839,25.3996427 219.31,25.8 L219.31,29.42 L218.44,29.42 L218.44,23.57 L219.31,23.57 L219.31,24.29 C219.70028,23.7758192 220.314738,23.481624 220.96,23.5 C221.490968,23.4669862 222.009799,23.6679419 222.38,24.05 L221.72,24.65 Z" id="Shape" sketch:type="MSShapeGroup"></path>
            <path d="M228.57,29.5 C227.474423,29.5742415 226.402017,29.1606516 225.64,28.37 L226.26,27.75 C226.85693,28.3961288 227.711818,28.7410192 228.59,28.69 C229.84,28.69 230.59,28.1 230.59,27.11 C230.614867,26.7107684 230.465282,26.3203894 230.18,26.04 C229.862166,25.7834378 229.468358,25.6392761 229.06,25.63 L228.06,25.47 C227.486341,25.4037921 226.942578,25.1786672 226.49,24.82 C226.045177,24.4147676 225.806446,23.830795 225.84,23.23 C225.84,21.78 226.84,20.82 228.57,20.82 C229.509764,20.7716482 230.428121,21.1115127 231.11,21.76 L230.52,22.35 C229.982097,21.8419705 229.25869,21.5779272 228.52,21.62 C228.064362,21.5559104 227.603422,21.6936262 227.257621,21.9971629 C226.911819,22.3006997 226.715515,22.7398989 226.72,23.2 C226.687491,23.5738478 226.827421,23.9420857 227.1,24.2 C227.436809,24.4524751 227.832769,24.6143022 228.25,24.67 L229.19,24.81 C229.759515,24.8439571 230.304512,25.0535713 230.75,25.41 C231.231874,25.836437 231.496285,26.457069 231.47,27.1 C231.53,28.57 230.35,29.5 228.57,29.5 L228.57,29.5 Z" id="Shape" sketch:type="MSShapeGroup"></path>
            <path d="M235.45,29.5 C233.96,29.5 232.83,28.5 232.83,26.5 C232.83,24.5 233.96,23.5 235.45,23.5 C236.19869,23.4625158 236.920018,23.7859978 237.39,24.37 L236.8,24.92 C236.483393,24.4890084 235.974482,24.2420371 235.44,24.26 C234.899424,24.2373308 234.384011,24.4893946 234.07,24.93 C233.555807,25.9241129 233.555807,27.1058871 234.07,28.1 C234.384011,28.5406054 234.899424,28.7926692 235.44,28.77 C235.975551,28.7821852 236.483298,28.5320451 236.8,28.1 L237.39,28.66 C236.913879,29.2328024 236.193501,29.5447185 235.45,29.5 L235.45,29.5 Z" id="Shape" sketch:type="MSShapeGroup"></path>
            <path d="M238.87,21.85 L238.87,20.85 L239.87,20.85 L239.87,21.85 L238.87,21.85 L238.87,21.85 Z M238.87,29.43 L238.87,23.57 L239.73,23.57 L239.73,29.47 L238.87,29.47 L238.87,29.43 Z" id="Shape" sketch:type="MSShapeGroup"></path>
            <path d="M242.38,26.71 C242.38,28.01 242.99,28.71 244.12,28.71 C244.711862,28.7350315 245.282726,28.488271 245.67,28.04 L246.26,28.56 C245.715193,29.1751106 244.920726,29.5098166 244.1,29.47 C242.54,29.47 241.52,28.53 241.52,26.47 C241.52,24.56 242.44,23.47 243.94,23.47 C245.44,23.47 246.36,24.57 246.36,26.32 L246.36,26.72 L242.36,26.72 L242.38,26.71 Z M245.32,25.08 C245.071502,24.5418067 244.532793,24.1971813 243.94,24.1971813 C243.347207,24.1971813 242.808498,24.5418067 242.56,25.08 C242.432994,25.3977314 242.371759,25.7379241 242.38,26.08 L245.5,26.08 C245.507296,25.7338082 245.442596,25.3898754 245.31,25.07 L245.32,25.08 Z" id="Shape" sketch:type="MSShapeGroup"></path>
            <path d="M251.85,29.43 L251.85,25.8 C251.911661,25.3890992 251.783512,24.9724179 251.501605,24.6671805 C251.219697,24.361943 250.814498,24.2011364 250.4,24.23 C249.985927,24.2055233 249.582559,24.367252 249.300088,24.6710051 C249.017617,24.9747581 248.885563,25.3887916 248.94,25.8 L248.94,29.43 L248.08,29.43 L248.08,23.57 L248.94,23.57 L248.94,24.22 C249.356565,23.7479455 249.960622,23.4843572 250.59,23.5 C251.147037,23.4713464 251.691883,23.6698005 252.1,24.05 C252.523428,24.4874982 252.744604,25.082136 252.71,25.69 L252.71,29.47 L251.85,29.47 L251.85,29.43 Z" id="Shape" sketch:type="MSShapeGroup"></path>
            <path d="M256.99,29.5 C255.5,29.5 254.38,28.5 254.38,26.5 C254.38,24.5 255.51,23.5 256.99,23.5 C257.73869,23.4625158 258.460018,23.7859978 258.93,24.37 L258.34,24.92 C258.023393,24.4890084 257.514482,24.2420371 256.98,24.26 C256.439424,24.2373308 255.924011,24.4893946 255.61,24.93 C255.09748,25.9245191 255.09748,27.1054809 255.61,28.1 C255.924011,28.5406054 256.439424,28.7926692 256.98,28.77 C257.515931,28.7839101 258.024434,28.5333973 258.34,28.1 L258.93,28.66 C258.454878,29.2341349 257.733789,29.5463591 256.99,29.5 L256.99,29.5 Z" id="Shape" sketch:type="MSShapeGroup"></path>
            <path d="M260.82,26.71 C260.82,28.01 261.43,28.71 262.56,28.71 C263.151862,28.7350315 263.722726,28.488271 264.11,28.04 L264.7,28.56 C264.156066,29.1763273 263.360986,29.5112917 262.54,29.47 C260.98,29.47 259.96,28.53 259.96,26.47 C259.96,24.56 260.88,23.47 262.38,23.47 C263.88,23.47 264.8,24.57 264.8,26.32 L264.8,26.72 L260.8,26.72 L260.82,26.71 Z M263.76,25.08 C263.517719,24.5345216 262.976864,24.1829437 262.38,24.1829437 C261.783136,24.1829437 261.242281,24.5345216 261,25.08 C260.871064,25.3971752 260.809757,25.7377726 260.82,26.08 L263.94,26.08 C263.951648,25.7344245 263.890315,25.3902751 263.76,25.07 L263.76,25.08 Z" id="Shape" sketch:type="MSShapeGroup"></path>
            <path d="M159.4,4.71 L159.4,48.96" id="Shape" stroke="#353C47" stroke-width="0.5" sketch:type="MSShapeGroup"></path>
            <path d="M11.3,28.06 C11.3,26.64 12.15,27.06 12.15,26.75 C12.15,26.61 12.08,26.59 11.93,26.59 C11.33,26.59 10.93,26.64 10.55,26.64 C10.17,26.64 9.88,26.64 9.55,26.59 C9.39,26.59 9.19,26.53 9.19,26.73 C9.19,27.18 10.68,26.79 10.68,28.24 L10.68,30.73 C10.68,32.85 10.36,34.84 7.96,34.84 C5.8,34.84 5.31,33.24 5.31,31.32 L5.31,28.57 C5.31,26.51 6.31,27.18 6.31,26.75 C6.31872032,26.7086334 6.30957973,26.6655076 6.28482769,26.6312356 C6.26007565,26.5969635 6.22201056,26.5747276 6.18,26.57 C5.95,26.57 5.09,26.62 4.47,26.62 C3.85,26.62 2.96,26.57 2.8,26.57 C2.73999708,26.5615372 2.67916038,26.5781983 2.63184224,26.6160528 C2.58452411,26.6539073 2.55491493,26.7096029 2.55,26.77 C2.55,27.25 3.81,26.84 3.81,27.93 L3.81,32.03 C3.81,34.47 5.02,35.56 7.28,35.56 C10.62,35.56 11.28,33.44 11.28,30.88 L11.28,28.04 L11.28,28.04 L11.3,28.06 Z" id="Shape" sketch:type="MSShapeGroup"></path>
            <path d="M20.84,33.78 C20.84,35.06 19.68,34.84 19.68,35.34 C19.68,35.55 19.92,35.49 20.05,35.49 C20.38,35.49 20.7,35.44 21.05,35.44 C21.4,35.44 21.89,35.49 22.48,35.49 C22.64,35.49 22.94,35.49 22.94,35.33 C22.94,34.74 21.39,35.6 21.39,33.18 L21.39,28.91 C21.39,28.8 21.39,28.71 21.49,28.71 C21.5809898,28.7334625 21.6596442,28.7906657 21.71,28.87 L27.53,35.4 C27.5939908,35.5108389 27.7120169,35.5793702 27.84,35.58 C27.98,35.58 27.98,35.48 27.98,35.2 L27.98,28.2 C27.98,26.88 28.98,27.2 28.98,26.8 C28.98,26.8 28.98,26.64 28.75,26.64 C28.52,26.64 28.22,26.69 27.46,26.69 C26.7,26.69 26.34,26.57 26.18,26.57 C26.1259442,26.5696996 26.0743196,26.5924386 26.0380523,26.6325235 C26.001785,26.6726084 25.984309,26.7262438 25.99,26.78 C25.99,27.19 27.46,26.97 27.46,28.11 L27.46,32.29 C27.46,32.6 27.46,32.75 27.36,32.75 C27.2120765,32.6756097 27.0849393,32.5656532 26.99,32.43 L22.13,26.89 C21.91,26.65 22.06,26.56 21.67,26.56 C21.03,26.56 20.67,26.61 20.4,26.61 C20.13,26.61 19.95,26.56 19.72,26.56 C19.6634639,26.5570949 19.6083449,26.5782853 19.5683151,26.6183151 C19.5282853,26.6583449 19.5070949,26.7134639 19.51,26.77 C19.51,27.37 20.87,26.56 20.87,28.97 L20.87,33.74 L20.87,33.74 L20.84,33.78 Z" id="Shape" sketch:type="MSShapeGroup"></path>
            <path d="M40.07,27.93 C40.07,26.74 40.98,27.19 40.98,26.76 C40.98,26.61 40.92,26.58 40.56,26.58 C39.87,26.58 39.44,26.63 39,26.63 C38.56,26.63 38.11,26.58 37.63,26.58 C37.52,26.58 37.22,26.58 37.22,26.76 C37.22,27.2 38.59,26.85 38.59,27.99 L38.59,33.99 C38.59,35.18 37.72,34.86 37.72,35.29 C37.7141137,35.3277876 37.7251646,35.3662501 37.7502113,35.3951502 C37.775258,35.4240503 37.8117594,35.4404557 37.85,35.44 C38.17,35.44 38.69,35.39 39.21,35.39 C40.15,35.39 40.6,35.44 41.05,35.44 C41.33,35.44 41.44,35.39 41.44,35.25 C41.44,34.85 40.09,35.43 40.09,33.88 L40.09,27.88 L40.09,27.88 L40.07,27.93 Z" id="Shape" sketch:type="MSShapeGroup"></path>
            <path d="M57.18,27.73 C57.51,26.99 58,27.05 58,26.73 C58,26.41 57.83,26.55 57.58,26.55 C57.33,26.55 56.9,26.6 56.58,26.6 C56.26,26.6 55.89,26.55 55.58,26.55 C55.44,26.55 55.08,26.55 55.08,26.75 C55.08,27.19 56.3,26.75 56.3,27.91 C56.2754568,28.4252596 56.1425674,28.9295576 55.91,29.39 L54.18,33.25 C54.1611676,33.3536681 54.1040582,33.4464709 54.02,33.51 C53.9329142,33.4475453 53.8722878,33.3548227 53.85,33.25 L52.28,29.25 C52.0318379,28.7028159 51.8763848,28.118177 51.82,27.52 C51.82,26.99 52.54,27.18 52.54,26.84 C52.54,26.5 52.48,26.64 52.09,26.64 C51.9,26.64 51.55,26.69 50.77,26.69 C50.36,26.69 49.95,26.64 49.55,26.64 C49.37,26.64 48.99,26.54 48.99,26.84 C49.0224423,26.9259199 49.0924532,26.9922459 49.18,27.02 C49.598979,27.0619022 49.9468228,27.3617676 50.05,27.77 L53.05,35.08 C53.0788949,35.3622831 53.253398,35.6088635 53.51,35.73 C53.64,35.73 53.7,35.65 53.84,35.33 L57.13,27.78 L57.13,27.78 L57.18,27.73 Z" id="Shape" sketch:type="MSShapeGroup"></path>
            <path d="M68.25,28.06 C68.25,27.19 68.25,27.18 69.76,27.18 C72.09,27.18 71.15,28.65 71.76,28.65 C72.04,28.65 71.98,28.23 71.97,28.07 L71.97,26.82 C71.97,26.6874517 71.8625483,26.58 71.73,26.58 C70.67,26.58 69.83,26.63 68.97,26.63 C67.12,26.63 66.25,26.58 65.75,26.58 C65.685786,26.5684884 65.6197044,26.5847879 65.5682089,26.62484 C65.5167134,26.664892 65.4846492,26.7249282 65.48,26.79 C65.48,27.29 66.85,26.89 66.85,28.02 L66.85,33.9 C66.85,35.43 65.93,34.76 65.93,35.33 C65.93,35.4 66,35.47 66.16,35.47 C66.82,35.47 67.33,35.42 67.71,35.42 C68.32,35.42 69.04,35.47 70.88,35.47 C71.8865625,35.3554449 72.6332408,34.4821369 72.59,33.47 C72.59,33.23 72.51,33.19 72.46,33.19 C72,33.19 72.17,34.84 69.17,34.84 C68.3,34.84 68.35,34.39 68.35,33.61 L68.35,32 C68.35,31.27 68.35,31.12 68.86,31.12 L69.75,31.12 C71.01,31.12 70.67,32.45 71.06,32.45 C71.45,32.45 71.28,32 71.27,31.83 L71.08,29.57 C71.08,29.23 70.94,29.26 70.85,29.26 C70.61,29.26 70.57,30.42 69.53,30.42 L68.77,30.42 C68.25,30.42 68.25,30.33 68.25,29.79 L68.25,28.03 L68.25,28.03 L68.25,28.06 Z" id="Shape" sketch:type="MSShapeGroup"></path>
            <path d="M83.43,27.88 C83.43,27.13 83.81,27.13 84.25,27.13 C84.800179,27.1314156 85.323316,27.368785 85.6866946,27.781889 C86.0500731,28.1949931 86.2187744,28.7441347 86.15,29.29 C86.15,30.03 86.08,30.74 84.24,30.74 C83.88,30.74 83.43,30.74 83.43,30.43 L83.43,27.89 L83.43,27.89 L83.43,27.88 Z M81.95,33.7 C81.95,35.28 80.95,34.87 80.95,35.27 C80.95,35.67 81.2,35.48 81.34,35.48 C81.94,35.48 82.55,35.43 83.2,35.43 C83.85,35.43 84.03,35.48 84.2,35.48 C84.37,35.48 84.58,35.4 84.58,35.29 C84.58,34.84 83.38,35.35 83.38,34.01 L83.38,31.84 C83.38,31.4 83.31,31.31 83.95,31.31 C84.4308259,31.2360377 84.8951165,31.5188329 85.05,31.98 L86.05,33.98 C86.42,34.71 86.81,35.5 87.77,35.5 C88.25,35.5 89.05,35.22 89.05,34.83 C89.0529528,34.7814158 89.0349389,34.7338963 89.0005213,34.6994787 C88.9661037,34.6650611 88.9185842,34.6470472 88.87,34.65 C88.75,34.65 88.63,34.73 88.51,34.73 C88.3373044,34.751963 88.1670058,34.6745546 88.07,34.53 C87.2,32.95 86.17,31.13 86.17,31.05 C86.3752871,30.8390623 86.6112877,30.6603761 86.87,30.52 C87.3351086,30.1342428 87.593909,29.5537905 87.57,28.95 C87.57,28.37 87.33,26.6 84.68,26.6 C83.87,26.6 83.05,26.65 82.24,26.65 C81.43,26.65 81.38,26.6 80.82,26.6 C80.758562,26.5852659 80.6937548,26.5976568 80.6420857,26.6340165 C80.5904166,26.6703762 80.5568734,26.7271949 80.55,26.79 C80.55,27.24 81.87,26.79 81.87,28.18 L81.87,33.71 L81.87,33.71 L81.95,33.7 Z" id="Shape" sketch:type="MSShapeGroup"></path>
            <path d="M96.85,34.63 C96.91,34.93 96.85,35.03 97.2,35.11 C97.8662472,35.3436019 98.5576677,35.4979968 99.26,35.57 C99.9944979,35.5965868 100.706163,35.3122538 101.22013,34.7868659 C101.734096,34.261478 102.002721,33.5437362 101.96,32.81 C101.96,31.21 101.16,30.67 99.87,30.08 C98.25,29.34 97.58,29.17 97.58,28.33 C97.551914,27.9684641 97.6847923,27.6129577 97.9431276,27.3584781 C98.201463,27.1039984 98.5589273,26.9764808 98.92,27.01 C101,27.01 101.18,29.35 101.46,29.35 C101.74,29.35 101.76,29.2 101.74,28.92 L101.61,27.23 C101.61,26.94 101.61,26.75 101.44,26.75 C101.27,26.75 100.98,26.95 100.82,26.95 C100.224401,26.7051195 99.5989433,26.5403483 98.96,26.46 C98.3046663,26.450292 97.6750525,26.7146982 97.2231435,27.1893926 C96.7712345,27.6640869 96.5380937,28.3059355 96.58,28.96 C96.58,30.28 97.29,30.77 98.33,31.25 C100.28,32.14 101.04,32.31 101.04,33.37 C101.055299,33.8121359 100.882154,34.2399757 100.56366,34.5470264 C100.245167,34.8540771 99.8112806,35.0114595 99.37,34.98 C98.03,34.98 97.28,33.84 96.89,32.63 C96.89,32.47 96.82,32.35 96.62,32.35 C96.42,32.35 96.44,32.72 96.48,32.89 L96.86,34.61 L96.86,34.61 L96.85,34.63 Z" id="Shape" sketch:type="MSShapeGroup"></path>
            <path d="M113.32,27.93 C113.32,26.74 114.23,27.19 114.23,26.76 C114.23,26.61 114.17,26.58 113.8,26.58 C113.11,26.58 112.68,26.63 112.24,26.63 C111.8,26.63 111.35,26.58 110.87,26.58 C110.76,26.58 110.46,26.58 110.46,26.76 C110.46,27.2 111.82,26.85 111.82,27.99 L111.82,33.99 C111.82,35.18 110.95,34.86 110.95,35.29 C110.944114,35.3277876 110.955165,35.3662501 110.980211,35.3951502 C111.005258,35.4240503 111.041759,35.4404557 111.08,35.44 C111.39,35.44 111.92,35.39 112.44,35.39 C113.39,35.39 113.83,35.44 114.28,35.44 C114.56,35.44 114.67,35.39 114.67,35.25 C114.67,34.85 113.32,35.43 113.32,33.88 L113.32,27.88 L113.32,27.88 L113.32,27.93 Z" id="Shape" sketch:type="MSShapeGroup"></path>
            <path d="M125.9,33.84 C125.9,35.33 124.53,34.73 124.53,35.22 C124.53,35.5 124.74,35.48 124.95,35.48 C125.44,35.48 125.83,35.43 126.65,35.43 C127.47,35.43 127.86,35.48 128.34,35.48 C128.82,35.48 128.93,35.48 128.93,35.22 C128.93,34.96 127.38,35.22 127.38,33.69 L127.38,28.01 C127.38,27.41 127.5,27.34 128,27.34 L129,27.34 C130.39,27.29 130,28.68 130.49,28.68 C130.8,28.68 130.67,28.19 130.64,28.04 L130.51,26.88 C130.51,26.76 130.51,26.58 130.32,26.58 C129.19,26.58 128.38,26.63 126.62,26.63 C124.86,26.63 124.04,26.58 122.92,26.58 C122.74,26.58 122.74,26.76 122.73,26.88 L122.53,28.54 C122.53,28.7 122.43,28.98 122.69,28.98 C123.23,28.98 122.87,27.33 124.24,27.33 L125.24,27.33 C125.74,27.33 125.85,27.39 125.85,28 L125.85,33.83 L125.85,33.83 L125.9,33.84 Z" id="Shape" sketch:type="MSShapeGroup"></path>
            <path d="M140.71,31.45 C140.856115,31.6862686 140.922702,31.96313 140.9,32.24 L140.9,33.87 C140.9,35.46 139.58,34.77 139.58,35.34 C139.58,35.45 139.71,35.48 139.91,35.48 C140.11,35.48 140.6,35.43 141.69,35.43 C142.290459,35.416339 142.891225,35.4330269 143.49,35.48 C143.7,35.48 143.88,35.48 143.88,35.33 C143.88,34.69 142.39,35.56 142.39,33.97 L142.39,32.1 C142.363526,31.8266118 142.419237,31.5515427 142.55,31.31 L144.13,28.19 C144.84,26.81 145.39,27.06 145.39,26.72 C145.39,26.63 145.33,26.58 145.17,26.58 C144.83,26.58 144.7,26.63 143.78,26.63 C143.16,26.63 142.9,26.58 142.78,26.58 C142.723137,26.5677391 142.663791,26.5822015 142.618945,26.6192487 C142.574098,26.6562958 142.548693,26.7118451 142.55,26.77 C142.55,27.16 143.72,26.88 143.72,27.71 C143.718153,27.9554614 143.645211,28.1951278 143.51,28.4 L142.41,30.47 C142.368969,30.6337525 142.259759,30.7720855 142.11,30.85 C141.917063,30.7110692 141.784661,30.5035208 141.74,30.27 L140.65,27.93 C140.550862,27.7517331 140.492782,27.5535782 140.48,27.35 C140.48,26.92 141.14,27.02 141.14,26.73 C141.141607,26.6796278 141.119387,26.6314426 141.080033,26.5999593 C141.040678,26.568476 140.988791,26.5573749 140.94,26.57 C140.21,26.62 139.69,26.62 139.17,26.62 C138.65,26.62 138.18,26.57 138.01,26.57 C137.84,26.57 137.59,26.57 137.59,26.72 C137.59,27.12 138.33,26.81 138.8,27.72 L140.71,31.44 L140.71,31.44 L140.71,31.45 Z" id="Shape" sketch:type="MSShapeGroup"></path>
            <path d="M6.63,4.57 C6.63,3.09 6.63,2.1 8.35,2.1 C9.42134393,2.09987947 10.4479591,2.52953314 11.1998535,3.29270592 C11.9517479,4.0558787 12.3660702,5.0887766 12.35,6.16 C12.35,8.09 11.64,9.07 9.77,9.07 L8.29,9.07 C6.86,8.97 6.62,8.86 6.62,7.59 L6.62,4.59 L6.62,4.59 L6.63,4.57 Z M3.63,16.3 C3.63,18.83 1.51,18.12 1.51,18.98 C1.51,19.34 1.76,19.39 2.32,19.39 C2.88,19.39 3.48,19.29 4.07,19.29 C5.3,19.29 6.53,19.39 10.2,19.39 C14.2,19.39 16.47,17.16 16.47,13.72 C16.47,11.38 15.54,9.97 12.53,9.17 L12.53,9.12 C14.1240117,8.62421825 15.2021861,7.13918563 15.18,5.47 C15.18,4.85 15.18,1 9.13,1 C7.06,1 4.97,1.1 2.88,1.1 C2.38467448,1.11074586 1.88937784,1.07727987 1.4,1 C1.28766266,0.970811253 1.16819664,1.00094514 1.08314315,1.07992339 C0.998089649,1.15890164 0.959201108,1.27581126 0.98,1.39 C0.98,2.66 3.59,1.23 3.59,4.82 L3.59,16.31 L3.59,16.31 L3.63,16.3 Z M6.63,12.25 C6.63,10.9 6.63,10.25 8.13,10.25 C12.61,10.25 13.32,12.59 13.32,14.15 C13.32,16.67 12.07,18.36 9.65,18.36 C7.23,18.36 6.65,17.63 6.65,15.16 L6.65,12.25 L6.65,12.25 L6.63,12.25 Z" id="Shape" sketch:type="MSShapeGroup"></path>
            <path d="M21.49,6.89 C21.49,4.89 22.97,5.66 22.97,4.96 C22.97,4.71 22.87,4.67 22.28,4.67 C21.16,4.67 20.45,4.75 19.74,4.75 C19.03,4.75 18.28,4.67 17.51,4.67 C17.33,4.67 16.84,4.61 16.84,4.96 C16.84,5.69 19.06,5.1 19.06,6.96 L19.06,16.96 C19.06,18.96 17.64,18.4 17.64,19.12 C17.631278,19.183343 17.6505457,19.2473467 17.6927867,19.2953477 C17.7350276,19.3433488 17.7960622,19.3705977 17.86,19.37 C18.37,19.37 19.22,19.29 20.06,19.29 C21.6,19.29 22.32,19.37 23.06,19.37 C23.51,19.37 23.69,19.29 23.69,19.06 C23.69,18.39 21.49,19.35 21.49,16.79 L21.49,6.86 L21.49,6.86 L21.49,6.89 Z" id="Shape" sketch:type="MSShapeGroup"></path>
            <path d="M26.44,16.57 C26.44,18.69 24.55,18.32 24.55,19.15 C24.55,19.5 24.94,19.4 25.16,19.4 C25.69,19.4 26.22,19.32 26.85,19.32 C27.48,19.32 28.21,19.4 29.17,19.4 C29.43,19.4 29.92,19.4 29.92,19.13 C29.92,18.13 27.4,19.57 27.4,15.57 L27.4,8.49 C27.4,8.3 27.4,8.16 27.56,8.16 C27.7067764,8.20217802 27.831946,8.29873742 27.91,8.43 L37.38,19.25 C37.4849716,19.4318586 37.6800385,19.542779 37.89,19.54 C38.13,19.54 38.13,19.37 38.13,18.92 L38.13,7.24 C38.13,5.06 39.8,5.55 39.8,4.93 C39.8,4.87 39.8,4.66 39.43,4.66 C39.25,4.66 38.56,4.74 37.32,4.74 C36.08,4.74 35.39,4.66 35.08,4.66 C34.9886353,4.656276 34.9002873,4.69307862 34.838586,4.76056436 C34.7768848,4.82805009 34.7481254,4.91933379 34.76,5.01 C34.76,5.7 37.16,5.32 37.16,7.22 L37.16,14.15 C37.16,14.67 37.16,14.92 37,14.92 C36.7547274,14.7938158 36.5450016,14.6081569 36.39,14.38 L28.48,5.21 C28.13,4.81 28.36,4.67 27.73,4.67 C26.73,4.67 26.17,4.75 25.66,4.75 C25.15,4.75 24.93,4.67 24.56,4.67 C24.4679438,4.66671016 24.3789348,4.70324987 24.3157427,4.77027173 C24.2525507,4.83729359 24.2213055,4.9282963 24.23,5.02 C24.23,6.02 26.43,4.67 26.43,8.66 L26.43,16.57 L26.43,16.57 L26.44,16.57 Z" id="Shape" sketch:type="MSShapeGroup"></path>
            <path d="M53.08,6.03 C53.08,5.7 53.08,5.24 52.78,5.24 C52.48,5.24 52.43,5.82 51.99,5.82 C51.55,5.82 49.8,4.47 47.07,4.47 C42.07,4.47 40.07,9.07 40.07,12.56 C40.07,14.2 40.96,19.56 46.73,19.56 C48.9329182,19.4303589 51.0665787,18.7420813 52.93,17.56 C53.1092244,17.4444164 53.190696,17.224443 53.13,17.02 C53.13,16.73 53.07,16.15 53.07,15.29 C53.07,12.63 54.43,13.75 54.43,12.86 C54.444702,12.791618 54.4288412,12.7202247 54.3865676,12.6645004 C54.3442941,12.6087761 54.2798144,12.5742661 54.21,12.57 C53.5,12.57 52.81,12.65 52.09,12.65 C51.16,12.65 50.26,12.57 49.33,12.57 C49,12.57 48.33,12.4 48.33,13.01 C48.33,13.8 50.67,12.39 50.67,15.63 C50.67,16.84 50.61,18.63 47.07,18.63 C43.88,18.63 42.5,14.84 42.5,11.99 C42.5,6.73 45.1,5.46 46.93,5.46 C52.11,5.46 52.11,10 52.54,10 C52.97,10 53.03,9.89 53.03,9.62 L53.03,6.14 L53.03,6.14 L53.08,6.03 Z" id="Shape" sketch:type="MSShapeGroup"></path>
            <path d="M68.45,6.85 C68.45,4.85 69.87,5.71 69.87,4.91 C69.87,4.72 69.79,4.66 69.46,4.66 C68.61,4.66 67.89,4.74 66.86,4.74 C65.64,4.74 65.13,4.66 64.32,4.66 C64.04,4.66 63.87,4.66 63.87,4.99 C63.87,5.59 66.03,4.85 66.03,7.13 L66.03,10.06 C66.0875988,10.278922 66.0432358,10.5121474 65.9092833,10.6946335 C65.7753308,10.8771195 65.5661213,10.9893406 65.34,11 L59.49,11 C59.08,11 59,10.73 59,10.17 L59,6.87 C59,5.02 60.52,5.62 60.52,4.98 C60.52,4.77 60.34,4.67 60.07,4.67 C59.5,4.67 58.71,4.75 57.53,4.75 C56.53,4.75 55.92,4.67 55.32,4.67 C54.95,4.67 54.32,4.67 54.32,5 C54.32,5.79 56.54,4.88 56.54,7.14 L56.54,16.42 C56.54,19 54.87,18.25 54.87,19.08 C54.87,19.35 55.07,19.39 55.3,19.39 C56.3,19.39 57.11,19.31 57.94,19.31 C59.36,19.31 60.01,19.39 60.81,19.39 C61.44,19.39 61.4,19.22 61.4,19.1 C61.4,18.35 58.96,19.1 58.96,16.52 L58.96,13.25 C58.96,12.33 59.02,12.13 59.96,12.13 L65.18,12.13 C66.05,12.13 65.99,12.36 65.99,13.23 L65.99,16.97 C65.99,18.97 64.55,18.43 64.55,19.15 C64.55,19.3 64.67,19.38 64.94,19.38 C65.94,19.38 66.71,19.3 67.42,19.3 C68.13,19.3 69.42,19.38 70.04,19.38 C70.3,19.38 70.45,19.38 70.45,19.13 C70.45,18.32 68.45,19.13 68.45,16.45 L68.45,6.84 L68.45,6.84 L68.45,6.85 Z" id="Shape" sketch:type="MSShapeGroup"></path>
            <path d="M76.12,13.15 C75.77,13.15 75.49,13.15 75.49,12.96 C75.5106725,12.6911264 75.5855057,12.4292102 75.71,12.19 L77.23,8.51 C77.33,8.28 77.41,8.26 77.45,8.26 C77.49,8.26 77.45,8.26 77.61,8.43 L79.23,12.2 C79.3544943,12.4392102 79.4293275,12.7011264 79.45,12.97 C79.45,13.18 79.17,13.16 78.82,13.16 L76.14,13.16 L76.12,13.15 Z M79.41,14.27 C79.92,14.27 80.02,14.48 80.67,16.1 C80.8744854,16.5366868 80.9932992,17.0085473 81.02,17.49 C81.02,18.76 79.62,18.49 79.62,19.13 C79.62,19.42 79.87,19.38 80.23,19.38 C80.8,19.38 81.53,19.3 82.4,19.3 C83.7,19.3 84.23,19.38 84.94,19.38 C85.47,19.38 85.65,19.38 85.65,19.07 C85.65,18.38 84.59,19.2 83.95,17.72 L78.64,4.99 C78.39,4.37 78.35,4.32 78.17,4.32 C77.8959215,4.4672465 77.7124579,4.74056982 77.68,5.05 L72.35,17.64 C71.86,18.81 70.85,18.64 70.85,19.16 C70.85,19.43 71.17,19.39 71.44,19.39 C72.01,19.39 72.58,19.31 73.17,19.31 C73.76,19.31 74.39,19.39 75.02,19.39 C75.43,19.39 76.02,19.54 76.02,19.1 C76.02,18.66 73.89,18.87 73.89,17.37 C73.9513971,16.8072224 74.0893374,16.2554612 74.3,15.73 C74.75,14.36 75.17,14.27 75.5,14.27 L79.38,14.27 L79.41,14.27 Z" id="Shape" sketch:type="MSShapeGroup"></path>
            <path d="M89.07,10.03 C89.0284933,9.8441946 89.0808167,9.64985039 89.21,9.51 C89.3132148,9.6032147 89.3863234,9.72506234 89.42,9.86 L93.24,18.86 C93.2775577,19.1317654 93.4683267,19.3575736 93.73,19.44 C94.0055392,19.3739559 94.2097434,19.1417237 94.24,18.86 L97.96,10.64 C98.0852352,10.2351626 98.292927,9.86063641 98.57,9.54 C98.7486415,9.81865462 98.8063915,10.1579355 98.73,10.48 L99.02,16.78 C99.14,19.09 97.61,18.4 97.61,19.11 C97.61,19.49 98.1,19.42 98.51,19.42 C98.92,19.42 99.43,19.34 100.71,19.34 C101.28,19.34 101.83,19.42 102.41,19.42 C102.99,19.42 103.35,19.42 103.35,19.07 C103.35,18.3 101.54,19.21 101.44,16.49 L101.1,7.27 C101.02,4.88 102.95,5.69 102.95,4.94 C102.95,4.77 102.95,4.69 102.38,4.69 C101.81,4.69 101.45,4.77 101.1,4.77 C100.75,4.77 100.43,4.69 99.96,4.69 C99.7140162,4.68169776 99.5000434,4.85715539 99.46,5.1 L94.89,15.17 C94.8364069,15.3460577 94.7277501,15.5002802 94.58,15.61 C94.4431705,15.5532403 94.3475989,15.4270859 94.33,15.28 L90,5.28 C89.73,4.66 89.53,4.68 89.31,4.68 C88.66,4.68 87.93,4.76 87.48,4.76 C86.85,4.76 86.55,4.68 86.3,4.68 C86.1596068,4.7045573 86.0578684,4.82749117 86.06,4.97 C86.06,5.89 88.17,4.91 88.06,8.34 L87.79,16.7 C87.71,18.89 86.09,18.36 86.09,19.11 C86.0935617,19.2024043 86.1381898,19.2883941 86.2117012,19.3444949 C86.2852127,19.4005958 86.3799314,19.4209496 86.47,19.4 C86.76,19.4 87.47,19.32 88.42,19.32 C89.37,19.32 89.74,19.4 90.42,19.4 C90.97,19.4 90.89,19.15 90.89,19.07 C90.89,18.22 88.73,19.42 88.89,15.87 L89.09,10.04 L89.09,10.04 L89.07,10.03 Z" id="Shape" sketch:type="MSShapeGroup"></path>
            <path d="M109.1,16.67 C109.1,19.15 106.87,18.15 106.87,18.96 C106.87,19.42 107.21,19.4 107.56,19.4 C108.35,19.4 109,19.32 110.32,19.32 C111.64,19.32 112.32,19.4 113.07,19.4 C113.64,19.4 114.07,19.46 114.07,18.96 C114.07,18.46 111.55,18.96 111.55,16.42 L111.55,7.01 C111.55,6.01 111.75,5.91 112.55,5.91 L114.18,5.91 C116.44,5.83 115.81,8.14 116.6,8.14 C117.12,8.14 116.89,7.33 116.85,7.08 L116.64,5.16 C116.64,4.95 116.64,4.66 116.32,4.66 C114.49,4.66 113.17,4.74 110.32,4.74 C107.47,4.74 106.13,4.66 104.32,4.66 C104.02,4.66 104.02,4.95 104.01,5.16 L103.7,7.91 C103.7,8.18 103.54,8.64 103.95,8.64 C104.84,8.64 104.25,5.91 106.47,5.91 L108.12,5.91 C108.93,5.91 109.12,6.01 109.12,7.01 L109.12,16.66 L109.12,16.66 L109.1,16.67 Z" id="Shape" sketch:type="MSShapeGroup"></path>
            <path d="M117.18,12.51 C117.18,16.73 119.84,19.51 123.79,19.51 C130.07,19.51 131.27,14.41 131.27,11.51 C131.27,7.1 128.34,4.42 124.5,4.46 C119.79,4.46 117.18,7.93 117.18,12.46 L117.18,12.46 L117.18,12.51 Z M119.6,11.32 C119.6,8.32 120.6,5.43 123.91,5.32 C126.45,5.32 128.85,7.69 128.85,12.32 C128.85,15.77 127.75,18.56 124.36,18.62 C120.97,18.68 119.6,14.33 119.6,11.3 L119.6,11.3 L119.6,11.32 Z" id="Shape" sketch:type="MSShapeGroup"></path>
            <path d="M133.69,16.57 C133.69,18.69 131.8,18.32 131.8,19.15 C131.8,19.5 132.19,19.4 132.41,19.4 C132.94,19.4 133.47,19.32 134.1,19.32 C134.73,19.32 135.46,19.4 136.42,19.4 C136.67,19.4 137.17,19.4 137.17,19.13 C137.17,18.13 134.65,19.57 134.65,15.57 L134.65,8.49 C134.65,8.3 134.65,8.16 134.81,8.16 C134.960025,8.20083117 135.088795,8.29740916 135.17,8.43 L144.64,19.25 C144.746484,19.4303285 144.94058,19.5406966 145.15,19.54 C145.39,19.54 145.39,19.37 145.39,18.92 L145.39,7.24 C145.39,5.06 147.06,5.55 147.06,4.93 C147.06,4.87 147.06,4.66 146.69,4.66 C146.51,4.66 145.82,4.74 144.58,4.74 C143.34,4.74 142.65,4.66 142.34,4.66 C142.250359,4.6592502 142.164782,4.6973416 142.105345,4.76444823 C142.045907,4.83155486 142.01843,4.92110554 142.03,5.01 C142.03,5.7 144.43,5.32 144.43,7.22 L144.43,14.15 C144.43,14.67 144.43,14.92 144.27,14.92 C144.025206,14.7931166 143.815638,14.6075966 143.66,14.38 L135.75,5.21 C135.39,4.81 135.63,4.67 135,4.67 C134,4.67 133.45,4.75 132.93,4.75 C132.41,4.75 132.2,4.67 131.83,4.67 C131.737944,4.66671016 131.648935,4.70324987 131.585743,4.77027173 C131.522551,4.83729359 131.491305,4.9282963 131.5,5.02 C131.5,6.02 133.7,4.67 133.7,8.66 L133.7,16.57 L133.7,16.57 L133.69,16.57 Z" id="Shape" sketch:type="MSShapeGroup"></path>
            <path d="M11.08,45.82 C11.0746013,45.3638586 10.7061414,44.9953987 10.25,44.99 C10.0502274,44.9636636 9.84892426,45.0259693 9.69895862,45.1605539 C9.54899298,45.2951384 9.46535119,45.4885525 9.47,45.69 C9.49358488,46.0386927 9.75488487,46.3248784 10.1,46.38 L10.65,46.59 C11.213594,46.7156949 11.6232451,47.2031797 11.65,47.78 C11.6410054,48.1302657 11.4854157,48.4606761 11.221139,48.6907299 C10.9568623,48.9207838 10.6081636,49.0293582 10.26,48.99 C9.89770143,49.0266988 9.53676851,48.9085613 9.26628558,48.6647457 C8.99580266,48.4209301 8.84096894,48.0741512 8.84,47.71 L9.39,47.71 C9.38818967,47.9406927 9.48605712,48.1609366 9.6584843,48.3142052 C9.83091148,48.4674738 10.0611105,48.5388446 10.29,48.51 C10.4880413,48.5294036 10.6855518,48.4682303 10.8379561,48.3402859 C10.9903604,48.2123415 11.084814,48.0284092 11.1,47.83 C11.0512239,47.4745287 10.7820493,47.1892839 10.43,47.12 L9.88,46.9 C9.2767683,46.745084 8.88966242,46.1575668 8.98533598,45.5421531 C9.08100954,44.9267394 9.62820811,44.4844712 10.25,44.52 C10.6050219,44.5032327 10.9510317,44.6348332 11.2051788,44.8832904 C11.4593259,45.1317476 11.5987258,45.4746895 11.59,45.83 L11.08,45.83 L11.08,45.82 Z" id="Shape" sketch:type="MSShapeGroup"></path>
            <path d="M14.26,45.09 L13.18,45.09 L13.18,44.57 L15.9,44.57 L15.9,45.09 L14.82,45.09 L14.82,48.91 L14.27,48.91 L14.27,45.09 L14.26,45.09 Z" id="Shape" sketch:type="MSShapeGroup"></path>
            <path d="M19.9,47.9 L17.9,47.9 L17.51,48.9 L16.91,48.9 L18.67,44.56 L19.15,44.56 L20.91,48.9 L20.31,48.9 L19.9,47.9 Z M18.9,45.29 L18.08,47.42 L19.72,47.42 L18.9,45.29 Z" id="Shape" sketch:type="MSShapeGroup"></path>
            <path d="M22.97,45.09 L21.89,45.09 L21.89,44.57 L24.6,44.57 L24.6,45.09 L23.52,45.09 L23.52,48.91 L22.97,48.91 L22.97,45.09 L22.97,45.09 Z" id="Shape" sketch:type="MSShapeGroup"></path>
            <path d="M26.7,44.57 L28.94,44.57 L28.94,45.09 L27.25,45.09 L27.25,46.46 L28.94,46.46 L28.94,46.97 L27.25,46.97 L27.25,48.39 L28.94,48.39 L28.94,48.9 L26.7,48.9 L26.7,44.57 L26.7,44.57 Z" id="Shape" sketch:type="MSShapeGroup"></path>
            <path d="M34.89,44.57 L35.44,44.57 L35.44,47.17 C35.3809148,47.6170649 35.5862801,48.0578567 35.966569,48.3002168 C36.3468579,48.5425769 36.8331421,48.5425769 37.213431,48.3002168 C37.5937199,48.0578567 37.7990852,47.6170649 37.74,47.17 L37.74,44.57 L38.29,44.57 L38.29,47.33 C38.2899998,48.268884 37.528884,49.0299997 36.59,49.0299997 C35.651116,49.0299997 34.8900002,48.268884 34.89,47.33 L34.89,44.57 L34.89,44.57 Z" id="Shape" sketch:type="MSShapeGroup"></path>
            <path d="M43.18,44.57 L43.73,44.57 L43.73,48.91 L43.18,48.91 L40.84,45.57 L40.84,45.57 L40.84,48.92 L40.28,48.92 L40.28,44.57 L40.79,44.57 L43.12,47.93 L43.12,47.93 L43.12,44.57 L43.18,44.57 Z" id="Shape" sketch:type="MSShapeGroup"></path>
            <path d="M46.04,44.57 L46.59,44.57 L46.59,48.91 L46.04,48.91 L46.04,44.57 L46.04,44.57 Z" id="Shape" sketch:type="MSShapeGroup"></path>
            <path d="M51.74,44.57 L52.32,44.57 L50.72,48.91 L50.26,48.91 L48.66,44.57 L49.24,44.57 L50.48,48.03 L50.48,48.03 L51.74,44.57 Z" id="Shape" sketch:type="MSShapeGroup"></path>
            <path d="M54.04,44.57 L56.28,44.57 L56.28,45.09 L54.59,45.09 L54.59,46.46 L56.28,46.46 L56.28,46.97 L54.59,46.97 L54.59,48.39 L56.28,48.39 L56.28,48.9 L54.04,48.9 L54.04,44.57 L54.04,44.57 Z" id="Shape" sketch:type="MSShapeGroup"></path>
            <path d="M59.09,47.06 L59.09,48.91 L58.54,48.91 L58.54,44.57 L59.79,44.57 C60.2759587,44.5100901 60.7547627,44.7261894 61.0313186,45.1302461 C61.3078746,45.5343029 61.3360118,46.0588603 61.1042654,46.4901823 C60.8725191,46.9215043 60.4195789,47.1875822 59.93,47.18 L61.62,48.91 L60.85,48.91 L59.09,47.06 Z M59.09,46.72 L59.57,46.72 C60.41,46.72 60.7,46.35 60.7,45.88 C60.7076455,45.6405793 60.6102175,45.4097864 60.4333186,45.2482701 C60.2564198,45.0867537 60.0177398,45.0106654 59.78,45.04 L59.09,45.04 L59.09,46.71 L59.09,46.72 Z" id="Shape" sketch:type="MSShapeGroup"></path>
            <path d="M65.34,45.82 C65.3346013,45.3638586 64.9661414,44.9953987 64.51,44.99 C64.3102274,44.9636636 64.1089243,45.0259693 63.9589586,45.1605539 C63.808993,45.2951384 63.7253512,45.4885525 63.73,45.69 C63.7571234,46.03717 64.0167223,46.3214926 64.36,46.38 L64.91,46.59 C65.473594,46.7156949 65.8832451,47.2031797 65.91,47.78 C65.9010054,48.1302657 65.7454157,48.4606761 65.481139,48.6907299 C65.2168623,48.9207838 64.8681636,49.0293582 64.52,48.99 C64.1593365,49.0236983 63.8011229,48.9042055 63.5329191,48.6607297 C63.2647153,48.4172539 63.1112371,48.0722323 63.11,47.71 L63.66,47.71 C63.6581897,47.9406927 63.7560571,48.1609366 63.9284843,48.3142052 C64.1009115,48.4674738 64.3311105,48.5388446 64.56,48.51 C64.7596617,48.5322835 64.9598024,48.4724295 65.1144478,48.344187 C65.2690932,48.2159445 65.3649503,48.0303368 65.38,47.83 C65.3312239,47.4745287 65.0620493,47.1892839 64.71,47.12 L64.16,46.9 C63.5567683,46.745084 63.1696624,46.1575668 63.265336,45.5421531 C63.3610095,44.9267394 63.9082081,44.4844712 64.53,44.52 C64.8850219,44.5032327 65.2310317,44.6348332 65.4851788,44.8832904 C65.7393259,45.1317476 65.8787258,45.4746895 65.87,45.83 L65.36,45.83 L65.34,45.82 Z" id="Shape" sketch:type="MSShapeGroup"></path>
            <path d="M68.1,44.57 L68.65,44.57 L68.65,48.91 L68.1,48.91 L68.1,44.57 L68.1,44.57 Z" id="Shape" sketch:type="MSShapeGroup"></path>
            <path d="M71.6,45.09 L70.52,45.09 L70.52,44.57 L73.18,44.57 L73.18,45.09 L72.18,45.09 L72.18,48.91 L71.63,48.91 L71.63,45.09 L71.6,45.09 Z" id="Shape" sketch:type="MSShapeGroup"></path>
            <path d="M77.42,44.57 L78.06,44.57 L76.6,47.18 L76.6,48.91 L76.05,48.91 L76.05,47.18 L74.58,44.57 L75.18,44.57 L76.28,46.57 L77.42,44.57 Z" id="Shape" sketch:type="MSShapeGroup"></path>
            <path d="M86.31,44.51 C87.5357463,44.5538049 88.4983216,45.5752475 88.4693757,46.8014347 C88.4404297,48.0276219 87.4307283,49.0025061 86.2042803,48.9884233 C84.9778323,48.9743405 83.9907825,47.9765286 83.99,46.75 C83.989612,46.1417908 84.2365612,45.5595705 84.6741078,45.1371117 C85.1116545,44.7146528 85.7021787,44.4882781 86.31,44.51 L86.31,44.51 Z M86.31,48.51 C87.2599298,48.51 88.03,47.7399298 88.03,46.79 C88.03,45.8400702 87.2599298,45.07 86.31,45.07 C85.3600702,45.07 84.59,45.8400702 84.59,46.79 C84.6064168,47.7265757 85.3732973,48.4756218 86.31,48.47 L86.31,48.51 Z" id="Shape" sketch:type="MSShapeGroup"></path>
            <path d="M90.56,44.57 L92.8,44.57 L92.8,45.09 L91.1,45.09 L91.1,46.46 L92.8,46.46 L92.8,46.97 L91.1,46.97 L91.1,48.9 L90.55,48.9 L90.55,44.57 L90.56,44.57 Z" id="Shape" sketch:type="MSShapeGroup"></path>
            <path d="M102.18,44.57 L102.73,44.57 L102.73,48.91 L102.18,48.91 L99.85,45.57 L99.85,45.57 L99.85,48.92 L99.3,48.92 L99.3,44.57 L99.81,44.57 L102.14,47.93 L102.14,47.93 L102.14,44.57 L102.18,44.57 Z" id="Shape" sketch:type="MSShapeGroup"></path>
            <path d="M104.87,44.57 L107.11,44.57 L107.11,45.09 L105.41,45.09 L105.41,46.46 L107.11,46.46 L107.11,46.97 L105.41,46.97 L105.41,48.39 L107.11,48.39 L107.11,48.9 L104.87,48.9 L104.87,44.57 L104.87,44.57 Z" id="Shape" sketch:type="MSShapeGroup"></path>
            <path d="M113.86,44.57 L114.44,44.57 L113.1,48.91 L112.68,48.91 L111.68,45.48 L111.68,45.48 L110.68,48.91 L110.18,48.91 L108.83,44.57 L109.41,44.57 L110.41,47.86 L110.41,47.86 L111.41,44.57 L111.92,44.57 L112.92,47.87 L112.92,47.87 L113.86,44.57 Z" id="Shape" sketch:type="MSShapeGroup"></path>
            <path d="M123.02,44.57 L123.66,44.57 L122.18,47.18 L122.18,48.91 L121.63,48.91 L121.63,47.18 L120.18,44.57 L120.82,44.57 L121.92,46.57 L123.02,44.57 Z" id="Shape" sketch:type="MSShapeGroup"></path>
            <path d="M127.05,44.51 C128.278768,44.5429253 129.251452,45.5599154 129.229647,46.7889312 C129.207843,48.0179469 128.199696,48.999794 126.970533,48.9891117 C125.741371,48.9784294 124.750441,47.9792091 124.75,46.75 C124.749783,46.1453718 124.994001,45.566334 125.42715,45.1444844 C125.860299,44.7226347 126.445589,44.4938046 127.05,44.51 L127.05,44.51 Z M127.05,48.51 C127.99993,48.51 128.77,47.7399298 128.77,46.79 C128.77,45.8400702 127.99993,45.07 127.05,45.07 C126.10007,45.07 125.33,45.8400702 125.33,46.79 C125.346417,47.7265757 126.113297,48.4756218 127.05,48.47 L127.05,48.51 Z" id="Shape" sketch:type="MSShapeGroup"></path>
            <path d="M131.85,47.06 L131.85,48.91 L131.3,48.91 L131.3,44.57 L132.55,44.57 C133.035959,44.5100901 133.514763,44.7261894 133.791319,45.1302461 C134.067875,45.5343029 134.096012,46.0588603 133.864265,46.4901823 C133.632519,46.9215043 133.179579,47.1875822 132.69,47.18 L134.38,48.91 L133.61,48.91 L131.85,47.06 Z M131.85,46.72 L132.33,46.72 C133.17,46.72 133.46,46.35 133.46,45.88 C133.467645,45.6405793 133.370217,45.4097864 133.193319,45.2482701 C133.01642,45.0867537 132.77774,45.0106654 132.54,45.04 L131.85,45.04 L131.85,46.71 L131.85,46.72 Z" id="Shape" sketch:type="MSShapeGroup"></path>
            <path d="M138.65,44.57 L139.35,44.57 L137.4,46.69 L139.4,48.91 L138.61,48.91 L136.88,46.91 L136.88,48.91 L136.33,48.91 L136.33,44.57 L136.88,44.57 L136.88,46.57 L138.65,44.57 Z" id="Shape" sketch:type="MSShapeGroup"></path>
        </g>
    </g>
</svg>