<?xml version="1.0" encoding="UTF-8" standalone="no"?>
<svg width="327px" height="50px" viewBox="0 0 327 50" version="1.1" xmlns="http://www.w3.org/2000/svg" xmlns:xlink="http://www.w3.org/1999/xlink" xmlns:sketch="http://www.bohemiancoding.com/sketch/ns">
    <!-- Generator: Sketch 3.4.4 (17249) - http://www.bohemiancoding.com/sketch -->
    <title>Slice 1</title>
    <desc>Created with Sketch.</desc>
    <defs></defs>
    <g id="Page-1" stroke="none" stroke-width="1" fill="none" fill-rule="evenodd" sketch:type="MSPage">
        <g id="bu-ccpd" sketch:type="MSLayerGroup" fill="#353C47">
            <g id="Group" sketch:type="MSShapeGroup">
                <g transform="translate(169.000000, 12.000000)" id="Shape">
                    <path d="M2.3,1.7 L2.3,4.8 L6,4.8 L6,5.6 L2.3,5.6 L2.3,9.4 L1.4,9.4 L1.4,0.9 L6.7,0.9 L6.7,1.7 L2.3,1.7 L2.3,1.7 Z"></path>
                    <path d="M9.5,9.4 C9,9.4 8.6,9.2 8.4,8.9 C8.2,8.6 8,8.2 8,7.8 L8,0.8 L8.9,0.8 L8.9,7.7 C8.9,8 9,8.2 9.1,8.3 C9.2,8.4 9.4,8.5 9.7,8.5 L10.2,8.5 L10.2,9.2 L9.5,9.2 L9.5,9.4 Z"></path>
                    <path d="M11.7,6.7 C11.7,7.3 11.8,7.8 12.1,8.2 C12.4,8.6 12.8,8.7 13.4,8.7 C13.7,8.7 14,8.6 14.3,8.5 C14.5,8.4 14.8,8.2 15,8 L15.6,8.5 C15.4,8.7 15.3,8.8 15.1,8.9 C15,9 14.8,9.1 14.6,9.2 C14.4,9.3 14.2,9.3 14,9.4 C13.8,9.4 13.6,9.5 13.3,9.5 C12.9,9.5 12.6,9.4 12.2,9.3 C11.9,9.2 11.6,9 11.4,8.7 C11.2,8.4 11,8.1 10.9,7.8 C10.8,7.5 10.7,7 10.7,6.4 C10.7,5.4 10.9,4.7 11.3,4.2 C11.7,3.7 12.3,3.4 13.1,3.4 C13.9,3.4 14.5,3.7 14.9,4.2 C15.3,4.7 15.5,5.4 15.5,6.3 L15.5,6.7 L11.7,6.7 L11.7,6.7 Z M14.8,5.7 L14.8,5.5 L14.8,5.3 C14.8,5.2 14.8,5.2 14.7,5.1 C14.6,4.8 14.4,4.6 14.2,4.5 C14,4.4 13.7,4.3 13.4,4.3 C13.1,4.3 12.8,4.4 12.6,4.5 C12.4,4.6 12.2,4.9 12.1,5.1 C12,5.3 12,5.4 12,5.5 L12,6.1 L15.1,6.1 C14.8,5.9 14.8,5.8 14.8,5.7 L14.8,5.7 Z"></path>
                    <path d="M17.4,1.8 L17.4,0.8 L18.4,0.8 L18.4,1.8 L17.4,1.8 L17.4,1.8 Z M17.4,9.4 L17.4,3.5 L18.3,3.5 L18.3,9.4 L17.4,9.4 L17.4,9.4 Z"></path>
                    <path d="M24.4,8.5 C24.3,8.7 24.1,8.9 23.9,9.1 C23.7,9.3 23.4,9.4 23.1,9.5 C22.8,9.6 22.5,9.6 22.1,9.6 C21.6,9.6 21.1,9.5 20.8,9.4 C20.4,9.3 20,9.1 19.7,8.7 L20.3,8.1 C20.5,8.3 20.8,8.5 21.1,8.6 C21.4,8.7 21.8,8.8 22.1,8.8 C22.6,8.8 23,8.7 23.3,8.5 C23.6,8.3 23.7,8.1 23.7,7.7 C23.7,7.4 23.6,7.2 23.5,7.1 C23.3,7 23.1,6.9 22.7,6.8 L21.7,6.7 C21.1,6.7 20.7,6.5 20.4,6.2 C20.1,5.9 19.9,5.6 19.9,5.1 C19.9,4.8 20,4.6 20.1,4.4 C20.2,4.2 20.4,4 20.5,3.9 C20.7,3.8 20.9,3.6 21.2,3.6 C21.5,3.5 21.8,3.5 22.1,3.5 C22.5,3.5 22.9,3.6 23.3,3.7 C23.7,3.8 24,4 24.2,4.2 L23.6,4.8 C23.4,4.6 23.2,4.5 22.9,4.4 C22.6,4.3 22.3,4.3 22,4.3 C21.6,4.3 21.2,4.4 21,4.6 C20.8,4.8 20.7,5 20.7,5.3 C20.7,5.6 20.8,5.8 20.9,5.9 C21.1,6 21.3,6.1 21.7,6.2 L22.6,6.3 C22.9,6.3 23.1,6.4 23.3,6.4 C23.5,6.5 23.7,6.6 23.9,6.7 C24.1,6.8 24.2,7 24.3,7.2 C24.4,7.4 24.4,7.6 24.4,7.9 C24.6,8 24.5,8.2 24.4,8.5 L24.4,8.5 Z"></path>
                    <path d="M29.9,9.4 L29.9,5.8 C29.9,5.3 29.8,4.9 29.5,4.6 C29.2,4.3 28.9,4.2 28.4,4.2 C27.9,4.2 27.6,4.3 27.3,4.6 C27,4.9 26.9,5.3 26.9,5.8 L26.9,9.4 L26,9.4 L26,0.9 L26.9,0.9 L26.9,4.2 C27.3,3.7 27.9,3.5 28.6,3.5 C29.3,3.5 29.8,3.7 30.2,4.1 C30.6,4.5 30.8,5 30.8,5.7 L30.8,9.5 L29.9,9.5 L29.9,9.4 Z"></path>
                    <path d="M40.4,9.4 L40.4,5.8 C40.4,5.3 40.3,4.9 40,4.6 C39.7,4.3 39.4,4.2 38.9,4.2 C38.5,4.2 38.1,4.3 37.8,4.6 C37.5,4.9 37.4,5.2 37.4,5.7 L37.4,9.4 L36.5,9.4 L36.5,5.8 C36.5,5.3 36.4,4.9 36.1,4.6 C35.8,4.3 35.5,4.2 35,4.2 C34.5,4.2 34.2,4.3 33.9,4.6 C33.6,4.9 33.5,5.3 33.5,5.8 L33.5,9.4 L32.6,9.4 L32.6,3.5 L33.5,3.5 L33.5,4.1 C33.7,3.9 34,3.7 34.2,3.6 C34.4,3.5 34.8,3.4 35.1,3.4 C35.5,3.4 35.9,3.5 36.2,3.6 C36.5,3.8 36.8,4 36.9,4.3 C37.4,3.6 38,3.3 38.8,3.3 C39.1,3.3 39.4,3.3 39.7,3.4 C40,3.5 40.2,3.6 40.4,3.8 C40.8,4.2 41,4.8 41,5.4 L41,9.2 L40.4,9.2 L40.4,9.4 Z"></path>
                    <path d="M46.6,9.4 L46.6,8.8 C46.4,9 46.1,9.2 45.9,9.3 C45.7,9.4 45.3,9.4 44.9,9.4 C44.5,9.4 44.2,9.4 43.9,9.3 C43.6,9.2 43.4,9.1 43.2,8.9 C43.1,8.8 42.9,8.6 42.9,8.4 C42.9,8.2 42.8,8 42.8,7.7 C42.8,7.2 43,6.8 43.3,6.5 C43.6,6.2 44.2,6 44.8,6 L46.6,6 L46.6,5.4 C46.6,5 46.5,4.6 46.3,4.4 C46.1,4.2 45.7,4.1 45.1,4.1 C44.7,4.1 44.4,4.2 44.2,4.3 C44,4.4 43.8,4.6 43.6,4.8 L43,4.3 C43.3,4 43.6,3.7 43.9,3.6 C44.2,3.5 44.6,3.4 45.1,3.4 C45.9,3.4 46.5,3.6 46.9,3.9 C47.3,4.2 47.5,4.7 47.5,5.4 L47.5,9.4 L46.6,9.4 L46.6,9.4 Z M46.6,6.7 L44.9,6.7 C44,6.7 43.6,7 43.6,7.7 C43.6,8 43.7,8.3 43.9,8.5 C44.1,8.7 44.5,8.7 44.9,8.7 C45.2,8.7 45.4,8.7 45.6,8.6 C45.8,8.6 46,8.4 46.2,8.3 C46.4,8.1 46.5,7.8 46.5,7.3 L46.5,6.7 L46.6,6.7 Z"></path>
                    <path d="M53.2,9.4 L53.2,5.8 C53.2,5.3 53.1,4.9 52.8,4.6 C52.5,4.3 52.2,4.2 51.7,4.2 C51.3,4.2 50.9,4.3 50.6,4.6 C50.3,4.9 50.2,5.3 50.2,5.8 L50.2,9.4 L49.3,9.4 L49.3,3.5 L50.2,3.5 L50.2,4.1 C50.4,3.9 50.7,3.7 50.9,3.6 C51.1,3.5 51.5,3.4 51.8,3.4 C52.4,3.4 52.9,3.6 53.3,4 C53.7,4.4 53.9,4.9 53.9,5.6 L53.9,9.4 L53.2,9.4 L53.2,9.4 Z"></path>
                    <path d="M64.3,8 C64.1,8.3 63.9,8.6 63.7,8.8 C63.4,9 63.1,9.2 62.8,9.3 C62.5,9.4 62.1,9.5 61.7,9.5 C61.3,9.5 60.9,9.4 60.5,9.3 C60.1,9.1 59.8,8.9 59.5,8.6 C59.3,8.4 59.1,8.2 59,8 C58.9,7.8 58.8,7.5 58.8,7.3 C58.7,7 58.7,6.7 58.7,6.4 L58.7,5.2 L58.7,4 C58.7,3.7 58.7,3.4 58.8,3.1 C58.9,2.8 58.9,2.6 59,2.4 C59.1,2.2 59.3,2 59.5,1.8 C59.8,1.5 60.1,1.3 60.5,1.1 C60.9,0.9 61.3,0.9 61.7,0.9 C62.1,0.9 62.4,1 62.8,1.1 C63.1,1.2 63.4,1.4 63.7,1.6 C64,1.8 64.2,2.1 64.3,2.4 C64.5,2.7 64.6,3.1 64.7,3.5 L63.8,3.5 C63.7,3 63.5,2.6 63.1,2.2 C62.7,1.9 62.3,1.7 61.8,1.7 C61.5,1.7 61.2,1.8 61,1.9 C60.7,2 60.5,2.2 60.3,2.3 C60.2,2.4 60.1,2.6 60,2.7 C59.9,2.9 59.9,3 59.8,3.3 C59.8,3.5 59.7,3.8 59.7,4.1 L59.7,5.2 L59.7,6.3 C59.7,6.6 59.7,6.9 59.8,7.1 C59.8,7.3 59.9,7.5 60,7.7 C60.1,7.9 60.2,8 60.3,8.1 C60.5,8.3 60.7,8.4 61,8.5 C61.3,8.6 61.5,8.7 61.8,8.7 C62.3,8.7 62.8,8.5 63.1,8.2 C63.5,7.9 63.7,7.5 63.8,6.9 L64.7,6.9 C64.6,7.3 64.5,7.7 64.3,8 L64.3,8 Z"></path>
                    <path d="M67,6.7 C67,7.3 67.1,7.8 67.4,8.2 C67.7,8.6 68.1,8.7 68.7,8.7 C69,8.7 69.3,8.6 69.6,8.5 C69.8,8.4 70.1,8.2 70.3,8 L70.9,8.5 C70.7,8.7 70.6,8.8 70.4,8.9 C70.3,9 70.1,9.1 69.9,9.2 C69.7,9.3 69.5,9.3 69.3,9.4 C69.1,9.4 68.9,9.5 68.6,9.5 C68.2,9.5 67.9,9.4 67.5,9.3 C67.2,9.2 66.9,9 66.7,8.7 C66.5,8.4 66.3,8.1 66.2,7.8 C66.1,7.5 66,7 66,6.4 C66,5.4 66.2,4.7 66.6,4.2 C67,3.7 67.6,3.4 68.4,3.4 C69.2,3.4 69.8,3.7 70.2,4.2 C70.6,4.7 70.8,5.4 70.8,6.3 L70.8,6.7 L67,6.7 L67,6.7 Z M70.1,5.7 L70.1,5.5 L70.1,5.3 C70.1,5.2 70.1,5.2 70,5.1 C69.9,4.8 69.7,4.6 69.5,4.5 C69.3,4.4 69,4.3 68.7,4.3 C68.4,4.3 68.1,4.4 67.9,4.5 C67.7,4.6 67.5,4.9 67.4,5.1 C67.3,5.3 67.3,5.4 67.3,5.5 L67.3,6.1 L70.4,6.1 C70.1,5.9 70.1,5.8 70.1,5.7 L70.1,5.7 Z"></path>
                    <path d="M76.4,9.4 L76.4,5.8 C76.4,5.3 76.3,4.9 76,4.6 C75.7,4.3 75.4,4.2 74.9,4.2 C74.5,4.2 74.1,4.3 73.8,4.6 C73.5,4.9 73.4,5.3 73.4,5.8 L73.4,9.4 L72.5,9.4 L72.5,3.5 L73.4,3.5 L73.4,4.1 C73.6,3.9 73.9,3.7 74.1,3.6 C74.3,3.5 74.7,3.4 75,3.4 C75.6,3.4 76.1,3.6 76.5,4 C76.9,4.4 77.1,4.9 77.1,5.6 L77.1,9.4 L76.4,9.4 L76.4,9.4 Z"></path>
                    <path d="M80.9,9.4 C80.6,9.4 80.4,9.4 80.2,9.3 C80,9.2 79.9,9.1 79.7,9 C79.6,8.9 79.5,8.7 79.4,8.5 C79.3,8.3 79.3,8.1 79.3,7.9 L79.3,4.3 L78.6,4.3 L78.6,3.6 L79.3,3.6 L79.3,1.8 L80.2,1.8 L80.2,3.6 L81.5,3.6 L81.5,4.3 L80.2,4.3 L80.2,7.9 C80.2,8.2 80.3,8.4 80.4,8.5 C80.5,8.7 80.7,8.7 81,8.7 L81.5,8.7 L81.5,9.4 L80.9,9.4 L80.9,9.4 Z"></path>
                    <path d="M83.6,6.7 C83.6,7.3 83.7,7.8 84,8.2 C84.3,8.6 84.7,8.7 85.3,8.7 C85.6,8.7 85.9,8.6 86.2,8.5 C86.4,8.4 86.7,8.2 86.9,8 L87.5,8.5 C87.3,8.7 87.2,8.8 87,8.9 C86.9,9 86.7,9.1 86.5,9.2 C86.3,9.3 86.1,9.3 85.9,9.4 C85.7,9.4 85.5,9.5 85.2,9.5 C84.8,9.5 84.5,9.4 84.1,9.3 C83.8,9.2 83.5,9 83.3,8.7 C83.1,8.4 82.9,8.1 82.8,7.8 C82.7,7.5 82.6,7 82.6,6.4 C82.6,5.4 82.8,4.7 83.2,4.2 C83.6,3.7 84.2,3.4 85,3.4 C85.8,3.4 86.4,3.7 86.8,4.2 C87.2,4.7 87.4,5.4 87.4,6.3 L87.4,6.7 L83.6,6.7 L83.6,6.7 Z M86.7,5.7 L86.7,5.5 L86.7,5.3 C86.7,5.2 86.7,5.2 86.6,5.1 C86.5,4.8 86.3,4.6 86.1,4.5 C85.9,4.4 85.6,4.3 85.3,4.3 C85,4.3 84.7,4.4 84.5,4.5 C84.3,4.6 84.1,4.9 84,5.1 C83.9,5.3 83.9,5.4 83.9,5.5 L83.9,6.1 L87,6.1 C86.7,5.9 86.7,5.8 86.7,5.7 L86.7,5.7 Z"></path>
                    <path d="M92.6,4.6 C92.4,4.4 92.3,4.3 92.1,4.3 C92,4.2 91.8,4.2 91.5,4.2 C91.3,4.2 91.1,4.2 90.9,4.3 C90.7,4.4 90.6,4.5 90.5,4.6 C90.4,4.7 90.3,4.9 90.2,5.1 C90.1,5.3 90.1,5.5 90.1,5.7 L90.1,9.3 L89.2,9.3 L89.2,3.4 L90.1,3.4 L90.1,4.1 C90.3,3.9 90.5,3.7 90.8,3.5 C91.1,3.4 91.4,3.3 91.8,3.3 C92.1,3.3 92.3,3.3 92.6,3.4 C92.8,3.5 93,3.6 93.3,3.8 L92.6,4.6 L92.6,4.6 Z"></path>
                    <path d="M98.1,4.2 L98.1,9.4 L97.2,9.4 L97.2,4.2 L96.4,4.2 L96.4,3.5 L97.2,3.5 L97.2,2.4 C97.2,2.2 97.2,2 97.3,1.8 C97.4,1.6 97.5,1.4 97.6,1.3 C97.7,1.2 97.9,1 98.1,1 C98.3,0.9 98.5,0.9 98.8,0.9 L99.4,0.9 L99.4,1.6 L98.9,1.6 C98.6,1.6 98.4,1.7 98.3,1.8 C98.2,2 98.1,2.2 98.1,2.4 L98.1,3.5 L99.4,3.5 L99.4,4.2 L98.1,4.2 L98.1,4.2 Z"></path>
                    <path d="M104.9,7.8 C104.8,8.2 104.6,8.6 104.3,8.9 C104.1,9.1 103.8,9.3 103.6,9.4 C103.3,9.5 103,9.6 102.6,9.6 C102.2,9.6 101.9,9.5 101.6,9.4 C101.3,9.3 101.1,9.1 100.9,8.9 C100.7,8.7 100.6,8.6 100.5,8.4 C100.4,8.2 100.3,8 100.3,7.8 C100.2,7.6 100.2,7.4 100.2,7.2 L100.2,6.5 L100.2,5.8 C100.2,5.6 100.3,5.4 100.3,5.2 C100.4,5 100.4,4.8 100.5,4.6 C100.6,4.4 100.7,4.3 100.9,4.1 C101.1,3.9 101.4,3.7 101.6,3.6 C101.8,3.5 102.2,3.4 102.6,3.4 C103,3.4 103.3,3.5 103.6,3.6 C103.9,3.7 104.1,3.9 104.3,4.1 C104.6,4.4 104.8,4.8 104.9,5.2 C105,5.6 105,6 105,6.5 C105,7 105,7.4 104.9,7.8 L104.9,7.8 Z M104.1,6 C104.1,5.8 104.1,5.7 104,5.5 C104,5.3 103.9,5.2 103.9,5 C103.8,4.9 103.8,4.7 103.6,4.6 C103.3,4.3 103,4.2 102.5,4.2 C102.1,4.2 101.7,4.3 101.4,4.6 C101.3,4.7 101.2,4.8 101.1,5 C101,5.1 101,5.3 101,5.5 C101,5.7 100.9,5.8 100.9,6 L100.9,6.5 L100.9,7 C100.9,7.2 100.9,7.3 101,7.5 C101.1,7.7 101.1,7.8 101.1,8 C101.2,8.1 101.2,8.3 101.4,8.4 C101.7,8.7 102,8.8 102.5,8.8 C102.9,8.8 103.3,8.7 103.6,8.4 C103.7,8.3 103.8,8.2 103.9,8 C104,7.9 104,7.7 104,7.5 C104,7.3 104.1,7.2 104.1,7 L104.1,6.5 L104.1,6 L104.1,6 Z"></path>
                    <path d="M110,4.6 C109.8,4.4 109.7,4.3 109.5,4.3 C109.4,4.2 109.2,4.2 108.9,4.2 C108.7,4.2 108.5,4.2 108.3,4.3 C108.1,4.4 108,4.5 107.9,4.6 C107.8,4.7 107.7,4.9 107.6,5.1 C107.5,5.3 107.5,5.5 107.5,5.7 L107.5,9.3 L106.6,9.3 L106.6,3.4 L107.5,3.4 L107.5,4.1 C107.7,3.9 107.9,3.7 108.2,3.5 C108.5,3.4 108.8,3.3 109.2,3.3 C109.5,3.3 109.7,3.3 110,3.4 C110.2,3.5 110.4,3.6 110.7,3.8 L110,4.6 L110,4.6 Z"></path>
                    <path d="M120,8 C119.8,8.3 119.6,8.6 119.4,8.8 C119.1,9 118.8,9.2 118.5,9.3 C118.2,9.4 117.8,9.5 117.4,9.5 C117,9.5 116.6,9.4 116.2,9.3 C115.8,9.1 115.5,8.9 115.2,8.6 C115,8.4 114.8,8.2 114.7,8 C114.6,7.8 114.5,7.5 114.5,7.3 C114.4,7 114.4,6.7 114.4,6.4 L114.4,5.2 L114.4,4 C114.4,3.7 114.4,3.4 114.5,3.1 C114.6,2.8 114.6,2.6 114.7,2.4 C114.8,2.2 115,2 115.2,1.8 C115.5,1.5 115.8,1.3 116.2,1.1 C116.6,0.9 117,0.9 117.4,0.9 C117.8,0.9 118.1,1 118.5,1.1 C118.8,1.2 119.1,1.4 119.4,1.6 C119.7,1.8 119.9,2.1 120,2.4 C120.2,2.7 120.3,3.1 120.4,3.5 L119.5,3.5 C119.4,3 119.2,2.6 118.8,2.2 C118.4,1.9 118,1.7 117.5,1.7 C117.2,1.7 116.9,1.8 116.7,1.9 C116.4,2 116.2,2.2 116,2.3 C115.9,2.4 115.8,2.6 115.7,2.7 C115.6,2.9 115.6,3 115.5,3.3 C115.5,3.5 115.4,3.8 115.4,4.1 L115.4,5.2 L115.4,6.3 C115.4,6.6 115.4,6.9 115.5,7.1 C115.5,7.3 115.6,7.5 115.7,7.7 C115.8,7.9 115.9,8 116,8.1 C116.2,8.3 116.4,8.4 116.7,8.5 C117,8.6 117.2,8.7 117.5,8.7 C118,8.7 118.5,8.5 118.8,8.2 C119.2,7.9 119.4,7.5 119.5,6.9 L120.4,6.9 C120.3,7.3 120.1,7.7 120,8 L120,8 Z"></path>
                    <path d="M125.4,9.4 L125.4,8.8 C125.2,9 124.9,9.2 124.7,9.3 C124.5,9.4 124.1,9.4 123.7,9.4 C123.3,9.4 123,9.4 122.7,9.3 C122.4,9.2 122.2,9.1 122,8.9 C121.9,8.8 121.7,8.6 121.7,8.4 C121.7,8.2 121.6,8 121.6,7.7 C121.6,7.2 121.8,6.8 122.1,6.5 C122.4,6.2 123,6 123.6,6 L125.4,6 L125.4,5.4 C125.4,5 125.3,4.6 125.1,4.4 C124.9,4.2 124.5,4.1 123.9,4.1 C123.5,4.1 123.2,4.2 123,4.3 C122.8,4.4 122.6,4.6 122.4,4.8 L121.8,4.3 C122.1,4 122.4,3.7 122.7,3.6 C123,3.5 123.4,3.4 123.9,3.4 C124.7,3.4 125.3,3.6 125.7,3.9 C126.1,4.2 126.3,4.7 126.3,5.4 L126.3,9.4 L125.4,9.4 L125.4,9.4 Z M125.4,6.7 L123.7,6.7 C122.8,6.7 122.4,7 122.4,7.7 C122.4,8 122.5,8.3 122.7,8.5 C122.9,8.7 123.3,8.7 123.7,8.7 C124,8.7 124.2,8.7 124.4,8.6 C124.6,8.6 124.8,8.4 125,8.3 C125.2,8.1 125.3,7.8 125.3,7.3 L125.3,6.7 L125.4,6.7 Z"></path>
                    <path d="M131.6,4.6 C131.4,4.4 131.3,4.3 131.1,4.3 C131,4.2 130.8,4.2 130.5,4.2 C130.3,4.2 130.1,4.2 129.9,4.3 C129.7,4.4 129.6,4.5 129.5,4.6 C129.4,4.7 129.3,4.9 129.2,5.1 C129.1,5.3 129.1,5.5 129.1,5.7 L129.1,9.3 L128.2,9.3 L128.2,3.4 L129.1,3.4 L129.1,4.1 C129.3,3.9 129.5,3.7 129.8,3.5 C130.1,3.4 130.4,3.3 130.8,3.3 C131.1,3.3 131.3,3.3 131.6,3.4 C131.8,3.5 132,3.6 132.3,3.8 L131.6,4.6 L131.6,4.6 Z"></path>
                    <path d="M133.3,6.7 C133.3,7.3 133.4,7.8 133.7,8.2 C134,8.6 134.4,8.7 135,8.7 C135.3,8.7 135.6,8.6 135.9,8.5 C136.1,8.4 136.4,8.2 136.6,8 L137.2,8.5 C137,8.7 136.9,8.8 136.7,8.9 C136.6,9 136.4,9.1 136.2,9.2 C136,9.3 135.8,9.3 135.6,9.4 C135.4,9.4 135.2,9.5 134.9,9.5 C134.5,9.5 134.2,9.4 133.8,9.3 C133.5,9.2 133.2,9 133,8.7 C132.8,8.4 132.6,8.1 132.5,7.8 C132.4,7.5 132.3,7 132.3,6.4 C132.3,5.4 132.5,4.7 132.9,4.2 C133.3,3.7 133.9,3.4 134.7,3.4 C135.5,3.4 136.1,3.7 136.5,4.2 C136.9,4.7 137.1,5.4 137.1,6.3 L137.1,6.7 L133.3,6.7 L133.3,6.7 Z M136.4,5.7 L136.4,5.5 L136.4,5.3 C136.4,5.2 136.4,5.2 136.3,5.1 C136.2,4.8 136,4.6 135.8,4.5 C135.6,4.4 135.3,4.3 135,4.3 C134.7,4.3 134.4,4.4 134.2,4.5 C134,4.6 133.8,4.9 133.7,5.1 C133.6,5.3 133.6,5.4 133.6,5.5 L133.6,6.1 L136.7,6.1 C136.4,5.9 136.4,5.8 136.4,5.7 L136.4,5.7 Z"></path>
                    <path d="M139.6,6.7 C139.6,7.3 139.7,7.8 140,8.2 C140.3,8.6 140.7,8.7 141.3,8.7 C141.6,8.7 141.9,8.6 142.2,8.5 C142.4,8.4 142.7,8.2 142.9,8 L143.5,8.5 C143.3,8.7 143.2,8.8 143,8.9 C142.9,9 142.7,9.1 142.5,9.2 C142.3,9.3 142.1,9.3 141.9,9.4 C141.7,9.4 141.5,9.5 141.2,9.5 C140.8,9.5 140.5,9.4 140.1,9.3 C139.8,9.2 139.5,9 139.3,8.7 C139.1,8.4 138.9,8.1 138.8,7.8 C138.7,7.5 138.6,7 138.6,6.4 C138.6,5.4 138.8,4.7 139.2,4.2 C139.6,3.7 140.2,3.4 141,3.4 C141.8,3.4 142.4,3.7 142.8,4.2 C143.2,4.7 143.4,5.4 143.4,6.3 L143.4,6.7 L139.6,6.7 L139.6,6.7 Z M142.7,5.7 L142.7,5.5 L142.7,5.3 C142.7,5.2 142.7,5.2 142.6,5.1 C142.5,4.8 142.3,4.6 142.1,4.5 C141.9,4.4 141.6,4.3 141.3,4.3 C141,4.3 140.7,4.4 140.5,4.5 C140.3,4.6 140.1,4.9 140,5.1 C139.9,5.3 139.9,5.4 139.9,5.5 L139.9,6.1 L143,6.1 C142.7,5.9 142.7,5.8 142.7,5.7 L142.7,5.7 Z"></path>
                    <path d="M148.6,4.6 C148.4,4.4 148.3,4.3 148.1,4.3 C148,4.2 147.8,4.2 147.5,4.2 C147.3,4.2 147.1,4.2 146.9,4.3 C146.7,4.4 146.6,4.5 146.5,4.6 C146.4,4.7 146.3,4.9 146.2,5.1 C146.1,5.3 146.1,5.5 146.1,5.7 L146.1,9.3 L145.2,9.3 L145.2,3.4 L146.1,3.4 L146.1,4.1 C146.3,3.9 146.5,3.7 146.8,3.5 C147.1,3.4 147.4,3.3 147.8,3.3 C148.1,3.3 148.3,3.3 148.6,3.4 C148.8,3.5 149,3.6 149.3,3.8 L148.6,4.6 L148.6,4.6 Z"></path>
                    <path d="M4.5,25.3 L4.5,24.7 C4.3,24.9 4,25.1 3.8,25.2 C3.6,25.3 3.2,25.3 2.8,25.3 C2.4,25.3 2.1,25.3 1.8,25.2 C1.5,25.1 1.3,25 1.1,24.8 C1,24.7 0.8,24.5 0.8,24.3 C0.8,24.1 0.7,23.9 0.7,23.6 C0.7,23.1 0.9,22.7 1.2,22.4 C1.5,22.1 2.1,21.9 2.7,21.9 L4.5,21.9 L4.5,21.3 C4.5,20.9 4.4,20.5 4.2,20.3 C4,20.1 3.6,20 3,20 C2.6,20 2.3,20.1 2.1,20.2 C1.9,20.3 1.7,20.5 1.5,20.7 L0.9,20.2 C1.2,19.9 1.5,19.6 1.8,19.5 C2.1,19.4 2.5,19.3 3,19.3 C3.8,19.3 4.4,19.5 4.8,19.8 C5.2,20.1 5.4,20.6 5.4,21.3 L5.4,25.3 L4.5,25.3 L4.5,25.3 Z M4.5,22.6 L2.8,22.6 C1.9,22.6 1.5,22.9 1.5,23.6 C1.5,23.9 1.6,24.2 1.8,24.4 C2,24.6 2.4,24.6 2.8,24.6 C3.1,24.6 3.3,24.6 3.5,24.5 C3.7,24.5 3.9,24.3 4.1,24.2 C4.3,24 4.4,23.7 4.4,23.2 L4.4,22.6 L4.5,22.6 Z"></path>
                    <path d="M11.2,25.3 L11.2,21.7 C11.2,21.2 11.1,20.8 10.8,20.5 C10.5,20.2 10.2,20.1 9.7,20.1 C9.3,20.1 8.9,20.2 8.6,20.5 C8.3,20.8 8.2,21.2 8.2,21.7 L8.2,25.3 L7.3,25.3 L7.3,19.4 L8.2,19.4 L8.2,20 C8.4,19.8 8.7,19.6 8.9,19.5 C9.1,19.4 9.5,19.3 9.8,19.3 C10.4,19.3 10.9,19.5 11.3,19.9 C11.7,20.3 11.9,20.8 11.9,21.5 L11.9,25.3 L11.2,25.3 L11.2,25.3 Z"></path>
                    <path d="M17.5,25.3 L17.5,24.6 C17.3,24.9 17,25.1 16.7,25.2 C16.4,25.3 16.1,25.4 15.8,25.4 C15.5,25.4 15.2,25.4 15,25.3 C14.8,25.2 14.5,25.1 14.4,24.9 C14.2,24.7 14.1,24.6 14,24.4 C13.9,24.2 13.8,24 13.8,23.8 C13.7,23.6 13.7,23.4 13.7,23.1 L13.7,22.4 L13.7,21.7 C13.7,21.5 13.8,21.2 13.8,21 C13.9,20.8 13.9,20.6 14,20.4 C14.1,20.2 14.2,20 14.4,19.9 C14.6,19.7 14.8,19.6 15,19.5 C15.2,19.4 15.5,19.4 15.8,19.4 C16.1,19.4 16.4,19.4 16.7,19.5 C17,19.6 17.2,19.8 17.5,20.1 L17.5,16.8 L18.4,16.8 L18.4,25.3 L17.5,25.3 L17.5,25.3 Z M17.5,21.5 C17.5,21.2 17.4,21 17.3,20.8 C17.2,20.6 17,20.4 16.9,20.3 C16.8,20.2 16.4,20.1 16.1,20.1 C15.8,20.1 15.5,20.2 15.3,20.3 C15.1,20.4 15,20.6 14.9,20.8 C14.8,21 14.7,21.2 14.7,21.5 C14.7,21.8 14.6,22.1 14.6,22.3 C14.6,22.5 14.6,22.9 14.7,23.1 C14.7,23.4 14.8,23.6 14.9,23.8 C15,24 15.2,24.2 15.3,24.3 C15.4,24.4 15.8,24.5 16.1,24.5 C16.4,24.5 16.7,24.4 16.9,24.3 C17.1,24.2 17.2,24 17.3,23.8 C17.4,23.6 17.5,23.4 17.5,23.1 L17.5,22.3 L17.5,21.5 L17.5,21.5 Z"></path>
                    <path d="M29.1,20.3 C29,20.6 28.8,20.9 28.6,21.1 C28.4,21.3 28.1,21.5 27.8,21.6 C27.5,21.7 27.1,21.8 26.7,21.8 L24.4,21.8 L24.4,25.3 L23.5,25.3 L23.5,16.8 L26.7,16.8 C27.1,16.8 27.5,16.9 27.8,17 C28.1,17.1 28.4,17.3 28.6,17.5 C28.8,17.7 29,18 29.1,18.3 C29.2,18.6 29.3,19 29.3,19.3 C29.3,19.6 29.2,20 29.1,20.3 L29.1,20.3 Z M27.8,18 C27.5,17.7 27,17.6 26.5,17.6 L24.3,17.6 L24.3,21 L26.5,21 C27,21 27.5,20.9 27.8,20.6 C28.1,20.3 28.3,19.9 28.3,19.3 C28.4,18.7 28.2,18.3 27.8,18 L27.8,18 Z"></path>
                    <path d="M34,20.5 C33.8,20.3 33.7,20.2 33.5,20.2 C33.4,20.1 33.2,20.1 32.9,20.1 C32.7,20.1 32.5,20.1 32.3,20.2 C32.1,20.3 32,20.4 31.9,20.5 C31.8,20.6 31.7,20.8 31.6,21 C31.5,21.2 31.5,21.4 31.5,21.6 L31.5,25.2 L30.6,25.2 L30.6,19.3 L31.5,19.3 L31.5,20 C31.7,19.8 31.9,19.6 32.2,19.4 C32.5,19.3 32.8,19.2 33.2,19.2 C33.5,19.2 33.7,19.2 34,19.3 C34.2,19.4 34.4,19.5 34.7,19.7 L34,20.5 L34,20.5 Z"></path>
                    <path d="M39.6,23.6 C39.5,24 39.3,24.4 39,24.7 C38.8,24.9 38.5,25.1 38.3,25.2 C38,25.3 37.7,25.4 37.3,25.4 C36.9,25.4 36.6,25.3 36.3,25.2 C36,25.1 35.8,24.9 35.6,24.7 C35.4,24.5 35.3,24.4 35.2,24.2 C35.1,24 35,23.8 35,23.6 C34.9,23.4 34.9,23.2 34.9,23 L34.9,22.3 L34.9,21.6 C34.9,21.4 35,21.2 35,21 C35.1,20.8 35.1,20.6 35.2,20.4 C35.3,20.2 35.4,20.1 35.6,19.9 C35.8,19.7 36.1,19.5 36.3,19.4 C36.5,19.3 36.9,19.2 37.3,19.2 C37.7,19.2 38,19.3 38.3,19.4 C38.6,19.5 38.8,19.7 39,19.9 C39.3,20.2 39.5,20.6 39.6,21 C39.7,21.4 39.7,21.8 39.7,22.3 C39.7,22.8 39.7,23.2 39.6,23.6 L39.6,23.6 Z M38.9,21.8 C38.9,21.6 38.9,21.5 38.8,21.3 C38.8,21.1 38.7,21 38.7,20.8 C38.6,20.7 38.6,20.5 38.4,20.4 C38.1,20.1 37.8,20 37.3,20 C36.9,20 36.5,20.1 36.2,20.4 C36.1,20.5 36,20.6 35.9,20.8 C35.8,20.9 35.8,21.1 35.8,21.3 C35.8,21.5 35.7,21.6 35.7,21.8 L35.7,22.3 L35.7,22.8 C35.7,23 35.7,23.1 35.8,23.3 C35.9,23.5 35.9,23.6 35.9,23.8 C36,23.9 36,24.1 36.2,24.2 C36.5,24.5 36.8,24.6 37.3,24.6 C37.7,24.6 38.1,24.5 38.4,24.2 C38.5,24.1 38.6,24 38.7,23.8 C38.8,23.7 38.8,23.5 38.8,23.3 C38.8,23.1 38.9,23 38.9,22.8 L38.9,22.3 L38.9,21.8 L38.9,21.8 Z"></path>
                    <path d="M42.5,20.1 L42.5,25.3 L41.6,25.3 L41.6,20.1 L40.8,20.1 L40.8,19.4 L41.6,19.4 L41.6,18.3 C41.6,18.1 41.6,17.9 41.7,17.7 C41.8,17.5 41.9,17.3 42,17.2 C42.1,17.1 42.3,16.9 42.5,16.9 C42.7,16.8 42.9,16.8 43.2,16.8 L43.8,16.8 L43.8,17.5 L43.3,17.5 C43,17.5 42.8,17.6 42.7,17.7 C42.6,17.9 42.5,18.1 42.5,18.3 L42.5,19.4 L43.8,19.4 L43.8,20.1 L42.5,20.1 L42.5,20.1 Z"></path>
                    <path d="M45.5,22.6 C45.5,23.2 45.6,23.7 45.9,24.1 C46.2,24.5 46.6,24.6 47.2,24.6 C47.5,24.6 47.8,24.5 48.1,24.4 C48.3,24.3 48.6,24.1 48.8,23.9 L49.4,24.4 C49.2,24.6 49.1,24.7 48.9,24.8 C48.8,24.9 48.6,25 48.4,25.1 C48.2,25.2 48,25.2 47.8,25.3 C47.6,25.3 47.4,25.4 47.1,25.4 C46.7,25.4 46.4,25.3 46,25.2 C45.7,25.1 45.4,24.9 45.2,24.6 C45,24.3 44.8,24 44.7,23.7 C44.6,23.4 44.5,22.9 44.5,22.3 C44.5,21.3 44.7,20.6 45.1,20.1 C45.5,19.6 46.1,19.3 46.9,19.3 C47.7,19.3 48.3,19.6 48.7,20.1 C49.1,20.6 49.3,21.3 49.3,22.2 L49.3,22.6 L45.5,22.6 L45.5,22.6 Z M48.5,21.6 L48.5,21.4 L48.5,21.2 C48.5,21.1 48.5,21.1 48.4,21 C48.3,20.7 48.1,20.5 47.9,20.4 C47.7,20.3 47.3,20 47,20 C46.7,20 46.4,20.1 46.2,20.2 C46,20.3 45.8,20.6 45.7,20.8 C45.6,21 45.6,21.1 45.6,21.2 L45.6,21.8 L48.7,21.8 C48.6,21.8 48.6,21.7 48.5,21.6 L48.5,21.6 Z"></path>
                    <path d="M55.2,24.3 C55.1,24.5 54.9,24.7 54.7,24.9 C54.5,25.1 54.2,25.2 53.9,25.3 C53.6,25.4 53.3,25.4 52.9,25.4 C52.4,25.4 51.9,25.3 51.6,25.2 C51.2,25.1 50.8,24.9 50.5,24.5 L51.1,23.9 C51.3,24.1 51.6,24.3 51.9,24.4 C52.2,24.5 52.6,24.6 52.9,24.6 C53.4,24.6 53.8,24.5 54.1,24.3 C54.4,24.1 54.5,23.9 54.5,23.5 C54.5,23.2 54.4,23 54.3,22.9 C54.1,22.8 53.9,22.7 53.5,22.6 L52.5,22.5 C51.9,22.5 51.5,22.3 51.2,22 C50.9,21.7 50.7,21.4 50.7,20.9 C50.7,20.6 50.8,20.4 50.9,20.2 C51,20 51.2,19.8 51.3,19.7 C51.5,19.6 51.7,19.4 52,19.4 C52.3,19.3 52.6,19.3 52.9,19.3 C53.3,19.3 53.7,19.4 54.1,19.5 C54.5,19.6 54.8,19.8 55,20 L54.4,20.6 C54.2,20.4 54,20.3 53.7,20.2 C53.4,20.1 53.1,20.1 52.8,20.1 C52.4,20.1 52,20.2 51.8,20.4 C51.6,20.6 51.5,20.8 51.5,21.1 C51.5,21.4 51.6,21.6 51.7,21.7 C51.9,21.8 52.1,21.9 52.5,22 L53.4,22.1 C53.7,22.1 53.9,22.2 54.1,22.2 C54.3,22.3 54.5,22.4 54.7,22.5 C54.9,22.6 55,22.8 55.1,23 C55.2,23.2 55.2,23.4 55.2,23.7 C55.4,23.8 55.4,24.1 55.2,24.3 L55.2,24.3 Z"></path>
                    <path d="M60.9,24.3 C60.8,24.5 60.6,24.7 60.4,24.9 C60.2,25.1 59.9,25.2 59.6,25.3 C59.3,25.4 59,25.4 58.6,25.4 C58.1,25.4 57.6,25.3 57.3,25.2 C56.9,25.1 56.5,24.9 56.2,24.5 L56.8,23.9 C57,24.1 57.3,24.3 57.6,24.4 C57.9,24.5 58.3,24.6 58.6,24.6 C59.1,24.6 59.5,24.5 59.8,24.3 C60.1,24.1 60.2,23.9 60.2,23.5 C60.2,23.2 60.1,23 60,22.9 C59.8,22.8 59.6,22.7 59.2,22.6 L58.2,22.5 C57.6,22.5 57.2,22.3 56.9,22 C56.6,21.7 56.4,21.4 56.4,20.9 C56.4,20.6 56.5,20.4 56.6,20.2 C56.7,20 56.9,19.8 57,19.7 C57.2,19.6 57.4,19.4 57.7,19.4 C58,19.3 58.3,19.3 58.6,19.3 C59,19.3 59.4,19.4 59.8,19.5 C60.2,19.6 60.5,19.8 60.7,20 L60.1,20.6 C59.9,20.4 59.7,20.3 59.4,20.2 C59.1,20.1 58.8,20.1 58.5,20.1 C58.1,20.1 57.7,20.2 57.5,20.4 C57.3,20.6 57.2,20.8 57.2,21.1 C57.2,21.4 57.3,21.6 57.4,21.7 C57.6,21.8 57.8,21.9 58.2,22 L59.1,22.1 C59.4,22.1 59.6,22.2 59.8,22.2 C60,22.3 60.2,22.4 60.4,22.5 C60.6,22.6 60.7,22.8 60.8,23 C60.9,23.2 60.9,23.4 60.9,23.7 C61.1,23.8 61,24.1 60.9,24.3 L60.9,24.3 Z"></path>
                    <path d="M62.6,17.7 L62.6,16.7 L63.6,16.7 L63.6,17.7 L62.6,17.7 L62.6,17.7 Z M62.6,25.3 L62.6,19.4 L63.5,19.4 L63.5,25.3 L62.6,25.3 L62.6,25.3 Z"></path>
                    <path d="M69.9,23.6 C69.8,24 69.6,24.4 69.3,24.7 C69.1,24.9 68.8,25.1 68.6,25.2 C68.3,25.3 68,25.4 67.6,25.4 C67.2,25.4 66.9,25.3 66.6,25.2 C66.3,25.1 66.1,24.9 65.9,24.7 C65.7,24.5 65.6,24.4 65.5,24.2 C65.4,24 65.3,23.8 65.3,23.6 C65.2,23.4 65.2,23.2 65.2,23 L65.2,22.3 L65.2,21.6 C65.2,21.4 65.3,21.2 65.3,21 C65.4,20.8 65.4,20.6 65.5,20.4 C65.6,20.2 65.7,20.1 65.9,19.9 C66.1,19.7 66.4,19.5 66.6,19.4 C66.8,19.3 67.2,19.2 67.6,19.2 C68,19.2 68.3,19.3 68.6,19.4 C68.9,19.5 69.1,19.7 69.3,19.9 C69.6,20.2 69.8,20.6 69.9,21 C70,21.4 70,21.8 70,22.3 C70,22.8 70,23.2 69.9,23.6 L69.9,23.6 Z M69.2,21.8 C69.2,21.6 69.2,21.5 69.1,21.3 C69.1,21.1 69,21 69,20.8 C68.9,20.7 68.9,20.5 68.7,20.4 C68.4,20.1 68.1,20 67.6,20 C67.2,20 66.8,20.1 66.5,20.4 C66.4,20.5 66.3,20.6 66.2,20.8 C66.1,20.9 66.1,21.1 66.1,21.3 C66.1,21.5 66,21.6 66,21.8 L66,22.3 L66,22.8 C66,23 66,23.1 66.1,23.3 C66.2,23.5 66.2,23.6 66.2,23.8 C66.3,23.9 66.3,24.1 66.5,24.2 C66.8,24.5 67.1,24.6 67.6,24.6 C68,24.6 68.4,24.5 68.7,24.2 C68.8,24.1 68.9,24 69,23.8 C69.1,23.7 69.1,23.5 69.1,23.3 C69.1,23.1 69.2,23 69.2,22.8 L69.2,22.3 L69.2,21.8 L69.2,21.8 Z"></path>
                    <path d="M75.6,25.3 L75.6,21.7 C75.6,21.2 75.5,20.8 75.2,20.5 C74.9,20.2 74.6,20.1 74.1,20.1 C73.7,20.1 73.3,20.2 73,20.5 C72.7,20.8 72.6,21.2 72.6,21.7 L72.6,25.3 L71.7,25.3 L71.7,19.4 L72.6,19.4 L72.6,20 C72.8,19.8 73.1,19.6 73.3,19.5 C73.5,19.4 73.9,19.3 74.2,19.3 C74.8,19.3 75.3,19.5 75.7,19.9 C76.1,20.3 76.3,20.8 76.3,21.5 L76.3,25.3 L75.6,25.3 L75.6,25.3 Z"></path>
                    <path d="M81.8,25.3 L81.8,24.7 C81.6,24.9 81.3,25.1 81.1,25.2 C80.9,25.3 80.5,25.3 80.1,25.3 C79.7,25.3 79.4,25.3 79.1,25.2 C78.8,25.1 78.6,25 78.4,24.8 C78.3,24.7 78.1,24.5 78.1,24.3 C78.1,24.1 78,23.9 78,23.6 C78,23.1 78.2,22.7 78.5,22.4 C78.8,22.1 79.4,21.9 80,21.9 L81.8,21.9 L81.8,21.3 C81.8,20.9 81.7,20.5 81.5,20.3 C81.3,20.1 80.9,20 80.3,20 C79.9,20 79.6,20.1 79.4,20.2 C79.2,20.3 79,20.5 78.8,20.7 L78.2,20.2 C78.5,19.9 78.8,19.6 79.1,19.5 C79.4,19.4 79.8,19.3 80.3,19.3 C81.1,19.3 81.7,19.5 82.1,19.8 C82.5,20.1 82.7,20.6 82.7,21.3 L82.7,25.3 L81.8,25.3 L81.8,25.3 Z M81.8,22.6 L80.1,22.6 C79.2,22.6 78.8,22.9 78.8,23.6 C78.8,23.9 78.9,24.2 79.1,24.4 C79.3,24.6 79.7,24.6 80.1,24.6 C80.4,24.6 80.6,24.6 80.8,24.5 C81,24.5 81.2,24.3 81.4,24.2 C81.6,24 81.7,23.7 81.7,23.2 L81.7,22.6 L81.8,22.6 Z"></path>
                    <path d="M86.1,25.3 C85.6,25.3 85.2,25.1 85,24.8 C84.8,24.5 84.6,24.1 84.6,23.7 L84.6,16.7 L85.5,16.7 L85.5,23.6 C85.5,23.9 85.6,24.1 85.7,24.2 C85.8,24.3 86,24.4 86.3,24.4 L86.8,24.4 L86.8,25.1 L86.1,25.1 L86.1,25.3 Z"></path>
                    <path d="M97,21.9 C97,22.2 97,22.5 96.9,22.9 C96.8,23.3 96.8,23.5 96.7,23.8 C96.6,24.1 96.4,24.3 96.2,24.6 C95.9,24.9 95.6,25.1 95.3,25.2 C95,25.3 94.5,25.4 94.1,25.4 L91.2,25.4 L91.2,16.9 L94.1,16.9 C94.5,16.9 95,17 95.3,17.1 C95.6,17.2 96,17.4 96.2,17.7 C96.4,17.9 96.6,18.2 96.7,18.4 C96.8,18.7 96.9,18.9 96.9,19.2 C96.9,19.5 97,19.8 97,20.1 L97,21 L97,21.9 L97,21.9 Z M96.1,20.1 C96.1,19.8 96.1,19.6 96,19.4 C96,19.2 95.9,18.9 95.8,18.7 C95.7,18.5 95.6,18.3 95.5,18.2 C95.3,18 95,17.8 94.7,17.7 C94.4,17.6 94.1,17.6 93.8,17.6 L92,17.6 L92,24.5 L93.9,24.5 C94.2,24.5 94.5,24.5 94.8,24.4 C95.1,24.3 95.3,24.1 95.6,23.9 C95.7,23.7 95.9,23.6 95.9,23.3 C96,23.1 96,22.8 96.1,22.6 C96.1,22.3 96.1,22.1 96.2,21.8 C96.3,21.5 96.2,21.2 96.2,21 C96.1,20.7 96.1,20.4 96.1,20.1 L96.1,20.1 Z"></path>
                    <path d="M99.4,22.6 C99.4,23.2 99.5,23.7 99.8,24.1 C100.1,24.5 100.5,24.6 101.1,24.6 C101.4,24.6 101.7,24.5 102,24.4 C102.2,24.3 102.5,24.1 102.7,23.9 L103.3,24.4 C103.1,24.6 103,24.7 102.8,24.8 C102.7,24.9 102.5,25 102.3,25.1 C102.1,25.2 101.9,25.2 101.7,25.3 C101.5,25.3 101.3,25.4 101,25.4 C100.6,25.4 100.3,25.3 99.9,25.2 C99.6,25.1 99.3,24.9 99.1,24.6 C98.9,24.3 98.7,24 98.6,23.7 C98.5,23.4 98.4,22.9 98.4,22.3 C98.4,21.3 98.6,20.6 99,20.1 C99.4,19.6 100,19.3 100.8,19.3 C101.6,19.3 102.2,19.6 102.6,20.1 C103,20.6 103.2,21.3 103.2,22.2 L103.2,22.6 L99.4,22.6 L99.4,22.6 Z M102.5,21.6 L102.5,21.4 L102.5,21.2 C102.5,21.1 102.5,21.1 102.4,21 C102.3,20.7 102.1,20.5 101.9,20.4 C101.7,20.3 101.3,20 101,20 C100.7,20 100.4,20.1 100.2,20.2 C100,20.3 99.8,20.6 99.7,20.8 C99.6,21 99.6,21.1 99.6,21.2 L99.6,21.8 L102.7,21.8 C102.5,21.8 102.5,21.7 102.5,21.6 L102.5,21.6 Z"></path>
                    <path d="M107,25.3 L106.2,25.3 L104,19.4 L104.9,19.4 L106.5,24.1 L108.1,19.4 L109,19.4 L107,25.3 L107,25.3 Z"></path>
                    <path d="M110.6,22.6 C110.6,23.2 110.7,23.7 111,24.1 C111.3,24.5 111.7,24.6 112.3,24.6 C112.6,24.6 112.9,24.5 113.2,24.4 C113.4,24.3 113.7,24.1 113.9,23.9 L114.5,24.4 C114.3,24.6 114.2,24.7 114,24.8 C113.9,24.9 113.7,25 113.5,25.1 C113.3,25.2 113.1,25.2 112.9,25.3 C112.7,25.3 112.5,25.4 112.2,25.4 C111.8,25.4 111.5,25.3 111.1,25.2 C110.8,25.1 110.5,24.9 110.3,24.6 C110.1,24.3 109.9,24 109.8,23.7 C109.7,23.4 109.6,22.9 109.6,22.3 C109.6,21.3 109.8,20.6 110.2,20.1 C110.6,19.6 111.2,19.3 112,19.3 C112.8,19.3 113.4,19.6 113.8,20.1 C114.2,20.6 114.4,21.3 114.4,22.2 L114.4,22.6 L110.6,22.6 L110.6,22.6 Z M113.7,21.6 L113.7,21.4 L113.7,21.2 C113.7,21.1 113.7,21.1 113.6,21 C113.5,20.7 113.3,20.5 113.1,20.4 C112.9,20.3 112.6,20.2 112.3,20.2 C112,20.2 111.7,20.3 111.5,20.4 C111.3,20.5 111.1,20.8 111,21 C110.9,21.2 110.9,21.3 110.9,21.4 L110.9,22 L114,22 C113.8,21.8 113.8,21.7 113.7,21.6 L113.7,21.6 Z"></path>
                    <path d="M117.8,25.3 C117.3,25.3 116.9,25.1 116.7,24.8 C116.5,24.5 116.3,24.1 116.3,23.7 L116.3,16.7 L117.2,16.7 L117.2,23.6 C117.2,23.9 117.3,24.1 117.4,24.2 C117.5,24.3 117.7,24.4 118,24.4 L118.5,24.4 L118.5,25.1 L117.8,25.1 L117.8,25.3 Z"></path>
                    <path d="M123.9,23.6 C123.8,24 123.6,24.4 123.3,24.7 C123.1,24.9 122.8,25.1 122.6,25.2 C122.3,25.3 122,25.4 121.6,25.4 C121.2,25.4 120.9,25.3 120.6,25.2 C120.3,25.1 120.1,24.9 119.9,24.7 C119.7,24.5 119.6,24.4 119.5,24.2 C119.4,24 119.3,23.8 119.3,23.6 C119.2,23.4 119.2,23.2 119.2,23 L119.2,22.3 L119.2,21.6 C119.2,21.4 119.3,21.2 119.3,21 C119.4,20.8 119.4,20.6 119.5,20.4 C119.6,20.2 119.7,20.1 119.9,19.9 C120.1,19.7 120.4,19.5 120.6,19.4 C120.8,19.3 121.2,19.2 121.6,19.2 C122,19.2 122.3,19.3 122.6,19.4 C122.9,19.5 123.1,19.7 123.3,19.9 C123.6,20.2 123.8,20.6 123.9,21 C124,21.4 124,21.8 124,22.3 C124,22.8 124,23.2 123.9,23.6 L123.9,23.6 Z M123.2,21.8 C123.2,21.6 123.2,21.5 123.1,21.3 C123.1,21.1 123,21 123,20.8 C122.9,20.7 122.9,20.5 122.7,20.4 C122.4,20.1 122.1,20 121.6,20 C121.2,20 120.8,20.1 120.5,20.4 C120.4,20.5 120.3,20.6 120.2,20.8 C120.1,20.9 120.1,21.1 120.1,21.3 C120.1,21.5 120,21.6 120,21.8 L120,22.3 L120,22.8 C120,23 120,23.1 120.1,23.3 C120.2,23.5 120.2,23.6 120.2,23.8 C120.3,23.9 120.3,24.1 120.5,24.2 C120.8,24.5 121.1,24.6 121.6,24.6 C122,24.6 122.4,24.5 122.7,24.2 C122.8,24.1 122.9,24 123,23.8 C123.1,23.7 123.1,23.5 123.1,23.3 C123.1,23.1 123.2,23 123.2,22.8 L123.2,22.3 L123.2,21.8 L123.2,21.8 Z"></path>
                    <path d="M130.5,23 C130.5,23.2 130.4,23.5 130.4,23.7 C130.3,23.9 130.3,24.1 130.2,24.3 C130.1,24.5 130,24.7 129.8,24.8 C129.6,25 129.4,25.1 129.2,25.2 C129,25.3 128.7,25.3 128.4,25.3 C128.1,25.3 127.8,25.2 127.5,25.1 C127.2,25 127,24.8 126.7,24.5 L126.7,27.8 L125.8,27.8 L125.8,19.3 L126.7,19.3 L126.7,20 C126.9,19.7 127.2,19.5 127.5,19.4 C127.8,19.3 128.1,19.3 128.4,19.3 C128.7,19.3 129,19.3 129.2,19.4 C129.4,19.5 129.7,19.6 129.8,19.8 C130,20 130.1,20.1 130.2,20.3 C130.3,20.5 130.4,20.7 130.4,20.9 C130.5,21.1 130.5,21.3 130.5,21.6 L130.5,22.3 L130.5,23 L130.5,23 Z M129.6,21.5 C129.6,21.2 129.5,21 129.4,20.8 C129.3,20.6 129.1,20.4 128.9,20.3 C128.7,20.2 128.4,20.1 128.1,20.1 C127.8,20.1 127.5,20.2 127.3,20.3 C127.1,20.4 127,20.6 126.8,20.8 C126.7,21 126.6,21.2 126.6,21.5 C126.6,21.8 126.5,22.1 126.5,22.3 C126.5,22.5 126.5,22.9 126.6,23.1 C126.6,23.4 126.7,23.6 126.8,23.8 C126.9,24 127.1,24.2 127.3,24.3 C127.5,24.4 127.8,24.5 128.1,24.5 C128.4,24.5 128.7,24.4 128.9,24.3 C129.1,24.2 129.2,24 129.4,23.8 C129.5,23.6 129.6,23.4 129.6,23.1 L129.6,22.3 L129.6,21.5 L129.6,21.5 Z"></path>
                    <path d="M139.8,25.3 L139.8,21.7 C139.8,21.2 139.7,20.8 139.4,20.5 C139.1,20.2 138.8,20.1 138.3,20.1 C137.9,20.1 137.5,20.2 137.2,20.5 C136.9,20.8 136.8,21.1 136.8,21.6 L136.8,25.3 L136,25.3 L136,21.7 C136,21.2 135.9,20.8 135.6,20.5 C135.3,20.2 135,20.1 134.5,20.1 C134,20.1 133.7,20.2 133.4,20.5 C133.1,20.8 133,21.2 133,21.7 L133,25.3 L132.1,25.3 L132.1,19.4 L133,19.4 L133,20 C133.2,19.8 133.5,19.6 133.7,19.5 C133.9,19.4 134.3,19.3 134.6,19.3 C135,19.3 135.4,19.4 135.7,19.5 C136,19.7 136.3,19.9 136.4,20.2 C136.9,19.5 137.5,19.2 138.3,19.2 C138.6,19.2 138.9,19.2 139.2,19.3 C139.5,19.4 139.7,19.5 139.9,19.7 C140.3,20.1 140.5,20.7 140.5,21.3 L140.5,25.1 L139.8,25.1 L139.8,25.3 Z"></path>
                    <path d="M143.2,22.6 C143.2,23.2 143.3,23.7 143.6,24.1 C143.9,24.5 144.3,24.6 144.9,24.6 C145.2,24.6 145.5,24.5 145.8,24.4 C146,24.3 146.3,24.1 146.5,23.9 L147.1,24.4 C146.9,24.6 146.8,24.7 146.6,24.8 C146.5,24.9 146.3,25 146.1,25.1 C145.9,25.2 145.7,25.2 145.5,25.3 C145.3,25.3 145.1,25.4 144.8,25.4 C144.4,25.4 144.1,25.3 143.7,25.2 C143.4,25.1 143.1,24.9 142.9,24.6 C142.7,24.3 142.5,24 142.4,23.7 C142.3,23.4 142.2,22.9 142.2,22.3 C142.2,21.3 142.4,20.6 142.8,20.1 C143.2,19.6 143.8,19.3 144.6,19.3 C145.4,19.3 146,19.6 146.4,20.1 C146.8,20.6 147,21.3 147,22.2 L147,22.6 L143.2,22.6 L143.2,22.6 Z M146.3,21.6 L146.3,21.4 L146.3,21.2 C146.3,21.1 146.3,21.1 146.2,21 C146.1,20.7 145.9,20.5 145.7,20.4 C145.5,20.3 145.2,20.2 144.9,20.2 C144.6,20.2 144.3,20.3 144.1,20.4 C143.9,20.5 143.7,20.8 143.6,21 C143.5,21.2 143.5,21.3 143.5,21.4 L143.5,22 L146.6,22 C146.3,21.8 146.3,21.7 146.3,21.6 L146.3,21.6 Z"></path>
                    <path d="M152.7,25.3 L152.7,21.7 C152.7,21.2 152.6,20.8 152.3,20.5 C152,20.2 151.7,20.1 151.2,20.1 C150.8,20.1 150.4,20.2 150.1,20.5 C149.8,20.8 149.7,21.2 149.7,21.7 L149.7,25.3 L148.8,25.3 L148.8,19.4 L149.7,19.4 L149.7,20 C149.9,19.8 150.2,19.6 150.4,19.5 C150.6,19.4 151,19.3 151.3,19.3 C151.9,19.3 152.4,19.5 152.8,19.9 C153.2,20.3 153.4,20.8 153.4,21.5 L153.4,25.3 L152.7,25.3 L152.7,25.3 Z"></path>
                    <path d="M157.2,25.3 C156.9,25.3 156.7,25.3 156.5,25.2 C156.3,25.1 156.2,25 156,24.9 C155.9,24.8 155.8,24.6 155.7,24.4 C155.6,24.2 155.6,24 155.6,23.8 L155.6,20.2 L154.9,20.2 L154.9,19.5 L155.6,19.5 L155.6,17.7 L156.5,17.7 L156.5,19.5 L157.8,19.5 L157.8,20.2 L156.5,20.2 L156.5,23.8 C156.5,24.1 156.6,24.3 156.7,24.4 C156.8,24.6 157,24.6 157.3,24.6 L157.8,24.6 L157.8,25.3 L157.2,25.3 L157.2,25.3 Z"></path>
                </g>
                <path d="M158.4,4.7 L158.4,49" id="Shape"></path>
                <g id="Shape">
                    <g transform="translate(1.000000, 26.000000)">
                        <path d="M9.3,2.1 C9.3,0.7 10.1,1.1 10.1,0.8 C10.1,0.7 10,0.6 9.9,0.6 C9.3,0.6 8.9,0.7 8.5,0.7 C8.2,0.7 7.8,0.7 7.5,0.6 C7.3,0.6 7.1,0.5 7.1,0.7 C7.1,1.2 8.6,0.8 8.6,2.2 L8.6,4.7 C8.6,6.8 8.3,8.8 5.9,8.8 C3.7,8.8 3.3,7.2 3.3,5.3 L3.3,2.6 C3.3,0.5 4.3,1.2 4.3,0.8 C4.3,0.7 4.3,0.6 4.2,0.6 C4,0.6 3.1,0.7 2.5,0.7 C1.9,0.7 1,0.6 0.8,0.6 C0.7,0.6 0.5,0.6 0.5,0.8 C0.5,1.3 1.8,0.9 1.8,2 L1.8,6 C1.8,8.4 3,9.5 5.3,9.5 C8.6,9.5 9.3,7.4 9.3,4.8 L9.3,2.1 L9.3,2.1 L9.3,2.1 Z"></path>
                        <path d="M18.8,7.8 C18.8,9.1 17.6,8.9 17.6,9.4 C17.6,9.6 17.8,9.6 18,9.6 C18.3,9.6 18.7,9.5 19,9.5 C19.4,9.5 19.8,9.6 20.4,9.6 C20.6,9.6 20.9,9.6 20.9,9.4 C20.9,8.8 19.4,9.7 19.4,7.3 L19.4,3 C19.4,2.9 19.4,2.8 19.5,2.8 C19.6,2.8 19.6,2.9 19.7,3 L25.5,9.5 C25.6,9.6 25.6,9.7 25.8,9.7 C25.9,9.7 25.9,9.6 25.9,9.3 L25.9,2.3 C25.9,1 26.9,1.3 26.9,0.9 C26.9,0.9 26.9,0.7 26.7,0.7 C26.6,0.7 26.2,0.8 25.4,0.8 C24.6,0.8 24.2,0.7 24,0.7 C23.8,0.7 23.8,0.8 23.8,0.9 C23.8,1.3 25.3,1.1 25.3,2.2 L25.3,6.4 C25.3,6.7 25.3,6.9 25.2,6.9 C25.1,6.9 25,6.7 24.8,6.6 L19.9,1.1 C19.7,0.9 19.8,0.8 19.4,0.8 C18.8,0.8 18.4,0.9 18.1,0.9 C17.9,0.9 17.7,0.8 17.4,0.8 C17.3,0.8 17.2,0.9 17.2,1 C17.2,1.6 18.6,0.8 18.6,3.2 L18.6,7.8 L18.8,7.8 L18.8,7.8 Z"></path>
                        <path d="M38.1,1.9 C38.1,0.7 39,1.2 39,0.7 C39,0.5 38.9,0.5 38.6,0.5 C37.9,0.5 37.5,0.6 37,0.6 C36.6,0.6 36.1,0.5 35.6,0.5 C35.5,0.5 35.2,0.5 35.2,0.7 C35.2,1.1 36.6,0.8 36.6,1.9 L36.6,7.9 C36.6,9.1 35.7,8.8 35.7,9.2 C35.7,9.3 35.7,9.4 35.8,9.4 C36.1,9.4 36.6,9.3 37.2,9.3 C38.1,9.3 38.6,9.4 39,9.4 C39.3,9.4 39.4,9.3 39.4,9.2 C39.4,8.8 38,9.4 38,7.8 L38,1.9 L38.1,1.9 L38.1,1.9 Z"></path>
                        <path d="M55.2,1.7 C55.5,1 56,1 56,0.7 C56,0.5 55.8,0.5 55.6,0.5 C55.3,0.5 54.9,0.6 54.6,0.6 C54.2,0.6 53.9,0.5 53.6,0.5 C53.5,0.5 53.1,0.5 53.1,0.7 C53.1,1.1 54.3,0.7 54.3,1.9 C54.3,2.1 54.3,2.5 53.9,3.4 L52.2,7.2 C52.2,7.3 52.1,7.5 52,7.5 C51.9,7.5 51.9,7.3 51.8,7.2 L50.2,3.2 C49.9,2.4 49.7,1.8 49.7,1.5 C49.7,1 50.4,1.2 50.4,0.8 C50.4,0.6 50.3,0.6 50,0.6 C49.8,0.6 49.5,0.7 48.7,0.7 C48.3,0.7 47.9,0.6 47.5,0.6 C47.3,0.6 46.9,0.5 46.9,0.8 C46.9,0.9 47.1,1 47.1,1 C47.6,1.1 47.8,1.3 48,1.8 L51,9.1 C51.2,9.6 51.3,9.8 51.5,9.8 C51.6,9.8 51.7,9.7 51.8,9.4 L55.2,1.7 L55.2,1.7 L55.2,1.7 Z"></path>
                        <path d="M66.2,2.1 C66.2,1.2 66.2,1.2 67.7,1.2 C70,1.2 69.1,2.7 69.7,2.7 C70,2.7 69.9,2.3 69.9,2.1 L69.9,0.9 C69.9,0.8 69.8,0.7 69.7,0.7 C68.6,0.7 67.8,0.8 66.9,0.8 C65.1,0.8 64.2,0.7 63.7,0.7 C63.5,0.7 63.4,0.8 63.4,0.9 C63.4,1.4 64.8,1 64.8,2.1 L64.8,8 C64.8,9.5 63.9,8.9 63.9,9.4 C63.9,9.5 64,9.5 64.1,9.5 C64.8,9.5 65.3,9.4 65.6,9.4 C66.2,9.4 66.9,9.5 68.8,9.5 C69.8,9.5 70.5,8.5 70.5,7.5 C70.5,7.3 70.4,7.2 70.4,7.2 C69.9,7.2 70.1,8.8 67.1,8.8 C66.2,8.8 66.3,8.3 66.3,7.6 L66.3,6 C66.3,5.3 66.3,5.1 66.8,5.1 L67.7,5.1 C69,5.1 68.6,6.4 69,6.4 C69.3,6.4 69.2,5.9 69.2,5.8 L69.1,3.6 C69.1,3.3 69,3.3 68.9,3.3 C68.7,3.3 68.6,4.5 67.6,4.5 L66.8,4.5 C66.3,4.5 66.3,4.4 66.3,3.9 L66.3,2.1 L66.2,2.1 L66.2,2.1 Z"></path>
                        <path d="M81.4,1.9 C81.4,1.1 81.8,1.1 82.2,1.1 C83.4,1.1 84.1,2 84.1,3.3 C84.1,4 84,4.7 82.2,4.7 C81.8,4.7 81.4,4.7 81.4,4.4 L81.4,1.9 L81.4,1.9 L81.4,1.9 Z M79.9,7.7 C79.9,9.3 78.9,8.9 78.9,9.3 C78.9,9.6 79.2,9.5 79.3,9.5 C79.9,9.5 80.5,9.4 81.2,9.4 C81.7,9.4 82,9.5 82.2,9.5 C82.5,9.5 82.6,9.4 82.6,9.3 C82.6,8.8 81.4,9.4 81.4,8 L81.4,5.8 C81.4,5.4 81.3,5.3 82,5.3 C82.6,5.3 82.8,5.4 83.1,6 L84.1,8 C84.5,8.7 84.9,9.5 85.8,9.5 C86.3,9.5 87.1,9.2 87.1,8.8 C87.1,8.7 87,8.6 86.9,8.6 C86.8,8.6 86.7,8.7 86.5,8.7 C86.4,8.7 86.2,8.7 86.1,8.5 C85.2,6.9 84.2,5.1 84.2,5 C84.2,4.9 84.6,4.8 84.9,4.5 C85.3,4.2 85.6,3.7 85.6,2.9 C85.6,2.3 85.4,0.6 82.7,0.6 C81.9,0.6 81.1,0.7 80.3,0.7 C79.5,0.7 79.4,0.6 78.9,0.6 C78.8,0.6 78.6,0.7 78.6,0.8 C78.6,1.3 79.9,0.8 79.9,2.2 L79.9,7.7 L79.9,7.7 L79.9,7.7 Z"></path>
                        <path d="M94.9,8.6 C95,8.9 94.9,9 95.2,9.1 C95.9,9.3 96.5,9.6 97.3,9.6 C98.9,9.6 100,8.5 100,6.8 C100,5.2 99.2,4.7 97.9,4.1 C96.3,3.4 95.6,3.2 95.6,2.4 C95.6,1.6 96.1,1.1 96.9,1.1 C99,1.1 99.2,3.4 99.4,3.4 C99.7,3.4 99.7,3.2 99.7,3 L99.6,1.3 C99.6,1 99.6,0.8 99.4,0.8 C99.2,0.8 98.9,1 98.8,1 C98.4,1 97.9,0.5 96.9,0.5 C95.5,0.5 94.5,1.6 94.5,3 C94.5,4.3 95.2,4.8 96.3,5.3 C98.2,6.2 99,6.4 99,7.4 C99,8.4 98.3,9 97.3,9 C96,9 95.2,7.9 94.8,6.7 C94.8,6.5 94.7,6.4 94.5,6.4 C94.2,6.4 94.3,6.8 94.4,6.9 L94.9,8.6 L94.9,8.6 L94.9,8.6 Z"></path>
                        <path d="M111.3,1.9 C111.3,0.7 112.2,1.2 112.2,0.7 C112.2,0.5 112.1,0.5 111.8,0.5 C111.1,0.5 110.7,0.6 110.2,0.6 C109.8,0.6 109.3,0.5 108.8,0.5 C108.7,0.5 108.4,0.5 108.4,0.7 C108.4,1.1 109.8,0.8 109.8,1.9 L109.8,7.9 C109.8,9.1 108.9,8.8 108.9,9.2 C108.9,9.3 108.9,9.4 109,9.4 C109.3,9.4 109.8,9.3 110.4,9.3 C111.3,9.3 111.8,9.4 112.2,9.4 C112.5,9.4 112.6,9.3 112.6,9.2 C112.6,8.8 111.2,9.4 111.2,7.8 L111.2,1.9 L111.3,1.9 L111.3,1.9 Z"></path>
                        <path d="M123.9,7.8 C123.9,9.3 122.5,8.7 122.5,9.2 C122.5,9.5 122.7,9.5 122.9,9.5 C123.4,9.5 123.8,9.4 124.6,9.4 C125.4,9.4 125.8,9.5 126.3,9.5 C126.6,9.5 126.9,9.5 126.9,9.2 C126.9,8.8 125.4,9.2 125.4,7.7 L125.4,2 C125.4,1.4 125.5,1.3 126,1.3 L127,1.3 C128.4,1.2 128,2.6 128.5,2.6 C128.8,2.6 128.7,2.1 128.7,2 L128.6,0.8 C128.6,0.7 128.6,0.5 128.4,0.5 C127.3,0.5 126.5,0.6 124.7,0.6 C122.9,0.6 122.1,0.5 121,0.5 C120.8,0.5 120.8,0.7 120.8,0.8 L120.6,2.5 C120.6,2.7 120.5,2.9 120.8,2.9 C121.3,2.9 121,1.3 122.3,1.3 L123.3,1.3 C123.8,1.3 123.9,1.4 123.9,2 L123.9,7.8 L123.9,7.8 L123.9,7.8 Z"></path>
                        <path d="M138.7,5.5 C138.8,5.8 138.9,5.9 138.9,6.3 L138.9,7.9 C138.9,9.5 137.6,8.8 137.6,9.4 C137.6,9.5 137.7,9.5 137.9,9.5 C138.2,9.5 138.6,9.4 139.7,9.4 C141.2,9.4 141.4,9.5 141.5,9.5 C141.7,9.5 141.9,9.5 141.9,9.3 C141.9,8.7 140.4,9.5 140.4,7.9 L140.4,6 C140.4,5.5 140.4,5.5 140.6,5.2 L142.2,2.1 C142.9,0.7 143.5,1 143.5,0.6 C143.5,0.5 143.4,0.5 143.3,0.5 C143,0.5 142.8,0.6 141.9,0.6 C141.3,0.6 141,0.5 140.9,0.5 C140.8,0.5 140.7,0.6 140.7,0.7 C140.7,1.1 141.9,0.8 141.9,1.6 C141.9,1.7 141.9,1.9 141.7,2.3 L140.6,4.4 C140.5,4.7 140.4,4.8 140.3,4.8 C140.2,4.8 140.1,4.6 139.9,4.2 L138.8,1.9 C138.7,1.6 138.6,1.4 138.6,1.3 C138.6,0.9 139.3,1 139.3,0.7 C139.3,0.6 139.3,0.5 139.1,0.5 C138.4,0.6 137.8,0.6 137.3,0.6 C136.7,0.6 136.4,0.5 136.2,0.5 C135.9,0.5 135.8,0.5 135.8,0.7 C135.8,1.1 136.5,0.8 137,1.7 L138.7,5.5 L138.7,5.5 L138.7,5.5 Z"></path>
                    </g>
                    <g>
                        <path d="M5.6,4.6 C5.6,3.1 5.6,2.1 7.3,2.1 C9.5,2.1 11.3,3.8 11.3,6.2 C11.3,8.1 10.6,9.1 8.7,9.1 L7.3,9.1 C5.9,9 5.6,8.9 5.6,7.6 L5.6,4.6 L5.6,4.6 L5.6,4.6 Z M2.6,16.3 C2.6,18.8 0.5,18.1 0.5,19 C0.5,19.4 0.7,19.4 1.3,19.4 C1.8,19.4 2.5,19.3 3,19.3 C4.2,19.3 5.5,19.4 9.1,19.4 C13.1,19.4 15.4,17.2 15.4,13.7 C15.4,11.4 14.5,10 11.5,9.1 L11.5,9.1 C13.2,8.5 14.2,7.1 14.2,5.4 C14.2,4.8 14.2,0.9 8.1,0.9 C6.1,1 4,1.1 1.9,1.1 C0.8,1.1 0.6,1 0.4,1 C0.3,1 0,1 0,1.4 C0,2.7 2.6,1.2 2.6,4.8 L2.6,16.3 L2.6,16.3 L2.6,16.3 Z M5.6,12.3 C5.6,10.9 5.6,10.3 7.1,10.3 C11.6,10.3 12.3,12.6 12.3,14.2 C12.3,16.7 11,18.4 8.6,18.4 C6.2,18.4 5.6,17.7 5.6,15.2 L5.6,12.3 L5.6,12.3 L5.6,12.3 Z"></path>
                        <path d="M20.5,6.9 C20.5,4.9 22,5.7 22,5 C22,4.7 21.9,4.7 21.3,4.7 C20.2,4.7 19.5,4.8 18.8,4.8 C18.1,4.8 17.3,4.7 16.6,4.7 C16.4,4.7 15.9,4.6 15.9,5 C15.9,5.7 18.1,5.1 18.1,7 L18.1,17 C18.1,19 16.7,18.4 16.7,19.2 C16.7,19.3 16.7,19.4 16.9,19.4 C17.4,19.4 18.3,19.3 19.1,19.3 C20.6,19.3 21.4,19.4 22.1,19.4 C22.6,19.4 22.7,19.3 22.7,19.1 C22.7,18.4 20.5,19.4 20.5,16.8 L20.5,6.9 L20.5,6.9 L20.5,6.9 Z"></path>
                        <path d="M25.4,16.6 C25.4,18.7 23.5,18.3 23.5,19.2 C23.5,19.6 23.9,19.4 24.1,19.4 C24.6,19.4 25.2,19.3 25.8,19.3 C26.5,19.3 27.2,19.4 28.1,19.4 C28.4,19.4 28.8,19.4 28.8,19.1 C28.8,18.1 26.3,19.5 26.3,15.5 L26.3,8.5 C26.3,8.3 26.3,8.2 26.5,8.2 C26.6,8.2 26.7,8.3 26.9,8.5 L36.4,19.3 C36.5,19.5 36.6,19.6 36.9,19.6 C37.1,19.6 37.1,19.4 37.1,19 L37.1,7.2 C37.1,5 38.8,5.5 38.8,4.9 C38.8,4.8 38.8,4.6 38.4,4.6 C38.2,4.6 37.5,4.7 36.3,4.7 C34.9,4.7 34.4,4.6 34.1,4.6 C33.8,4.6 33.8,4.8 33.8,5 C33.8,5.7 36.2,5.3 36.2,7.2 L36.2,14.1 C36.2,14.6 36.2,14.9 36,14.9 C35.9,14.9 35.6,14.7 35.4,14.4 L27.5,5.2 C27.1,4.8 27.4,4.7 26.8,4.7 C25.8,4.7 25.2,4.8 24.7,4.8 C24.3,4.8 24,4.7 23.6,4.7 C23.4,4.7 23.3,4.9 23.3,5.1 C23.3,6.1 25.5,4.7 25.5,8.7 L25.5,16.6 L25.4,16.6 L25.4,16.6 Z"></path>
                        <path d="M52.1,6 C52.1,5.7 52.1,5.2 51.8,5.2 C51.5,5.2 51.4,5.8 51,5.8 C50.5,5.8 48.8,4.4 46.1,4.4 C41.1,4.4 39.1,9 39.1,12.5 C39.1,14.1 40,19.5 45.8,19.5 C47.9,19.5 50.1,18.5 52,17.5 C52.2,17.4 52.2,17.3 52.2,17 C52.2,16.7 52.1,16.1 52.1,15.3 C52.1,12.6 53.5,13.8 53.5,12.9 C53.5,12.7 53.4,12.6 53.3,12.6 C52.6,12.6 51.9,12.7 51.2,12.7 C50.3,12.7 49.4,12.6 48.4,12.6 C48.1,12.6 47.4,12.4 47.4,13 C47.4,13.8 49.7,12.4 49.7,15.6 C49.7,16.8 49.6,18.6 46.1,18.6 C42.9,18.6 41.5,14.8 41.5,12 C41.5,6.7 44.1,5.5 45.9,5.5 C51.1,5.5 51.1,10 51.5,10 C51.9,10 52,9.9 52,9.6 L52,6 L52.1,6 L52.1,6 Z"></path>
                        <path d="M67.4,6.8 C67.4,4.8 68.8,5.7 68.8,4.9 C68.8,4.7 68.7,4.7 68.4,4.7 C67.6,4.7 66.8,4.8 65.8,4.8 C64.6,4.8 64.1,4.7 63.3,4.7 C63,4.7 62.8,4.7 62.8,5 C62.8,5.6 65,4.9 65,7.1 L65,10 C65,10.5 64.9,10.9 64.3,10.9 L58.5,10.9 C58.1,11 58,10.7 58,10.2 L58,6.9 C58,5 59.5,5.6 59.5,5 C59.5,4.8 59.3,4.7 59,4.7 C58.4,4.7 57.6,4.8 56.5,4.8 C55.5,4.8 54.9,4.7 54.3,4.7 C53.9,4.7 53.3,4.7 53.3,5 C53.3,5.8 55.5,4.9 55.5,7.1 L55.5,16.4 C55.5,19 53.8,18.2 53.8,19.1 C53.8,19.4 54,19.4 54.2,19.4 C55.2,19.4 56,19.3 56.8,19.3 C58.2,19.3 58.9,19.4 59.7,19.4 C60.3,19.4 60.3,19.2 60.3,19.1 C60.3,18.3 57.9,19.1 57.9,16.5 L57.9,13.2 C57.9,12.3 58,12.1 58.9,12.1 L64.2,12.1 C65.1,12.1 65,12.3 65,13.2 L65,17 C65,19 63.6,18.5 63.6,19.2 C63.6,19.3 63.7,19.4 64,19.4 C65,19.4 65.8,19.3 66.5,19.3 C67.3,19.3 68.5,19.4 69.1,19.4 C69.4,19.4 69.5,19.4 69.5,19.2 C69.5,18.4 67.5,19.2 67.5,16.5 L67.5,6.8 L67.4,6.8 L67.4,6.8 Z"></path>
                        <path d="M75.1,13.2 C74.7,13.2 74.5,13.2 74.5,13 C74.5,12.7 74.6,12.5 74.7,12.2 L76.2,8.5 C76.3,8.3 76.4,8.3 76.4,8.3 C76.5,8.3 76.4,8.3 76.6,8.5 L78.2,12.3 C78.3,12.5 78.4,12.8 78.4,13.1 C78.4,13.3 78.1,13.3 77.8,13.3 L75.1,13.3 L75.1,13.2 L75.1,13.2 Z M78.4,14.3 C78.9,14.3 79,14.5 79.7,16.1 C79.9,16.7 80.1,17 80.1,17.5 C80.1,18.8 78.7,18.5 78.7,19.1 C78.7,19.4 79,19.3 79.3,19.3 C79.9,19.3 80.6,19.2 81.5,19.2 C82.8,19.2 83.3,19.3 84,19.3 C84.5,19.3 84.7,19.3 84.7,19 C84.7,18.3 83.6,19.1 83,17.6 L77.6,5 C77.3,4.4 77.3,4.3 77.1,4.3 C76.8,4.3 76.7,4.7 76.6,5 L71.3,17.6 C70.8,18.8 69.8,18.6 69.8,19.1 C69.8,19.4 70.1,19.3 70.4,19.3 C71,19.3 71.5,19.2 72.1,19.2 C72.7,19.2 73.3,19.3 74,19.3 C74.4,19.3 75,19.4 75,19 C75,18.4 72.9,18.8 72.9,17.3 C72.9,16.8 73.2,16.1 73.3,15.7 C73.8,14.3 74.2,14.2 74.5,14.2 L78.4,14.2 L78.4,14.3 L78.4,14.3 Z"></path>
                        <path d="M88.1,10 C88.1,9.9 88.1,9.5 88.2,9.5 C88.3,9.5 88.4,9.7 88.4,9.9 L92.2,18.9 C92.3,19.1 92.4,19.5 92.7,19.5 C93,19.5 93.1,19.2 93.2,18.9 L97,10.6 C97.3,9.9 97.5,9.5 97.6,9.5 C97.7,9.5 97.7,9.8 97.8,10.4 L98.1,16.7 C98.2,19 96.7,18.3 96.7,19 C96.7,19.4 97.2,19.3 97.6,19.3 C98.1,19.3 98.5,19.2 99.8,19.2 C100.4,19.2 100.9,19.3 101.5,19.3 C102.2,19.3 102.4,19.3 102.4,18.9 C102.4,18.1 100.6,19 100.5,16.3 L100.2,7.1 C100,4.8 102,5.7 102,4.9 C102,4.7 102,4.7 101.4,4.7 C100.8,4.7 100.5,4.8 100.1,4.8 C99.8,4.8 99.4,4.7 99,4.7 C98.6,4.7 98.6,5 98.5,5.1 L93.9,15.2 C93.9,15.3 93.7,15.6 93.6,15.6 C93.5,15.6 93.4,15.5 93.3,15.3 L89,5.3 C88.7,4.7 88.5,4.7 88.3,4.7 C87.7,4.7 86.9,4.8 86.5,4.8 C85.9,4.8 85.6,4.7 85.3,4.7 C85.2,4.7 85.1,4.9 85.1,5 C85.1,5.9 87.2,4.9 87.1,8.4 L86.8,16.8 C86.7,19 85.1,18.5 85.1,19.2 C85.1,19.3 85.2,19.5 85.5,19.5 C85.8,19.5 86.5,19.4 87.4,19.4 C88.3,19.4 88.7,19.5 89.4,19.5 C89.9,19.5 89.9,19.3 89.9,19.2 C89.9,18.3 87.7,19.6 87.9,16 L88.1,10 L88.1,10 L88.1,10 Z"></path>
                        <path d="M108.1,16.7 C108.1,19.2 105.9,18.2 105.9,19 C105.9,19.5 106.2,19.4 106.6,19.4 C107.4,19.4 108,19.3 109.4,19.3 C110.7,19.3 111.4,19.4 112.2,19.4 C112.8,19.4 113.2,19.5 113.2,19 C113.2,18.4 110.7,19 110.7,16.5 L110.7,7 C110.7,6 110.9,5.9 111.7,5.9 L113.4,5.9 C115.7,5.8 115,8.1 115.8,8.1 C116.3,8.1 116.1,7.3 116.1,7 L115.9,5.1 C115.9,4.9 115.9,4.6 115.6,4.6 C113.8,4.6 112.4,4.7 109.6,4.7 C106.7,4.7 105.4,4.6 103.6,4.6 C103,4.7 103,5 103,5.2 L102.7,7.9 C102.7,8.2 102.5,8.6 103,8.6 C103.9,8.6 103.3,5.9 105.5,5.9 L107.2,5.9 C108,5.9 108.2,6 108.2,7 L108.2,16.7 L108.1,16.7 L108.1,16.7 Z"></path>
                        <path d="M116.2,12.5 C116.2,16.7 118.9,19.5 122.8,19.5 C129.1,19.5 130.3,14.4 130.3,11.5 C130.3,7.1 127.4,4.4 123.5,4.4 C118.8,4.5 116.2,8 116.2,12.5 L116.2,12.5 L116.2,12.5 Z M118.6,11.3 C118.6,8.3 119.6,5.4 122.9,5.3 C125.4,5.3 127.8,7.7 127.8,12.3 C127.8,15.8 126.7,18.5 123.3,18.6 C119.9,18.7 118.6,14.4 118.6,11.3 L118.6,11.3 L118.6,11.3 Z"></path>
                        <path d="M132.7,16.6 C132.7,18.7 130.8,18.3 130.8,19.2 C130.8,19.6 131.2,19.4 131.4,19.4 C131.9,19.4 132.5,19.3 133.1,19.3 C133.8,19.3 134.5,19.4 135.4,19.4 C135.7,19.4 136.1,19.4 136.1,19.1 C136.1,18.1 133.6,19.5 133.6,15.5 L133.6,8.5 C133.6,8.3 133.6,8.2 133.8,8.2 C133.9,8.2 134,8.3 134.2,8.5 L143.7,19.3 C143.8,19.5 143.9,19.6 144.2,19.6 C144.4,19.6 144.4,19.4 144.4,19 L144.4,7.2 C144.4,5 146.1,5.5 146.1,4.9 C146.1,4.8 146.1,4.6 145.7,4.6 C145.5,4.6 144.8,4.7 143.6,4.7 C142.2,4.7 141.7,4.6 141.4,4.6 C141.1,4.6 141.1,4.8 141.1,5 C141.1,5.7 143.5,5.3 143.5,7.2 L143.5,14.1 C143.5,14.6 143.5,14.9 143.3,14.9 C143.2,14.9 142.9,14.7 142.7,14.4 L134.8,5.2 C134.4,4.8 134.7,4.7 134.1,4.7 C133.1,4.7 132.5,4.8 132,4.8 C131.6,4.8 131.3,4.7 130.9,4.7 C130.7,4.7 130.6,4.9 130.6,5.1 C130.6,6.1 132.8,4.7 132.8,8.7 L132.8,16.6 L132.7,16.6 L132.7,16.6 Z"></path>
                    </g>
                    <g transform="translate(7.000000, 44.000000)">
                        <path d="M3.1,1.8 C3,1.3 2.7,1 2.2,1 C1.6,1 1.4,1.4 1.4,1.7 C1.4,2 1.6,2.2 2,2.4 L2.5,2.6 C3.2,2.9 3.5,3.3 3.5,3.8 C3.5,4.5 2.9,5 2.1,5 C1.3,5 0.8,4.6 0.7,3.7 L1.2,3.7 C1.2,4.2 1.5,4.5 2.1,4.5 C2.6,4.5 2.9,4.2 2.9,3.8 C2.9,3.5 2.6,3.2 2.2,3.1 L1.6,2.9 C1,2.7 0.6,2.3 0.6,1.7 C0.6,1 1.2,0.5 1.9,0.5 C2.6,0.5 3.2,0.9 3.2,1.8 L3.1,1.8 L3.1,1.8 Z"></path>
                        <path d="M6.3,1.1 L5.2,1.1 L5.2,0.6 L7.9,0.6 L7.9,1.1 L6.8,1.1 L6.8,4.9 L6.3,4.9 L6.3,1.1 L6.3,1.1 Z"></path>
                        <path d="M11.9,3.9 L9.9,3.9 L9.5,4.9 L8.9,4.9 L10.7,0.6 L11.2,0.6 L13,4.9 L12.4,4.9 L11.9,3.9 L11.9,3.9 Z M10.9,1.3 L10.1,3.4 L11.7,3.4 L10.9,1.3 L10.9,1.3 Z"></path>
                        <path d="M15,1.1 L13.9,1.1 L13.9,0.6 L16.6,0.6 L16.6,1.1 L15.5,1.1 L15.5,4.9 L15,4.9 L15,1.1 L15,1.1 Z"></path>
                        <path d="M18.7,0.6 L20.9,0.6 L20.9,1.1 L19.2,1.1 L19.2,2.5 L20.9,2.5 L20.9,3 L19.2,3 L19.2,4.4 L20.9,4.4 L20.9,4.9 L18.7,4.9 L18.7,0.6 L18.7,0.6 Z"></path>
                        <path d="M26.9,0.6 L27.4,0.6 L27.4,3.2 C27.4,3.9 27.8,4.5 28.6,4.5 C29.4,4.5 29.8,3.9 29.8,3.2 L29.8,0.6 L30.3,0.6 L30.3,3.4 C30.3,4.3 29.6,5 28.6,5 C27.6,5 26.9,4.3 26.9,3.4 L26.9,0.6 L26.9,0.6 Z"></path>
                        <path d="M35.1,0.6 L35.6,0.6 L35.6,4.9 L35.1,4.9 L32.8,1.5 L32.8,1.5 L32.8,4.9 L32.3,4.9 L32.3,0.6 L32.8,0.6 L35.1,4 L35.1,4 L35.1,0.6 L35.1,0.6 Z"></path>
                        <path d="M38,0.6 L38.5,0.6 L38.5,4.9 L38,4.9 L38,0.6 L38,0.6 Z"></path>
                        <path d="M43.7,0.6 L44.3,0.6 L42.7,4.9 L42.2,4.9 L40.6,0.6 L41.2,0.6 L42.4,4.1 L42.4,4.1 L43.7,0.6 L43.7,0.6 Z"></path>
                        <path d="M46,0.6 L48.2,0.6 L48.2,1.1 L46.5,1.1 L46.5,2.5 L48.2,2.5 L48.2,3 L46.5,3 L46.5,4.4 L48.2,4.4 L48.2,4.9 L46,4.9 L46,0.6 L46,0.6 Z"></path>
                        <path d="M51.1,3.1 L51.1,4.9 L50.6,4.9 L50.6,0.6 L51.8,0.6 C52.6,0.6 53.3,1.1 53.3,1.9 C53.3,2.7 52.7,3.2 52,3.2 L53.7,4.9 L52.9,4.9 L51.1,3.1 L51.1,3.1 Z M51.1,2.7 L51.6,2.7 C52.4,2.7 52.7,2.3 52.7,1.9 C52.7,1.4 52.4,1.1 51.8,1.1 L51.1,1.1 L51.1,2.7 L51.1,2.7 Z"></path>
                        <path d="M57.3,1.8 C57.3,1.3 57,1 56.5,1 C55.9,1 55.7,1.4 55.7,1.7 C55.7,2 55.9,2.2 56.3,2.4 L56.8,2.6 C57.5,2.9 57.8,3.3 57.8,3.8 C57.8,4.5 57.2,5 56.4,5 C55.6,5 55.1,4.6 55,3.7 L55.5,3.7 C55.5,4.2 55.8,4.5 56.4,4.5 C56.9,4.5 57.2,4.2 57.2,3.8 C57.2,3.5 56.9,3.2 56.5,3.1 L55.9,2.9 C55.3,2.7 54.9,2.3 54.9,1.7 C54.9,1 55.5,0.5 56.2,0.5 C56.9,0.5 57.5,0.9 57.5,1.8 L57.3,1.8 L57.3,1.8 Z"></path>
                        <path d="M60.1,0.6 L60.6,0.6 L60.6,4.9 L60.1,4.9 L60.1,0.6 L60.1,0.6 Z"></path>
                        <path d="M63.6,1.1 L62.5,1.1 L62.5,0.6 L65.2,0.6 L65.2,1.1 L64.1,1.1 L64.1,4.9 L63.6,4.9 L63.6,1.1 L63.6,1.1 Z"></path>
                        <path d="M69.4,0.6 L70,0.6 L68.5,3.2 L68.5,4.9 L68,4.9 L68,3.2 L66.5,0.6 L67.1,0.6 L68.2,2.6 L69.4,0.6 L69.4,0.6 Z"></path>
                        <path d="M78.3,0.5 C79.8,0.5 80.6,1.7 80.6,2.7 C80.6,3.8 79.8,4.9 78.3,4.9 C76.8,4.9 76,3.7 76,2.7 C76,1.7 76.8,0.5 78.3,0.5 L78.3,0.5 Z M78.3,4.5 C79.2,4.5 80,3.8 80,2.8 C80,1.8 79.2,1.1 78.3,1.1 C77.4,1.1 76.6,1.8 76.6,2.8 C76.6,3.8 77.4,4.5 78.3,4.5 L78.3,4.5 Z"></path>
                        <path d="M82.6,0.6 L84.8,0.6 L84.8,1.1 L83.1,1.1 L83.1,2.5 L84.8,2.5 L84.8,3 L83.1,3 L83.1,4.9 L82.6,4.9 L82.6,0.6 L82.6,0.6 Z"></path>
                        <path d="M94.1,0.6 L94.6,0.6 L94.6,4.9 L94.1,4.9 L91.8,1.5 L91.8,1.5 L91.8,4.9 L91.3,4.9 L91.3,0.6 L91.8,0.6 L94.1,4 L94.1,4 L94.1,0.6 L94.1,0.6 Z"></path>
                        <path d="M96.9,0.6 L99.1,0.6 L99.1,1.1 L97.4,1.1 L97.4,2.5 L99.1,2.5 L99.1,3 L97.4,3 L97.4,4.4 L99.1,4.4 L99.1,4.9 L96.9,4.9 L96.9,0.6 L96.9,0.6 Z"></path>
                        <path d="M105.9,0.6 L106.5,0.6 L105.2,4.9 L104.8,4.9 L103.8,1.5 L103.8,1.5 L102.8,4.9 L102.4,4.9 L101.1,0.6 L101.7,0.6 L102.7,3.9 L102.7,3.9 L103.7,0.6 L104.2,0.6 L105.2,3.9 L105.2,3.9 L105.9,0.6 L105.9,0.6 Z"></path>
                        <path d="M115,0.6 L115.6,0.6 L114.1,3.2 L114.1,4.9 L113.6,4.9 L113.6,3.2 L112.1,0.6 L112.7,0.6 L113.8,2.6 L115,0.6 L115,0.6 Z"></path>
                        <path d="M119.1,0.5 C120.6,0.5 121.4,1.7 121.4,2.7 C121.4,3.8 120.6,4.9 119.1,4.9 C117.6,4.9 116.8,3.7 116.8,2.7 C116.8,1.7 117.6,0.5 119.1,0.5 L119.1,0.5 Z M119.1,4.5 C120,4.5 120.8,3.8 120.8,2.8 C120.8,1.8 120,1.1 119.1,1.1 C118.2,1.1 117.4,1.8 117.4,2.8 C117.3,3.8 118.2,4.5 119.1,4.5 L119.1,4.5 Z"></path>
                        <path d="M123.9,3.1 L123.9,4.9 L123.4,4.9 L123.4,0.6 L124.6,0.6 C125.4,0.6 126.1,1.1 126.1,1.9 C126.1,2.7 125.5,3.2 124.8,3.2 L126.5,4.9 L125.7,4.9 L123.9,3.1 L123.9,3.1 Z M123.9,2.7 L124.4,2.7 C125.2,2.7 125.5,2.3 125.5,1.9 C125.5,1.4 125.2,1.1 124.6,1.1 L123.9,1.1 L123.9,2.7 L123.9,2.7 Z"></path>
                        <path d="M130.7,0.6 L131.4,0.6 L129.5,2.7 L131.5,4.9 L130.7,4.9 L129,2.9 L129,4.9 L128.5,4.9 L128.5,0.6 L129,0.6 L129,2.6 L130.7,0.6 L130.7,0.6 Z"></path>
                    </g>
                </g>
            </g>
        </g>
    </g>
</svg>