<svg id="Layer_1" data-name="Layer 1" xmlns="http://www.w3.org/2000/svg" width="246.42" height="116.12" viewBox="0 0 246.42 116.12"><defs><style>.cls-1{fill:#353c47;}.cls-2{fill:#4f5968;}</style></defs><title>bu-harpur-edge</title><path class="cls-1" d="M172.74,51.93v56.16h-14v-3.34a14.48,14.48,0,0,1-4.24,3.13,10.81,10.81,0,0,1-4.65,1,9.44,9.44,0,0,1-5.66-1.72,7.66,7.66,0,0,1-3.07-4,28.32,28.32,0,0,1-.68-7.36V74.36a29,29,0,0,1,.68-7.53,7.48,7.48,0,0,1,3.11-3.91,9.93,9.93,0,0,1,5.8-1.68A11.47,11.47,0,0,1,158.74,65V51.93h14Zm-14,21.73a8.77,8.77,0,0,0-.43-3.4,1.73,1.73,0,0,0-1.72-.87,1.75,1.75,0,0,0-1.68.78,8.69,8.69,0,0,0-.43,3.49V96.23a10.38,10.38,0,0,0,.42,3.7,1.59,1.59,0,0,0,1.6.89,1.78,1.78,0,0,0,1.81-1,15.27,15.27,0,0,0,.45-4.84V73.66h0Z"/><path class="cls-1" d="M209.65,62.09V97.57a78.47,78.47,0,0,1-.33,9.29A9.26,9.26,0,0,1,207,111.3a12.57,12.57,0,0,1-5.61,3.58,28.26,28.26,0,0,1-9,1.23q-6.7,0-10.76-2.27t-4.2-8.94H191q0,3.06,2.22,3.06a2.2,2.2,0,0,0,2.12-.94,9.48,9.48,0,0,0,.47-3.93v-3.5a13.34,13.34,0,0,1-3.8,2.47,10.74,10.74,0,0,1-4.18.83,11.59,11.59,0,0,1-6.23-1.53,7.82,7.82,0,0,1-3.35-4,21.55,21.55,0,0,1-.9-7.07V73.56q0-6.56,2.36-9.44t7.19-2.88a10.66,10.66,0,0,1,4.81,1.08,11.43,11.43,0,0,1,3.87,3.24l1-3.48h13.05Zm-14.06,12.2a13.32,13.32,0,0,0-.36-4,1.56,1.56,0,0,0-1.61-.87,1.77,1.77,0,0,0-1.72,1,9.94,9.94,0,0,0-.5,3.91V89.81a12.93,12.93,0,0,0,.38,4,1.54,1.54,0,0,0,1.6.92,1.72,1.72,0,0,0,1.81-1.11,18.32,18.32,0,0,0,.42-5V74.29h0Z"/><path class="cls-1" d="M246.41,85.92H228.25v10a11,11,0,0,0,.45,4,1.75,1.75,0,0,0,1.74.9,2.11,2.11,0,0,0,2.13-1.2,13.09,13.09,0,0,0,.54-4.63V88.91h13.3v3.4a30.57,30.57,0,0,1-.54,6.56,13.39,13.39,0,0,1-2.52,4.9,12.26,12.26,0,0,1-5,3.91,19.42,19.42,0,0,1-7.62,1.3,22.15,22.15,0,0,1-7.9-1.29,12.56,12.56,0,0,1-5.29-3.52,12.74,12.74,0,0,1-2.62-4.93,31.83,31.83,0,0,1-.73-7.83V78a22.86,22.86,0,0,1,1.63-9.53,11.2,11.2,0,0,1,5.35-5.35,18.85,18.85,0,0,1,8.54-1.86,19.1,19.1,0,0,1,9.74,2.24,12.32,12.32,0,0,1,5.38,5.94q1.54,3.7,1.54,10.4v6.11h0Zm-14.06-7.5V75.09a17,17,0,0,0-.38-4.62,1.51,1.51,0,0,0-1.56-1,1.71,1.71,0,0,0-1.81.89,18.44,18.44,0,0,0-.35,4.77V78.5h4.1V78.42Z"/><path class="cls-1" d="M113.83,85.22V52.83H138.2V64.09h-9.76V74.75l9.13,0.1v3S120.83,80.45,113.83,85.22Z"/><path class="cls-1" d="M128.49,86.26c-2.13,2.84-4.23,5.92-6.24,9.23A111.89,111.89,0,0,0,115.19,109h24V97.79h-10.7V86.26Z"/><path class="cls-2" d="M9.2,0V19.09H26.14V0h9.2V49.81h-9.2V21.69L9.2,28.33V49.82H0V0H9.2Z"/><path class="cls-2" d="M42.49,19.09a11,11,0,0,1,3.28-3.7,13,13,0,0,1,4.48-2,21.6,21.6,0,0,1,5-.59,28.73,28.73,0,0,1,4.63.38,12.55,12.55,0,0,1,4.28,1.5,9,9,0,0,1,3.16,3.1A9.92,9.92,0,0,1,68.55,23V41.79a44.79,44.79,0,0,0,.23,4.67,9.63,9.63,0,0,0,.82,3.35H61.16a16,16,0,0,1-.33-1.72,17.13,17.13,0,0,1-.21-1.78,10.73,10.73,0,0,1-4.69,3.42,16.07,16.07,0,0,1-5.51,1,12.67,12.67,0,0,1-4-.63,8.78,8.78,0,0,1-3.28-2,9,9,0,0,1-2.2-3.35,13.21,13.21,0,0,1-.79-4.81,12.2,12.2,0,0,1,.91-5.06,8.73,8.73,0,0,1,2.34-3.17,9.81,9.81,0,0,1,3.28-1.78A30.49,30.49,0,0,1,50.4,29q1.88-.35,3.69-0.56a19,19,0,0,0,3.22-.63,5.26,5.26,0,0,0,2.23-1.22,3,3,0,0,0,.76-2.34,6.11,6.11,0,0,0-.44-2.55,3.65,3.65,0,0,0-1.17-1.46,4.15,4.15,0,0,0-1.7-.7,11.73,11.73,0,0,0-2.08-.17A5.6,5.6,0,0,0,51,20.62a6.06,6.06,0,0,0-1.64,4.19H41.08A13.12,13.12,0,0,1,42.49,19.09Zm16.44,14a11.7,11.7,0,0,1-1.7.52q-0.91.21-1.9,0.35t-2,.35a13.23,13.23,0,0,0-1.85.56,5.2,5.2,0,0,0-1.58.94,4.34,4.34,0,0,0-1.08,1.5,5.6,5.6,0,0,0-.41,2.3,5.39,5.39,0,0,0,.41,2.23,3.56,3.56,0,0,0,1.11,1.43,4.27,4.27,0,0,0,1.64.73,8.83,8.83,0,0,0,1.93.21,6.4,6.4,0,0,0,3.81-1,6.11,6.11,0,0,0,2-2.34,8.47,8.47,0,0,0,.79-2.76,21.82,21.82,0,0,0,.15-2.23v-3.7a3.63,3.63,0,0,1-1.32.86v0Z"/><path class="cls-2" d="M81.75,13.75v6.7h0.08a12.79,12.79,0,0,1,1.58-3.11A11.27,11.27,0,0,1,85.7,14.9a10.5,10.5,0,0,1,2.75-1.57,8.49,8.49,0,0,1,3-.56,5.58,5.58,0,0,1,1.82.35v9.21a14.14,14.14,0,0,0-1.41-.24,12.6,12.6,0,0,0-1.58-.1,7.68,7.68,0,0,0-3.87.91,7.11,7.11,0,0,0-2.55,2.48A10.91,10.91,0,0,0,82.48,29a23.56,23.56,0,0,0-.41,4.53V49.83H73.83V13.75h7.92Z"/><path class="cls-2" d="M103.37,13.75v4.6h0.12a10,10,0,0,1,3.87-4.25,10.29,10.29,0,0,1,5.16-1.33,11.42,11.42,0,0,1,6.15,1.6A13.56,13.56,0,0,1,123,18.63a19.6,19.6,0,0,1,2.52,6.17,32.36,32.36,0,0,1,.82,7.36,29.22,29.22,0,0,1-.82,7A19.25,19.25,0,0,1,123,45.09a13.11,13.11,0,0,1-4.15,4.1A10.9,10.9,0,0,1,113,50.73a10.26,10.26,0,0,1-5.19-1.36,10.55,10.55,0,0,1-3.9-4h-0.08V62.46l-8.32,4.92V13.75h7.86Zm10.81,28.6a7.37,7.37,0,0,0,2.23-2.55,11.75,11.75,0,0,0,1.2-3.66,25.64,25.64,0,0,0,.35-4.26,23.77,23.77,0,0,0-.38-4.26,12.66,12.66,0,0,0-1.26-3.73,7.81,7.81,0,0,0-2.26-2.65,5.54,5.54,0,0,0-3.37-1,5.64,5.64,0,0,0-3.43,1A7.6,7.6,0,0,0,105,23.86a12.17,12.17,0,0,0-1.2,3.7,26.06,26.06,0,0,0-.35,4.33,23.68,23.68,0,0,0,.38,4.26,12.26,12.26,0,0,0,1.23,3.66,7.24,7.24,0,0,0,2.26,2.55,6.45,6.45,0,0,0,6.84,0h0Z"/><path class="cls-2" d="M150.61,49.81v-5h-0.18a10.22,10.22,0,0,1-4.1,4.54,10.54,10.54,0,0,1-5.16,1.4,12.47,12.47,0,0,1-5.48-1,8.17,8.17,0,0,1-3.37-3,12.78,12.78,0,0,1-1.73-4.67,34.43,34.43,0,0,1-.5-6.1V13.75h8.32V34.09a14.65,14.65,0,0,0,1.17,6.66,4.3,4.3,0,0,0,4.16,2.2,5.39,5.39,0,0,0,4.92-2.41q1.52-2.41,1.52-7.92V13.75h8.32V49.82h-7.89Z"/><path class="cls-2" d="M171.59,13.75v6.7h0.12a12.75,12.75,0,0,1,1.58-3.11,11.28,11.28,0,0,1,2.29-2.44,10.51,10.51,0,0,1,2.75-1.57,8.48,8.48,0,0,1,3-.56,5.58,5.58,0,0,1,1.82.35v9.21q-0.65-.15-1.32-0.24a12.59,12.59,0,0,0-1.58-.1,7.68,7.68,0,0,0-3.87.91,7.11,7.11,0,0,0-2.55,2.48A10.91,10.91,0,0,0,172.45,29a23.52,23.52,0,0,0-.41,4.53V49.83h-8.32V13.75h7.87Z"/><path class="cls-1" d="M139.22,109V97.79H128.49V83.68s-9.12,3.13-14.58,9.33v16"/></svg>