<?xml version="1.0" encoding="UTF-8" standalone="no"?>
<svg width="388px" height="64px" viewBox="0 0 388 64" version="1.1" xmlns="http://www.w3.org/2000/svg" xmlns:xlink="http://www.w3.org/1999/xlink" xmlns:sketch="http://www.bohemiancoding.com/sketch/ns">
    <!-- Generator: Sketch 3.4.4 (17249) - http://www.bohemiancoding.com/sketch -->
    <title>Slice 1</title>
    <desc>Created with Sketch.</desc>
    <defs></defs>
    <g id="Page-1" stroke="none" stroke-width="1" fill="none" fill-rule="evenodd" sketch:type="MSPage">
        <g id="bu-office-of-the-president" sketch:type="MSLayerGroup" fill="#353C47">
            <g id="Group" sketch:type="MSShapeGroup">
                <g id="Shape">
                    <g>
                        <g>
                            <path d="M14.1,34.2 C14.1,32.4 15.3,33 15.3,32.5 C15.3,32.3 15.2,32.3 15,32.3 C14.2,32.3 13.7,32.4 13.1,32.4 C12.6,32.4 12.2,32.4 11.7,32.3 C11.5,32.3 11.2,32.2 11.2,32.5 C11.2,33.1 13.2,32.6 13.2,34.4 L13.2,37.6 C13.2,40.3 12.8,42.8 9.5,42.8 C6.5,42.8 5.9,40.8 5.9,38.3 L5.9,34.8 C5.9,32.2 7.3,33 7.3,32.5 C7.3,32.4 7.3,32.3 7.1,32.3 C6.8,32.3 5.6,32.4 4.8,32.4 C4,32.4 2.7,32.3 2.5,32.3 C2.4,32.3 2.2,32.3 2.2,32.6 C2.2,33.2 3.9,32.7 3.9,34.1 L3.9,39.3 C3.9,42.4 5.6,43.8 8.6,43.8 C13.2,43.8 14.1,41.1 14.1,37.8 L14.1,34.2 L14.1,34.2 L14.1,34.2 Z"></path>
                            <path d="M27.6,41.4 C27.6,43 26,42.7 26,43.4 C26,43.7 26.3,43.6 26.5,43.6 C26.9,43.6 27.4,43.5 27.9,43.5 C28.5,43.5 29,43.6 29.9,43.6 C30.1,43.6 30.5,43.6 30.5,43.4 C30.5,42.6 28.4,43.7 28.4,40.7 L28.4,35.3 C28.4,35.2 28.4,35 28.5,35 C28.6,35 28.7,35.1 28.8,35.2 L36.8,43.5 C36.9,43.6 37,43.7 37.2,43.7 C37.4,43.7 37.4,43.6 37.4,43.2 L37.4,34.2 C37.4,32.5 38.8,32.9 38.8,32.4 C38.8,32.4 38.8,32.2 38.5,32.2 C38.3,32.2 37.8,32.3 36.7,32.3 C35.6,32.3 35.1,32.2 34.8,32.2 C34.6,32.2 34.5,32.4 34.5,32.5 C34.5,33 36.5,32.7 36.5,34.2 L36.5,39.5 C36.5,39.9 36.5,40.1 36.4,40.1 C36.3,40.1 36.1,39.9 35.9,39.7 L29.2,32.6 C28.9,32.3 29.1,32.2 28.6,32.2 C27.7,32.2 27.3,32.3 26.9,32.3 C26.6,32.3 26.3,32.2 26,32.2 C25.8,32.2 25.7,32.3 25.7,32.5 C25.7,33.3 27.6,32.2 27.6,35.3 L27.6,41.4 L27.6,41.4 L27.6,41.4 Z"></path>
                            <path d="M53.4,34 C53.4,32.5 54.6,33.1 54.6,32.5 C54.6,32.3 54.5,32.3 54,32.3 C53.1,32.3 52.5,32.4 51.9,32.4 C51.3,32.4 50.7,32.3 50,32.3 C49.9,32.3 49.4,32.3 49.4,32.5 C49.4,33.1 51.3,32.6 51.3,34.1 L51.3,41.8 C51.3,43.3 50.1,42.9 50.1,43.5 C50.1,43.6 50.1,43.7 50.3,43.7 C50.7,43.7 51.4,43.6 52.2,43.6 C53.5,43.6 54.1,43.7 54.7,43.7 C55.1,43.7 55.2,43.6 55.2,43.5 C55.2,43 53.3,43.7 53.3,41.8 L53.3,34 L53.4,34 L53.4,34 Z"></path>
                            <path d="M76.9,33.7 C77.3,32.8 78,32.8 78,32.5 C78,32.2 77.8,32.3 77.4,32.3 C76.9,32.3 76.5,32.4 76,32.4 C75.5,32.4 75.1,32.3 74.6,32.3 C74.4,32.3 73.9,32.3 73.9,32.6 C73.9,33.2 75.6,32.6 75.6,34.1 C75.6,34.4 75.6,34.9 75.1,36 L72.8,40.9 C72.8,41 72.7,41.2 72.6,41.2 C72.5,41.2 72.4,41 72.4,40.9 L70.2,35.8 C69.8,34.8 69.6,34.1 69.6,33.6 C69.6,32.9 70.6,33.2 70.6,32.7 C70.6,32.4 70.5,32.4 70,32.4 C69.7,32.4 69.3,32.5 68.2,32.5 C67.6,32.5 67.1,32.4 66.5,32.4 C66.3,32.4 65.7,32.3 65.7,32.7 C65.7,32.8 65.9,32.9 66,32.9 C66.7,33.1 66.9,33.2 67.2,33.9 L71.3,43.2 C71.6,43.9 71.8,44 71.9,44 C72.1,44 72.2,43.9 72.3,43.5 L76.9,33.7 L76.9,33.7 L76.9,33.7 Z"></path>
                            <path d="M92,34.2 C92,33.1 92.1,33.1 94.1,33.1 C97.3,33.1 96,35 96.8,35 C97.2,35 97.1,34.5 97.1,34.3 L97,32.6 C97,32.5 96.9,32.3 96.7,32.3 C95.2,32.3 94.1,32.4 92.9,32.4 C90.4,32.4 89.2,32.3 88.5,32.3 C88.3,32.3 88.1,32.4 88.1,32.6 C88.1,33.2 90,32.7 90,34.2 L90,41.7 C90,43.7 88.7,42.8 88.7,43.5 C88.7,43.6 88.8,43.7 89,43.7 C89.9,43.7 90.6,43.6 91.1,43.6 C91.9,43.6 92.9,43.7 95.4,43.7 C96.8,43.7 97.7,42.4 97.7,41.1 C97.7,40.8 97.6,40.7 97.5,40.7 C96.9,40.7 97.1,42.8 93,42.8 C91.8,42.8 91.9,42.2 91.9,41.2 L91.9,39.2 C91.9,38.3 91.8,38.1 92.6,38.1 L93.8,38.1 C95.5,38.1 95.1,39.8 95.6,39.8 C96,39.8 95.9,39.2 95.9,39 L95.8,36.2 C95.8,35.8 95.6,35.8 95.5,35.8 C95.2,35.8 95.1,37.3 93.7,37.3 L92.7,37.3 C92,37.3 92,37.2 92,36.5 L92,34.2 L92,34.2 L92,34.2 Z"></path>
                            <path d="M111.9,33.9 C111.9,32.9 112.4,32.9 113,32.9 C114.7,32.9 115.6,34.1 115.6,35.7 C115.6,36.6 115.5,37.5 113,37.5 C112.5,37.5 111.9,37.5 111.9,37.1 L111.9,33.9 L111.9,33.9 L111.9,33.9 Z M109.9,41.3 C109.9,43.3 108.6,42.8 108.6,43.3 C108.6,43.6 108.9,43.6 109.1,43.6 C109.9,43.6 110.8,43.5 111.6,43.5 C112.3,43.5 112.7,43.6 113,43.6 C113.4,43.6 113.5,43.5 113.5,43.4 C113.5,42.8 111.9,43.5 111.9,41.8 L111.9,39 C111.9,38.4 111.8,38.3 112.7,38.3 C113.5,38.3 113.8,38.4 114.2,39.1 L115.6,41.6 C116.1,42.5 116.6,43.5 117.9,43.5 C118.6,43.5 119.7,43.1 119.7,42.7 C119.7,42.6 119.6,42.5 119.5,42.5 C119.3,42.5 119.2,42.6 119,42.6 C118.9,42.6 118.6,42.6 118.4,42.3 C117.2,40.3 115.8,38 115.8,37.9 C115.8,37.7 116.3,37.6 116.8,37.2 C117.3,36.8 117.8,36.2 117.8,35.2 C117.8,34.5 117.5,32.2 113.8,32.2 C112.7,32.2 111.6,32.3 110.5,32.3 C109.5,32.3 109.3,32.2 108.6,32.2 C108.4,32.2 108.2,32.3 108.2,32.4 C108.2,33 110,32.4 110,34.2 L110,41.3 L109.9,41.3 L109.9,41.3 Z"></path>
                            <path d="M131.1,42.5 C131.2,42.9 131.2,43 131.6,43.1 C132.6,43.3 133.4,43.7 134.4,43.7 C136.6,43.7 138.1,42.3 138.1,40.2 C138.1,38.2 137,37.5 135.2,36.7 C133,35.8 132.1,35.5 132.1,34.5 C132.1,33.4 132.8,32.8 133.9,32.8 C136.7,32.8 137,35.8 137.4,35.8 C137.8,35.8 137.8,35.6 137.8,35.3 L137.6,33.2 C137.6,32.8 137.6,32.6 137.4,32.6 C137.2,32.6 136.8,32.9 136.6,32.9 C136.1,32.9 135.4,32.3 134.1,32.3 C132.2,32.3 130.8,33.6 130.8,35.5 C130.8,37.2 131.8,37.8 133.2,38.4 C135.9,39.5 136.9,39.7 136.9,41.1 C136.9,42.4 135.9,43.1 134.6,43.1 C132.8,43.1 131.7,41.6 131.2,40.1 C131.1,39.9 131.1,39.7 130.8,39.7 C130.4,39.7 130.6,40.2 130.6,40.4 L131.1,42.5 L131.1,42.5 L131.1,42.5 Z"></path>
                            <path d="M153,34 C153,32.5 154.2,33.1 154.2,32.5 C154.2,32.3 154.1,32.3 153.6,32.3 C152.7,32.3 152.1,32.4 151.5,32.4 C150.9,32.4 150.3,32.3 149.6,32.3 C149.5,32.3 149,32.3 149,32.5 C149,33.1 150.9,32.6 150.9,34.1 L150.9,41.8 C150.9,43.3 149.7,42.9 149.7,43.5 C149.7,43.6 149.7,43.7 149.9,43.7 C150.3,43.7 151,43.6 151.8,43.6 C153.1,43.6 153.7,43.7 154.3,43.7 C154.7,43.7 154.8,43.6 154.8,43.5 C154.8,43 152.9,43.7 152.9,41.8 L152.9,34 L153,34 L153,34 Z"></path>
                            <path d="M169.9,41.5 C169.9,43.4 168,42.6 168,43.3 C168,43.7 168.3,43.6 168.6,43.6 C169.3,43.6 169.8,43.5 170.9,43.5 C172,43.5 172.6,43.6 173.2,43.6 C173.7,43.6 174,43.6 174,43.3 C174,42.9 171.9,43.3 171.9,41.3 L171.9,34.1 C171.9,33.3 172.1,33.3 172.7,33.3 L174.1,33.3 C176,33.2 175.5,35 176.1,35 C176.5,35 176.3,34.4 176.3,34.2 L176.1,32.7 C176.1,32.5 176.1,32.3 175.8,32.3 C174.3,32.3 173.2,32.4 170.7,32.4 C168.2,32.4 167.2,32.3 165.6,32.3 C165.3,32.3 165.3,32.5 165.3,32.7 L165,34.8 C165,35 164.9,35.4 165.2,35.4 C165.9,35.4 165.4,33.3 167.3,33.3 L168.7,33.3 C169.4,33.3 169.5,33.4 169.5,34.1 L169.5,41.5 L169.9,41.5 L169.9,41.5 Z"></path>
                            <path d="M191.1,38.5 C191.3,38.9 191.4,39 191.4,39.5 L191.4,41.6 C191.4,43.6 189.6,42.8 189.6,43.5 C189.6,43.6 189.8,43.7 190,43.7 C190.5,43.7 190.9,43.6 192.4,43.6 C194.5,43.6 194.7,43.7 194.9,43.7 C195.2,43.7 195.4,43.7 195.4,43.5 C195.4,42.7 193.4,43.8 193.4,41.8 L193.4,39.4 C193.4,38.8 193.4,38.7 193.6,38.4 L195.8,34.4 C196.8,32.6 197.5,33 197.5,32.5 C197.5,32.4 197.4,32.3 197.2,32.3 C196.7,32.3 196.6,32.4 195.3,32.4 C194.4,32.4 194.1,32.3 193.9,32.3 C193.7,32.3 193.6,32.4 193.6,32.5 C193.6,33 195.2,32.6 195.2,33.7 C195.2,33.8 195.2,34 194.9,34.6 L193.4,37.2 C193.2,37.6 193.1,37.7 193,37.7 C192.9,37.7 192.8,37.5 192.5,37 L191,34 C190.8,33.6 190.8,33.4 190.8,33.3 C190.8,32.8 191.7,32.9 191.7,32.5 C191.7,32.4 191.7,32.3 191.4,32.3 C190.4,32.4 189.7,32.4 189,32.4 C188.2,32.4 187.8,32.3 187.5,32.3 C187.1,32.3 186.9,32.3 186.9,32.5 C186.9,33 187.9,32.6 188.6,33.8 L191.1,38.5 L191.1,38.5 L191.1,38.5 Z"></path>
                            <path d="M7.6,4.5 C7.6,2.6 7.7,1.4 9.9,1.4 C12.9,1.4 15.3,3.5 15.3,6.5 C15.3,8.9 14.3,10.2 11.8,10.2 L9.8,10.2 C7.9,10 7.6,9.9 7.6,8.3 L7.6,4.5 L7.6,4.5 L7.6,4.5 Z M3.5,19.3 C3.5,22.5 0.6,21.6 0.6,22.7 C0.6,23.2 0.9,23.2 1.7,23.2 C2.4,23.2 3.3,23.1 4.1,23.1 C5.8,23.1 7.4,23.2 12.4,23.2 C17.8,23.2 20.9,20.4 20.9,16.1 C20.9,13.2 19.6,11.4 15.6,10.4 L15.6,10.3 C18,9.5 19.2,7.7 19.2,5.7 C19.2,4.9 19.2,0.1 11,0.1 C8.2,0 5.4,0.1 2.6,0.1 C1,0.1 0.8,0 0.6,0 C0.4,0 0,0 0,0.5 C0,2.1 3.5,0.3 3.5,4.8 L3.5,19.3 L3.5,19.3 L3.5,19.3 Z M7.6,14.2 C7.6,12.5 7.7,11.7 9.6,11.7 C15.7,11.7 16.6,14.6 16.6,16.6 C16.6,19.8 14.9,21.9 11.6,21.9 C8.4,21.9 7.5,21 7.5,17.9 L7.5,14.2 L7.6,14.2 L7.6,14.2 Z"></path>
                            <path d="M28.5,7.4 C28.5,4.9 30.5,5.9 30.5,5 C30.5,4.7 30.4,4.6 29.6,4.6 C28.1,4.6 27.1,4.7 26.2,4.7 C25.3,4.7 24.2,4.6 23.2,4.6 C23,4.6 22.3,4.5 22.3,5 C22.3,5.9 25.3,5.2 25.3,7.6 L25.3,20.2 C25.3,22.7 23.4,22 23.4,22.9 C23.4,23 23.5,23.2 23.7,23.2 C24.4,23.2 25.5,23.1 26.7,23.1 C28.8,23.1 29.8,23.2 30.7,23.2 C31.3,23.2 31.6,23.1 31.6,22.8 C31.6,22 28.6,23.2 28.6,19.9 L28.6,7.4 L28.5,7.4 L28.5,7.4 Z"></path>
                            <path d="M34.7,19.6 C34.7,22.3 32.1,21.8 32.1,22.8 C32.1,23.2 32.6,23.1 32.9,23.1 C33.6,23.1 34.3,23 35.2,23 C36.1,23 37,23.1 38.3,23.1 C38.6,23.1 39.3,23.1 39.3,22.8 C39.3,21.6 35.9,23.4 35.9,18.3 L35.9,9.4 C36,9.2 36.1,9 36.2,9 C36.3,9 36.5,9.1 36.7,9.3 L49.5,23 C49.7,23.2 49.8,23.4 50.2,23.4 C50.5,23.4 50.5,23.2 50.5,22.6 L50.5,7.9 C50.5,5.2 52.8,5.8 52.8,5 C52.8,4.9 52.8,4.7 52.3,4.7 C52.1,4.7 51.1,4.8 49.5,4.8 C47.7,4.8 46.9,4.7 46.5,4.7 C46.1,4.6 46,4.9 46,5 C46,5.9 49.2,5.4 49.2,7.8 L49.2,16.5 C49.2,17.2 49.1,17.5 49,17.5 C48.8,17.5 48.5,17.2 48.2,16.8 L37.5,5.3 C37,4.8 37.3,4.6 36.5,4.6 C35.1,4.6 34.4,4.7 33.7,4.7 C33.2,4.7 32.7,4.6 32.2,4.6 C31.9,4.6 31.7,4.8 31.7,5 C31.7,6.3 34.7,4.6 34.7,9.6 L34.7,19.6 L34.7,19.6 L34.7,19.6 Z"></path>
                            <path d="M71.6,6.3 C71.6,5.9 71.6,5.3 71.2,5.3 C70.8,5.3 70.7,6 70.1,6 C69.4,6 67.1,4.3 63.4,4.3 C56.7,4.3 54,10.1 54,14.5 C54,16.6 55.2,23.3 63,23.3 C65.9,23.3 68.9,22.1 71.4,20.7 C71.6,20.6 71.7,20.4 71.7,20 C71.7,19.6 71.6,18.9 71.6,17.8 C71.6,14.4 73.4,15.9 73.4,14.7 C73.4,14.4 73.2,14.3 73.1,14.3 C72.1,14.3 71.2,14.4 70.2,14.4 C68.9,14.4 67.7,14.3 66.5,14.3 C66,14.3 65.2,14.1 65.2,14.8 C65.2,15.8 68.4,14 68.4,18.1 C68.4,19.6 68.3,21.8 63.5,21.8 C59.2,21.8 57.3,17 57.3,13.5 C57.3,6.9 60.8,5.3 63.3,5.3 C70.3,5.3 70.3,11 70.9,11 C71.4,11 71.6,10.9 71.6,10.5 L71.6,6.3 L71.6,6.3 L71.6,6.3 Z"></path>
                            <path d="M92.9,7.4 C92.9,4.8 94.8,6 94.8,5 C94.8,4.8 94.7,4.7 94.2,4.7 C93.1,4.7 92.1,4.8 90.7,4.8 C89.1,4.8 88.4,4.7 87.3,4.7 C86.9,4.7 86.7,4.6 86.7,5.1 C86.7,5.9 89.6,4.9 89.6,7.8 L89.6,11.5 C89.6,12.1 89.4,12.7 88.7,12.7 L80.8,12.7 C80.2,12.7 80.1,12.4 80.1,11.7 L80.1,7.4 C80.1,5.1 82.1,5.8 82.1,5 C82.1,4.7 81.9,4.6 81.5,4.6 C80.7,4.6 79.7,4.7 78.1,4.7 C76.7,4.7 75.9,4.6 75.1,4.6 C74.6,4.6 73.8,4.6 73.8,5 C73.8,6 76.8,4.8 76.8,7.7 L76.8,19.4 C76.8,22.6 74.5,21.7 74.5,22.7 C74.5,23 74.8,23.1 75.1,23.1 C76.4,23.1 77.5,23 78.7,23 C80.6,23 81.5,23.1 82.6,23.1 C83.5,23.1 83.4,22.9 83.4,22.7 C83.4,21.8 80.1,22.7 80.1,19.5 L80.1,15.4 C80.1,14.2 80.2,14 81.4,14 L88.5,14 C89.7,14 89.6,14.3 89.6,15.4 L89.6,20.1 C89.6,22.6 87.7,21.9 87.7,22.8 C87.7,23 87.9,23.1 88.2,23.1 C89.6,23.1 90.6,23 91.6,23 C92.7,23 94.3,23.1 95.1,23.1 C95.4,23.1 95.7,23.1 95.7,22.8 C95.7,21.8 92.9,22.7 92.9,19.4 L92.9,7.4 L92.9,7.4 L92.9,7.4 Z"></path>
                            <path d="M102.9,15.3 C102.4,15.3 102,15.3 102,15.1 C102,14.7 102.2,14.4 102.3,14.1 L104.3,9.5 C104.4,9.2 104.5,9.2 104.6,9.2 C104.7,9.2 104.7,9.2 104.8,9.4 L107,14.1 C107.1,14.4 107.3,14.7 107.3,15.1 C107.3,15.4 106.9,15.3 106.4,15.3 L102.9,15.3 L102.9,15.3 L102.9,15.3 Z M107.3,16.7 C108,16.7 108.1,17 109,19 C109.3,19.7 109.5,20.2 109.5,20.8 C109.5,22.4 107.6,22.1 107.6,22.9 C107.6,23.3 107.9,23.2 108.4,23.2 C109.2,23.2 110.2,23.1 111.3,23.1 C113.1,23.1 113.8,23.2 114.7,23.2 C115.4,23.2 115.7,23.3 115.7,22.8 C115.7,21.9 114.3,23 113.4,21.1 L106.2,5.1 C105.9,4.3 105.8,4.3 105.6,4.3 C105.3,4.3 105.1,4.8 104.9,5.2 L97.7,21 C97,22.5 95.7,22.3 95.7,22.9 C95.7,23.2 96.1,23.2 96.5,23.2 C97.3,23.2 98,23.1 98.8,23.1 C99.7,23.1 100.4,23.2 101.3,23.2 C101.9,23.2 102.7,23.4 102.7,22.8 C102.7,22.1 99.8,22.5 99.8,20.6 C99.8,20 100.2,19.1 100.4,18.5 C101,16.8 101.6,16.7 102,16.7 L107.3,16.7 L107.3,16.7 L107.3,16.7 Z"></path>
                            <path d="M119.9,11.4 C119.9,11.2 119.9,10.7 120.1,10.7 C120.2,10.7 120.3,11 120.4,11.1 L125.6,22.4 C125.7,22.7 125.9,23.1 126.3,23.1 C126.7,23.1 126.8,22.7 127,22.4 L132,12.1 C132.4,11.2 132.7,10.7 132.8,10.7 C133,10.7 133,11.1 133,11.9 L133.4,19.8 C133.6,22.7 131.5,21.8 131.5,22.7 C131.5,23.2 132.2,23.1 132.7,23.1 C133.3,23.1 133.9,23 135.7,23 C136.5,23 137.2,23.1 138,23.1 C138.9,23.1 139.3,23.1 139.3,22.7 C139.3,21.7 136.9,22.9 136.7,19.5 L136.2,7.9 C136.1,4.9 138.7,5.9 138.7,5 C138.7,4.8 138.6,4.7 137.9,4.7 C137.2,4.7 136.7,4.8 136.2,4.8 C135.8,4.8 135.3,4.7 134.7,4.7 C134.2,4.7 134.1,5 134,5.2 L127.8,17.9 C127.8,18 127.5,18.4 127.4,18.4 C127.2,18.4 127.2,18.2 127.1,18 L121.2,5.4 C120.8,4.6 120.6,4.6 120.3,4.6 C119.4,4.6 118.4,4.7 117.8,4.7 C116.9,4.7 116.5,4.6 116.2,4.6 C116,4.6 115.9,4.8 115.9,5 C115.9,6.2 118.7,4.9 118.6,9.2 L118.2,19.7 C118.1,22.4 115.9,21.8 115.9,22.7 C115.9,22.9 116,23.1 116.4,23.1 C116.8,23.1 117.7,23 119,23 C120.2,23 120.8,23.1 121.7,23.1 C122.4,23.1 122.3,22.8 122.3,22.7 C122.3,21.6 119.4,23.1 119.5,18.7 L119.9,11.4 L119.9,11.4 L119.9,11.4 Z"></path>
                            <path d="M147,19.7 C147,22.8 144,21.6 144,22.6 C144,23.2 144.5,23.1 144.9,23.1 C146,23.1 146.8,23 148.6,23 C150.4,23 151.3,23.1 152.3,23.1 C153.1,23.1 153.6,23.2 153.6,22.6 C153.6,21.9 150.2,22.6 150.2,19.4 L150.2,7.6 C150.2,6.3 150.5,6.2 151.6,6.2 L153.9,6.2 C157,6.1 156.1,9 157.2,9 C157.9,9 157.6,8 157.5,7.7 L157.2,5.3 C157.2,5 157.2,4.7 156.8,4.7 C154.3,4.7 152.5,4.8 148.7,4.8 C144.8,4.8 143,4.7 140.6,4.7 C140.2,4.7 140.2,5.1 140.2,5.3 L139.8,8.8 C139.7,9.1 139.6,9.7 140.1,9.7 C141.3,9.7 140.5,6.3 143.5,6.3 L145.7,6.3 C146.8,6.3 147.1,6.4 147.1,7.7 L147.1,19.7 L147,19.7 L147,19.7 Z"></path>
                            <path d="M158.4,14.5 C158.4,19.8 162,23.3 167.3,23.3 C175.8,23.3 177.4,16.9 177.4,13.2 C177.4,7.7 173.4,4.3 168.2,4.3 C162,4.4 158.4,8.7 158.4,14.5 L158.4,14.5 L158.4,14.5 Z M161.7,13 C161.7,9.2 163,5.6 167.5,5.5 C170.9,5.4 174.2,8.5 174.2,14.3 C174.2,18.6 172.7,22.2 168.1,22.2 C163.4,22.3 161.7,16.8 161.7,13 L161.7,13 L161.7,13 Z"></path>
                            <path d="M181.2,19.6 C181.2,22.3 178.6,21.8 178.6,22.8 C178.6,23.2 179.1,23.1 179.4,23.1 C180.1,23.1 180.8,23 181.7,23 C182.6,23 183.5,23.1 184.8,23.1 C185.1,23.1 185.8,23.1 185.8,22.8 C185.8,21.6 182.4,23.4 182.4,18.3 L182.4,9.4 C182.4,9.2 182.5,9 182.6,9 C182.7,9 182.9,9.1 183.1,9.3 L196,23 C196.2,23.2 196.3,23.4 196.7,23.4 C197,23.4 197,23.2 197,22.6 L197,7.9 C197,5.2 199.3,5.8 199.3,5 C199.3,4.9 199.3,4.7 198.8,4.7 C198.6,4.7 197.6,4.8 196,4.8 C194.2,4.8 193.4,4.7 193,4.7 C192.7,4.7 192.6,5 192.6,5.1 C192.6,6 195.8,5.5 195.8,7.9 L195.8,16.6 C195.8,17.3 195.7,17.6 195.6,17.6 C195.4,17.6 195.1,17.3 194.8,16.9 L184,5.3 C183.5,4.8 183.8,4.6 183,4.6 C181.6,4.6 180.9,4.7 180.2,4.7 C179.7,4.7 179.2,4.6 178.7,4.6 C178.4,4.6 178.2,4.8 178.2,5 C178.2,6.3 181.2,4.6 181.2,9.6 L181.2,19.6 L181.2,19.6 L181.2,19.6 Z"></path>
                        </g>
                        <g transform="translate(10.000000, 55.000000)">
                            <path d="M3.8,1.8 C3.7,1.1 3.3,0.7 2.7,0.7 C1.9,0.7 1.6,1.2 1.6,1.6 C1.6,2 1.9,2.3 2.5,2.5 L3.2,2.8 C4.1,3.1 4.6,3.6 4.6,4.3 C4.6,5.2 3.8,5.8 2.7,5.8 C1.6,5.8 0.9,5.3 0.8,4.2 L1.5,4.2 C1.6,4.8 1.9,5.2 2.7,5.2 C3.3,5.2 3.8,4.8 3.8,4.3 C3.8,3.9 3.4,3.6 2.9,3.4 L2.1,3.1 C1.2,2.8 0.8,2.3 0.8,1.6 C0.8,0.6 1.7,0.1 2.6,0.1 C3.6,0.1 4.3,0.6 4.4,1.8 L3.8,1.8 L3.8,1.8 Z"></path>
                            <path d="M8.6,0.8 L7.1,0.8 L7.1,0.1 L10.8,0.1 L10.8,0.8 L9.3,0.8 L9.3,5.7 L8.6,5.7 L8.6,0.8 L8.6,0.8 Z"></path>
                            <path d="M16.7,4.4 L13.9,4.4 L13.4,5.7 L12.6,5.7 L15,0.2 L15.7,0.2 L18.1,5.7 L17.3,5.7 L16.7,4.4 L16.7,4.4 Z M15.3,1.1 L14.2,3.8 L16.4,3.8 L15.3,1.1 L15.3,1.1 Z"></path>
                            <path d="M21.2,0.8 L19.7,0.8 L19.7,0.1 L23.4,0.1 L23.4,0.8 L22,0.8 L22,5.7 L21.3,5.7 L21.3,0.8 L21.2,0.8 Z"></path>
                            <path d="M26.3,0.2 L29.4,0.2 L29.4,0.9 L27.1,0.9 L27.1,2.6 L29.4,2.6 L29.4,3.3 L27.1,3.3 L27.1,5.1 L29.4,5.1 L29.4,5.8 L26.3,5.8 L26.3,0.2 L26.3,0.2 Z"></path>
                            <path d="M36.6,0.2 L37.3,0.2 L37.3,3.5 C37.3,4.4 37.8,5.1 38.9,5.1 C39.9,5.1 40.5,4.4 40.5,3.5 L40.5,0.2 L41.2,0.2 L41.2,3.7 C41.2,4.9 40.2,5.8 38.9,5.8 C37.6,5.8 36.6,4.9 36.6,3.7 L36.6,0.2 L36.6,0.2 Z"></path>
                            <path d="M48.4,0.2 L49.1,0.2 L49.1,5.7 L48.4,5.7 L45.2,1.4 L45.2,1.4 L45.2,5.7 L44.5,5.7 L44.5,0.2 L45.2,0.2 L48.4,4.5 L48.4,4.5 L48.4,0.2 L48.4,0.2 Z"></path>
                            <path d="M52.4,0.2 L53.1,0.2 L53.1,5.7 L52.4,5.7 L52.4,0.2 L52.4,0.2 Z"></path>
                            <path d="M60.2,0.2 L61,0.2 L58.8,5.7 L58.2,5.7 L56,0.2 L56.8,0.2 L58.5,4.6 L58.5,4.6 L60.2,0.2 L60.2,0.2 Z"></path>
                            <path d="M63.8,0.2 L66.9,0.2 L66.9,0.9 L64.6,0.9 L64.6,2.6 L66.9,2.6 L66.9,3.3 L64.6,3.3 L64.6,5.1 L66.9,5.1 L66.9,5.8 L63.8,5.8 L63.8,0.2 L63.8,0.2 Z"></path>
                            <path d="M70.7,3.4 L70.7,5.8 L70,5.8 L70,0.3 L71.7,0.3 C72.8,0.3 73.7,0.9 73.7,2 C73.7,3 72.9,3.6 71.9,3.6 L74.2,5.8 L73.1,5.8 L70.7,3.4 L70.7,3.4 Z M70.7,2.9 L71.4,2.9 C72.5,2.9 72.9,2.4 72.9,1.8 C72.9,1.2 72.4,0.7 71.6,0.7 L70.7,0.7 L70.7,2.9 L70.7,2.9 Z"></path>
                            <path d="M79.8,1.8 C79.7,1.1 79.3,0.7 78.7,0.7 C77.9,0.7 77.6,1.2 77.6,1.6 C77.6,2 77.9,2.3 78.5,2.5 L79.2,2.8 C80.1,3.1 80.6,3.6 80.6,4.3 C80.6,5.2 79.8,5.8 78.7,5.8 C77.6,5.8 76.9,5.3 76.8,4.2 L77.5,4.2 C77.6,4.8 77.9,5.2 78.7,5.2 C79.3,5.2 79.8,4.8 79.8,4.3 C79.8,3.9 79.4,3.6 78.9,3.4 L78.1,3.1 C77.2,2.8 76.8,2.3 76.8,1.6 C76.8,0.6 77.7,0.1 78.6,0.1 C79.6,0.1 80.3,0.6 80.4,1.8 L79.8,1.8 L79.8,1.8 Z"></path>
                            <path d="M83.6,0.2 L84.3,0.2 L84.3,5.7 L83.6,5.7 L83.6,0.2 L83.6,0.2 Z"></path>
                            <path d="M88.6,0.8 L87.1,0.8 L87.1,0.1 L90.8,0.1 L90.8,0.8 L89.3,0.8 L89.3,5.7 L88.6,5.7 L88.6,0.8 L88.6,0.8 Z"></path>
                            <path d="M97.1,0.2 L98,0.2 L96,3.5 L96,5.7 L95.3,5.7 L95.3,3.5 L93.3,0.2 L94.2,0.2 L95.7,2.8 L97.1,0.2 L97.1,0.2 Z"></path>
                            <path d="M107.8,0.1 C109.8,0.1 110.9,1.6 110.9,2.9 C110.9,4.3 109.8,5.7 107.8,5.7 C105.8,5.7 104.7,4.2 104.7,2.9 C104.7,1.6 105.8,0.1 107.8,0.1 L107.8,0.1 Z M107.8,5.1 C109,5.1 110.1,4.2 110.1,2.9 C110.1,1.6 109,0.7 107.8,0.7 C106.6,0.7 105.5,1.6 105.5,2.9 C105.5,4.3 106.6,5.1 107.8,5.1 L107.8,5.1 Z"></path>
                            <path d="M114.1,0.2 L117.2,0.2 L117.2,0.9 L114.9,0.9 L114.9,2.6 L117.2,2.6 L117.2,3.3 L114.9,3.3 L114.9,5.8 L114.2,5.8 L114.2,0.2 L114.1,0.2 Z"></path>
                            <path d="M128.2,0.2 L128.9,0.2 L128.9,5.7 L128.2,5.7 L125,1.4 L125,1.4 L125,5.7 L124.2,5.7 L124.2,0.2 L124.9,0.2 L128.1,4.5 L128.1,4.5 L128.1,0.2 L128.2,0.2 Z"></path>
                            <path d="M132.2,0.2 L135.3,0.2 L135.3,0.9 L133,0.9 L133,2.6 L135.3,2.6 L135.3,3.3 L133,3.3 L133,5.1 L135.3,5.1 L135.3,5.8 L132.2,5.8 L132.2,0.2 L132.2,0.2 Z"></path>
                            <path d="M144.8,0.2 L145.6,0.2 L143.8,5.7 L143.2,5.7 L141.8,1.3 L141.8,1.3 L140.4,5.7 L139.8,5.7 L138,0.2 L138.8,0.2 L140.1,4.4 L140.1,4.4 L141.5,0.2 L142.2,0.2 L143.6,4.4 L143.6,4.4 L144.8,0.2 L144.8,0.2 Z"></path>
                            <path d="M155.7,0.2 L156.6,0.2 L154.6,3.5 L154.6,5.7 L153.9,5.7 L153.9,3.5 L151.9,0.2 L152.8,0.2 L154.3,2.8 L155.7,0.2 L155.7,0.2 Z"></path>
                            <path d="M162,0.1 C164,0.1 165.1,1.6 165.1,2.9 C165.1,4.3 164,5.7 162,5.7 C160,5.7 158.9,4.2 158.9,2.9 C158.9,1.6 160,0.1 162,0.1 L162,0.1 Z M162,5.1 C163.2,5.1 164.3,4.2 164.3,2.9 C164.3,1.6 163.2,0.7 162,0.7 C160.8,0.7 159.7,1.6 159.7,2.9 C159.7,4.3 160.8,5.1 162,5.1 L162,5.1 Z"></path>
                            <path d="M169,3.4 L169,5.8 L168.3,5.8 L168.3,0.3 L170,0.3 C171.1,0.3 172,0.9 172,2 C172,3 171.2,3.6 170.2,3.6 L172.5,5.8 L171.4,5.8 L169,3.4 L169,3.4 Z M169,2.9 L169.7,2.9 C170.8,2.9 171.2,2.4 171.2,1.8 C171.2,1.2 170.7,0.7 169.9,0.7 L169,0.7 L169,2.9 L169,2.9 Z"></path>
                            <path d="M178.5,0.2 L179.5,0.2 L176.8,2.9 L179.5,5.7 L178.4,5.7 L176,3.2 L176,5.7 L175.3,5.7 L175.3,0.2 L176,0.2 L176,2.7 L178.5,0.2 L178.5,0.2 Z"></path>
                        </g>
                    </g>
                    <path d="M215.8,3.5 L215.8,63.2" stroke="#353C47" stroke-width="1.25"></path>
                </g>
                <g transform="translate(231.000000, 25.000000)" id="Shape">
                    <path d="M7.6,11.2 C6.8,12 5.8,12.4 4.5,12.4 C3.2,12.4 2.3,12 1.5,11.2 C0.4,10.1 0.4,8.8 0.4,6.5 C0.4,4.2 0.4,3 1.5,1.8 C2.3,1 3.3,0.6 4.5,0.6 C5.7,0.6 6.8,1 7.6,1.8 C8.7,2.9 8.7,4.2 8.7,6.5 C8.7,8.8 8.8,10.1 7.6,11.2 L7.6,11.2 Z M6.3,3 C5.9,2.6 5.3,2.3 4.6,2.3 C3.9,2.3 3.3,2.6 2.9,3 C2.3,3.6 2.2,4.3 2.2,6.6 C2.2,8.9 2.3,9.6 2.9,10.2 C3.3,10.6 3.9,10.9 4.6,10.9 C5.3,10.9 5.9,10.6 6.3,10.2 C6.9,9.6 7,8.9 7,6.6 C7,4.3 6.8,3.6 6.3,3 L6.3,3 Z"></path>
                    <path d="M12.9,5.5 L12.9,12.3 L11.2,12.3 L11.2,5.5 L10.3,5.5 L10.3,4.2 L11.2,4.2 L11.2,3 C11.2,1.8 11.9,0.7 13.5,0.7 L14.5,0.7 L14.5,2.1 L13.8,2.1 C13.2,2.1 12.9,2.5 12.9,3.1 L12.9,4.3 L14.5,4.3 L14.5,5.6 L12.9,5.6 L12.9,5.5 Z"></path>
                    <path d="M18.1,5.5 L18.1,12.3 L16.4,12.3 L16.4,5.5 L15.5,5.5 L15.5,4.2 L16.4,4.2 L16.4,3 C16.4,1.8 17.1,0.7 18.7,0.7 L19.7,0.7 L19.7,2.1 L19,2.1 C18.4,2.1 18.1,2.5 18.1,3.1 L18.1,4.3 L19.7,4.3 L19.7,5.6 L18.1,5.6 L18.1,5.5 Z"></path>
                    <path d="M21.3,2.5 L21.3,0.7 L23.1,0.7 L23.1,2.5 L21.3,2.5 L21.3,2.5 Z M21.3,12.4 L21.3,4.2 L23,4.2 L23,12.4 L21.3,12.4 L21.3,12.4 Z"></path>
                    <path d="M28.7,12.5 C26.8,12.5 25,11.4 25,8.3 C25,5.2 26.8,4.1 28.7,4.1 C29.8,4.1 30.6,4.4 31.4,5.3 L30.3,6.4 C29.8,5.8 29.4,5.6 28.7,5.6 C28.1,5.6 27.5,5.9 27.2,6.3 C26.8,6.8 26.7,7.3 26.7,8.3 C26.7,9.3 26.8,9.9 27.2,10.3 C27.6,10.8 28.1,11 28.7,11 C29.4,11 29.8,10.8 30.3,10.2 L31.4,11.3 C30.6,12.1 29.8,12.5 28.7,12.5 L28.7,12.5 Z"></path>
                    <path d="M34.1,8.7 C34.1,10.1 34.8,11 36.2,11 C37.1,11 37.6,10.7 38.2,10.2 L39.3,11.2 C38.5,12 37.7,12.5 36.2,12.5 C34.1,12.5 32.5,11.4 32.5,8.3 C32.5,5.6 33.9,4.1 36,4.1 C38.2,4.1 39.5,5.7 39.5,8.1 L39.5,8.8 L34.1,8.8 L34.1,8.7 Z M37.6,6.4 C37.3,5.8 36.8,5.4 36,5.4 C35.2,5.4 34.6,5.8 34.4,6.4 C34.2,6.8 34.2,7 34.2,7.5 L37.9,7.5 C37.8,7.1 37.7,6.8 37.6,6.4 L37.6,6.4 Z"></path>
                    <path d="M50.7,11.5 C50.2,12.1 49.3,12.5 48.2,12.5 C47.1,12.5 46.3,12.1 45.7,11.5 C44.9,10.7 44.7,9.6 44.7,8.2 C44.7,6.8 44.9,5.8 45.7,5 C46.2,4.4 47,4 48.2,4 C49.4,4 50.1,4.4 50.7,5 C51.5,5.8 51.7,6.9 51.7,8.2 C51.7,9.6 51.5,10.7 50.7,11.5 L50.7,11.5 Z M49.5,6 C49.2,5.7 48.8,5.5 48.3,5.5 C47.8,5.5 47.4,5.7 47.1,6 C46.6,6.5 46.5,7.4 46.5,8.3 C46.5,9.2 46.6,10.1 47.1,10.6 C47.4,10.9 47.8,11.1 48.3,11.1 C48.8,11.1 49.2,10.9 49.5,10.6 C50,10.1 50.1,9.2 50.1,8.3 C50.1,7.3 50,6.5 49.5,6 L49.5,6 Z"></path>
                    <path d="M55.7,5.5 L55.7,12.3 L54,12.3 L54,5.5 L53.1,5.5 L53.1,4.2 L54,4.2 L54,3 C54,1.8 54.7,0.7 56.3,0.7 L57.3,0.7 L57.3,2.1 L56.6,2.1 C56,2.1 55.7,2.5 55.7,3.1 L55.7,4.3 L57.3,4.3 L57.3,5.6 L55.7,5.6 L55.7,5.5 Z"></path>
                    <path d="M65.2,12.4 C63.7,12.4 62.9,11.3 62.9,10.1 L62.9,5.6 L62,5.6 L62,4.3 L62.9,4.3 L62.9,1.8 L64.6,1.8 L64.6,4.3 L66.2,4.3 L66.2,5.6 L64.6,5.6 L64.6,10 C64.6,10.6 64.9,11 65.5,11 L66.2,11 L66.2,12.4 L65.2,12.4 L65.2,12.4 Z"></path>
                    <path d="M73.1,12.4 L73.1,7.3 C73.1,6 72.4,5.5 71.4,5.5 C70.5,5.5 69.7,6.1 69.7,7.3 L69.7,12.4 L68,12.4 L68,0.8 L69.7,0.8 L69.7,5 C70.3,4.4 71,4.1 71.8,4.1 C73.6,4.1 74.7,5.3 74.7,7.1 L74.7,12.4 L73.1,12.4 L73.1,12.4 Z"></path>
                    <path d="M78.4,8.7 C78.4,10.1 79.1,11 80.5,11 C81.4,11 81.9,10.7 82.5,10.2 L83.6,11.2 C82.8,12 82,12.5 80.5,12.5 C78.4,12.5 76.8,11.4 76.8,8.3 C76.8,5.6 78.2,4.1 80.3,4.1 C82.5,4.1 83.8,5.7 83.8,8.1 L83.8,8.8 L78.4,8.8 L78.4,8.7 Z M81.9,6.4 C81.6,5.8 81.1,5.4 80.3,5.4 C79.5,5.4 78.9,5.8 78.7,6.4 C78.5,6.8 78.5,7 78.5,7.5 L82.2,7.5 C82.1,7.1 82,6.8 81.9,6.4 L81.9,6.4 Z"></path>
                    <path d="M94.1,7.8 L91.5,7.8 L91.5,12.4 L89.7,12.4 L89.7,0.8 L94.1,0.8 C96.4,0.8 97.8,2.3 97.8,4.3 C97.8,6.3 96.4,7.8 94.1,7.8 L94.1,7.8 Z M94,2.4 L91.5,2.4 L91.5,6.3 L94,6.3 C95.2,6.3 96,5.6 96,4.4 C96,3.2 95.2,2.4 94,2.4 L94,2.4 Z"></path>
                    <path d="M104.1,6.1 C103.7,5.7 103.4,5.5 102.9,5.5 C102,5.5 101.3,6.2 101.3,7.4 L101.3,12.4 L99.6,12.4 L99.6,4.2 L101.2,4.2 L101.2,5 C101.6,4.4 102.5,4 103.4,4 C104.2,4 104.8,4.2 105.4,4.8 L104.1,6.1 L104.1,6.1 Z"></path>
                    <path d="M107.3,8.7 C107.3,10.1 108,11 109.4,11 C110.3,11 110.8,10.7 111.4,10.2 L112.5,11.2 C111.7,12 110.9,12.5 109.4,12.5 C107.3,12.5 105.7,11.4 105.7,8.3 C105.7,5.6 107.1,4.1 109.2,4.1 C111.4,4.1 112.7,5.7 112.7,8.1 L112.7,8.8 L107.3,8.8 L107.3,8.7 Z M110.8,6.4 C110.5,5.8 110,5.4 109.2,5.4 C108.4,5.4 107.8,5.8 107.6,6.4 C107.4,6.8 107.4,7 107.4,7.5 L111.1,7.5 C111,7.1 110.9,6.8 110.8,6.4 L110.8,6.4 Z"></path>
                    <path d="M117.3,12.5 C115.9,12.5 114.8,12.3 113.8,11.3 L114.9,10.2 C115.6,10.9 116.5,11.1 117.3,11.1 C118.3,11.1 119.1,10.7 119.1,10 C119.1,9.4 118.8,9.1 118,9 L116.7,8.9 C115.2,8.8 114.3,8.1 114.3,6.6 C114.3,5 115.7,4.1 117.4,4.1 C118.6,4.1 119.7,4.4 120.5,5 L119.5,6.1 C119,5.7 118.2,5.5 117.5,5.5 C116.5,5.5 116,5.9 116,6.6 C116,7.1 116.3,7.5 117.1,7.5 L118.4,7.6 C119.9,7.7 120.9,8.5 120.9,9.9 C120.8,11.6 119.3,12.5 117.3,12.5 L117.3,12.5 Z"></path>
                    <path d="M122.6,2.5 L122.6,0.7 L124.4,0.7 L124.4,2.5 L122.6,2.5 L122.6,2.5 Z M122.6,12.4 L122.6,4.2 L124.3,4.2 L124.3,12.4 L122.6,12.4 L122.6,12.4 Z"></path>
                    <path d="M131.5,12.4 L131.5,11.5 C130.9,12.2 130.2,12.5 129.3,12.5 C128.5,12.5 127.7,12.2 127.3,11.8 C126.5,11 126.4,9.6 126.4,8.3 C126.4,7 126.5,5.6 127.3,4.8 C127.8,4.3 128.5,4.1 129.3,4.1 C130.2,4.1 130.9,4.3 131.5,5 L131.5,0.8 L133.2,0.8 L133.2,12.4 L131.5,12.4 L131.5,12.4 Z M129.7,5.5 C128.2,5.5 128,6.8 128,8.2 C128,9.7 128.2,10.9 129.7,10.9 C131.2,10.9 131.4,9.6 131.4,8.2 C131.4,6.8 131.2,5.5 129.7,5.5 L129.7,5.5 Z"></path>
                    <path d="M136.8,8.7 C136.8,10.1 137.5,11 138.9,11 C139.8,11 140.3,10.7 140.9,10.2 L142,11.2 C141.2,12 140.4,12.5 138.9,12.5 C136.8,12.5 135.2,11.4 135.2,8.3 C135.2,5.6 136.6,4.1 138.7,4.1 C140.9,4.1 142.2,5.7 142.2,8.1 L142.2,8.8 L136.8,8.8 L136.8,8.7 Z M140.3,6.4 C140,5.8 139.5,5.4 138.7,5.4 C137.9,5.4 137.3,5.8 137.1,6.4 C136.9,6.8 136.9,7 136.9,7.5 L140.6,7.5 C140.5,7.1 140.4,6.8 140.3,6.4 L140.3,6.4 Z"></path>
                    <path d="M149.2,12.4 L149.2,7.4 C149.2,6.1 148.5,5.6 147.5,5.6 C146.5,5.6 145.8,6.2 145.8,7.4 L145.8,12.4 L144.1,12.4 L144.1,4.2 L145.7,4.2 L145.7,5 C146.3,4.4 147.1,4.1 147.9,4.1 C148.7,4.1 149.4,4.4 149.9,4.8 C150.5,5.4 150.7,6.2 150.7,7.1 L150.7,12.4 L149.2,12.4 L149.2,12.4 Z"></path>
                    <path d="M155.7,12.4 C154.2,12.4 153.4,11.3 153.4,10.1 L153.4,5.6 L152.5,5.6 L152.5,4.3 L153.4,4.3 L153.4,1.8 L155.1,1.8 L155.1,4.3 L156.7,4.3 L156.7,5.6 L155.1,5.6 L155.1,10 C155.1,10.6 155.4,11 156,11 L156.7,11 L156.7,12.4 L155.7,12.4 L155.7,12.4 Z"></path>
                </g>
            </g>
        </g>
    </g>
</svg>