<?xml version="1.0" encoding="UTF-8" standalone="no"?>
<svg width="889px" height="168px" viewBox="0 0 889 168" version="1.1" xmlns="http://www.w3.org/2000/svg" xmlns:xlink="http://www.w3.org/1999/xlink" xmlns:sketch="http://www.bohemiancoding.com/sketch/ns">
    <!-- Generator: Sketch 3.5 (25232) - http://www.bohemiancoding.com/sketch -->
    <title>Untitled</title>
    <desc>Created with Sketch.</desc>
    <defs></defs>
    <g id="Page-1" stroke="none" stroke-width="1" fill="none" fill-rule="evenodd" sketch:type="MSPage">
        <g id="Deloitte" sketch:type="MSLayerGroup">
            <g id="layer1" transform="translate(0.491550, 0.606210)" sketch:type="MSShapeGroup">
                <g id="g3557" transform="translate(0.716538, 0.750166)">
                    <path d="M283.28915,162.915597 L322.72766,162.915597 L322.72766,3.036842 L283.28915,3.036842 L283.28915,162.915597 L283.28915,162.915597 Z" id="path3435" fill="#353C47"></path>
                    <path d="M210.65706,69.864606 C225.0228,69.864606 229.36568,82.991765 229.36568,90.210926 L190.62686,90.210926 C190.62686,79.996307 197.7268,69.864606 210.65706,69.864606 L210.65706,69.864606 Z M251.92492,130.608167 C245.6127,132.748524 236.05106,135.692158 223.88786,135.692158 C206.88937,135.692158 193.57564,130.027735 191.40938,116.553348 L263.91712,116.553348 C264.45613,113.972487 265.4097,109.800611 265.4097,101.119997 C265.4097,70.502049 250.17846,42.402776 211.31001,42.402776 C173.55585,42.402776 153.45827,72.010142 153.45827,105.172677 C153.45827,143.4192 180.19457,165.294345 217.51861,165.294345 C240.98996,165.294345 251.35486,159.790578 257.77594,157.619126 L251.92492,130.608167 L251.92492,130.608167 Z" id="path3439" fill="#353C47"></path>
                    <path d="M775.1819,69.864606 C789.584,69.864606 793.8958,82.991765 793.8958,90.216109 C793.8698,90.205747 755.1673,90.205747 755.1569,90.216109 C755.1569,79.996307 762.2465,69.864606 775.1819,69.864606 L775.1819,69.864606 Z M816.4602,130.602988 C810.148,132.748524 800.5863,135.697341 788.4334,135.697341 C771.4143,135.697341 758.1109,130.027735 755.9291,116.563714 L828.4472,116.563714 C828.9862,113.97767 829.9346,109.795428 829.9346,101.12518 C829.9346,70.496866 814.7034,42.402776 775.8453,42.402776 C738.0963,42.402776 717.9832,71.99978 717.9832,105.167494 C717.9832,143.408834 744.7609,165.283979 782.0642,165.283979 C805.5097,165.283979 815.8849,159.790578 822.3163,157.613943 L816.4602,130.602988 L816.4602,130.602988 Z" id="path3443" fill="#353C47"></path>
                    <path d="M401.84821,136.091206 C389.0838,136.091206 380.69339,123.466745 380.69339,103.939253 C380.69339,88.376336 386.31638,71.766568 401.99329,71.766568 C417.12087,71.766568 422.48471,88.982684 422.48471,103.76823 C422.48471,123.389006 414.32235,136.091206 401.84821,136.091206 L401.84821,136.091206 Z M401.32993,165.26325 C432.01525,165.26325 463.07371,145.943055 463.07371,102.783563 C463.07371,77.078584 447.85284,42.568612 403.25263,42.568612 C357.34125,42.568612 340.59674,76.016182 340.59674,104.742531 C340.59674,140.786512 365.62801,165.26325 401.32993,165.26325 L401.32993,165.26325 Z" id="path3447" fill="#353C47"></path>
                    <path d="M480.4764,162.863774 L519.91491,162.863774 L519.91491,44.962909 L480.4764,44.962909 L480.4764,162.863774 L480.4764,162.863774 Z" id="path3449" fill="#353C47"></path>
                    <path d="M642.3297,12.883508 L642.3867,44.936997 L627.2176,44.973271 L627.2176,74.186776 L642.3297,74.202322 L642.3297,122.907041 C642.3297,148.8245 654.581,165.361717 682.2398,165.361717 C694.5844,165.361717 707.9292,162.153776 710.1473,161.438599 C710.1784,161.412683 709.9192,130.898385 709.9192,130.789556 C708.6547,131.214515 701.2076,132.753707 696.3153,132.753707 C690.7649,132.753707 680.9908,131.193786 680.9908,116.330502 L680.9908,74.186776 L706.4056,74.186776 L706.4056,44.916265 L680.9908,44.916265 L680.9908,8.509514 L642.3297,12.883508" id="path3453" fill="#353C47"></path>
                    <path d="M551.05626,12.883508 L551.11327,44.936997 L535.94423,44.973271 L535.94423,74.186776 L551.05626,74.202322 L551.05626,122.907041 C551.05626,148.8245 563.30761,165.361717 590.97153,165.361717 C603.311,165.361717 616.6558,162.153776 618.8739,161.438599 C618.905,161.412683 618.6459,130.898385 618.6459,130.789556 C617.3813,131.214515 609.9341,132.753707 605.0471,132.753707 C599.49148,132.753707 589.71738,131.193786 589.71738,116.330502 L589.71738,74.186776 L615.1373,74.186776 L615.1373,44.916265 L589.71738,44.916265 L589.71738,8.509514 L551.05626,12.883508" id="path3457" fill="#353C47"></path>
                    <path d="M480.4764,33.716979 L519.91491,33.716979 L519.91491,3.088665 L480.4764,3.088665 L480.4764,33.716979 L480.4764,33.716979 Z" id="path3459" fill="#353C47"></path>
                    <path d="M0.5551,163.050342 L47.078,163.02961 C115.28432,163.02961 141.27952,122.321421 141.27952,83.639574 C141.27952,30.633417 107.47951,0.39379 46.12961,0.39379 C29.26589,0.39379 10.6868,1.14006 0.50845,2.254292 L0.5551,163.050342 L0.5551,163.050342 Z M53.02227,131.364809 C47.76209,131.250793 42.29459,131.660206 39.52717,131.421815 C39.54272,131.411449 39.29397,33.172821 39.4546,33.152092 C42.35679,32.846325 47.49261,32.576839 53.46798,32.576839 C76.63356,32.576839 100.29664,47.740704 100.29664,82.468339 C100.29664,122.264415 70.05703,131.737945 53.02227,131.364809 L53.02227,131.364809 Z" id="path3463" fill="#353C47"></path>
                    <path d="M842.6938,143.621313 C842.6938,131.572106 852.4627,121.808358 864.5119,121.808358 C876.5559,121.808358 886.3352,131.572106 886.3352,143.621313 C886.3352,155.675708 876.5559,165.444635 864.5119,165.444635 C852.4627,165.444635 842.6938,155.675708 842.6938,143.621313" id="path3467" fill="#99ADCC"></path>
                </g>
            </g>
        </g>
    </g>
</svg>