<?xml version="1.0" encoding="UTF-8" standalone="no"?>
<svg width="510px" height="510px" viewBox="0 0 510 510" version="1.1" xmlns="http://www.w3.org/2000/svg" xmlns:xlink="http://www.w3.org/1999/xlink" xmlns:sketch="http://www.bohemiancoding.com/sketch/ns">
    <!-- Generator: Sketch 3.4.4 (17249) - http://www.bohemiancoding.com/sketch -->
    <title>Slice 1</title>
    <desc>Created with Sketch.</desc>
    <defs></defs>
    <g id="Page-1" stroke="none" stroke-width="1" fill="none" fill-rule="evenodd" sketch:type="MSPage">
        <g id="envisage" sketch:type="MSLayerGroup">
            <rect id="Rectangle-path" fill="#353C47" sketch:type="MSShapeGroup" x="0" y="0" width="509.7" height="509.7"></rect>
            <g id="Group" transform="translate(46.000000, 124.000000)" fill="#FFFFFF" sketch:type="MSShapeGroup">
                <path d="M101.6,216.5 L63.6,216.5 C60.8,216.5 58.6,218.8 58.6,221.5 L58.6,257.9 L63.6,257.9 L66.8,257.9 L66.8,226.9 C66.8,225.1 68.3,223.6 70.1,223.6 L95.1,223.6 C96.9,223.6 98.4,225.1 98.4,226.9 L98.4,257.9 L106.6,257.9 L106.6,221.5 C106.6,218.7 104.4,216.5 101.6,216.5" id="Shape"></path>
                <path d="M405.5,216.4 L367.5,216.4 C364.7,216.4 362.4,218.7 362.4,221.4 L362.4,252.7 C362.4,255.5 364.7,257.8 367.5,257.8 L410.5,257.8 L410.5,250.7 L374,250.7 C372.2,250.7 370.7,249.2 370.7,247.4 L370.7,240.6 L410.6,240.6 L410.6,240.5 L410.6,221.4 C410.6,218.7 408.3,216.4 405.5,216.4 L405.5,216.4 Z M370.7,233.6 L370.7,226.8 C370.7,225 372.2,223.5 374,223.5 L399,223.5 C400.8,223.5 402.3,225 402.3,226.8 L402.3,233.6 L370.7,233.6 L370.7,233.6 Z" id="Shape"></path>
                <path d="M153.7,216.5 L143.6,247.5 C142.9,249.4 142.1,250.8 140.3,250.8 L135.9,250.8 C134.1,250.8 133.3,249.3 132.6,247.5 L122.5,216.5 L119.3,216.5 L114.3,216.5 L125.5,252.9 C126.6,256.2 127.8,257.9 130.6,257.9 L145.6,257.9 C148.4,257.9 149.6,256.2 150.7,252.9 L161.9,216.5 L153.7,216.5 L153.7,216.5 Z" id="Shape"></path>
                <rect id="Rectangle-path" x="169.9" y="216.5" width="8.2" height="41.4"></rect>
                <path d="M231,233.7 L199.6,233.7 C197.8,233.7 196.3,232.2 196.3,230.4 L196.3,226.8 C196.3,225 197.8,223.5 199.6,223.5 L236,223.5 L236,216.5 L193.2,216.5 C190.4,216.5 188.2,218.7 188.2,221.5 L188.2,235.7 C188.2,238.5 190.4,240.7 193.2,240.7 L224.6,240.7 C226.4,240.7 227.9,242.2 227.9,244 L227.9,247.5 C227.9,249.3 226.4,250.8 224.6,250.8 L188.3,250.8 L188.2,250.8 L188.2,257.8 L231,257.8 C233.8,257.8 236,255.5 236,252.8 L236,238.7 C236,235.9 233.8,233.7 231,233.7" id="Shape"></path>
                <path d="M43.4,216.5 L5.4,216.5 C2.6,216.5 0.4,218.8 0.4,221.5 L0.4,252.8 C0.4,255.6 2.6,257.8 5.4,257.8 L48.4,257.8 L48.4,250.7 L11.9,250.7 C10.1,250.7 8.6,249.2 8.6,247.4 L8.6,240.6 L48.5,240.6 L48.5,240.5 L48.5,221.4 C48.5,218.7 46.2,216.5 43.4,216.5 L43.4,216.5 Z M40.2,233.6 L8.6,233.6 L8.6,226.8 C8.6,225 10.1,223.5 11.9,223.5 L36.9,223.5 C38.7,223.5 40.2,225 40.2,226.8 L40.2,233.6 L40.2,233.6 Z" id="Shape"></path>
                <path d="M309.4,216.4 C306.6,216.4 304.4,218.7 304.4,221.5 L304.4,252.8 C304.4,255.6 306.6,257.9 309.4,257.9 L347.4,257.9 C350.2,257.9 352.5,255.6 352.5,252.8 L352.5,233.5 L328.5,233.5 L328.5,240.8 L344.3,240.8 L344.3,247.5 C344.3,249.3 342.8,250.8 341,250.8 L316,250.8 C314.2,250.8 312.7,249.3 312.7,247.5 L312.7,226.9 C312.7,225.1 314.2,223.6 316,223.6 L352.5,223.6 L352.5,216.5 L309.4,216.5 L309.4,216.4 Z" id="Shape"></path>
                <path d="M289.2,216.5 L251.2,216.5 C248.4,216.5 246.2,218.8 246.2,221.5 L246.2,257.9 L254.4,257.9 L254.4,247 L286,247 L286,257.9 L294.2,257.9 L294.2,221.5 C294.2,218.7 291.9,216.5 289.2,216.5 L289.2,216.5 Z M286,240.5 L254.3,240.5 L254.3,226.8 C254.3,225 255.8,223.5 257.6,223.5 L282.6,223.5 C284.4,223.5 285.9,225 285.9,226.8 L285.9,240.5 L286,240.5 Z" id="Shape"></path>
                <path d="M131.5,176.8 C132.2,177.5 133,178.1 133.8,178.7 C134.6,179.3 135.5,179.7 136.5,180.1 C138.4,180.9 140.5,181.3 142.5,181.3 L302.5,181.3 L164.8,143.4 L131.5,176.8 L131.5,176.8 Z" id="Shape"></path>
                <path d="M298.3,0.8 L138.3,0.8 C136.2,0.8 134.1,1.2 132.2,2 C131.3,2.4 130.4,2.9 129.5,3.5 C128.7,4.1 127.9,4.7 127.2,5.4 C126.5,6.1 125.8,6.9 125.3,7.7 C124.7,8.5 124.2,9.5 123.8,10.4 C123,12.3 122.6,14.4 122.6,16.5 L122.6,160.7 C122.6,161.8 122.7,162.9 122.9,163.9 C123.1,164.9 123.4,165.9 123.9,166.9 C124.3,167.8 124.8,168.8 125.4,169.6 C126,170.4 126.7,171.2 127.4,172 L298.3,0.8 L298.3,0.8 Z" id="Shape"></path>
            </g>
        </g>
    </g>
</svg>