<?xml version="1.0" encoding="UTF-8" standalone="no"?>
<svg width="550px" height="95px" viewBox="0 0 550 95" version="1.1" xmlns="http://www.w3.org/2000/svg" xmlns:xlink="http://www.w3.org/1999/xlink" xmlns:sketch="http://www.bohemiancoding.com/sketch/ns">
    <!-- Generator: Sketch 3.5.1 (25234) - http://www.bohemiancoding.com/sketch -->
    <title>lockheed-martin</title>
    <desc>Created with Sketch.</desc>
    <defs></defs>
    <g id="Page-1" stroke="none" stroke-width="1" fill="none" fill-rule="evenodd" sketch:type="MSPage">
        <g id="lockheed-martin" sketch:type="MSLayerGroup" transform="translate(-3.000000, -3.000000)" fill="#353C47">
            <g id="Page-1" sketch:type="MSShapeGroup">
                <g id="lockheed-martin">
                    <g id="g3" transform="translate(1.704238, 1.952822)">
                        <path d="M551.141851,38.3950644 L510.918449,38.3950644 L520.872724,1.62518791 L486.74378,38.3950644 L326.459622,38.3950644 C326.459622,38.3950644 325.850176,38.3950644 325.850176,38.8013613 C325.850176,39.0045098 326.053324,39.2076584 326.459622,39.2076584 L483.696551,41.6454402 L463.991149,62.9760316 C463.991149,62.9760316 463.584851,63.3823284 463.788,63.5854771 C463.991149,63.7886256 464.194298,63.5854771 464.397447,63.3823284 L486.74378,41.8485887 L506.652331,42.2548858 L502.792511,59.3193587 L438.39444,94.0577504 C438.39444,94.0577504 437.988142,94.2608989 438.191291,94.4640473 C438.39444,94.6671958 438.597587,94.6671958 438.800736,94.4640473 L502.183064,62.9760316 L495.072867,95.2766413 C495.072867,95.2766413 494.86972,95.8860867 495.276016,95.8860867 C495.479164,95.8860867 495.682313,95.6829382 495.682313,95.4797898 L504.823996,61.5539922 L551.141851,38.3950644 L551.141851,38.3950644 L551.141851,38.3950644 Z M490.197304,38.3950644 L512.340489,17.0644731 L507.668073,38.3950644 L490.197304,38.3950644 L490.197304,38.3950644 L490.197304,38.3950644 Z M509.902707,42.0517371 L533.874229,42.4580342 L505.839738,57.6941709 L509.902707,42.0517371 L509.902707,42.0517371 L509.902707,42.0517371 Z" id="path5"></path>
                        <path d="M5.28186071,50.5839738 L12.1889093,50.5839738 L9.54797898,63.3823284 L15.8455821,63.3823284 L14.8298397,68.2578922 L1.42203942,68.2578922 L5.28186071,50.5839738" id="polyline7"></path>
                        <path d="M36.566728,59.3193587 C37.379322,55.2563889 38.3950644,54.6469436 39.4108069,54.6469436 C40.6296978,54.6469436 41.2391433,55.2563889 40.2234009,59.3193587 C39.4108069,63.3823284 38.3950644,63.991774 37.379322,63.991774 C36.3635796,63.991774 35.754134,63.3823284 36.566728,59.3193587 L36.566728,59.3193587 L36.566728,59.3193587 Z M29.4565309,59.3193587 C28.23764,64.804368 30.4722733,68.6641893 36.566728,68.6641893 C42.6611827,68.6641893 46.521004,64.804368 47.7398949,59.3193587 C48.9587858,53.8343496 46.7241524,49.9745282 40.6296978,49.9745282 C34.3320947,50.1776767 30.4722733,53.8343496 29.4565309,59.3193587 L29.4565309,59.3193587 L29.4565309,59.3193587 Z" id="path9"></path>
                        <path d="M77.6027227,61.7571407 C76.5869802,66.6327044 72.320862,68.6641893 67.8515953,68.6641893 C61.7571407,68.6641893 59.5225073,64.804368 60.7413982,59.3193587 C61.7571407,53.8343496 65.8201104,50.1776767 71.7114167,50.1776767 C76.1806833,50.1776767 79.6342076,52.0060131 78.4153167,57.0847253 L71.9145651,57.0847253 C72.320862,55.0532404 71.508268,54.6469436 70.6956742,54.6469436 C68.8673378,54.6469436 68.2578922,56.47528 67.6484469,59.3193587 C67.0390013,61.9602891 66.8358529,63.991774 68.4610407,63.991774 C69.2736347,63.991774 70.0862287,63.3823284 70.4925256,61.5539922 L77.6027227,61.5539922" id="path11"></path>
                        <path d="M95.2766413,50.5839738 L102.18369,50.5839738 L100.558502,58.1004678 L100.558502,58.1004678 L105.840363,50.5839738 L113.153708,50.5839738 L106.652957,58.9130618 L110.106481,68.2578922 L102.589987,68.2578922 L100.152205,60.3351011 L100.152205,60.3351011 L98.3238687,68.2578922 L91.6199684,68.2578922 L95.2766413,50.5839738" id="polyline13"></path>
                        <path d="M135.703191,61.7571407 L132.655963,61.7571407 L131.233924,68.2578922 L124.326875,68.2578922 L127.983548,50.5839738 L135.093745,50.5839738 L133.671706,56.47528 L136.718933,56.47528 L137.937824,50.5839738 L145.048021,50.5839738 L141.1882,68.2578922 L134.281151,68.2578922 L135.703191,61.7571407" id="polyline15"></path>
                        <path d="M161.2999,50.5839738 L174.7077,50.5839738 L173.691958,55.2563889 L166.988058,55.2563889 L166.581761,57.0847253 L172.879364,57.0847253 L171.863622,61.5539922 L165.566018,61.5539922 L165.159722,63.5854771 L172.06677,63.5854771 L171.051028,68.2578922 L157.440079,68.2578922 L161.2999,50.5839738" id="polyline17"></path>
                        <path d="M191.365876,50.5839738 L204.773677,50.5839738 L203.757934,55.2563889 L197.054034,55.2563889 L196.647737,57.0847253 L202.94534,57.0847253 L201.929598,61.5539922 L195.631995,61.5539922 L195.225698,63.5854771 L202.335895,63.5854771 L201.320152,68.2578922 L187.709204,68.2578922 L191.365876,50.5839738" id="polyline19"></path>
                        <path d="M227.526307,54.6469436 L228.135753,54.6469436 C229.354644,54.6469436 229.76094,55.0532404 230.167238,55.8658344 C230.370387,56.6784284 230.370387,57.8973193 229.964089,59.5225073 C229.557793,61.1476951 229.151496,62.5697347 228.542049,63.17918 C227.932604,63.7886256 227.120011,64.3980709 226.104269,64.3980709 L225.494822,64.3980709 L227.526307,54.6469436 L227.526307,54.6469436 L227.526307,54.6469436 Z M217.77518,68.2578922 L226.510564,68.2578922 C231.995573,68.2578922 236.058544,65.0075164 237.277436,59.7256558 C238.496327,54.4437951 236.871138,50.7871222 229.964089,50.7871222 L221.635001,50.7871222 L217.77518,68.2578922 L217.77518,68.2578922 L217.77518,68.2578922 Z" id="path21"></path>
                        <path d="M283.79844,55.662686 L283.79844,55.662686 L278.516578,68.2578922 L272.218976,68.2578922 L272.422124,55.662686 L272.218976,55.662686 L269.578044,68.2578922 L263.686738,68.2578922 L267.343411,50.5839738 L277.094538,50.5839738 L276.891391,61.1476951 L276.891391,61.1476951 L280.95436,50.5839738 L290.705487,50.5839738 L287.048816,68.2578922 L281.157509,68.2578922 L283.79844,55.662686" id="polyline23"></path>
                        <path d="M311.223484,61.1476951 L314.067564,54.4437951 L314.067564,54.4437951 L314.067564,61.1476951 L311.223484,61.1476951 L311.223484,61.1476951 L311.223484,61.1476951 Z M301.269209,68.2578922 L307.973109,68.2578922 L309.192,65.4138133 L314.270713,65.4138133 L314.270713,68.2578922 L321.584058,68.2578922 L319.755722,50.5839738 L310.61404,50.5839738 L301.269209,68.2578922 L301.269209,68.2578922 L301.269209,68.2578922 Z" id="path25"></path>
                        <path d="M346.165024,57.8973193 L346.97762,54.6469436 L347.383916,54.6469436 C348.805956,54.6469436 349.618549,54.850092 349.212253,56.2721313 C349.009104,57.6941709 347.790213,58.1004678 346.571322,58.1004678 L346.165024,58.1004678 L346.165024,57.8973193 L346.165024,57.8973193 Z M337.023342,68.2578922 L343.930391,68.2578922 L345.149282,61.9602891 L345.961876,61.9602891 C347.180767,61.9602891 347.383916,62.366586 347.383916,63.17918 C347.383916,64.6012196 346.97762,66.8358529 347.180767,68.2578922 L354.087816,68.2578922 C353.884667,65.616962 354.494113,63.17918 354.290964,61.5539922 C354.290964,60.1319527 353.478371,59.5225073 351.853182,59.3193587 L351.853182,59.3193587 C354.697262,58.7099133 355.916153,57.0847253 356.322449,55.0532404 C357.135044,51.8028647 355.103558,50.5839738 351.243738,50.5839738 L340.883164,50.5839738 L337.023342,68.2578922 L337.023342,68.2578922 L337.023342,68.2578922 Z" id="path27"></path>
                        <path d="M376.231002,55.2563889 L371.964882,55.2563889 L372.980627,50.5839738 L388.62306,50.5839738 L387.607318,55.2563889 L383.341198,55.2563889 L380.49712,68.2578922 L373.590071,68.2578922 L376.231002,55.2563889" id="polyline29"></path>
                        <path d="M404.671789,50.5839738 L411.781987,50.5839738 L407.922167,68.2578922 L401.015118,68.2578922 L404.671789,50.5839738" id="polyline31"></path>
                        <path d="M428.643311,50.5839738 L437.175549,50.5839738 L438.597587,61.1476951 L438.597587,61.1476951 L440.83222,50.5839738 L446.520378,50.5839738 L442.863707,68.2578922 L434.534618,68.2578922 L432.909429,57.4910224 L432.909429,57.4910224 L430.674796,68.2578922 L424.986638,68.2578922 L428.643311,50.5839738" id="polyline33"></path>
                    </g>
                </g>
            </g>
        </g>
    </g>
</svg>