<?xml version="1.0" encoding="UTF-8" standalone="no"?>
<svg width="1034px" height="221px" viewBox="0 0 1034 221" version="1.1" xmlns="http://www.w3.org/2000/svg" xmlns:xlink="http://www.w3.org/1999/xlink" xmlns:sketch="http://www.bohemiancoding.com/sketch/ns">
    <!-- Generator: Sketch 3.4.4 (17249) - http://www.bohemiancoding.com/sketch -->
    <title>Untitled</title>
    <desc>Created with Sketch.</desc>
    <defs></defs>
    <g id="Page-1" stroke="none" stroke-width="1" fill="none" fill-rule="evenodd" sketch:type="MSPage">
        <g id="Microsoft" sketch:type="MSLayerGroup" fill="#353C47">
            <path d="M1033.7455,99.8385 L1033.7455,81.6585 L1011.1692,81.6585 L1011.1692,53.39475 L1010.4093,53.6285 L989.20425,60.116 L988.78675,60.2435 L988.78675,81.6585 L955.318,81.6585 L955.318,69.72975 C955.318,64.17475 956.5605,59.9235 959.008,57.0885 C961.43925,54.28725 964.91675,52.8635 969.3505,52.8635 C972.53925,52.8635 975.8405,53.61475 979.16175,55.096 L979.99425,55.46725 L979.99425,36.321 L979.603,36.17725 C976.50425,35.0635 972.288,34.50225 967.06425,34.50225 C960.47925,34.50225 954.4955,35.93475 949.278,38.77475 C944.05675,41.6185 939.94925,45.6785 937.073,50.841 C934.2055,55.99725 932.7505,61.95225 932.7505,68.54225 L932.7505,81.6585 L917.0305,81.6585 L917.0305,99.8385 L932.7505,99.8385 L932.7505,176.42725 L955.318,176.42725 L955.318,99.8385 L988.78675,99.8385 L988.78675,148.50975 C988.78675,168.55475 998.24175,178.7135 1016.888,178.7135 C1019.953,178.7135 1023.1768,178.3535 1026.4705,177.64975 C1029.8218,176.9285 1032.1043,176.20725 1033.448,175.43725 L1033.7455,175.26225 L1033.7455,156.9135 L1032.828,157.521 C1031.603,158.3385 1030.078,159.00475 1028.2893,159.49975 C1026.493,160.00475 1024.993,160.2585 1023.8318,160.2585 C1019.463,160.2585 1016.2318,159.081 1014.2255,156.7585 C1012.198,154.41475 1011.1693,150.31475 1011.1693,144.581 L1011.1693,99.8385 L1033.7455,99.8385 L1033.7455,99.8385 Z M866.63375,160.26025 C858.4425,160.26025 851.985,157.544 847.43375,152.194 C842.855,146.8165 840.535,139.15025 840.535,129.41025 C840.535,119.3615 842.855,111.4965 847.43625,106.024 C851.99,100.58775 858.38625,97.829 866.45,97.829 C874.275,97.829 880.50375,100.464 884.965,105.66525 C889.45,110.89275 891.725,118.69525 891.725,128.8615 C891.725,139.15275 889.585,147.05775 885.365,152.34525 C881.175,157.594 874.87375,160.26025 866.63375,160.26025 L866.63375,160.26025 Z M867.63875,79.37525 C852.01125,79.37525 839.59875,83.954 830.75,92.98525 C821.90625,102.01775 817.42125,114.5165 817.42125,130.139 C817.42125,144.9765 821.79875,156.9115 830.4325,165.6065 C839.06625,174.30525 850.81625,178.7115 865.3525,178.7115 C880.50125,178.7115 892.66625,174.069 901.5125,164.91275 C910.3575,155.76525 914.83875,143.38525 914.83875,128.12775 C914.83875,113.05775 910.63375,101.034 902.33625,92.3965 C894.035,83.75525 882.35875,79.37525 867.63875,79.37525 L867.63875,79.37525 Z M781.03562,79.37475 C770.40562,79.37475 761.61312,82.0935 754.89562,87.45475 C748.13812,92.84725 744.71062,99.921 744.71062,108.47975 C744.71062,112.9285 745.45062,116.881 746.90687,120.23225 C748.37187,123.596 750.63937,126.556 753.65062,129.041 C756.64062,131.506 761.25312,134.0885 767.36812,136.71475 C772.50687,138.82975 776.34062,140.61975 778.77562,142.02975 C781.15562,143.411 782.84562,144.801 783.79937,146.1535 C784.72562,147.47725 785.19687,149.2885 785.19687,151.526 C785.19687,157.89225 780.42937,160.98975 770.61812,160.98975 C766.97937,160.98975 762.82812,160.231 758.28062,158.73225 C753.73062,157.236 749.47937,155.08475 745.64687,152.326 L744.71062,151.65475 L744.71062,173.381 L745.05437,173.541 C748.24812,175.01475 752.27312,176.25725 757.01812,177.236 C761.75437,178.21475 766.05687,178.7135 769.79562,178.7135 C781.33062,178.7135 790.61937,175.981 797.39687,170.5885 C804.21812,165.1585 807.67562,157.9185 807.67562,149.06225 C807.67562,142.67475 805.81437,137.196 802.14562,132.7785 C798.50312,128.396 792.18062,124.3735 783.36062,120.81725 C776.33437,117.99725 771.83312,115.656 769.97687,113.85975 C768.18687,112.1235 767.27812,109.6685 767.27812,106.55975 C767.27812,103.8035 768.39937,101.596 770.70312,99.80725 C773.02437,98.00975 776.25437,97.096 780.30687,97.096 C784.06687,97.096 787.91437,97.68975 791.73937,98.8535 C795.56312,100.01725 798.92062,101.576 801.72437,103.4835 L802.64562,104.1135 L802.64562,83.5035 L802.29187,83.351 C799.70562,82.24225 796.29562,81.2935 792.15437,80.5235 C788.02937,79.761 784.28812,79.37475 781.03562,79.37475 L781.03562,79.37475 Z M685.87812,160.26025 C677.68937,160.26025 671.22937,157.544 666.67937,152.194 C662.09937,146.8165 659.78312,139.15275 659.78312,129.41025 C659.78312,119.3615 662.10187,111.4965 666.68437,106.024 C671.23437,100.58775 677.62937,97.829 685.69687,97.829 C693.51937,97.829 699.74812,100.464 704.21062,105.66525 C708.69562,110.89275 710.97062,118.69525 710.97062,128.8615 C710.97062,139.15275 708.82937,147.05775 704.60937,152.34525 C700.41937,157.594 694.12062,160.26025 685.87812,160.26025 L685.87812,160.26025 Z M686.88562,79.37525 C671.25437,79.37525 658.84187,83.954 649.99687,92.98525 C641.15312,102.01775 636.66562,114.5165 636.66562,130.139 C636.66562,144.98275 641.04562,156.9115 649.67937,165.6065 C658.31312,174.30525 670.06187,178.7115 684.59937,178.7115 C699.74437,178.7115 711.91312,174.069 720.75937,164.91275 C729.60187,155.76525 734.08562,143.38525 734.08562,128.12775 C734.08562,113.05775 729.87937,101.034 721.58062,92.3965 C713.27687,83.75525 701.60312,79.37525 686.88562,79.37525 L686.88562,79.37525 Z M602.40887,98.06975 L602.40887,81.6585 L580.11637,81.6585 L580.11637,176.42475 L602.40887,176.42475 L602.40887,127.9485 C602.40887,119.70475 604.27762,112.9335 607.96512,107.8185 C611.60637,102.76475 616.45887,100.2035 622.38262,100.2035 C624.39012,100.2035 626.64387,100.53475 629.08512,101.18975 C631.50137,101.841 633.25137,102.54725 634.28387,103.291 L635.22012,103.96975 L635.22012,81.496 L634.85887,81.341 C632.78262,80.4585 629.84637,80.0135 626.13012,80.0135 C620.52887,80.0135 615.51512,81.8135 611.22137,85.35725 C607.45262,88.47225 604.72762,92.7435 602.64512,98.06975 L602.40887,98.06975 L602.40887,98.06975 Z M540.19575,79.37475 C529.9695,79.37475 520.847,81.5685 513.087,85.891 C505.312,90.2235 499.2995,96.40975 495.20825,104.276 C491.13575,112.1235 489.06825,121.28975 489.06825,131.511 C489.06825,140.46475 491.07325,148.68225 495.03575,155.9235 C499.00075,163.17725 504.61325,168.85225 511.717,172.7885 C518.81075,176.71975 527.0095,178.7135 536.087,178.7135 C546.68075,178.7135 555.72575,176.59475 562.97825,172.4185 L563.27075,172.24975 L563.27075,151.82725 L562.3345,152.511 C559.0495,154.9035 555.37825,156.8135 551.42825,158.18975 C547.48825,159.56475 543.89575,160.25975 540.747,160.25975 C531.9995,160.25975 524.97825,157.52225 519.88075,152.12725 C514.772,146.7235 512.182,139.13725 512.182,129.58975 C512.182,119.98225 514.88325,112.201 520.207,106.4585 C525.51325,100.7335 532.54825,97.82975 541.1145,97.82975 C548.442,97.82975 555.582,100.311 562.337,105.211 L563.27075,105.88975 L563.27075,84.371 L562.9695,84.201 C560.427,82.7785 556.96075,81.6035 552.65575,80.71225 C548.37075,79.8235 544.1795,79.37475 540.19575,79.37475 L540.19575,79.37475 Z M473.715,81.65875 L451.4225,81.65875 L451.4225,176.425 L473.715,176.425 L473.715,81.65875 L473.715,81.65875 Z M462.79625,41.2875 C459.1275,41.2875 455.9275,42.53625 453.29875,45.01125 C450.65875,47.49375 449.31875,50.61875 449.31875,54.30625 C449.31875,57.93625 450.6425,61.00375 453.25625,63.42 C455.85375,65.82875 459.06375,67.05 462.79625,67.05 C466.5275,67.05 469.75,65.82875 472.37875,63.42375 C475.025,61.00375 476.36625,57.93625 476.36625,54.30625 C476.36625,50.7475 475.06125,47.65375 472.4875,45.11125 C469.9175,42.57375 466.65625,41.2875 462.79625,41.2875 L462.79625,41.2875 Z M407.17637,74.667 L407.17637,176.4245 L429.92637,176.4245 L429.92637,44.1895 L398.44012,44.1895 L358.41762,142.4095 L319.57887,44.1895 L286.81012,44.1895 L286.81012,176.4245 L308.18887,176.4245 L308.18887,74.657 L308.92387,74.657 L349.93637,176.4245 L366.07012,176.4245 L406.44262,74.667 L407.17637,74.667 L407.17637,74.667 Z" id="path5056" sketch:type="MSShapeGroup"></path>
            <path d="M104.8675,104.8675 L0,104.8675 L0,0 L104.8675,0 L104.8675,104.8675 L104.8675,104.8675 Z" id="path5058" sketch:type="MSShapeGroup"></path>
            <path d="M115.7875,104.8675 L115.7875,0 L220.65375,0 L220.65375,104.8675 L115.7875,104.8675 Z" id="path5060" sketch:type="MSShapeGroup"></path>
            <path d="M0,220.695 L0,115.8275 L104.865,115.8275 L104.865,220.695 L0,220.695 Z" id="path5062" sketch:type="MSShapeGroup"></path>
            <path d="M220.65375,220.695 L115.7875,220.695 L115.7875,115.8275 L220.65375,115.8275 L220.65375,220.695 L220.65375,220.695 Z" id="path5064" sketch:type="MSShapeGroup"></path>
        </g>
    </g>
</svg>