<?xml version="1.0" encoding="UTF-8" standalone="no"?>
<svg width="533px" height="317px" viewBox="0 0 533 317" version="1.1" xmlns="http://www.w3.org/2000/svg" xmlns:xlink="http://www.w3.org/1999/xlink" xmlns:sketch="http://www.bohemiancoding.com/sketch/ns">
    <!-- Generator: Sketch 3.4.4 (17249) - http://www.bohemiancoding.com/sketch -->
    <title>Untitled</title>
    <desc>Created with Sketch.</desc>
    <defs></defs>
    <g id="Page-1" stroke="none" stroke-width="1" fill="none" fill-rule="evenodd" sketch:type="MSPage">
        <g id="MLH_Original" sketch:type="MSLayerGroup">
            <g id="Layer_1">
                <g id="H">
                    <g id="Layer_9"></g>
                    <g id="Layer_10"></g>
                    <g id="Layer_11"></g>
                </g>
                <g id="L">
                    <g id="Layer_6"></g>
                    <g id="Layer_7"></g>
                </g>
                <g id="M">
                    <g id="Layer_2"></g>
                    <g id="Layer_4"></g>
                </g>
                <g id="Major_League_Hacking" transform="translate(18.000000, 14.000000)" fill="#353C47" sketch:type="MSShapeGroup">
                    <g id="Group">
                        <path d="M508.5,1.3 C509.8,1.3 511,1.8 511.9,2.7 C512.8,3.6 513.3,4.7 513.3,6.1 L513.3,171.6 C513.3,172.9 512.8,174.1 511.9,175 C511,175.9 509.9,176.4 508.5,176.4 L473.7,176.4 C472.4,176.4 471.2,175.9 470.3,175 C469.4,174.1 468.9,173 468.9,171.6 L468.9,113.8 C468.9,112.5 468.5,111.4 467.7,110.6 C466.9,109.8 465.8,109.4 464.5,109.4 L415.8,109.4 C414.5,109.4 413.3,109.8 412.4,110.6 C411.5,111.4 411,112.5 411,113.8 L411,171.6 C411,174.8 409.4,176.4 406.2,176.4 L371.7,176.4 C368.5,176.4 366.9,174.8 366.9,171.6 L366.9,6 C366.9,2.8 368.5,1.2 371.7,1.2 L406.2,1.2 C409.4,1.2 411,2.8 411,6 L411,62 C411,65.2 412.6,66.8 415.8,66.8 L464.5,66.8 C465.8,66.8 466.9,66.3 467.7,65.4 C468.5,64.5 468.9,63.4 468.9,62 L468.9,6 C468.9,4.7 469.4,3.5 470.3,2.6 C471.2,1.7 472.3,1.2 473.7,1.2 L508.5,1.2 L508.5,1.3 Z" id="Shape"></path>
                        <path d="M411,113.8 L411,171.5 C411,174.7 409.4,176.3 406.2,176.3 L371.7,176.3 C368.5,176.3 366.9,174.7 366.9,171.5 L366.9,6 C366.9,2.8 368.5,1.2 371.7,1.2 L406.2,1.2 C409.4,1.2 411,2.8 411,6 L411,62 L411,113.8 L411,113.8 Z" id="Shape"></path>
                        <path d="M508.5,1.3 C509.8,1.3 511,1.8 511.9,2.7 C512.8,3.6 513.3,4.7 513.3,6.1 L513.3,171.6 C513.3,172.9 512.8,174.1 511.9,175 C511,175.9 509.9,176.4 508.5,176.4 L473.7,176.4 C472.4,176.4 471.2,175.9 470.3,175 C469.4,174.1 468.9,173 468.9,171.6 L468.9,113.9 L468.9,62.2 L468.9,6 C468.9,4.7 469.4,3.5 470.3,2.6 C471.2,1.7 472.3,1.2 473.7,1.2 L508.5,1.2 L508.5,1.3 Z" id="Shape"></path>
                        <path d="M338,133.5 C339.3,133.5 340.4,134 341.2,134.9 C342,135.8 342.4,136.9 342.4,138.3 L342.4,171.3 C342.4,172.6 342,173.8 341.2,174.7 C340.4,175.6 339.3,176.1 338,176.1 L230,176.1 C226.8,176.1 225.2,174.5 225.2,171.3 L225.2,5.7 C225.2,2.5 226.8,0.9 230,0.9 L264.5,0.9 C267.7,0.9 269.3,2.5 269.3,5.7 L269.3,129 C269.3,130.3 269.8,131.4 270.7,132.2 C271.6,133 272.7,133.4 274.1,133.4 L338,133.4 L338,133.5 Z" id="Shape"></path>
                        <path d="M269,176 L230,176 C226.8,176 225.2,174.4 225.2,171.2 L225.2,5.7 C225.2,2.5 226.8,0.9 230,0.9 L264.5,0.9 C267.7,0.9 269.3,2.5 269.3,5.7 L269.3,129 C269.3,130.3 269,176 269,176 L269,176 Z" id="Shape"></path>
                        <path d="M167.9,3.6 C171.5,5.2 174.6,7.3 177.1,9.8 C179.7,12.4 181.8,15.5 183.3,19 C184.9,22.6 185.7,26.4 185.7,30.4 L185.7,171.4 C185.7,172.7 185.2,173.9 184.3,174.8 C183.4,175.7 182.3,176.2 180.9,176.2 L146.1,176.2 C144.8,176.2 143.7,175.7 142.9,174.8 C142.1,173.9 141.7,172.8 141.7,171.4 L141.7,43.8 L113.7,43.8 L113.7,171.6 C113.7,172.9 113.3,174.1 112.5,175 C111.7,175.9 110.6,176.4 109.3,176.4 L77.8,176.4 C76.5,176.4 75.3,175.9 74.4,175 C73.5,174.1 73,173 73,171.6 L73,43.8 L45,43.8 L45,171.6 C45,174.8 43.4,176.4 40.2,176.4 L5.8,176.4 C2.6,176.4 1,174.8 1,171.6 L1,6 C1,2.8 2.6,1.2 5.8,1.2 L156.6,1.2 C160.5,1.3 164.3,2.1 167.9,3.6 L167.9,3.6 Z" id="Shape"></path>
                        <path d="M167.9,3.6 C171.5,5.2 174.6,7.3 177.1,9.8 C179.7,12.4 181.8,15.5 183.3,19 C184.9,22.6 185.7,26.4 185.7,30.4 L185.7,43.4 L141.7,43.7 L113.7,43.7 L73,43.7 L45,43.7 L1,43.4 L1,6 C1,2.8 2.6,1.2 5.8,1.2 L156.6,1.2 C160.5,1.3 164.3,2.1 167.9,3.6 L167.9,3.6 Z" id="Shape"></path>
                        <g transform="translate(0.000000, 193.000000)" id="Shape">
                            <path d="M25.9,1.2 C26.5,1.4 26.9,1.8 27.3,2.2 C27.7,2.6 28,3.1 28.3,3.6 C28.5,4.2 28.7,4.7 28.7,5.4 L28.7,27.3 C28.7,27.5 28.6,27.7 28.5,27.8 C28.4,27.9 28.2,28 28,28 L22.6,28 C22.4,28 22.2,27.9 22.1,27.8 C22,27.7 21.9,27.5 21.9,27.3 L21.9,7.5 L17.5,7.5 L17.5,27.3 C17.5,27.5 17.4,27.7 17.3,27.8 C17.2,27.9 17,28 16.8,28 L11.9,28 C11.7,28 11.5,27.9 11.4,27.8 C11.3,27.7 11.2,27.5 11.2,27.3 L11.2,7.5 L6.8,7.5 L6.8,27.3 C6.8,27.8 6.6,28 6.1,28 L0.7,28 C0.2,28 -7.10542736e-15,27.8 -7.10542736e-15,27.3 L-7.10542736e-15,1.6 C-7.10542736e-15,1.1 0.2,0.9 0.7,0.9 L24.1,0.9 C24.7,0.8 25.3,0.9 25.9,1.2 L25.9,1.2 Z"></path>
                            <path d="M53,0.8 C53.6,0.8 54.2,0.9 54.8,1.2 C55.4,1.4 55.8,1.8 56.2,2.2 C56.6,2.6 56.9,3.1 57.2,3.6 C57.4,4.2 57.6,4.7 57.6,5.4 L57.6,27.3 C57.6,27.5 57.5,27.7 57.4,27.8 C57.3,27.9 57.1,28 56.9,28 L51.5,28 C51.3,28 51.1,27.9 51,27.8 C50.9,27.7 50.8,27.5 50.8,27.3 L50.8,20.3 C50.8,20.1 50.7,19.9 50.6,19.8 C50.5,19.7 50.3,19.6 50.1,19.6 L42.4,19.6 C42.2,19.6 42,19.7 41.9,19.8 C41.8,19.9 41.7,20.1 41.7,20.3 L41.7,27.3 C41.7,27.8 41.5,28 41,28 L35.6,28 C35.1,28 34.9,27.8 34.9,27.3 L34.9,5.4 C34.9,4.8 35,4.2 35.2,3.6 C35.4,3 35.8,2.6 36.2,2.2 C36.6,1.8 37.1,1.5 37.7,1.2 C38.3,1 38.8,0.8 39.5,0.8 L53,0.8 L53,0.8 Z M50.7,13.8 L50.7,7 L41.6,7 L41.6,13.8 L50.7,13.8 L50.7,13.8 Z"></path>
                            <path d="M82,1 C82.1,1.1 82.2,1.3 82.2,1.5 L82.2,23.4 C82.2,24 82.1,24.6 81.8,25.2 C81.6,25.8 81.2,26.2 80.8,26.7 C80.4,27.1 79.9,27.4 79.4,27.7 C78.8,27.9 78.3,28.1 77.6,28.1 L66,28.1 C65.4,28.1 64.8,28 64.2,27.7 C63.6,27.5 63.2,27.1 62.7,26.7 C62.3,26.3 62,25.8 61.7,25.2 C61.5,24.6 61.3,24.1 61.3,23.4 L61.3,15.1 C61.3,14.6 61.5,14.4 62,14.4 L67.4,14.4 C67.9,14.4 68.1,14.6 68.1,15.1 L68.1,20.7 C68.1,20.9 68.2,21.1 68.3,21.2 C68.4,21.3 68.6,21.4 68.8,21.4 L74.4,21.4 C74.6,21.4 74.8,21.3 74.9,21.2 C75,21.1 75.1,20.9 75.1,20.7 L75.1,1.5 C75.1,1.3 75.2,1.1 75.3,1 C75.4,0.9 75.6,0.8 75.8,0.8 L81.2,0.8 C81.7,0.8 81.9,0.9 82,1 L82,1 Z"></path>
                            <path d="M106.6,0.8 C107.2,0.8 107.8,0.9 108.4,1.2 C109,1.4 109.4,1.8 109.8,2.2 C110.2,2.6 110.5,3.1 110.8,3.6 C111,4.2 111.2,4.7 111.2,5.4 L111.2,23.5 C111.2,24.1 111.1,24.7 110.8,25.3 C110.6,25.9 110.2,26.3 109.8,26.8 C109.4,27.2 108.9,27.5 108.4,27.8 C107.8,28 107.3,28.2 106.6,28.2 L92.8,28.2 C92.2,28.2 91.6,28.1 91,27.8 C90.4,27.6 90,27.2 89.5,26.8 C89.1,26.4 88.8,25.9 88.5,25.3 C88.3,24.7 88.2,24.2 88.2,23.5 L88.2,5.4 C88.2,4.8 88.3,4.2 88.5,3.6 C88.7,3 89.1,2.6 89.5,2.2 C89.9,1.8 90.4,1.5 91,1.2 C91.6,1 92.1,0.8 92.8,0.8 L106.6,0.8 L106.6,0.8 Z M104.3,7.4 L95.2,7.4 L95.2,21.4 L104.3,21.4 L104.3,7.4 L104.3,7.4 Z"></path>
                            <path d="M140.5,27.4 C140.6,27.6 140.6,27.7 140.5,27.8 C140.4,27.9 140.3,28 140.1,28 L134,28 C133.8,28 133.6,27.9 133.4,27.8 C133.2,27.7 133,27.5 132.9,27.4 L128.8,20 C128.7,19.9 128.7,19.8 128.5,19.8 L123.9,19.8 C123.8,19.8 123.7,19.9 123.7,20 L123.7,27.2 C123.7,27.7 123.5,27.9 123,27.9 L117.6,27.9 C117.1,27.9 116.9,27.7 116.9,27.2 L116.9,1.5 C116.9,1 117.1,0.8 117.6,0.8 L135.2,0.8 C135.8,0.8 136.4,0.9 137,1.2 C137.6,1.4 138,1.8 138.4,2.2 C138.8,2.6 139.1,3.1 139.4,3.6 C139.6,4.2 139.8,4.7 139.8,5.4 L139.8,15.6 C139.8,16.6 139.5,17.5 138.9,18.3 C138.3,19.1 137.6,19.6 136.7,19.9 L136.6,19.9 C136.4,20 136.4,20 136.5,20.1 L136.5,20.2 L140.5,27.4 L140.5,27.4 Z M132.8,7.2 L123.4,7.2 L123.4,13.8 L132.8,13.8 L132.8,7.2 L132.8,7.2 Z"></path>
                            <path d="M177.2,21.4 C177.4,21.4 177.6,21.5 177.7,21.6 C177.8,21.7 177.9,21.9 177.9,22.1 L177.9,27.2 C177.9,27.4 177.8,27.6 177.7,27.7 C177.6,27.8 177.4,27.9 177.2,27.9 L160.4,27.9 C159.9,27.9 159.7,27.7 159.7,27.2 L159.7,1.5 C159.7,1 159.9,0.8 160.4,0.8 L165.8,0.8 C166.3,0.8 166.5,1 166.5,1.5 L166.5,20.7 C166.5,20.9 166.6,21.1 166.7,21.2 C166.8,21.3 167,21.4 167.2,21.4 L177.2,21.4 L177.2,21.4 Z"></path>
                            <path d="M188.4,7.3 L188.4,11.5 C188.4,11.6 188.5,11.7 188.6,11.7 L199.7,11.7 C199.9,11.7 200.1,11.8 200.2,11.9 C200.3,12 200.4,12.2 200.4,12.4 L200.4,16.3 C200.4,16.8 200.2,17 199.7,17 L188.6,17 C188.5,17 188.4,17.1 188.4,17.2 L188.4,21.4 C188.4,21.5 188.5,21.6 188.6,21.6 L201.6,21.6 C201.8,21.6 202,21.7 202.1,21.8 C202.2,21.9 202.3,22.1 202.3,22.3 L202.3,27.2 C202.3,27.4 202.2,27.6 202.1,27.7 C202,27.8 201.8,27.9 201.6,27.9 L186.1,27.9 C185.5,27.9 184.9,27.8 184.3,27.5 C183.7,27.3 183.3,26.9 182.8,26.5 C182.4,26.1 182.1,25.6 181.8,25 C181.6,24.4 181.5,23.9 181.5,23.2 L181.5,5.1 C181.5,4.5 181.6,3.9 181.8,3.3 C182,2.7 182.4,2.3 182.8,1.9 C183.2,1.5 183.7,1.2 184.3,0.9 C184.9,0.7 185.4,0.5 186.1,0.5 L201.6,0.5 C201.8,0.5 202,0.6 202.1,0.7 C202.2,0.8 202.3,1 202.3,1.2 L202.3,6.1 C202.3,6.3 202.2,6.5 202.1,6.6 C202,6.7 201.8,6.8 201.6,6.8 L188.6,6.8 C188.5,7.2 188.4,7.2 188.4,7.3 L188.4,7.3 Z"></path>
                            <path d="M226.8,0.8 C227.4,0.8 228,0.9 228.6,1.2 C229.2,1.4 229.6,1.8 230,2.2 C230.4,2.6 230.7,3.1 231,3.6 C231.2,4.2 231.4,4.7 231.4,5.4 L231.4,27.3 C231.4,27.5 231.3,27.7 231.2,27.8 C231.1,27.9 230.9,28 230.7,28 L225.3,28 C225.1,28 224.9,27.9 224.8,27.8 C224.7,27.7 224.6,27.5 224.6,27.3 L224.6,20.3 C224.6,20.1 224.5,19.9 224.4,19.8 C224.3,19.7 224.1,19.6 223.9,19.6 L216,19.6 C215.8,19.6 215.6,19.7 215.5,19.8 C215.4,19.9 215.3,20.1 215.3,20.3 L215.3,27.3 C215.3,27.8 215.1,28 214.6,28 L209.2,28 C208.7,28 208.5,27.8 208.5,27.3 L208.5,5.4 C208.5,4.8 208.6,4.2 208.8,3.6 C209,3 209.4,2.6 209.8,2.2 C210.2,1.8 210.7,1.5 211.3,1.2 C211.9,1 212.4,0.8 213.1,0.8 L226.8,0.8 L226.8,0.8 Z M224.4,13.8 L224.4,7 L215.3,7 L215.3,13.8 L224.4,13.8 L224.4,13.8 Z"></path>
                            <path d="M260,13.4 C260.1,13.5 260.2,13.7 260.2,13.9 L260.2,23.5 C260.2,24.1 260.1,24.7 259.8,25.3 C259.6,25.9 259.2,26.3 258.8,26.8 C258.4,27.2 257.9,27.5 257.4,27.8 C256.8,28 256.3,28.2 255.6,28.2 L241.9,28.2 C241.3,28.2 240.7,28.1 240.1,27.8 C239.5,27.6 239.1,27.2 238.6,26.8 C238.2,26.4 237.9,25.9 237.6,25.3 C237.4,24.7 237.2,24.2 237.2,23.5 L237.2,5.4 C237.2,4.8 237.3,4.2 237.6,3.6 C237.8,3 238.2,2.6 238.6,2.2 C239,1.8 239.5,1.5 240.1,1.2 C240.7,1 241.2,0.8 241.9,0.8 L257.9,0.8 C258.1,0.8 258.3,0.9 258.4,1 C258.5,1.1 258.6,1.3 258.6,1.5 L258.6,6.6 C258.6,6.8 258.5,7 258.4,7.1 C258.3,7.2 258.1,7.3 257.9,7.3 L244.9,7.3 C244.7,7.3 244.5,7.4 244.4,7.5 C244.3,7.6 244.2,7.8 244.2,8 L244.2,20.6 C244.2,20.8 244.3,21 244.4,21.1 C244.5,21.2 244.7,21.3 244.9,21.3 L252.6,21.3 C252.8,21.3 253,21.2 253.1,21.1 C253.2,21 253.3,20.8 253.3,20.6 L253.3,13.8 C253.3,13.6 253.4,13.4 253.5,13.3 C253.6,13.2 253.8,13.1 254,13.1 L259.4,13.1 C259.7,13.2 259.8,13.2 260,13.4 L260,13.4 Z"></path>
                            <path d="M288.7,1 C288.8,1.1 288.9,1.3 288.9,1.5 L288.9,23.4 C288.9,24 288.8,24.6 288.5,25.2 C288.3,25.8 287.9,26.2 287.5,26.7 C287.1,27.1 286.6,27.4 286.1,27.7 C285.5,27.9 285,28.1 284.3,28.1 L270.5,28.1 C269.9,28.1 269.3,28 268.7,27.7 C268.1,27.5 267.7,27.1 267.2,26.7 C266.8,26.3 266.5,25.8 266.2,25.2 C266,24.6 265.9,24.1 265.9,23.4 L265.9,1.5 C265.9,1 266.1,0.8 266.6,0.8 L272,0.8 C272.5,0.8 272.7,1 272.7,1.5 L272.7,20.7 C272.7,20.9 272.8,21.1 272.9,21.2 C273,21.3 273.2,21.4 273.4,21.4 L281.1,21.4 C281.3,21.4 281.5,21.3 281.6,21.2 C281.7,21.1 281.8,20.9 281.8,20.7 L281.8,1.5 C281.8,1.3 281.9,1.1 282,1 C282.1,0.9 282.3,0.8 282.5,0.8 L287.9,0.8 C288.3,0.8 288.5,0.9 288.7,1 L288.7,1 Z"></path>
                            <path d="M301.7,7.3 L301.7,11.5 C301.7,11.6 301.8,11.7 301.9,11.7 L313,11.7 C313.2,11.7 313.4,11.8 313.5,11.9 C313.6,12 313.7,12.2 313.7,12.4 L313.7,16.3 C313.7,16.8 313.5,17 313,17 L301.9,17 C301.8,17 301.7,17.1 301.7,17.2 L301.7,21.4 C301.7,21.5 301.8,21.6 301.9,21.6 L314.9,21.6 C315.1,21.6 315.3,21.7 315.4,21.8 C315.5,21.9 315.6,22.1 315.6,22.3 L315.6,27.2 C315.6,27.4 315.5,27.6 315.4,27.7 C315.3,27.8 315.1,27.9 314.9,27.9 L299.4,27.9 C298.8,27.9 298.2,27.8 297.6,27.5 C297,27.3 296.6,26.9 296.1,26.5 C295.7,26.1 295.4,25.6 295.1,25 C294.9,24.4 294.8,23.9 294.8,23.2 L294.8,5.1 C294.8,4.5 294.9,3.9 295.1,3.3 C295.3,2.7 295.7,2.3 296.1,1.9 C296.5,1.5 297,1.2 297.6,0.9 C298.2,0.7 298.7,0.5 299.4,0.5 L314.9,0.5 C315.1,0.5 315.3,0.6 315.4,0.7 C315.5,0.8 315.6,1 315.6,1.2 L315.6,6.1 C315.6,6.3 315.5,6.5 315.4,6.6 C315.3,6.7 315.1,6.8 314.9,6.8 L301.9,6.8 C301.8,7.2 301.7,7.2 301.7,7.3 L301.7,7.3 Z"></path>
                            <path d="M357.2,0.8 C357.4,0.8 357.6,0.9 357.7,1 C357.8,1.1 357.9,1.3 357.9,1.5 L357.9,27.2 C357.9,27.4 357.8,27.6 357.7,27.7 C357.6,27.8 357.4,27.9 357.2,27.9 L351.8,27.9 C351.6,27.9 351.4,27.8 351.3,27.7 C351.2,27.6 351.1,27.4 351.1,27.2 L351.1,18.2 C351.1,18 351,17.8 350.9,17.7 C350.8,17.6 350.6,17.5 350.4,17.5 L342.7,17.5 C342.5,17.5 342.3,17.6 342.2,17.7 C342.1,17.8 342,18 342,18.2 L342,27.2 C342,27.7 341.8,27.9 341.3,27.9 L335.9,27.9 C335.4,27.9 335.2,27.7 335.2,27.2 L335.2,1.5 C335.2,1 335.4,0.8 335.9,0.8 L341.3,0.8 C341.8,0.8 342,1 342,1.5 L342,10.2 C342,10.7 342.2,10.9 342.7,10.9 L350.4,10.9 C350.6,10.9 350.8,10.8 350.9,10.7 C351,10.6 351.1,10.4 351.1,10.2 L351.1,1.5 C351.1,1.3 351.2,1.1 351.3,1 C351.4,0.9 351.6,0.8 351.8,0.8 L357.2,0.8 L357.2,0.8 Z"></path>
                            <path d="M382.3,0.8 C382.9,0.8 383.5,0.9 384.1,1.2 C384.7,1.4 385.1,1.8 385.5,2.2 C385.9,2.6 386.2,3.1 386.5,3.6 C386.7,4.2 386.9,4.7 386.9,5.4 L386.9,27.3 C386.9,27.5 386.8,27.7 386.7,27.8 C386.6,27.9 386.4,28 386.2,28 L380.8,28 C380.6,28 380.4,27.9 380.3,27.8 C380.2,27.7 380.1,27.5 380.1,27.3 L380.1,20.3 C380.1,20.1 380,19.9 379.9,19.8 C379.8,19.7 379.6,19.6 379.4,19.6 L371.7,19.6 C371.5,19.6 371.3,19.7 371.2,19.8 C371.1,19.9 371,20.1 371,20.3 L371,27.3 C371,27.8 370.8,28 370.3,28 L364.9,28 C364.4,28 364.2,27.8 364.2,27.3 L364.2,5.4 C364.2,4.8 364.3,4.2 364.5,3.6 C364.7,3 365.1,2.6 365.5,2.2 C365.9,1.8 366.4,1.5 367,1.2 C367.6,1 368.1,0.8 368.8,0.8 L382.3,0.8 L382.3,0.8 Z M380,13.8 L380,7 L370.9,7 L370.9,13.8 L380,13.8 L380,13.8 Z"></path>
                            <path d="M399.9,7.6 C399.8,7.7 399.7,7.9 399.7,8.1 L399.7,20.7 C399.7,20.9 399.8,21.1 399.9,21.2 C400,21.3 400.2,21.4 400.4,21.4 L412.9,21.4 C413.1,21.4 413.3,21.5 413.4,21.6 C413.5,21.7 413.6,21.9 413.6,22.1 L413.6,27.2 C413.6,27.4 413.5,27.6 413.4,27.7 C413.3,27.8 413.1,27.9 412.9,27.9 L404.8,27.9 L398.1,27.9 L397.4,27.9 C396.8,27.9 396.2,27.8 395.6,27.5 C395,27.3 394.6,26.9 394.1,26.5 C393.7,26.1 393.4,25.6 393.1,25 C392.9,24.4 392.8,23.9 392.8,23.2 L392.8,22.5 L392.8,19.7 L392.8,10.7 L392.8,8.2 L392.8,5.2 C392.8,4.6 392.9,4 393.1,3.4 C393.3,2.8 393.7,2.4 394.1,2 C394.5,1.6 395,1.3 395.6,1 C396.2,0.8 396.7,0.6 397.4,0.6 L398.1,0.6 L412.9,0.6 C413.1,0.6 413.3,0.7 413.4,0.8 C413.5,0.9 413.6,1.1 413.6,1.3 L413.6,6.4 C413.6,6.6 413.5,6.8 413.4,6.9 C413.3,7 413.1,7.1 412.9,7.1 L400.4,7.1 C400.3,7.4 400.1,7.5 399.9,7.6 L399.9,7.6 Z"></path>
                            <path d="M435.3,12.3 C435.2,12.4 435.2,12.5 435.3,12.6 L444.4,27.4 C444.5,27.6 444.5,27.7 444.4,27.8 C444.3,27.9 444.2,28 444,28 L437.6,28 C437.4,28 437.2,27.9 437,27.8 C436.8,27.7 436.6,27.5 436.5,27.4 L430.6,16.8 C430.5,16.7 430.5,16.7 430.4,16.8 L427.2,20.3 C427.1,20.4 427,20.6 426.9,20.9 C426.8,21.1 426.8,21.4 426.8,21.6 L426.8,27.3 C426.8,27.8 426.6,28 426.1,28 L420.7,28 C420.2,28 420,27.8 420,27.3 L420,1.6 C420,1.1 420.2,0.9 420.7,0.9 L426.1,0.9 C426.6,0.9 426.8,1.1 426.8,1.6 L426.8,13.1 L436.8,1.4 C436.9,1.2 437.1,1.1 437.3,1 C437.5,0.9 437.8,0.8 438,0.8 L444.4,0.8 C444.6,0.8 444.7,0.9 444.8,1 C444.8,1.1 444.8,1.2 444.7,1.4 L435.3,12.3 L435.3,12.3 Z"></path>
                            <path d="M456.2,27.3 C456.2,27.8 456,28 455.5,28 L450.1,28 C449.6,28 449.4,27.8 449.4,27.3 L449.4,1.6 C449.4,1.1 449.6,0.9 450.1,0.9 L455.5,0.9 C456,0.9 456.2,1.1 456.2,1.6 L456.2,27.3 L456.2,27.3 Z"></path>
                            <path d="M482.4,1.2 C483,1.4 483.4,1.8 483.8,2.2 C484.2,2.6 484.5,3.1 484.8,3.6 C485,4.2 485.2,4.7 485.2,5.4 L485.2,27.3 C485.2,27.5 485.1,27.7 485,27.8 C484.9,27.9 484.7,28 484.5,28 L479,28 C478.8,28 478.6,27.9 478.5,27.8 C478.4,27.7 478.3,27.5 478.3,27.3 L478.3,8.2 C478.3,8 478.2,7.8 478.1,7.7 C478,7.6 477.8,7.5 477.6,7.5 L469.9,7.5 C469.7,7.5 469.5,7.6 469.4,7.7 C469.3,7.8 469.2,8 469.2,8.2 L469.2,27.3 C469.2,27.8 469,28 468.5,28 L463.1,28 C462.6,28 462.4,27.8 462.4,27.3 L462.4,1.6 C462.4,1.1 462.6,0.9 463.1,0.9 L480.7,0.9 C481.2,0.8 481.8,0.9 482.4,1.2 L482.4,1.2 Z"></path>
                            <path d="M513.9,13.4 C514,13.5 514.1,13.7 514.1,13.9 L514.1,23.5 C514.1,24.1 514,24.7 513.7,25.3 C513.5,25.9 513.1,26.3 512.7,26.8 C512.3,27.2 511.8,27.5 511.3,27.8 C510.7,28 510.2,28.2 509.5,28.2 L495.7,28.2 C495.1,28.2 494.5,28.1 493.9,27.8 C493.3,27.6 492.9,27.2 492.4,26.8 C492,26.4 491.7,25.9 491.4,25.3 C491.2,24.7 491.1,24.2 491.1,23.5 L491.1,5.4 C491.1,4.8 491.2,4.2 491.4,3.6 C491.6,3 492,2.6 492.4,2.2 C492.8,1.8 493.3,1.5 493.9,1.2 C494.5,1 495,0.8 495.7,0.8 L511.7,0.8 C511.9,0.8 512.1,0.9 512.2,1 C512.3,1.1 512.4,1.3 512.4,1.5 L512.4,6.6 C512.4,6.8 512.3,7 512.2,7.1 C512.1,7.2 511.9,7.3 511.7,7.3 L498.7,7.3 C498.5,7.3 498.3,7.4 498.2,7.5 C498.1,7.6 498,7.8 498,8 L498,20.6 C498,20.8 498.1,21 498.2,21.1 C498.3,21.2 498.5,21.3 498.7,21.3 L506.4,21.3 C506.6,21.3 506.8,21.2 506.9,21.1 C507,21 507.1,20.8 507.1,20.6 L507.1,13.8 C507.1,13.6 507.2,13.4 507.3,13.3 C507.4,13.2 507.6,13.1 507.8,13.1 L513.2,13.1 C513.5,13.2 513.7,13.2 513.9,13.4 L513.9,13.4 Z"></path>
                        </g>
                    </g>
                </g>
            </g>
            <g id="Layer_14" transform="translate(84.000000, 268.000000)" fill="#353C47" sketch:type="MSShapeGroup">
                <g id="Group">
                    <g transform="translate(0.000000, 9.000000)" id="Shape">
                        <path d="M15.7,8.6 C15.7,11.1 14.8,13 13.1,14.4 C11.4,15.7 9,16.4 5.8,16.4 L1.8,16.4 L1.8,27.2 L1.42108547e-14,27.2 L1.42108547e-14,1.2 L6.4,1.2 C12.6,1.1 15.7,3.6 15.7,8.6 L15.7,8.6 Z M1.9,14.8 L5.5,14.8 C8.4,14.8 10.6,14.3 11.9,13.3 C13.2,12.3 13.9,10.8 13.9,8.6 C13.9,6.6 13.3,5.1 12,4.1 C10.8,3.1 8.9,2.6 6.3,2.6 L2,2.6 L2,14.8 L1.9,14.8 Z"></path>
                        <path d="M43.3,14.1 C43.3,18.2 42.3,21.5 40.2,23.9 C38.1,26.3 35.3,27.5 31.7,27.5 C28.1,27.5 25.2,26.3 23.2,23.9 C21.2,21.5 20.1,18.2 20.1,14.1 C20.1,10 21.1,6.7 23.2,4.3 C25.3,1.9 28.1,0.7 31.7,0.7 C35.3,0.7 38.2,1.9 40.2,4.3 C42.2,6.7 43.3,9.9 43.3,14.1 L43.3,14.1 Z M22,14.1 C22,17.8 22.8,20.7 24.5,22.7 C26.2,24.7 28.5,25.8 31.7,25.8 C34.8,25.8 37.2,24.8 38.9,22.8 C40.6,20.8 41.4,17.9 41.4,14.1 C41.4,10.3 40.6,7.5 38.9,5.5 C37.2,3.5 34.9,2.5 31.7,2.5 C28.6,2.5 26.2,3.5 24.5,5.5 C22.8,7.5 22,10.4 22,14.1 L22,14.1 Z"></path>
                        <path d="M70,27.1 L68.5,27.1 L62.8,7 C62.3,5.4 62,4 61.7,2.9 C61.5,3.9 61.2,5.1 60.9,6.5 C60.5,7.8 58.6,14.7 55.2,27.1 L53.7,27.1 L46.5,1.1 L48.4,1.1 L53,17.9 C53.2,18.6 53.3,19.2 53.5,19.8 C53.7,20.4 53.8,20.9 53.9,21.4 C54,21.9 54.1,22.4 54.2,22.9 C54.3,23.4 54.4,23.8 54.5,24.3 C54.8,22.7 55.4,20.2 56.3,16.9 L60.8,1.1 L62.8,1.1 L68,19.2 C68.6,21.3 69,23 69.3,24.3 C69.5,23.4 69.7,22.5 69.9,21.6 C70.1,20.6 72,13.8 75.4,1.1 L77.2,1.1 L70,27.1 L70,27.1 Z"></path>
                        <path d="M96.1,27.1 L81.9,27.1 L81.9,1.1 L96.1,1.1 L96.1,2.8 L83.7,2.8 L83.7,12.6 L95.4,12.6 L95.4,14.3 L83.7,14.3 L83.7,25.5 L96.1,25.5 L96.1,27.1 L96.1,27.1 Z"></path>
                        <path d="M103.8,15.8 L103.8,27.1 L102,27.1 L102,1.1 L108.2,1.1 C111.4,1.1 113.8,1.7 115.4,2.9 C117,4.1 117.7,5.9 117.7,8.3 C117.7,10 117.2,11.5 116.3,12.7 C115.4,13.9 114,14.8 112.1,15.3 L119.2,27.2 L117,27.2 L110.3,15.9 L103.8,15.9 L103.8,15.8 Z M103.8,14.2 L108.8,14.2 C111,14.2 112.7,13.7 113.9,12.7 C115.1,11.7 115.7,10.3 115.7,8.4 C115.7,6.4 115.1,5 113.9,4.1 C112.7,3.2 110.8,2.7 108.1,2.7 L103.8,2.7 L103.8,14.2 L103.8,14.2 Z"></path>
                        <path d="M137.8,27.1 L123.6,27.1 L123.6,1.1 L137.8,1.1 L137.8,2.8 L125.4,2.8 L125.4,12.6 L137.1,12.6 L137.1,14.3 L125.4,14.3 L125.4,25.5 L137.8,25.5 L137.8,27.1 L137.8,27.1 Z"></path>
                        <path d="M163.5,13.9 C163.5,18.3 162.4,21.6 160.1,23.8 C157.8,26 154.4,27.2 150,27.2 L143.8,27.2 L143.8,1.2 L150.8,1.2 C155,1.2 158.1,2.3 160.3,4.5 C162.5,6.7 163.5,9.7 163.5,13.9 L163.5,13.9 Z M161.5,13.9 C161.5,10.2 160.6,7.4 158.7,5.5 C156.8,3.6 154,2.7 150.4,2.7 L145.6,2.7 L145.6,25.5 L149.9,25.5 C157.6,25.5 161.5,21.7 161.5,13.9 L161.5,13.9 Z"></path>
                        <path d="M179,1.1 L186.1,1.1 C189.3,1.1 191.7,1.6 193.2,2.7 C194.7,3.8 195.5,5.4 195.5,7.7 C195.5,9.2 195,10.5 194.1,11.5 C193.2,12.5 191.8,13.1 190.1,13.4 L190.1,13.5 C192.2,13.8 193.7,14.5 194.7,15.5 C195.7,16.5 196.2,17.9 196.2,19.7 C196.2,22.1 195.4,23.9 193.8,25.2 C192.2,26.5 190,27.1 187,27.1 L179,27.1 L179,1.1 L179,1.1 Z M180.8,12.7 L186.5,12.7 C188.9,12.7 190.7,12.3 191.8,11.5 C192.9,10.7 193.5,9.4 193.5,7.7 C193.5,6 192.9,4.7 191.6,3.9 C190.3,3.1 188.5,2.7 186,2.7 L180.7,2.7 L180.7,12.7 L180.8,12.7 Z M180.8,14.3 L180.8,25.5 L186.9,25.5 C191.7,25.5 194.1,23.5 194.1,19.6 C194.1,16 191.6,14.2 186.5,14.2 L180.8,14.2 L180.8,14.3 Z"></path>
                        <path d="M207.8,15.3 L215.4,1.1 L217.4,1.1 L208.7,17.1 L208.7,27.2 L206.8,27.2 L206.8,17.3 L198.1,1.2 L200.2,1.2 L207.8,15.3 L207.8,15.3 Z"></path>
                    </g>
                    <g transform="translate(250.000000, 0.000000)">
                        <g id="Shape">
                            <path d="M65.2,48.5 L63.9,48.5 L63.9,0.8 L65.2,0.8 L65.2,48.5 L65.2,48.5 Z"></path>
                            <g>
                                <path d="M24.7,3.4 C18.8,3.4 13.5,5.8 9.7,9.6 L9.7,9.6 C5.9,13.5 3.5,18.8 3.5,24.6 L3.5,24.6 C3.5,30.5 5.9,35.8 9.7,39.6 L9.7,39.6 C13.6,43.4 18.9,45.8 24.7,45.8 L24.7,45.8 C30.6,45.8 35.9,43.4 39.7,39.6 L39.7,39.6 C43.5,35.7 45.9,30.4 45.9,24.6 L45.9,24.6 C45.9,18.7 43.5,13.4 39.7,9.6 L39.7,9.6 C35.8,5.8 30.5,3.4 24.7,3.4 L24.7,3.4 M24.7,0.8 C37.9,0.8 48.6,11.5 48.6,24.7 L48.6,24.7 C48.6,37.9 37.9,48.6 24.7,48.6 L24.7,48.6 C11.5,48.6 0.8,37.9 0.8,24.7 L0.8,24.7 C0.8,11.5 11.5,0.8 24.7,0.8 L24.7,0.8"></path>
                                <path d="M13.4,24.5 C13.4,23.1 12.5,22.3 11.2,22.3 L10.4,22.3 L10.4,26.7 L11.2,26.7 C12.3,26.6 13.4,26 13.4,24.5 L13.4,24.5 L13.4,24.5 Z M27.6,26 L21.7,30.6 L16.3,26.4 C15.5,28.3 13.7,29.6 11.5,29.6 L6.9,29.6 L6.9,19.3 L11.5,19.3 C13.9,19.3 15.7,20.8 16.3,22.5 L21.7,18.3 L23.7,19.9 L18.8,23.8 L19.7,24.5 L24.6,20.6 L26.6,22.2 L21.7,26.1 L22.6,26.8 L27.5,22.9 L27.5,19.3 L31.1,19.3 L31.1,26.6 L34.7,26.6 L34.7,29.6 L27.6,29.6 L27.6,26 L27.6,26 L27.6,26 Z M39.3,26.6 L42.9,26.6 L42.9,29.6 L35.8,29.6 L35.8,19.3 L39.4,19.3 L39.4,26.6 L39.3,26.6 L39.3,26.6 Z"></path>
                            </g>
                        </g>
                        <g transform="translate(80.000000, 6.000000)">
                            <path d="M26.7,32.8 C15.8,33.8 4.5,32.2 2.9,23.7 C2.1,19.5 4,15.1 6.6,12.3 L6.6,10.8 C2,14.8 -0.4,19.9 1,25.8 C2.8,33.5 12.5,37.8 27.4,36.4 C33.3,35.8 41,33.9 46.3,31 L46.3,26.8 C41.4,29.8 33.4,32.2 26.7,32.8 L26.7,32.8 Z M55.4,10.8 C52.8,-1.8 28.4,-2.6 12.6,7 L12.6,8.1 C28.3,3.55271368e-15 50.7,0.1 52.7,11.7 C53.4,15.5 51.2,19.5 47.4,21.8 L47.4,24.8 C52,23.1 56.8,17.6 55.4,10.8 L55.4,10.8 Z" id="Shape"></path>
                            <path d="M45.4,9 L42.5,9 L42.5,21.7 C42.5,23.2 43.2,24.5 45.4,24.7 L45.4,9 L45.4,9 Z" id="Shape"></path>
                            <path d="M11.5,13.6 L8.6,13.6 L8.6,21.9 C8.6,23.4 9.3,24.7 11.5,24.9 L11.5,13.6 L11.5,13.6 Z" id="Shape"></path>
                            <rect id="Rectangle-path" x="8.6" y="9.4" width="2.8" height="2.7"></rect>
                            <path d="M28.5,24.8 C26.2,24.8 25.2,23.2 25.2,21.6 L25.2,10.6 L28,10.6 L28,13.6 L30.1,13.6 L30.1,15.9 L28,15.9 L28,21.4 C28,22 28.3,22.4 29,22.4 L30.2,22.4 L30.2,24.8 L28.5,24.8" id="Shape"></path>
                            <path d="M33.7,20.1 C33.7,21.5 34.6,22.6 36.2,22.6 C37.5,22.6 38.1,22.3 38.8,21.5 L40.5,23.2 C39.4,24.3 38.2,25 36.1,25 C33.4,25 30.8,23.5 30.8,19.2 C30.8,15.5 33.1,13.4 36,13.4 C39,13.4 40.8,15.8 40.8,19 L40.8,20 L33.7,20 L33.7,20.1 Z M36,15.8 C35,15.8 34.3,16.3 34,17 C33.8,17.4 33.7,17.7 33.7,18.2 L38.1,18.2 C38,16.9 37.5,15.8 36,15.8 L36,15.8 Z" id="Shape"></path>
                            <path d="M19.2,15.9 C20,15.9 20.4,16.3 20.4,17 L20.4,24.8 L23.2,24.8 L23.2,17 C23.2,15.4 22.4,13.7 19.9,13.7 L14.1,13.7 L14.1,24.9 L16.9,24.9 L16.9,16 L19.2,16 L19.2,15.9 Z" id="Shape"></path>
                            <path d="M48.5,11.2 C47.9,11.2 47.4,10.7 47.4,10.1 C47.4,9.5 47.9,9 48.5,9 C49.1,9 49.6,9.5 49.6,10.1 C49.6,10.7 49.1,11.2 48.5,11.2 L48.5,11.2 Z M48.5,9.2 C48,9.2 47.6,9.6 47.6,10.1 C47.6,10.6 48,11 48.5,11 C49,11 49.4,10.6 49.4,10.1 C49.4,9.6 49,9.2 48.5,9.2 L48.5,9.2 Z M49,10.8 L48.8,10.8 L48.8,10.8 L48.5,10.3 L48.5,10.3 C48.5,10.3 48.5,10.3 48.4,10.3 L48.4,10.3 L48.4,10.8 L48.4,10.9 L48,10.9 C48,10.9 48,10.9 48,10.8 L48,9.6 C48,9.5 48,9.5 48.1,9.5 L48.4,9.5 C48.8,9.5 49,9.6 49,9.9 L49,9.9 C49,10.1 48.9,10.2 48.7,10.3 L49,10.8 C49,10.7 49,10.7 49,10.8 L49,10.8 L49,10.8 Z M48.7,9.8 C48.7,9.7 48.6,9.6 48.4,9.6 L48.3,9.6 L48.3,9.6 L48.3,10 L48.5,10 C48.6,10 48.7,10 48.7,9.8 L48.7,9.8 L48.7,9.8 Z" id="Shape"></path>
                        </g>
                    </g>
                </g>
            </g>
        </g>
    </g>
</svg>