<svg id="Layer_2" data-name="Layer 2" xmlns="http://www.w3.org/2000/svg" width="678.27" height="277.91" viewBox="0 0 678.27 277.91"><defs><style>.cls-1{isolation:isolate;}.cls-2,.cls-3{fill:#3b3b3b;stroke:#3b3b3b;stroke-miterlimit:10;}.cls-3{stroke-width:3.5px;}</style></defs><title>ais</title><g class="cls-1"><path class="cls-2" d="M586.28,276.49q-10.9,9.27-21,13.08a60.64,60.64,0,0,1-21.64,3.82q-19.08,0-29.32-9.32T504.1,260.25A31.67,31.67,0,0,1,508,244.72a32,32,0,0,1,10.14-11.28A47.67,47.67,0,0,1,532.22,227a140.37,140.37,0,0,1,17.44-2.94q23.76-2.83,35-6.76,0.11-4,.11-5.12,0-12-5.56-16.89-7.52-6.65-22.34-6.65-13.84,0-20.44,4.85t-9.76,17.17L507.48,208q2.61-12.31,8.61-19.89t17.33-11.66q11.33-4.09,26.27-4.09t24.09,3.49q9.26,3.49,13.63,8.77A30.89,30.89,0,0,1,603.5,198q1,5,1,18.09v26.16q0,27.36,1.25,34.61a43.6,43.6,0,0,0,5,13.9H590.21A41.58,41.58,0,0,1,586.28,276.49Zm-1.63-43.82q-10.68,4.36-32,7.41-12.1,1.74-17.11,3.92a17.08,17.08,0,0,0-7.74,6.38,17.34,17.34,0,0,0,3.22,22.4q5.94,5.23,17.38,5.23a40.45,40.45,0,0,0,20.17-5,30.53,30.53,0,0,0,13-13.57q3.16-6.65,3.16-19.62v-7.19Z" transform="translate(-75.36 -130.48)"/><path class="cls-2" d="M625.18,153.54V131H644.8v22.56H625.18Zm0,137.23V175H644.8V290.77H625.18Z" transform="translate(-75.36 -130.48)"/><path class="cls-2" d="M657,256.22l19.4-3.05Q678,264.83,685.5,271t20.87,6.21q13.51,0,20.06-5.5T733,258.84a11.92,11.92,0,0,0-5.78-10.46q-4-2.62-20.05-6.65-21.58-5.45-29.92-9.43a28.56,28.56,0,0,1-16.95-26.54,29.81,29.81,0,0,1,3.54-14.33,31.75,31.75,0,0,1,9.65-11,40.49,40.49,0,0,1,12.48-5.72,59.37,59.37,0,0,1,16.95-2.34,67,67,0,0,1,23.92,3.92Q737.11,180.25,742,187t6.76,17.93l-19.18,2.62q-1.31-8.94-7.58-14t-17.71-5q-13.52,0-19.29,4.47t-5.78,10.46a10.82,10.82,0,0,0,2.4,6.87,17.26,17.26,0,0,0,7.52,5.23q2.94,1.09,17.33,5,20.82,5.56,29,9.1A29.49,29.49,0,0,1,748.45,240q4.68,6.76,4.69,16.79a32.93,32.93,0,0,1-5.72,18.47,37,37,0,0,1-16.51,13.41,60.12,60.12,0,0,1-24.42,4.74q-22.56,0-34.39-9.37T657,256.22Z" transform="translate(-75.36 -130.48)"/></g><g class="cls-1"><path class="cls-2" d="M586.28,276.49q-10.9,9.27-21,13.08a60.64,60.64,0,0,1-21.64,3.82q-19.08,0-29.32-9.32T504.1,260.25A31.67,31.67,0,0,1,508,244.72a32,32,0,0,1,10.14-11.28A47.67,47.67,0,0,1,532.22,227a140.37,140.37,0,0,1,17.44-2.94q23.76-2.83,35-6.76,0.11-4,.11-5.12,0-12-5.56-16.89-7.52-6.65-22.34-6.65-13.84,0-20.44,4.85t-9.76,17.17L507.48,208q2.61-12.31,8.61-19.89t17.33-11.66q11.33-4.09,26.27-4.09t24.09,3.49q9.26,3.49,13.63,8.77A30.89,30.89,0,0,1,603.5,198q1,5,1,18.09v26.16q0,27.36,1.25,34.61a43.6,43.6,0,0,0,5,13.9H590.21A41.58,41.58,0,0,1,586.28,276.49Zm-1.63-43.82q-10.68,4.36-32,7.41-12.1,1.74-17.11,3.92a17.08,17.08,0,0,0-7.74,6.38,17.34,17.34,0,0,0,3.22,22.4q5.94,5.23,17.38,5.23a40.45,40.45,0,0,0,20.17-5,30.53,30.53,0,0,0,13-13.57q3.16-6.65,3.16-19.62v-7.19Z" transform="translate(-75.36 -130.48)"/><path class="cls-2" d="M625.18,153.54V131H644.8v22.56H625.18Zm0,137.23V175H644.8V290.77H625.18Z" transform="translate(-75.36 -130.48)"/><path class="cls-2" d="M657,256.22l19.4-3.05Q678,264.83,685.5,271t20.87,6.21q13.51,0,20.06-5.5T733,258.84a11.92,11.92,0,0,0-5.78-10.46q-4-2.62-20.05-6.65-21.58-5.45-29.92-9.43a28.56,28.56,0,0,1-16.95-26.54,29.81,29.81,0,0,1,3.54-14.33,31.75,31.75,0,0,1,9.65-11,40.49,40.49,0,0,1,12.48-5.72,59.37,59.37,0,0,1,16.95-2.34,67,67,0,0,1,23.92,3.92Q737.11,180.25,742,187t6.76,17.93l-19.18,2.62q-1.31-8.94-7.58-14t-17.71-5q-13.52,0-19.29,4.47t-5.78,10.46a10.82,10.82,0,0,0,2.4,6.87,17.26,17.26,0,0,0,7.52,5.23q2.94,1.09,17.33,5,20.82,5.56,29,9.1A29.49,29.49,0,0,1,748.45,240q4.68,6.76,4.69,16.79a32.93,32.93,0,0,1-5.72,18.47,37,37,0,0,1-16.51,13.41,60.12,60.12,0,0,1-24.42,4.74q-22.56,0-34.39-9.37T657,256.22Z" transform="translate(-75.36 -130.48)"/></g><line class="cls-3" x1="411.95" y1="2.17" x2="411.95" y2="199.41"/><path class="cls-2" d="M389.88,198a9,9,0,0,1,9,9v0.83a9,9,0,0,1-9,9h-0.83a9,9,0,0,1-9-9V207a9,9,0,0,1,9-9h0.83m0-3h-0.83a12,12,0,0,0-12,12v0.83a12,12,0,0,0,12,12h0.83a12,12,0,0,0,12-12V207a12,12,0,0,0-12-12h0Z" transform="translate(-75.36 -130.48)"/><path class="cls-2" d="M452.59,228.34a9,9,0,0,1,9,9v0.83a9,9,0,0,1-9,9h-0.83a9,9,0,0,1-9-9v-0.83a9,9,0,0,1,9-9h0.83m0-3h-0.83a12,12,0,0,0-12,12v0.83a12,12,0,0,0,12,12h0.83a12,12,0,0,0,12-12v-0.83a12,12,0,0,0-12-12h0Z" transform="translate(-75.36 -130.48)"/><path class="cls-2" d="M421.34,258.9a9,9,0,0,1,9,9v0.83a9,9,0,0,1-9,9h-0.83a9,9,0,0,1-9-9V267.9a9,9,0,0,1,9-9h0.83m0-3h-0.83a12,12,0,0,0-12,12v0.83a12,12,0,0,0,12,12h0.83a12,12,0,0,0,12-12V267.9a12,12,0,0,0-12-12h0Z" transform="translate(-75.36 -130.48)"/><path class="cls-2" d="M407.51,207a12,12,0,0,1,12-12h0.83a12,12,0,0,1,12,12v0.83a12,12,0,0,1-12,12h-0.83a12,12,0,0,1-12-12V207Z" transform="translate(-75.36 -130.48)"/><path class="cls-2" d="M439.76,207a12,12,0,0,1,12-12h0.83a12,12,0,0,1,12,12v0.83a12,12,0,0,1-12,12h-0.83a12,12,0,0,1-12-12V207Z" transform="translate(-75.36 -130.48)"/><path class="cls-2" d="M377,267.9a12,12,0,0,1,12-12h0.83a12,12,0,0,1,12,12v0.83a12,12,0,0,1-12,12H389a12,12,0,0,1-12-12V267.9Z" transform="translate(-75.36 -130.48)"/><path class="cls-2" d="M377.05,237.34a12,12,0,0,1,12-12h0.83a12,12,0,0,1,12,12v0.83a12,12,0,0,1-12,12h-0.83a12,12,0,0,1-12-12v-0.83Z" transform="translate(-75.36 -130.48)"/><path class="cls-2" d="M408.22,237.34a12,12,0,0,1,12-12H421a12,12,0,0,1,12,12v0.83a12,12,0,0,1-12,12h-0.83a12,12,0,0,1-12-12v-0.83Z" transform="translate(-75.36 -130.48)"/><path class="cls-2" d="M439.76,266.9a12,12,0,0,1,12-12h0.83a12,12,0,0,1,12,12v0.83a12,12,0,0,1-12,12h-0.83a12,12,0,0,1-12-12V266.9Z" transform="translate(-75.36 -130.48)"/><g class="cls-1"><path class="cls-2" d="M88.74,402H85l0.33-1.57a7.21,7.21,0,0,1-2.1,1.47,5.85,5.85,0,0,1-2.33.44,4.72,4.72,0,0,1-3.66-1.54,6.54,6.54,0,0,1-1.4-4.55,10.75,10.75,0,0,1,2-6.3A6.07,6.07,0,0,1,83,387.14a4.84,4.84,0,0,1,4.39,2.32L89,382h3.92Zm-9.06-5.91a3.51,3.51,0,0,0,.79,2.43,2.5,2.5,0,0,0,1.93.88,3.14,3.14,0,0,0,2-.73,5,5,0,0,0,1.48-2.24,8.34,8.34,0,0,0,.55-2.88,3.73,3.73,0,0,0-.85-2.54,2.54,2.54,0,0,0-2-1A3.25,3.25,0,0,0,80.78,392,8.13,8.13,0,0,0,79.68,396.09Z" transform="translate(-75.36 -130.48)"/><path class="cls-2" d="M107.55,396H97.7c0,0.16,0,.27,0,0.36a3.29,3.29,0,0,0,.83,2.34,2.65,2.65,0,0,0,2,.89,3.36,3.36,0,0,0,3-2l3.51,0.59a7.39,7.39,0,0,1-2.74,3.18,7.18,7.18,0,0,1-3.85,1.06,6.4,6.4,0,0,1-4.76-1.85,6.67,6.67,0,0,1-1.83-4.9,8.92,8.92,0,0,1,1.65-5.3,7.45,7.45,0,0,1,6.44-3.14,5.58,5.58,0,0,1,4.24,1.65,6.42,6.42,0,0,1,1.57,4.61A11,11,0,0,1,107.55,396Zm-3.31-2.39c0-.17,0-0.31,0-0.4a3.52,3.52,0,0,0-.72-2.42,2.48,2.48,0,0,0-1.94-.81,3.08,3.08,0,0,0-2.18.92,4.88,4.88,0,0,0-1.31,2.71h6.14Z" transform="translate(-75.36 -130.48)"/><path class="cls-2" d="M117.22,402h-3.38l-2.91-14.52h3.86l1,6.33q0.42,2.57.51,3.42,0.11-.23,1-1.77t1-1.85l3.61-6.12h4.24Z" transform="translate(-75.36 -130.48)"/><path class="cls-2" d="M132.05,391.6l-3.83-.33a5.76,5.76,0,0,1,2.29-3,7.65,7.65,0,0,1,4.33-1.09,6.34,6.34,0,0,1,4.14,1.13,3.47,3.47,0,0,1,1.34,2.75,9,9,0,0,1-.12,1.39q-0.12.74-.81,3.88a19.93,19.93,0,0,0-.57,3.64,7.49,7.49,0,0,0,.33,2.06h-3.81a7.49,7.49,0,0,1-.29-1.64,6,6,0,0,1-2,1.47,5.38,5.38,0,0,1-2.26.51,4,4,0,0,1-3-1.18,4.13,4.13,0,0,1-1.18-3,4.4,4.4,0,0,1,1.29-3.32q1.29-1.24,4.61-1.5a18.35,18.35,0,0,0,3.75-.56,4.85,4.85,0,0,0,.25-1.31,1.32,1.32,0,0,0-.51-1.05,2.3,2.3,0,0,0-1.5-.42,2.83,2.83,0,0,0-1.66.43A2.14,2.14,0,0,0,132.05,391.6Zm3.73,3.64a8.15,8.15,0,0,1-.94.18,9,9,0,0,0-3.86,1,1.58,1.58,0,0,0-.64,1.33,1.54,1.54,0,0,0,.49,1.16,1.8,1.8,0,0,0,1.3.47,3.43,3.43,0,0,0,1.67-.43,3,3,0,0,0,1.18-1.11,7.57,7.57,0,0,0,.69-2.11Z" transform="translate(-75.36 -130.48)"/><path class="cls-2" d="M142.56,397.94l3.8-.6a3.1,3.1,0,0,0,3.31,2.2,3.5,3.5,0,0,0,2.15-.6,1.21,1.21,0,0,0,.56-1,1,1,0,0,0-.29-0.71,5,5,0,0,0-1.63-.74,17.61,17.61,0,0,1-4.4-1.86,3.41,3.41,0,0,1-1.33-2.79,4,4,0,0,1,1.29-3,7.36,7.36,0,0,1,5.32-1.74,7.27,7.27,0,0,1,4.24,1,4.47,4.47,0,0,1,1.82,2.78l-3.62.63a2.24,2.24,0,0,0-.93-1.19,4,4,0,0,0-2.11-.53,3,3,0,0,0-1.77.41,1.18,1.18,0,0,0-.54.94,1.05,1.05,0,0,0,.55.9,12.83,12.83,0,0,0,2.2.77,11.65,11.65,0,0,1,3.84,1.64,3.44,3.44,0,0,1,1.37,2.73,4.62,4.62,0,0,1-1.74,3.58,7.2,7.2,0,0,1-4.89,1.52,8.65,8.65,0,0,1-4.86-1.16A5.73,5.73,0,0,1,142.56,397.94Z" transform="translate(-75.36 -130.48)"/><path class="cls-2" d="M160.6,390.39l0.6-2.91h1.91l0.48-2.32,4.5-2.71-1.05,5h2.39l-0.6,2.91h-2.41l-1.27,6.08a18.89,18.89,0,0,0-.34,1.89,0.89,0.89,0,0,0,.29.7,1.6,1.6,0,0,0,1,.25q0.26,0,1.3-.1l-0.62,2.91a10.44,10.44,0,0,1-2.08.21,4.64,4.64,0,0,1-3-.8,2.76,2.76,0,0,1-.94-2.22,20.77,20.77,0,0,1,.51-3.09l1.22-5.84h-1.9Z" transform="translate(-75.36 -130.48)"/><path class="cls-2" d="M175.46,391.6l-3.83-.33a5.76,5.76,0,0,1,2.29-3,7.65,7.65,0,0,1,4.33-1.09,6.34,6.34,0,0,1,4.14,1.13,3.47,3.47,0,0,1,1.34,2.75,9,9,0,0,1-.12,1.39q-0.12.74-.81,3.88a19.93,19.93,0,0,0-.57,3.64,7.49,7.49,0,0,0,.33,2.06h-3.81a7.49,7.49,0,0,1-.29-1.64,6,6,0,0,1-2,1.47,5.38,5.38,0,0,1-2.26.51,4,4,0,0,1-3-1.18,4.13,4.13,0,0,1-1.18-3,4.4,4.4,0,0,1,1.29-3.32q1.29-1.24,4.61-1.5a18.35,18.35,0,0,0,3.75-.56,4.85,4.85,0,0,0,.25-1.31,1.32,1.32,0,0,0-.51-1.05,2.3,2.3,0,0,0-1.5-.42,2.83,2.83,0,0,0-1.66.43A2.14,2.14,0,0,0,175.46,391.6Zm3.73,3.64a8.15,8.15,0,0,1-.94.18,9,9,0,0,0-3.86,1,1.58,1.58,0,0,0-.64,1.33,1.54,1.54,0,0,0,.49,1.16,1.8,1.8,0,0,0,1.3.47,3.43,3.43,0,0,0,1.67-.43,3,3,0,0,0,1.18-1.11,7.57,7.57,0,0,0,.69-2.11Z" transform="translate(-75.36 -130.48)"/><path class="cls-2" d="M187.46,390.39l0.6-2.91H190l0.48-2.32,4.5-2.71-1.05,5h2.39l-0.6,2.91h-2.41L192,396.48a18.89,18.89,0,0,0-.34,1.89,0.89,0.89,0,0,0,.29.7,1.6,1.6,0,0,0,1,.25q0.26,0,1.3-.1l-0.62,2.91a10.44,10.44,0,0,1-2.08.21,4.64,4.64,0,0,1-3-.8,2.76,2.76,0,0,1-.94-2.22,20.77,20.77,0,0,1,.51-3.09l1.22-5.84h-1.9Z" transform="translate(-75.36 -130.48)"/><path class="cls-2" d="M199.82,387.48h3.92l-3,14.52h-3.92ZM201,382h3.92l-0.74,3.55h-3.92Z" transform="translate(-75.36 -130.48)"/><path class="cls-2" d="M208.63,387.48h3.72L212,389.37a10.23,10.23,0,0,1,2.6-1.72,6.47,6.47,0,0,1,2.55-.51,3.83,3.83,0,0,1,2.82,1,3.67,3.67,0,0,1,1,2.72,17.22,17.22,0,0,1-.45,2.9L218.82,402h-3.92l1.72-8.24a18.16,18.16,0,0,0,.38-2.2,1.57,1.57,0,0,0-.44-1.18,1.7,1.7,0,0,0-1.24-.43,3.47,3.47,0,0,0-1.91.72,5,5,0,0,0-1.65,1.91,16.16,16.16,0,0,0-1,3.46l-1.24,6H205.6Z" transform="translate(-75.36 -130.48)"/><path class="cls-2" d="M223.42,402.77l4.14,0.6a1.78,1.78,0,0,0,.21,1,1.59,1.59,0,0,0,.66.55,2.87,2.87,0,0,0,1.25.23,3.6,3.6,0,0,0,2-.49,2.7,2.7,0,0,0,.92-1.23,15.26,15.26,0,0,0,.56-2.32l0.14-.68a6.53,6.53,0,0,1-4.21,1.7,4.52,4.52,0,0,1-3.5-1.5,6.34,6.34,0,0,1-1.37-4.4,11.61,11.61,0,0,1,.93-4.69,7.1,7.1,0,0,1,2.61-3.23,6.22,6.22,0,0,1,3.43-1.09,4.84,4.84,0,0,1,2.65.77,5.14,5.14,0,0,1,1.87,2.15l0.55-2.57h3.68l-2.52,12.1a40.44,40.44,0,0,1-1,4.16,7.32,7.32,0,0,1-1,2A4.7,4.7,0,0,1,234,407a6,6,0,0,1-2,.72,13,13,0,0,1-2.46.22,8.39,8.39,0,0,1-4.65-1.05,3.9,3.9,0,0,1-1.57-3.5A4.48,4.48,0,0,1,223.42,402.77Zm4.62-7a3.77,3.77,0,0,0,.75,2.52,2.36,2.36,0,0,0,1.87.87,3.14,3.14,0,0,0,2-.78,4.87,4.87,0,0,0,1.48-2.21,8.23,8.23,0,0,0,.51-2.78,3.62,3.62,0,0,0-.83-2.49,2.51,2.51,0,0,0-1.93-.94,2.76,2.76,0,0,0-1.93.83,6.15,6.15,0,0,0-1.46,2.57A7.84,7.84,0,0,0,228,395.75Z" transform="translate(-75.36 -130.48)"/><path class="cls-2" d="M260.31,396.53l3.81,0.62a8,8,0,0,1-2.79,3.87,7.15,7.15,0,0,1-4.28,1.33,5.89,5.89,0,0,1-4.4-1.65,6.21,6.21,0,0,1-1.63-4.55,10.43,10.43,0,0,1,1-4.47,7.55,7.55,0,0,1,3-3.32,8.19,8.19,0,0,1,4.35-1.21,6,6,0,0,1,4.1,1.34,5.09,5.09,0,0,1,1.72,3.53l-3.73.4a2.82,2.82,0,0,0-.75-1.79,2.23,2.23,0,0,0-1.59-.57,3.19,3.19,0,0,0-2.12.85,5.35,5.35,0,0,0-1.51,2.54,10.66,10.66,0,0,0-.53,3.17,2.86,2.86,0,0,0,.63,2,2,2,0,0,0,1.57.7,2.92,2.92,0,0,0,1.82-.68A4.42,4.42,0,0,0,260.31,396.53Z" transform="translate(-75.36 -130.48)"/><path class="cls-2" d="M272.56,391.6l-3.83-.33a5.76,5.76,0,0,1,2.29-3,7.65,7.65,0,0,1,4.33-1.09,6.34,6.34,0,0,1,4.14,1.13,3.47,3.47,0,0,1,1.34,2.75,9,9,0,0,1-.12,1.39q-0.12.74-.81,3.88a19.93,19.93,0,0,0-.57,3.64,7.49,7.49,0,0,0,.33,2.06h-3.81a7.49,7.49,0,0,1-.29-1.64,6,6,0,0,1-2,1.47,5.38,5.38,0,0,1-2.26.51,4,4,0,0,1-3-1.18,4.13,4.13,0,0,1-1.18-3,4.4,4.4,0,0,1,1.29-3.32q1.29-1.24,4.61-1.5a18.35,18.35,0,0,0,3.75-.56,4.85,4.85,0,0,0,.25-1.31,1.32,1.32,0,0,0-.51-1.05,2.3,2.3,0,0,0-1.5-.42,2.83,2.83,0,0,0-1.66.43A2.14,2.14,0,0,0,272.56,391.6Zm3.73,3.64a8.15,8.15,0,0,1-.94.18,9,9,0,0,0-3.86,1,1.58,1.58,0,0,0-.64,1.33,1.54,1.54,0,0,0,.49,1.16,1.8,1.8,0,0,0,1.3.47,3.43,3.43,0,0,0,1.67-.43,3,3,0,0,0,1.18-1.11,7.57,7.57,0,0,0,.69-2.11Z" transform="translate(-75.36 -130.48)"/><path class="cls-2" d="M286.48,387.48h3.72L289.89,389a8.81,8.81,0,0,1,2.23-1.41,5.85,5.85,0,0,1,2.23-.42,4.66,4.66,0,0,1,3.67,1.57,6.9,6.9,0,0,1,1.39,4.69A9.66,9.66,0,0,1,297,400a6.29,6.29,0,0,1-4.85,2.31A4.83,4.83,0,0,1,287.8,400l-1.57,7.53H282.3Zm2.37,8.33a3.84,3.84,0,0,0,.83,2.63,2.52,2.52,0,0,0,1.95.94,3,3,0,0,0,1.87-.7,5.11,5.11,0,0,0,1.5-2.34,8.9,8.9,0,0,0,.59-3,3.61,3.61,0,0,0-.78-2.5,2.55,2.55,0,0,0-2-.87,3,3,0,0,0-2,.8,5.13,5.13,0,0,0-1.43,2.35A8.93,8.93,0,0,0,288.85,395.81Z" transform="translate(-75.36 -130.48)"/><path class="cls-2" d="M307.19,391.6l-3.83-.33a5.76,5.76,0,0,1,2.29-3,7.65,7.65,0,0,1,4.33-1.09,6.34,6.34,0,0,1,4.14,1.13,3.47,3.47,0,0,1,1.34,2.75,9,9,0,0,1-.12,1.39q-0.12.74-.81,3.88a19.93,19.93,0,0,0-.57,3.64,7.49,7.49,0,0,0,.33,2.06h-3.81a7.49,7.49,0,0,1-.29-1.64,6,6,0,0,1-2,1.47,5.38,5.38,0,0,1-2.26.51,4,4,0,0,1-3-1.18,4.13,4.13,0,0,1-1.18-3,4.4,4.4,0,0,1,1.29-3.32q1.29-1.24,4.61-1.5a18.35,18.35,0,0,0,3.75-.56,4.85,4.85,0,0,0,.25-1.31,1.32,1.32,0,0,0-.51-1.05,2.3,2.3,0,0,0-1.5-.42,2.83,2.83,0,0,0-1.66.43A2.14,2.14,0,0,0,307.19,391.6Zm3.73,3.64a8.15,8.15,0,0,1-.94.18,9,9,0,0,0-3.86,1,1.58,1.58,0,0,0-.64,1.33,1.54,1.54,0,0,0,.49,1.16,1.8,1.8,0,0,0,1.3.47,3.43,3.43,0,0,0,1.67-.43,3,3,0,0,0,1.18-1.11,7.57,7.57,0,0,0,.69-2.11Z" transform="translate(-75.36 -130.48)"/><path class="cls-2" d="M318.1,402l4.18-20h3.94l-1.41,6.7a8.07,8.07,0,0,1,2-1.17,5.81,5.81,0,0,1,2-.35,4.7,4.7,0,0,1,3.68,1.54,6.49,6.49,0,0,1,1.38,4.48,11.64,11.64,0,0,1-.65,3.85,8.49,8.49,0,0,1-1.74,3,7.6,7.6,0,0,1-2.28,1.74,5.79,5.79,0,0,1-2.51.57,4.85,4.85,0,0,1-4.58-2.73L321.67,402H318.1Zm5.29-5.92a3.41,3.41,0,0,0,.83,2.38,2.55,2.55,0,0,0,1.95.92,3,3,0,0,0,1.88-.71,5.18,5.18,0,0,0,1.49-2.27,8.76,8.76,0,0,0,.59-3.14,3.48,3.48,0,0,0-.8-2.43,2.52,2.52,0,0,0-1.93-.88,3.15,3.15,0,0,0-2.54,1.37A7.52,7.52,0,0,0,323.39,396.08Z" transform="translate(-75.36 -130.48)"/><path class="cls-2" d="M339.33,387.48h3.92l-3,14.52h-3.92Zm1.15-5.52h3.92l-0.74,3.55h-3.92Z" transform="translate(-75.36 -130.48)"/><path class="cls-2" d="M345,402l4.2-20h3.91l-4.18,20H345Z" transform="translate(-75.36 -130.48)"/><path class="cls-2" d="M356.84,387.48h3.92l-3,14.52h-3.92ZM358,382h3.92l-0.74,3.55h-3.92Z" transform="translate(-75.36 -130.48)"/><path class="cls-2" d="M363.55,390.39l0.6-2.91h1.91l0.48-2.32,4.5-2.71-1.05,5h2.39l-0.6,2.91h-2.41l-1.27,6.08a18.89,18.89,0,0,0-.34,1.89,0.89,0.89,0,0,0,.29.7,1.6,1.6,0,0,0,1,.25q0.26,0,1.3-.1l-0.62,2.91a10.44,10.44,0,0,1-2.08.21,4.64,4.64,0,0,1-3-.8,2.76,2.76,0,0,1-.94-2.22,20.77,20.77,0,0,1,.51-3.09l1.22-5.84h-1.9Z" transform="translate(-75.36 -130.48)"/><path class="cls-2" d="M374.09,387.48H378l1,7.23q0.37,2.79.41,3.91a31.29,31.29,0,0,1,2.11-4.7l3.47-6.44h4.16l-9,15.94a22.21,22.21,0,0,1-1.74,2.78,4.6,4.6,0,0,1-1.53,1.24,4.74,4.74,0,0,1-2.15.45,10.47,10.47,0,0,1-2.8-.44l0.34-2.93a5,5,0,0,0,1.38.21q1.8,0,3-2.73Z" transform="translate(-75.36 -130.48)"/><path class="cls-2" d="M389.26,398.21h4l-0.66,3.13a7,7,0,0,1-1.8,3.83,4.73,4.73,0,0,1-3.21,1.17l0.38-1.82a2.92,2.92,0,0,0,1.52-.79,3.63,3.63,0,0,0,.8-1.74h-1.8Z" transform="translate(-75.36 -130.48)"/><path class="cls-2" d="M408.72,387.48h3.66l-0.59,2.82q2.05-3.16,4.44-3.16a4.57,4.57,0,0,1,1.82.42l-1.5,3.21a3.32,3.32,0,0,0-1.13-.19,3.49,3.49,0,0,0-2.06.77,5.13,5.13,0,0,0-1.63,2,20.36,20.36,0,0,0-1.16,4.05l-1,4.55h-3.92Z" transform="translate(-75.36 -130.48)"/><path class="cls-2" d="M431.92,396h-9.84c0,0.16,0,.27,0,0.36a3.29,3.29,0,0,0,.83,2.34,2.65,2.65,0,0,0,2,.89,3.36,3.36,0,0,0,3-2l3.51,0.59a7.39,7.39,0,0,1-2.74,3.18,7.18,7.18,0,0,1-3.85,1.06,6.4,6.4,0,0,1-4.76-1.85,6.67,6.67,0,0,1-1.83-4.9,8.92,8.92,0,0,1,1.65-5.3,7.45,7.45,0,0,1,6.44-3.14,5.58,5.58,0,0,1,4.24,1.65,6.42,6.42,0,0,1,1.57,4.61A10.92,10.92,0,0,1,431.92,396Zm-3.31-2.39c0-.17,0-0.31,0-0.4a3.52,3.52,0,0,0-.72-2.42,2.48,2.48,0,0,0-1.94-.81,3.08,3.08,0,0,0-2.18.92,4.88,4.88,0,0,0-1.31,2.71h6.14Z" transform="translate(-75.36 -130.48)"/><path class="cls-2" d="M441.59,402h-3.38l-2.91-14.52h3.86l1,6.33q0.42,2.57.51,3.42,0.11-.23,1-1.77t1-1.85l3.61-6.12h4.24Z" transform="translate(-75.36 -130.48)"/><path class="cls-2" d="M451.46,396a9,9,0,0,1,2.28-6.43,7.87,7.87,0,0,1,6-2.4,6.86,6.86,0,0,1,5,1.77,6.37,6.37,0,0,1,1.8,4.76,8.94,8.94,0,0,1-2.26,6.1,7.64,7.64,0,0,1-6,2.57,7.8,7.8,0,0,1-3.64-.82,5.35,5.35,0,0,1-2.37-2.32A6.91,6.91,0,0,1,451.46,396Zm11.18-2.8a3.08,3.08,0,0,0-.81-2.24,2.79,2.79,0,0,0-2.1-.84,3.51,3.51,0,0,0-2.26.79,5.05,5.05,0,0,0-1.53,2.28,8.09,8.09,0,0,0-.55,2.75,3.5,3.5,0,0,0,.85,2.47,2.78,2.78,0,0,0,2.13.92,3.33,3.33,0,0,0,2.71-1.38A7.39,7.39,0,0,0,462.64,393.17Z" transform="translate(-75.36 -130.48)"/><path class="cls-2" d="M468.94,402l4.2-20H477l-4.18,20h-3.92Z" transform="translate(-75.36 -130.48)"/><path class="cls-2" d="M480.74,387.48h3.92l-1.79,8.6a13.51,13.51,0,0,0-.33,1.93,1.45,1.45,0,0,0,.46,1.08,1.64,1.64,0,0,0,1.19.45,2.79,2.79,0,0,0,1-.2,4.42,4.42,0,0,0,1-.6,5.52,5.52,0,0,0,1-.92,5.89,5.89,0,0,0,.79-1.37,12.89,12.89,0,0,0,.56-2.05l1.45-6.92h3.92l-3,14.52h-3.66l0.41-2a7.44,7.44,0,0,1-5.24,2.31,3.81,3.81,0,0,1-2.82-1,3.71,3.71,0,0,1-1-2.75,18.69,18.69,0,0,1,.46-3Z" transform="translate(-75.36 -130.48)"/><path class="cls-2" d="M496.8,390.39l0.6-2.91h1.91l0.48-2.32,4.5-2.71-1.05,5h2.39l-0.6,2.91h-2.41l-1.27,6.08a19.06,19.06,0,0,0-.34,1.89,0.89,0.89,0,0,0,.29.7,1.6,1.6,0,0,0,1,.25q0.26,0,1.3-.1L503,402.14a10.44,10.44,0,0,1-2.08.21,4.64,4.64,0,0,1-3-.8,2.76,2.76,0,0,1-.94-2.22,20.84,20.84,0,0,1,.51-3.09l1.22-5.84h-1.9Z" transform="translate(-75.36 -130.48)"/><path class="cls-2" d="M509.15,387.48h3.92L510,402h-3.92ZM510.3,382h3.92l-0.74,3.55h-3.92Z" transform="translate(-75.36 -130.48)"/><path class="cls-2" d="M515.45,396a9,9,0,0,1,2.28-6.43,7.87,7.87,0,0,1,6-2.4,6.86,6.86,0,0,1,5,1.77,6.37,6.37,0,0,1,1.8,4.76,8.94,8.94,0,0,1-2.26,6.1,7.64,7.64,0,0,1-6,2.57,7.8,7.8,0,0,1-3.64-.82,5.35,5.35,0,0,1-2.37-2.32A6.91,6.91,0,0,1,515.45,396Zm11.18-2.8a3.08,3.08,0,0,0-.81-2.24,2.79,2.79,0,0,0-2.1-.84,3.51,3.51,0,0,0-2.26.79,5.05,5.05,0,0,0-1.53,2.28,8.09,8.09,0,0,0-.55,2.75,3.5,3.5,0,0,0,.85,2.47,2.78,2.78,0,0,0,2.13.92,3.33,3.33,0,0,0,2.71-1.38A7.39,7.39,0,0,0,526.63,393.17Z" transform="translate(-75.36 -130.48)"/><path class="cls-2" d="M536,387.48h3.72l-0.38,1.89a10.23,10.23,0,0,1,2.6-1.72,6.47,6.47,0,0,1,2.55-.51,3.83,3.83,0,0,1,2.82,1,3.66,3.66,0,0,1,1,2.72,17.22,17.22,0,0,1-.45,2.9L546.23,402h-3.92l1.72-8.24a18.16,18.16,0,0,0,.38-2.2,1.57,1.57,0,0,0-.44-1.18,1.7,1.7,0,0,0-1.24-.43,3.47,3.47,0,0,0-1.91.72,5,5,0,0,0-1.65,1.91,16.16,16.16,0,0,0-1,3.46l-1.24,6H533Z" transform="translate(-75.36 -130.48)"/><path class="cls-2" d="M556.58,391.6l-3.83-.33a5.76,5.76,0,0,1,2.29-3,7.65,7.65,0,0,1,4.33-1.09,6.34,6.34,0,0,1,4.14,1.13,3.47,3.47,0,0,1,1.34,2.75,9,9,0,0,1-.12,1.39q-0.12.74-.81,3.88a19.93,19.93,0,0,0-.57,3.64,7.49,7.49,0,0,0,.33,2.06h-3.81a7.49,7.49,0,0,1-.29-1.64,6,6,0,0,1-2,1.47,5.38,5.38,0,0,1-2.26.51,4,4,0,0,1-3-1.18,4.13,4.13,0,0,1-1.18-3,4.4,4.4,0,0,1,1.29-3.32q1.29-1.24,4.61-1.5a18.35,18.35,0,0,0,3.75-.56,4.85,4.85,0,0,0,.25-1.31,1.32,1.32,0,0,0-.51-1.05,2.3,2.3,0,0,0-1.5-.42,2.83,2.83,0,0,0-1.66.43A2.14,2.14,0,0,0,556.58,391.6Zm3.73,3.64a8.15,8.15,0,0,1-.94.18,9,9,0,0,0-3.86,1,1.58,1.58,0,0,0-.64,1.33,1.54,1.54,0,0,0,.49,1.16,1.8,1.8,0,0,0,1.3.47,3.43,3.43,0,0,0,1.67-.43,2.94,2.94,0,0,0,1.18-1.11,7.55,7.55,0,0,0,.69-2.11Z" transform="translate(-75.36 -130.48)"/><path class="cls-2" d="M570.41,387.48h3.66l-0.59,2.82q2.05-3.16,4.44-3.16a4.57,4.57,0,0,1,1.82.42l-1.5,3.21a3.32,3.32,0,0,0-1.13-.19,3.49,3.49,0,0,0-2.06.77,5.13,5.13,0,0,0-1.63,2,20.36,20.36,0,0,0-1.16,4.05l-1,4.55h-3.92Z" transform="translate(-75.36 -130.48)"/><path class="cls-2" d="M580.69,387.48h3.91l1,7.23q0.37,2.79.41,3.91a31.34,31.34,0,0,1,2.11-4.7l3.47-6.44h4.16l-9,15.94A22.21,22.21,0,0,1,585,406.2a4.6,4.6,0,0,1-1.53,1.24,4.74,4.74,0,0,1-2.15.45,10.47,10.47,0,0,1-2.8-.44l0.34-2.93a5,5,0,0,0,1.38.21q1.8,0,3-2.73Z" transform="translate(-75.36 -130.48)"/><path class="cls-2" d="M610.32,391.6l-3.83-.33a5.76,5.76,0,0,1,2.29-3,7.65,7.65,0,0,1,4.33-1.09,6.34,6.34,0,0,1,4.14,1.13,3.47,3.47,0,0,1,1.34,2.75,9,9,0,0,1-.12,1.39q-0.12.74-.81,3.88a19.93,19.93,0,0,0-.57,3.64,7.49,7.49,0,0,0,.33,2.06H613.6a7.49,7.49,0,0,1-.29-1.64,6,6,0,0,1-2,1.47,5.38,5.38,0,0,1-2.26.51,4,4,0,0,1-3-1.18,4.13,4.13,0,0,1-1.18-3,4.4,4.4,0,0,1,1.29-3.32q1.29-1.24,4.61-1.5a18.35,18.35,0,0,0,3.75-.56,4.85,4.85,0,0,0,.25-1.31,1.32,1.32,0,0,0-.51-1.05,2.3,2.3,0,0,0-1.5-.42,2.83,2.83,0,0,0-1.66.43A2.14,2.14,0,0,0,610.32,391.6Zm3.73,3.64a8.15,8.15,0,0,1-.94.18,9,9,0,0,0-3.86,1,1.58,1.58,0,0,0-.64,1.33,1.54,1.54,0,0,0,.49,1.16,1.8,1.8,0,0,0,1.3.47,3.43,3.43,0,0,0,1.67-.43,2.94,2.94,0,0,0,1.18-1.11,7.55,7.55,0,0,0,.69-2.11Z" transform="translate(-75.36 -130.48)"/><path class="cls-2" d="M634.75,402H631l0.33-1.57a7.2,7.2,0,0,1-2.1,1.47,5.85,5.85,0,0,1-2.33.44,4.72,4.72,0,0,1-3.66-1.54,6.54,6.54,0,0,1-1.4-4.55,10.75,10.75,0,0,1,2-6.3,6.07,6.07,0,0,1,5.21-2.82,4.84,4.84,0,0,1,4.39,2.32L635,382h3.92Zm-9.06-5.91a3.51,3.51,0,0,0,.79,2.43,2.5,2.5,0,0,0,1.93.88,3.14,3.14,0,0,0,2-.73,5,5,0,0,0,1.48-2.24,8.34,8.34,0,0,0,.55-2.88,3.73,3.73,0,0,0-.85-2.54,2.54,2.54,0,0,0-2-1,3.25,3.25,0,0,0-2.83,1.91A8.13,8.13,0,0,0,625.68,396.09Z" transform="translate(-75.36 -130.48)"/><path class="cls-2" d="M646.68,402H643.3l-2.91-14.52h3.86l1,6.33q0.42,2.57.51,3.42,0.11-.23,1-1.77t1-1.85l3.61-6.12h4.24Z" transform="translate(-75.36 -130.48)"/><path class="cls-2" d="M661.51,391.6l-3.83-.33a5.76,5.76,0,0,1,2.29-3,7.65,7.65,0,0,1,4.33-1.09,6.34,6.34,0,0,1,4.14,1.13,3.47,3.47,0,0,1,1.34,2.75,9,9,0,0,1-.12,1.39q-0.12.74-.81,3.88a19.93,19.93,0,0,0-.57,3.64,7.49,7.49,0,0,0,.33,2.06h-3.81a7.49,7.49,0,0,1-.29-1.64,6,6,0,0,1-2,1.47,5.38,5.38,0,0,1-2.26.51,4,4,0,0,1-3-1.18,4.13,4.13,0,0,1-1.18-3,4.4,4.4,0,0,1,1.29-3.32q1.29-1.24,4.61-1.5a18.35,18.35,0,0,0,3.75-.56,4.85,4.85,0,0,0,.25-1.31,1.32,1.32,0,0,0-.51-1.05,2.3,2.3,0,0,0-1.5-.42,2.83,2.83,0,0,0-1.66.43A2.14,2.14,0,0,0,661.51,391.6Zm3.73,3.64a8.15,8.15,0,0,1-.94.18,9,9,0,0,0-3.86,1,1.58,1.58,0,0,0-.64,1.33,1.54,1.54,0,0,0,.49,1.16,1.8,1.8,0,0,0,1.3.47,3.43,3.43,0,0,0,1.67-.43,2.94,2.94,0,0,0,1.18-1.11,7.55,7.55,0,0,0,.69-2.11Z" transform="translate(-75.36 -130.48)"/><path class="cls-2" d="M675.61,387.48h3.72l-0.38,1.89a10.23,10.23,0,0,1,2.6-1.72,6.47,6.47,0,0,1,2.55-.51,3.83,3.83,0,0,1,2.82,1,3.66,3.66,0,0,1,1,2.72,17.22,17.22,0,0,1-.45,2.9L685.8,402h-3.92l1.72-8.24a18.16,18.16,0,0,0,.38-2.2,1.57,1.57,0,0,0-.44-1.18,1.7,1.7,0,0,0-1.24-.43,3.47,3.47,0,0,0-1.91.72,5,5,0,0,0-1.65,1.91,16.16,16.16,0,0,0-1,3.46l-1.24,6h-3.92Z" transform="translate(-75.36 -130.48)"/><path class="cls-2" d="M691.59,390.39l0.6-2.91h1.91l0.48-2.32,4.5-2.71-1.05,5h2.39l-0.6,2.91h-2.41l-1.27,6.08a19.06,19.06,0,0,0-.34,1.89,0.89,0.89,0,0,0,.29.7,1.6,1.6,0,0,0,1,.25q0.26,0,1.3-.1l-0.62,2.91a10.44,10.44,0,0,1-2.08.21,4.64,4.64,0,0,1-3-.8,2.76,2.76,0,0,1-.94-2.22,20.84,20.84,0,0,1,.51-3.09l1.22-5.84h-1.9Z" transform="translate(-75.36 -130.48)"/><path class="cls-2" d="M706.45,391.6l-3.83-.33a5.76,5.76,0,0,1,2.29-3,7.65,7.65,0,0,1,4.33-1.09,6.34,6.34,0,0,1,4.14,1.13,3.47,3.47,0,0,1,1.34,2.75,9,9,0,0,1-.12,1.39q-0.12.74-.81,3.88a19.93,19.93,0,0,0-.57,3.64,7.49,7.49,0,0,0,.33,2.06h-3.81a7.49,7.49,0,0,1-.29-1.64,6,6,0,0,1-2,1.47,5.38,5.38,0,0,1-2.26.51,4,4,0,0,1-3-1.18,4.13,4.13,0,0,1-1.18-3,4.4,4.4,0,0,1,1.29-3.32q1.29-1.24,4.61-1.5a18.35,18.35,0,0,0,3.75-.56,4.85,4.85,0,0,0,.25-1.31,1.32,1.32,0,0,0-.51-1.05,2.3,2.3,0,0,0-1.5-.42,2.83,2.83,0,0,0-1.66.43A2.14,2.14,0,0,0,706.45,391.6Zm3.73,3.64a8.15,8.15,0,0,1-.94.18,9,9,0,0,0-3.86,1,1.58,1.58,0,0,0-.64,1.33,1.54,1.54,0,0,0,.49,1.16,1.8,1.8,0,0,0,1.3.47,3.43,3.43,0,0,0,1.67-.43,2.94,2.94,0,0,0,1.18-1.11,7.55,7.55,0,0,0,.69-2.11Z" transform="translate(-75.36 -130.48)"/><path class="cls-2" d="M717.26,402.77l4.14,0.6a1.78,1.78,0,0,0,.21,1,1.59,1.59,0,0,0,.66.55,2.87,2.87,0,0,0,1.25.23,3.6,3.6,0,0,0,2-.49,2.7,2.7,0,0,0,.92-1.23A15.2,15.2,0,0,0,727,401l0.14-.68a6.53,6.53,0,0,1-4.21,1.7,4.52,4.52,0,0,1-3.5-1.5,6.34,6.34,0,0,1-1.37-4.4,11.61,11.61,0,0,1,.93-4.69,7.11,7.11,0,0,1,2.61-3.23,6.22,6.22,0,0,1,3.43-1.09,4.84,4.84,0,0,1,2.65.77,5.13,5.13,0,0,1,1.87,2.15l0.55-2.57h3.68l-2.52,12.1a40.44,40.44,0,0,1-1,4.16,7.3,7.3,0,0,1-1,2,4.7,4.7,0,0,1-1.38,1.24,6,6,0,0,1-2,.72,13,13,0,0,1-2.46.22,8.39,8.39,0,0,1-4.65-1.05,3.9,3.9,0,0,1-1.57-3.5A4.48,4.48,0,0,1,717.26,402.77Zm4.62-7a3.77,3.77,0,0,0,.75,2.52,2.36,2.36,0,0,0,1.87.87,3.14,3.14,0,0,0,2-.78,4.87,4.87,0,0,0,1.48-2.21,8.23,8.23,0,0,0,.51-2.78,3.62,3.62,0,0,0-.83-2.49,2.51,2.51,0,0,0-1.93-.94,2.76,2.76,0,0,0-1.93.83,6.15,6.15,0,0,0-1.46,2.57A7.84,7.84,0,0,0,721.88,395.75Z" transform="translate(-75.36 -130.48)"/><path class="cls-2" d="M749.68,396h-9.84c0,0.16,0,.27,0,0.36a3.29,3.29,0,0,0,.83,2.34,2.65,2.65,0,0,0,2,.89,3.36,3.36,0,0,0,3-2l3.51,0.59a7.39,7.39,0,0,1-2.74,3.18,7.18,7.18,0,0,1-3.85,1.06,6.4,6.4,0,0,1-4.76-1.85,6.67,6.67,0,0,1-1.83-4.9,8.92,8.92,0,0,1,1.65-5.3,7.45,7.45,0,0,1,6.44-3.14,5.58,5.58,0,0,1,4.24,1.65A6.42,6.42,0,0,1,750,393.4,10.92,10.92,0,0,1,749.68,396Zm-3.31-2.39c0-.17,0-0.31,0-0.4a3.52,3.52,0,0,0-.72-2.42,2.48,2.48,0,0,0-1.94-.81,3.08,3.08,0,0,0-2.18.92,4.88,4.88,0,0,0-1.31,2.71h6.14Z" transform="translate(-75.36 -130.48)"/></g><g class="cls-1"><path class="cls-2" d="M88.74,402H85l0.33-1.57a7.21,7.21,0,0,1-2.1,1.47,5.85,5.85,0,0,1-2.33.44,4.72,4.72,0,0,1-3.66-1.54,6.54,6.54,0,0,1-1.4-4.55,10.75,10.75,0,0,1,2-6.3A6.07,6.07,0,0,1,83,387.14a4.84,4.84,0,0,1,4.39,2.32L89,382h3.92Zm-9.06-5.91a3.51,3.51,0,0,0,.79,2.43,2.5,2.5,0,0,0,1.93.88,3.14,3.14,0,0,0,2-.73,5,5,0,0,0,1.48-2.24,8.34,8.34,0,0,0,.55-2.88,3.73,3.73,0,0,0-.85-2.54,2.54,2.54,0,0,0-2-1A3.25,3.25,0,0,0,80.78,392,8.13,8.13,0,0,0,79.68,396.09Z" transform="translate(-75.36 -130.48)"/><path class="cls-2" d="M107.55,396H97.7c0,0.16,0,.27,0,0.36a3.29,3.29,0,0,0,.83,2.34,2.65,2.65,0,0,0,2,.89,3.36,3.36,0,0,0,3-2l3.51,0.59a7.39,7.39,0,0,1-2.74,3.18,7.18,7.18,0,0,1-3.85,1.06,6.4,6.4,0,0,1-4.76-1.85,6.67,6.67,0,0,1-1.83-4.9,8.92,8.92,0,0,1,1.65-5.3,7.45,7.45,0,0,1,6.44-3.14,5.58,5.58,0,0,1,4.24,1.65,6.42,6.42,0,0,1,1.57,4.61A11,11,0,0,1,107.55,396Zm-3.31-2.39c0-.17,0-0.31,0-0.4a3.52,3.52,0,0,0-.72-2.42,2.48,2.48,0,0,0-1.94-.81,3.08,3.08,0,0,0-2.18.92,4.88,4.88,0,0,0-1.31,2.71h6.14Z" transform="translate(-75.36 -130.48)"/><path class="cls-2" d="M117.22,402h-3.38l-2.91-14.52h3.86l1,6.33q0.42,2.57.51,3.42,0.11-.23,1-1.77t1-1.85l3.61-6.12h4.24Z" transform="translate(-75.36 -130.48)"/><path class="cls-2" d="M132.05,391.6l-3.83-.33a5.76,5.76,0,0,1,2.29-3,7.65,7.65,0,0,1,4.33-1.09,6.34,6.34,0,0,1,4.14,1.13,3.47,3.47,0,0,1,1.34,2.75,9,9,0,0,1-.12,1.39q-0.12.74-.81,3.88a19.93,19.93,0,0,0-.57,3.64,7.49,7.49,0,0,0,.33,2.06h-3.81a7.49,7.49,0,0,1-.29-1.64,6,6,0,0,1-2,1.47,5.38,5.38,0,0,1-2.26.51,4,4,0,0,1-3-1.18,4.13,4.13,0,0,1-1.18-3,4.4,4.4,0,0,1,1.29-3.32q1.29-1.24,4.61-1.5a18.35,18.35,0,0,0,3.75-.56,4.85,4.85,0,0,0,.25-1.31,1.32,1.32,0,0,0-.51-1.05,2.3,2.3,0,0,0-1.5-.42,2.83,2.83,0,0,0-1.66.43A2.14,2.14,0,0,0,132.05,391.6Zm3.73,3.64a8.15,8.15,0,0,1-.94.18,9,9,0,0,0-3.86,1,1.58,1.58,0,0,0-.64,1.33,1.54,1.54,0,0,0,.49,1.16,1.8,1.8,0,0,0,1.3.47,3.43,3.43,0,0,0,1.67-.43,3,3,0,0,0,1.18-1.11,7.57,7.57,0,0,0,.69-2.11Z" transform="translate(-75.36 -130.48)"/><path class="cls-2" d="M142.56,397.94l3.8-.6a3.1,3.1,0,0,0,3.31,2.2,3.5,3.5,0,0,0,2.15-.6,1.21,1.21,0,0,0,.56-1,1,1,0,0,0-.29-0.71,5,5,0,0,0-1.63-.74,17.61,17.61,0,0,1-4.4-1.86,3.41,3.41,0,0,1-1.33-2.79,4,4,0,0,1,1.29-3,7.36,7.36,0,0,1,5.32-1.74,7.27,7.27,0,0,1,4.24,1,4.47,4.47,0,0,1,1.82,2.78l-3.62.63a2.24,2.24,0,0,0-.93-1.19,4,4,0,0,0-2.11-.53,3,3,0,0,0-1.77.41,1.18,1.18,0,0,0-.54.94,1.05,1.05,0,0,0,.55.9,12.83,12.83,0,0,0,2.2.77,11.65,11.65,0,0,1,3.84,1.64,3.44,3.44,0,0,1,1.37,2.73,4.62,4.62,0,0,1-1.74,3.58,7.2,7.2,0,0,1-4.89,1.52,8.65,8.65,0,0,1-4.86-1.16A5.73,5.73,0,0,1,142.56,397.94Z" transform="translate(-75.36 -130.48)"/><path class="cls-2" d="M160.6,390.39l0.6-2.91h1.91l0.48-2.32,4.5-2.71-1.05,5h2.39l-0.6,2.91h-2.41l-1.27,6.08a18.89,18.89,0,0,0-.34,1.89,0.89,0.89,0,0,0,.29.7,1.6,1.6,0,0,0,1,.25q0.26,0,1.3-.1l-0.62,2.91a10.44,10.44,0,0,1-2.08.21,4.64,4.64,0,0,1-3-.8,2.76,2.76,0,0,1-.94-2.22,20.77,20.77,0,0,1,.51-3.09l1.22-5.84h-1.9Z" transform="translate(-75.36 -130.48)"/><path class="cls-2" d="M175.46,391.6l-3.83-.33a5.76,5.76,0,0,1,2.29-3,7.65,7.65,0,0,1,4.33-1.09,6.34,6.34,0,0,1,4.14,1.13,3.47,3.47,0,0,1,1.34,2.75,9,9,0,0,1-.12,1.39q-0.12.74-.81,3.88a19.93,19.93,0,0,0-.57,3.64,7.49,7.49,0,0,0,.33,2.06h-3.81a7.49,7.49,0,0,1-.29-1.64,6,6,0,0,1-2,1.47,5.38,5.38,0,0,1-2.26.51,4,4,0,0,1-3-1.18,4.13,4.13,0,0,1-1.18-3,4.4,4.4,0,0,1,1.29-3.32q1.29-1.24,4.61-1.5a18.35,18.35,0,0,0,3.75-.56,4.85,4.85,0,0,0,.25-1.31,1.32,1.32,0,0,0-.51-1.05,2.3,2.3,0,0,0-1.5-.42,2.83,2.83,0,0,0-1.66.43A2.14,2.14,0,0,0,175.46,391.6Zm3.73,3.64a8.15,8.15,0,0,1-.94.18,9,9,0,0,0-3.86,1,1.58,1.58,0,0,0-.64,1.33,1.54,1.54,0,0,0,.49,1.16,1.8,1.8,0,0,0,1.3.47,3.43,3.43,0,0,0,1.67-.43,3,3,0,0,0,1.18-1.11,7.57,7.57,0,0,0,.69-2.11Z" transform="translate(-75.36 -130.48)"/><path class="cls-2" d="M187.46,390.39l0.6-2.91H190l0.48-2.32,4.5-2.71-1.05,5h2.39l-0.6,2.91h-2.41L192,396.48a18.89,18.89,0,0,0-.34,1.89,0.89,0.89,0,0,0,.29.7,1.6,1.6,0,0,0,1,.25q0.26,0,1.3-.1l-0.62,2.91a10.44,10.44,0,0,1-2.08.21,4.64,4.64,0,0,1-3-.8,2.76,2.76,0,0,1-.94-2.22,20.77,20.77,0,0,1,.51-3.09l1.22-5.84h-1.9Z" transform="translate(-75.36 -130.48)"/><path class="cls-2" d="M199.82,387.48h3.92l-3,14.52h-3.92ZM201,382h3.92l-0.74,3.55h-3.92Z" transform="translate(-75.36 -130.48)"/><path class="cls-2" d="M208.63,387.48h3.72L212,389.37a10.23,10.23,0,0,1,2.6-1.72,6.47,6.47,0,0,1,2.55-.51,3.83,3.83,0,0,1,2.82,1,3.67,3.67,0,0,1,1,2.72,17.22,17.22,0,0,1-.45,2.9L218.82,402h-3.92l1.72-8.24a18.16,18.16,0,0,0,.38-2.2,1.57,1.57,0,0,0-.44-1.18,1.7,1.7,0,0,0-1.24-.43,3.47,3.47,0,0,0-1.91.72,5,5,0,0,0-1.65,1.91,16.16,16.16,0,0,0-1,3.46l-1.24,6H205.6Z" transform="translate(-75.36 -130.48)"/><path class="cls-2" d="M223.42,402.77l4.14,0.6a1.78,1.78,0,0,0,.21,1,1.59,1.59,0,0,0,.66.55,2.87,2.87,0,0,0,1.25.23,3.6,3.6,0,0,0,2-.49,2.7,2.7,0,0,0,.92-1.23,15.26,15.26,0,0,0,.56-2.32l0.14-.68a6.53,6.53,0,0,1-4.21,1.7,4.52,4.52,0,0,1-3.5-1.5,6.34,6.34,0,0,1-1.37-4.4,11.61,11.61,0,0,1,.93-4.69,7.1,7.1,0,0,1,2.61-3.23,6.22,6.22,0,0,1,3.43-1.09,4.84,4.84,0,0,1,2.65.77,5.14,5.14,0,0,1,1.87,2.15l0.55-2.57h3.68l-2.52,12.1a40.44,40.44,0,0,1-1,4.16,7.32,7.32,0,0,1-1,2A4.7,4.7,0,0,1,234,407a6,6,0,0,1-2,.72,13,13,0,0,1-2.46.22,8.39,8.39,0,0,1-4.65-1.05,3.9,3.9,0,0,1-1.57-3.5A4.48,4.48,0,0,1,223.42,402.77Zm4.62-7a3.77,3.77,0,0,0,.75,2.52,2.36,2.36,0,0,0,1.87.87,3.14,3.14,0,0,0,2-.78,4.87,4.87,0,0,0,1.48-2.21,8.23,8.23,0,0,0,.51-2.78,3.62,3.62,0,0,0-.83-2.49,2.51,2.51,0,0,0-1.93-.94,2.76,2.76,0,0,0-1.93.83,6.15,6.15,0,0,0-1.46,2.57A7.84,7.84,0,0,0,228,395.75Z" transform="translate(-75.36 -130.48)"/><path class="cls-2" d="M260.31,396.53l3.81,0.62a8,8,0,0,1-2.79,3.87,7.15,7.15,0,0,1-4.28,1.33,5.89,5.89,0,0,1-4.4-1.65,6.21,6.21,0,0,1-1.63-4.55,10.43,10.43,0,0,1,1-4.47,7.55,7.55,0,0,1,3-3.32,8.19,8.19,0,0,1,4.35-1.21,6,6,0,0,1,4.1,1.34,5.09,5.09,0,0,1,1.72,3.53l-3.73.4a2.82,2.82,0,0,0-.75-1.79,2.23,2.23,0,0,0-1.59-.57,3.19,3.19,0,0,0-2.12.85,5.35,5.35,0,0,0-1.51,2.54,10.66,10.66,0,0,0-.53,3.17,2.86,2.86,0,0,0,.63,2,2,2,0,0,0,1.57.7,2.92,2.92,0,0,0,1.82-.68A4.42,4.42,0,0,0,260.31,396.53Z" transform="translate(-75.36 -130.48)"/><path class="cls-2" d="M272.56,391.6l-3.83-.33a5.76,5.76,0,0,1,2.29-3,7.65,7.65,0,0,1,4.33-1.09,6.34,6.34,0,0,1,4.14,1.13,3.47,3.47,0,0,1,1.34,2.75,9,9,0,0,1-.12,1.39q-0.12.74-.81,3.88a19.93,19.93,0,0,0-.57,3.64,7.49,7.49,0,0,0,.33,2.06h-3.81a7.49,7.49,0,0,1-.29-1.64,6,6,0,0,1-2,1.47,5.38,5.38,0,0,1-2.26.51,4,4,0,0,1-3-1.18,4.13,4.13,0,0,1-1.18-3,4.4,4.4,0,0,1,1.29-3.32q1.29-1.24,4.61-1.5a18.35,18.35,0,0,0,3.75-.56,4.85,4.85,0,0,0,.25-1.31,1.32,1.32,0,0,0-.51-1.05,2.3,2.3,0,0,0-1.5-.42,2.83,2.83,0,0,0-1.66.43A2.14,2.14,0,0,0,272.56,391.6Zm3.73,3.64a8.15,8.15,0,0,1-.94.18,9,9,0,0,0-3.86,1,1.58,1.58,0,0,0-.64,1.33,1.54,1.54,0,0,0,.49,1.16,1.8,1.8,0,0,0,1.3.47,3.43,3.43,0,0,0,1.67-.43,3,3,0,0,0,1.18-1.11,7.57,7.57,0,0,0,.69-2.11Z" transform="translate(-75.36 -130.48)"/><path class="cls-2" d="M286.48,387.48h3.72L289.89,389a8.81,8.81,0,0,1,2.23-1.41,5.85,5.85,0,0,1,2.23-.42,4.66,4.66,0,0,1,3.67,1.57,6.9,6.9,0,0,1,1.39,4.69A9.66,9.66,0,0,1,297,400a6.29,6.29,0,0,1-4.85,2.31A4.83,4.83,0,0,1,287.8,400l-1.57,7.53H282.3Zm2.37,8.33a3.84,3.84,0,0,0,.83,2.63,2.52,2.52,0,0,0,1.95.94,3,3,0,0,0,1.87-.7,5.11,5.11,0,0,0,1.5-2.34,8.9,8.9,0,0,0,.59-3,3.61,3.61,0,0,0-.78-2.5,2.55,2.55,0,0,0-2-.87,3,3,0,0,0-2,.8,5.13,5.13,0,0,0-1.43,2.35A8.93,8.93,0,0,0,288.85,395.81Z" transform="translate(-75.36 -130.48)"/><path class="cls-2" d="M307.19,391.6l-3.83-.33a5.76,5.76,0,0,1,2.29-3,7.65,7.65,0,0,1,4.33-1.09,6.34,6.34,0,0,1,4.14,1.13,3.47,3.47,0,0,1,1.34,2.75,9,9,0,0,1-.12,1.39q-0.12.74-.81,3.88a19.93,19.93,0,0,0-.57,3.64,7.49,7.49,0,0,0,.33,2.06h-3.81a7.49,7.49,0,0,1-.29-1.64,6,6,0,0,1-2,1.47,5.38,5.38,0,0,1-2.26.51,4,4,0,0,1-3-1.18,4.13,4.13,0,0,1-1.18-3,4.4,4.4,0,0,1,1.29-3.32q1.29-1.24,4.61-1.5a18.35,18.35,0,0,0,3.75-.56,4.85,4.85,0,0,0,.25-1.31,1.32,1.32,0,0,0-.51-1.05,2.3,2.3,0,0,0-1.5-.42,2.83,2.83,0,0,0-1.66.43A2.14,2.14,0,0,0,307.19,391.6Zm3.73,3.64a8.15,8.15,0,0,1-.94.18,9,9,0,0,0-3.86,1,1.58,1.58,0,0,0-.64,1.33,1.54,1.54,0,0,0,.49,1.16,1.8,1.8,0,0,0,1.3.47,3.43,3.43,0,0,0,1.67-.43,3,3,0,0,0,1.18-1.11,7.57,7.57,0,0,0,.69-2.11Z" transform="translate(-75.36 -130.48)"/><path class="cls-2" d="M318.1,402l4.18-20h3.94l-1.41,6.7a8.07,8.07,0,0,1,2-1.17,5.81,5.81,0,0,1,2-.35,4.7,4.7,0,0,1,3.68,1.54,6.49,6.49,0,0,1,1.38,4.48,11.64,11.64,0,0,1-.65,3.85,8.49,8.49,0,0,1-1.74,3,7.6,7.6,0,0,1-2.28,1.74,5.79,5.79,0,0,1-2.51.57,4.85,4.85,0,0,1-4.58-2.73L321.67,402H318.1Zm5.29-5.92a3.41,3.41,0,0,0,.83,2.38,2.55,2.55,0,0,0,1.95.92,3,3,0,0,0,1.88-.71,5.18,5.18,0,0,0,1.49-2.27,8.76,8.76,0,0,0,.59-3.14,3.48,3.48,0,0,0-.8-2.43,2.52,2.52,0,0,0-1.93-.88,3.15,3.15,0,0,0-2.54,1.37A7.52,7.52,0,0,0,323.39,396.08Z" transform="translate(-75.36 -130.48)"/><path class="cls-2" d="M339.33,387.48h3.92l-3,14.52h-3.92Zm1.15-5.52h3.92l-0.74,3.55h-3.92Z" transform="translate(-75.36 -130.48)"/><path class="cls-2" d="M345,402l4.2-20h3.91l-4.18,20H345Z" transform="translate(-75.36 -130.48)"/><path class="cls-2" d="M356.84,387.48h3.92l-3,14.52h-3.92ZM358,382h3.92l-0.74,3.55h-3.92Z" transform="translate(-75.36 -130.48)"/><path class="cls-2" d="M363.55,390.39l0.6-2.91h1.91l0.48-2.32,4.5-2.71-1.05,5h2.39l-0.6,2.91h-2.41l-1.27,6.08a18.89,18.89,0,0,0-.34,1.89,0.89,0.89,0,0,0,.29.7,1.6,1.6,0,0,0,1,.25q0.26,0,1.3-.1l-0.62,2.91a10.44,10.44,0,0,1-2.08.21,4.64,4.64,0,0,1-3-.8,2.76,2.76,0,0,1-.94-2.22,20.77,20.77,0,0,1,.51-3.09l1.22-5.84h-1.9Z" transform="translate(-75.36 -130.48)"/><path class="cls-2" d="M374.09,387.48H378l1,7.23q0.37,2.79.41,3.91a31.29,31.29,0,0,1,2.11-4.7l3.47-6.44h4.16l-9,15.94a22.21,22.21,0,0,1-1.74,2.78,4.6,4.6,0,0,1-1.53,1.24,4.74,4.74,0,0,1-2.15.45,10.47,10.47,0,0,1-2.8-.44l0.34-2.93a5,5,0,0,0,1.38.21q1.8,0,3-2.73Z" transform="translate(-75.36 -130.48)"/><path class="cls-2" d="M389.26,398.21h4l-0.66,3.13a7,7,0,0,1-1.8,3.83,4.73,4.73,0,0,1-3.21,1.17l0.38-1.82a2.92,2.92,0,0,0,1.52-.79,3.63,3.63,0,0,0,.8-1.74h-1.8Z" transform="translate(-75.36 -130.48)"/><path class="cls-2" d="M408.72,387.48h3.66l-0.59,2.82q2.05-3.16,4.44-3.16a4.57,4.57,0,0,1,1.82.42l-1.5,3.21a3.32,3.32,0,0,0-1.13-.19,3.49,3.49,0,0,0-2.06.77,5.13,5.13,0,0,0-1.63,2,20.36,20.36,0,0,0-1.16,4.05l-1,4.55h-3.92Z" transform="translate(-75.36 -130.48)"/><path class="cls-2" d="M431.92,396h-9.84c0,0.16,0,.27,0,0.36a3.29,3.29,0,0,0,.83,2.34,2.65,2.65,0,0,0,2,.89,3.36,3.36,0,0,0,3-2l3.51,0.59a7.39,7.39,0,0,1-2.74,3.18,7.18,7.18,0,0,1-3.85,1.06,6.4,6.4,0,0,1-4.76-1.85,6.67,6.67,0,0,1-1.83-4.9,8.92,8.92,0,0,1,1.65-5.3,7.45,7.45,0,0,1,6.44-3.14,5.58,5.58,0,0,1,4.24,1.65,6.42,6.42,0,0,1,1.57,4.61A10.92,10.92,0,0,1,431.92,396Zm-3.31-2.39c0-.17,0-0.31,0-0.4a3.52,3.52,0,0,0-.72-2.42,2.48,2.48,0,0,0-1.94-.81,3.08,3.08,0,0,0-2.18.92,4.88,4.88,0,0,0-1.31,2.71h6.14Z" transform="translate(-75.36 -130.48)"/><path class="cls-2" d="M441.59,402h-3.38l-2.91-14.52h3.86l1,6.33q0.42,2.57.51,3.42,0.11-.23,1-1.77t1-1.85l3.61-6.12h4.24Z" transform="translate(-75.36 -130.48)"/><path class="cls-2" d="M451.46,396a9,9,0,0,1,2.28-6.43,7.87,7.87,0,0,1,6-2.4,6.86,6.86,0,0,1,5,1.77,6.37,6.37,0,0,1,1.8,4.76,8.94,8.94,0,0,1-2.26,6.1,7.64,7.64,0,0,1-6,2.57,7.8,7.8,0,0,1-3.64-.82,5.35,5.35,0,0,1-2.37-2.32A6.91,6.91,0,0,1,451.46,396Zm11.18-2.8a3.08,3.08,0,0,0-.81-2.24,2.79,2.79,0,0,0-2.1-.84,3.51,3.51,0,0,0-2.26.79,5.05,5.05,0,0,0-1.53,2.28,8.09,8.09,0,0,0-.55,2.75,3.5,3.5,0,0,0,.85,2.47,2.78,2.78,0,0,0,2.13.92,3.33,3.33,0,0,0,2.71-1.38A7.39,7.39,0,0,0,462.64,393.17Z" transform="translate(-75.36 -130.48)"/><path class="cls-2" d="M468.94,402l4.2-20H477l-4.18,20h-3.92Z" transform="translate(-75.36 -130.48)"/><path class="cls-2" d="M480.74,387.48h3.92l-1.79,8.6a13.51,13.51,0,0,0-.33,1.93,1.45,1.45,0,0,0,.46,1.08,1.64,1.64,0,0,0,1.19.45,2.79,2.79,0,0,0,1-.2,4.42,4.42,0,0,0,1-.6,5.52,5.52,0,0,0,1-.92,5.89,5.89,0,0,0,.79-1.37,12.89,12.89,0,0,0,.56-2.05l1.45-6.92h3.92l-3,14.52h-3.66l0.41-2a7.44,7.44,0,0,1-5.24,2.31,3.81,3.81,0,0,1-2.82-1,3.71,3.71,0,0,1-1-2.75,18.69,18.69,0,0,1,.46-3Z" transform="translate(-75.36 -130.48)"/><path class="cls-2" d="M496.8,390.39l0.6-2.91h1.91l0.48-2.32,4.5-2.71-1.05,5h2.39l-0.6,2.91h-2.41l-1.27,6.08a19.06,19.06,0,0,0-.34,1.89,0.89,0.89,0,0,0,.29.7,1.6,1.6,0,0,0,1,.25q0.26,0,1.3-.1L503,402.14a10.44,10.44,0,0,1-2.08.21,4.64,4.64,0,0,1-3-.8,2.76,2.76,0,0,1-.94-2.22,20.84,20.84,0,0,1,.51-3.09l1.22-5.84h-1.9Z" transform="translate(-75.36 -130.48)"/><path class="cls-2" d="M509.15,387.48h3.92L510,402h-3.92ZM510.3,382h3.92l-0.74,3.55h-3.92Z" transform="translate(-75.36 -130.48)"/><path class="cls-2" d="M515.45,396a9,9,0,0,1,2.28-6.43,7.87,7.87,0,0,1,6-2.4,6.86,6.86,0,0,1,5,1.77,6.37,6.37,0,0,1,1.8,4.76,8.94,8.94,0,0,1-2.26,6.1,7.64,7.64,0,0,1-6,2.57,7.8,7.8,0,0,1-3.64-.82,5.35,5.35,0,0,1-2.37-2.32A6.91,6.91,0,0,1,515.45,396Zm11.18-2.8a3.08,3.08,0,0,0-.81-2.24,2.79,2.79,0,0,0-2.1-.84,3.51,3.51,0,0,0-2.26.79,5.05,5.05,0,0,0-1.53,2.28,8.09,8.09,0,0,0-.55,2.75,3.5,3.5,0,0,0,.85,2.47,2.78,2.78,0,0,0,2.13.92,3.33,3.33,0,0,0,2.71-1.38A7.39,7.39,0,0,0,526.63,393.17Z" transform="translate(-75.36 -130.48)"/><path class="cls-2" d="M536,387.48h3.72l-0.38,1.89a10.23,10.23,0,0,1,2.6-1.72,6.47,6.47,0,0,1,2.55-.51,3.83,3.83,0,0,1,2.82,1,3.66,3.66,0,0,1,1,2.72,17.22,17.22,0,0,1-.45,2.9L546.23,402h-3.92l1.72-8.24a18.16,18.16,0,0,0,.38-2.2,1.57,1.57,0,0,0-.44-1.18,1.7,1.7,0,0,0-1.24-.43,3.47,3.47,0,0,0-1.91.72,5,5,0,0,0-1.65,1.91,16.16,16.16,0,0,0-1,3.46l-1.24,6H533Z" transform="translate(-75.36 -130.48)"/><path class="cls-2" d="M556.58,391.6l-3.83-.33a5.76,5.76,0,0,1,2.29-3,7.65,7.65,0,0,1,4.33-1.09,6.34,6.34,0,0,1,4.14,1.13,3.47,3.47,0,0,1,1.34,2.75,9,9,0,0,1-.12,1.39q-0.12.74-.81,3.88a19.93,19.93,0,0,0-.57,3.64,7.49,7.49,0,0,0,.33,2.06h-3.81a7.49,7.49,0,0,1-.29-1.64,6,6,0,0,1-2,1.47,5.38,5.38,0,0,1-2.26.51,4,4,0,0,1-3-1.18,4.13,4.13,0,0,1-1.18-3,4.4,4.4,0,0,1,1.29-3.32q1.29-1.24,4.61-1.5a18.35,18.35,0,0,0,3.75-.56,4.85,4.85,0,0,0,.25-1.31,1.32,1.32,0,0,0-.51-1.05,2.3,2.3,0,0,0-1.5-.42,2.83,2.83,0,0,0-1.66.43A2.14,2.14,0,0,0,556.58,391.6Zm3.73,3.64a8.15,8.15,0,0,1-.94.18,9,9,0,0,0-3.86,1,1.58,1.58,0,0,0-.64,1.33,1.54,1.54,0,0,0,.49,1.16,1.8,1.8,0,0,0,1.3.47,3.43,3.43,0,0,0,1.67-.43,2.94,2.94,0,0,0,1.18-1.11,7.55,7.55,0,0,0,.69-2.11Z" transform="translate(-75.36 -130.48)"/><path class="cls-2" d="M570.41,387.48h3.66l-0.59,2.82q2.05-3.16,4.44-3.16a4.57,4.57,0,0,1,1.82.42l-1.5,3.21a3.32,3.32,0,0,0-1.13-.19,3.49,3.49,0,0,0-2.06.77,5.13,5.13,0,0,0-1.63,2,20.36,20.36,0,0,0-1.16,4.05l-1,4.55h-3.92Z" transform="translate(-75.36 -130.48)"/><path class="cls-2" d="M580.69,387.48h3.91l1,7.23q0.37,2.79.41,3.91a31.34,31.34,0,0,1,2.11-4.7l3.47-6.44h4.16l-9,15.94A22.21,22.21,0,0,1,585,406.2a4.6,4.6,0,0,1-1.53,1.24,4.74,4.74,0,0,1-2.15.45,10.47,10.47,0,0,1-2.8-.44l0.34-2.93a5,5,0,0,0,1.38.21q1.8,0,3-2.73Z" transform="translate(-75.36 -130.48)"/><path class="cls-2" d="M610.32,391.6l-3.83-.33a5.76,5.76,0,0,1,2.29-3,7.65,7.65,0,0,1,4.33-1.09,6.34,6.34,0,0,1,4.14,1.13,3.47,3.47,0,0,1,1.34,2.75,9,9,0,0,1-.12,1.39q-0.12.74-.81,3.88a19.93,19.93,0,0,0-.57,3.64,7.49,7.49,0,0,0,.33,2.06H613.6a7.49,7.49,0,0,1-.29-1.64,6,6,0,0,1-2,1.47,5.38,5.38,0,0,1-2.26.51,4,4,0,0,1-3-1.18,4.13,4.13,0,0,1-1.18-3,4.4,4.4,0,0,1,1.29-3.32q1.29-1.24,4.61-1.5a18.35,18.35,0,0,0,3.75-.56,4.85,4.85,0,0,0,.25-1.31,1.32,1.32,0,0,0-.51-1.05,2.3,2.3,0,0,0-1.5-.42,2.83,2.83,0,0,0-1.66.43A2.14,2.14,0,0,0,610.32,391.6Zm3.73,3.64a8.15,8.15,0,0,1-.94.18,9,9,0,0,0-3.86,1,1.58,1.58,0,0,0-.64,1.33,1.54,1.54,0,0,0,.49,1.16,1.8,1.8,0,0,0,1.3.47,3.43,3.43,0,0,0,1.67-.43,2.94,2.94,0,0,0,1.18-1.11,7.55,7.55,0,0,0,.69-2.11Z" transform="translate(-75.36 -130.48)"/><path class="cls-2" d="M634.75,402H631l0.33-1.57a7.2,7.2,0,0,1-2.1,1.47,5.85,5.85,0,0,1-2.33.44,4.72,4.72,0,0,1-3.66-1.54,6.54,6.54,0,0,1-1.4-4.55,10.75,10.75,0,0,1,2-6.3,6.07,6.07,0,0,1,5.21-2.82,4.84,4.84,0,0,1,4.39,2.32L635,382h3.92Zm-9.06-5.91a3.51,3.51,0,0,0,.79,2.43,2.5,2.5,0,0,0,1.93.88,3.14,3.14,0,0,0,2-.73,5,5,0,0,0,1.48-2.24,8.34,8.34,0,0,0,.55-2.88,3.73,3.73,0,0,0-.85-2.54,2.54,2.54,0,0,0-2-1,3.25,3.25,0,0,0-2.83,1.91A8.13,8.13,0,0,0,625.68,396.09Z" transform="translate(-75.36 -130.48)"/><path class="cls-2" d="M646.68,402H643.3l-2.91-14.52h3.86l1,6.33q0.42,2.57.51,3.42,0.11-.23,1-1.77t1-1.85l3.61-6.12h4.24Z" transform="translate(-75.36 -130.48)"/><path class="cls-2" d="M661.51,391.6l-3.83-.33a5.76,5.76,0,0,1,2.29-3,7.65,7.65,0,0,1,4.33-1.09,6.34,6.34,0,0,1,4.14,1.13,3.47,3.47,0,0,1,1.34,2.75,9,9,0,0,1-.12,1.39q-0.12.74-.81,3.88a19.93,19.93,0,0,0-.57,3.64,7.49,7.49,0,0,0,.33,2.06h-3.81a7.49,7.49,0,0,1-.29-1.64,6,6,0,0,1-2,1.47,5.38,5.38,0,0,1-2.26.51,4,4,0,0,1-3-1.18,4.13,4.13,0,0,1-1.18-3,4.4,4.4,0,0,1,1.29-3.32q1.29-1.24,4.61-1.5a18.35,18.35,0,0,0,3.75-.56,4.85,4.85,0,0,0,.25-1.31,1.32,1.32,0,0,0-.51-1.05,2.3,2.3,0,0,0-1.5-.42,2.83,2.83,0,0,0-1.66.43A2.14,2.14,0,0,0,661.51,391.6Zm3.73,3.64a8.15,8.15,0,0,1-.94.18,9,9,0,0,0-3.86,1,1.58,1.58,0,0,0-.64,1.33,1.54,1.54,0,0,0,.49,1.16,1.8,1.8,0,0,0,1.3.47,3.43,3.43,0,0,0,1.67-.43,2.94,2.94,0,0,0,1.18-1.11,7.55,7.55,0,0,0,.69-2.11Z" transform="translate(-75.36 -130.48)"/><path class="cls-2" d="M675.61,387.48h3.72l-0.38,1.89a10.23,10.23,0,0,1,2.6-1.72,6.47,6.47,0,0,1,2.55-.51,3.83,3.83,0,0,1,2.82,1,3.66,3.66,0,0,1,1,2.72,17.22,17.22,0,0,1-.45,2.9L685.8,402h-3.92l1.72-8.24a18.16,18.16,0,0,0,.38-2.2,1.57,1.57,0,0,0-.44-1.18,1.7,1.7,0,0,0-1.24-.43,3.47,3.47,0,0,0-1.91.72,5,5,0,0,0-1.65,1.91,16.16,16.16,0,0,0-1,3.46l-1.24,6h-3.92Z" transform="translate(-75.36 -130.48)"/><path class="cls-2" d="M691.59,390.39l0.6-2.91h1.91l0.48-2.32,4.5-2.71-1.05,5h2.39l-0.6,2.91h-2.41l-1.27,6.08a19.06,19.06,0,0,0-.34,1.89,0.89,0.89,0,0,0,.29.7,1.6,1.6,0,0,0,1,.25q0.26,0,1.3-.1l-0.62,2.91a10.44,10.44,0,0,1-2.08.21,4.64,4.64,0,0,1-3-.8,2.76,2.76,0,0,1-.94-2.22,20.84,20.84,0,0,1,.51-3.09l1.22-5.84h-1.9Z" transform="translate(-75.36 -130.48)"/><path class="cls-2" d="M706.45,391.6l-3.83-.33a5.76,5.76,0,0,1,2.29-3,7.65,7.65,0,0,1,4.33-1.09,6.34,6.34,0,0,1,4.14,1.13,3.47,3.47,0,0,1,1.34,2.75,9,9,0,0,1-.12,1.39q-0.12.74-.81,3.88a19.93,19.93,0,0,0-.57,3.64,7.49,7.49,0,0,0,.33,2.06h-3.81a7.49,7.49,0,0,1-.29-1.64,6,6,0,0,1-2,1.47,5.38,5.38,0,0,1-2.26.51,4,4,0,0,1-3-1.18,4.13,4.13,0,0,1-1.18-3,4.4,4.4,0,0,1,1.29-3.32q1.29-1.24,4.61-1.5a18.35,18.35,0,0,0,3.75-.56,4.85,4.85,0,0,0,.25-1.31,1.32,1.32,0,0,0-.51-1.05,2.3,2.3,0,0,0-1.5-.42,2.83,2.83,0,0,0-1.66.43A2.14,2.14,0,0,0,706.45,391.6Zm3.73,3.64a8.15,8.15,0,0,1-.94.18,9,9,0,0,0-3.86,1,1.58,1.58,0,0,0-.64,1.33,1.54,1.54,0,0,0,.49,1.16,1.8,1.8,0,0,0,1.3.47,3.43,3.43,0,0,0,1.67-.43,2.94,2.94,0,0,0,1.18-1.11,7.55,7.55,0,0,0,.69-2.11Z" transform="translate(-75.36 -130.48)"/><path class="cls-2" d="M717.26,402.77l4.14,0.6a1.78,1.78,0,0,0,.21,1,1.59,1.59,0,0,0,.66.55,2.87,2.87,0,0,0,1.25.23,3.6,3.6,0,0,0,2-.49,2.7,2.7,0,0,0,.92-1.23A15.2,15.2,0,0,0,727,401l0.14-.68a6.53,6.53,0,0,1-4.21,1.7,4.52,4.52,0,0,1-3.5-1.5,6.34,6.34,0,0,1-1.37-4.4,11.61,11.61,0,0,1,.93-4.69,7.11,7.11,0,0,1,2.61-3.23,6.22,6.22,0,0,1,3.43-1.09,4.84,4.84,0,0,1,2.65.77,5.13,5.13,0,0,1,1.87,2.15l0.55-2.57h3.68l-2.52,12.1a40.44,40.44,0,0,1-1,4.16,7.3,7.3,0,0,1-1,2,4.7,4.7,0,0,1-1.38,1.24,6,6,0,0,1-2,.72,13,13,0,0,1-2.46.22,8.39,8.39,0,0,1-4.65-1.05,3.9,3.9,0,0,1-1.57-3.5A4.48,4.48,0,0,1,717.26,402.77Zm4.62-7a3.77,3.77,0,0,0,.75,2.52,2.36,2.36,0,0,0,1.87.87,3.14,3.14,0,0,0,2-.78,4.87,4.87,0,0,0,1.48-2.21,8.23,8.23,0,0,0,.51-2.78,3.62,3.62,0,0,0-.83-2.49,2.51,2.51,0,0,0-1.93-.94,2.76,2.76,0,0,0-1.93.83,6.15,6.15,0,0,0-1.46,2.57A7.84,7.84,0,0,0,721.88,395.75Z" transform="translate(-75.36 -130.48)"/><path class="cls-2" d="M749.68,396h-9.84c0,0.16,0,.27,0,0.36a3.29,3.29,0,0,0,.83,2.34,2.65,2.65,0,0,0,2,.89,3.36,3.36,0,0,0,3-2l3.51,0.59a7.39,7.39,0,0,1-2.74,3.18,7.18,7.18,0,0,1-3.85,1.06,6.4,6.4,0,0,1-4.76-1.85,6.67,6.67,0,0,1-1.83-4.9,8.92,8.92,0,0,1,1.65-5.3,7.45,7.45,0,0,1,6.44-3.14,5.58,5.58,0,0,1,4.24,1.65A6.42,6.42,0,0,1,750,393.4,10.92,10.92,0,0,1,749.68,396Zm-3.31-2.39c0-.17,0-0.31,0-0.4a3.52,3.52,0,0,0-.72-2.42,2.48,2.48,0,0,0-1.94-.81,3.08,3.08,0,0,0-2.18.92,4.88,4.88,0,0,0-1.31,2.71h6.14Z" transform="translate(-75.36 -130.48)"/></g></svg>