<?xml version="1.0" encoding="UTF-8" standalone="no"?>
<svg width="432px" height="69px" viewBox="0 0 432 69" version="1.1" xmlns="http://www.w3.org/2000/svg" xmlns:xlink="http://www.w3.org/1999/xlink" xmlns:sketch="http://www.bohemiancoding.com/sketch/ns">
    <!-- Generator: Sketch 3.4.4 (17249) - http://www.bohemiancoding.com/sketch -->
    <title>Slice 1</title>
    <desc>Created with Sketch.</desc>
    <defs></defs>
    <g id="Page-1" stroke="none" stroke-width="1" fill="none" fill-rule="evenodd" sketch:type="MSPage">
        <g id="bu-innovation" sketch:type="MSLayerGroup">
            <g id="Group" sketch:type="MSShapeGroup">
                <g id="Shape" fill="#353C47">
                    <g>
                        <path d="M15,36.8 C15,34.9 16.3,35.5 16.3,35 C16.3,34.8 16.2,34.8 16,34.8 C15.1,34.8 14.6,34.9 14,34.9 C13.5,34.9 13,34.9 12.5,34.8 C12.3,34.8 12,34.7 12,35 C12,35.6 14.1,35.1 14.1,37 L14.1,40.4 C14.1,43.3 13.7,45.9 10.2,45.9 C7,45.9 6.4,43.8 6.4,41.1 L6.4,37.4 C6.4,34.6 7.9,35.5 7.9,34.9 C7.9,34.8 7.9,34.7 7.7,34.7 C7.4,34.7 6.1,34.8 5.2,34.8 C4.3,34.8 3,34.7 2.7,34.7 C2.6,34.7 2.4,34.7 2.4,35 C2.4,35.6 4.2,35.1 4.2,36.6 L4.2,42.1 C4.2,45.4 6,46.9 9.2,46.9 C14.1,46.9 15.1,44 15.1,40.5 L15,36.8 L15,36.8 L15,36.8 Z"></path>
                        <path d="M29.4,44.5 C29.4,46.2 27.7,45.9 27.7,46.6 C27.7,46.9 28,46.8 28.2,46.8 C28.6,46.8 29.2,46.7 29.7,46.7 C30.3,46.7 30.9,46.8 31.8,46.8 C32,46.8 32.4,46.8 32.4,46.6 C32.4,45.7 30.2,46.9 30.2,43.7 L30.2,37.9 C30.2,37.8 30.2,37.6 30.3,37.6 C30.4,37.6 30.5,37.7 30.6,37.8 L39.1,46.7 C39.2,46.8 39.3,46.9 39.5,46.9 C39.7,46.9 39.7,46.8 39.7,46.4 L39.7,36.8 C39.7,35 41.2,35.4 41.2,34.9 C41.2,34.9 41.2,34.7 40.9,34.7 C40.7,34.7 40.2,34.8 39,34.8 C37.8,34.8 37.3,34.7 37,34.7 C36.8,34.7 36.7,34.9 36.7,35 C36.7,35.5 38.8,35.2 38.8,36.8 L38.8,42.5 C38.8,42.9 38.8,43.1 38.7,43.1 C38.6,43.1 38.4,42.9 38.2,42.7 L31.1,35.1 C30.8,34.8 31,34.7 30.5,34.7 C29.5,34.7 29.1,34.8 28.7,34.8 C28.4,34.8 28.1,34.7 27.7,34.7 C27.5,34.7 27.4,34.8 27.4,35 C27.4,35.9 29.4,34.7 29.4,38 L29.4,44.5 L29.4,44.5 L29.4,44.5 Z"></path>
                        <path d="M56.9,36.6 C56.9,35 58.2,35.6 58.2,35 C58.2,34.8 58.1,34.8 57.6,34.8 C56.6,34.8 56,34.9 55.4,34.9 C54.8,34.9 54.1,34.8 53.4,34.8 C53.3,34.8 52.8,34.8 52.8,35 C52.8,35.6 54.8,35.1 54.8,36.7 L54.8,44.9 C54.8,46.5 53.5,46.1 53.5,46.7 C53.5,46.8 53.5,46.9 53.7,46.9 C54.1,46.9 54.9,46.8 55.7,46.8 C57.1,46.8 57.7,46.9 58.4,46.9 C58.8,46.9 58.9,46.8 58.9,46.7 C58.9,46.2 56.9,46.9 56.9,44.9 L56.9,36.6 L56.9,36.6 L56.9,36.6 Z"></path>
                        <path d="M82,36.2 C82.4,35.2 83.2,35.2 83.2,34.9 C83.2,34.6 83,34.7 82.6,34.7 C82.1,34.7 81.6,34.8 81.1,34.8 C80.6,34.8 80.1,34.7 79.6,34.7 C79.4,34.7 78.9,34.7 78.9,35 C78.9,35.6 80.7,35 80.7,36.6 C80.7,36.9 80.7,37.5 80.2,38.6 L77.7,43.8 C77.7,43.9 77.6,44.1 77.5,44.1 C77.4,44.1 77.3,43.9 77.3,43.8 L75,38.4 C74.6,37.3 74.4,36.6 74.4,36.1 C74.4,35.4 75.5,35.7 75.5,35.1 C75.5,34.8 75.4,34.8 74.9,34.8 C74.6,34.8 74.2,34.9 73,34.9 C72.4,34.9 71.8,34.8 71.2,34.8 C71,34.8 70.3,34.7 70.3,35.1 C70.3,35.2 70.5,35.3 70.6,35.3 C71.3,35.5 71.6,35.6 71.9,36.4 L76.3,46.3 C76.6,47 76.8,47.2 76.9,47.2 C77.1,47.2 77.2,47.1 77.3,46.7 L82,36.2 L82,36.2 L82,36.2 Z"></path>
                        <path d="M98.1,36.8 C98.1,35.6 98.2,35.6 100.3,35.6 C103.7,35.6 102.3,37.6 103.2,37.6 C103.6,37.6 103.5,37.1 103.5,36.9 L103.4,35.1 C103.4,35 103.3,34.8 103.1,34.8 C101.5,34.8 100.3,34.9 99,34.9 C96.3,34.9 95.1,34.8 94.3,34.8 C94.1,34.8 93.9,34.9 93.9,35.1 C93.9,35.7 95.9,35.2 95.9,36.8 L95.9,44.8 C95.9,46.9 94.5,46 94.5,46.7 C94.5,46.8 94.6,46.9 94.8,46.9 C95.8,46.9 96.5,46.8 97,46.8 C97.9,46.8 98.9,46.9 101.6,46.9 C103.1,46.9 104.1,45.5 104.1,44.1 C104.1,43.8 104,43.7 103.9,43.7 C103.3,43.7 103.5,45.9 99.1,45.9 C97.8,45.9 97.9,45.3 97.9,44.2 L97.9,42.1 C97.9,41.1 97.8,40.9 98.6,40.9 L99.9,40.9 C101.7,40.9 101.3,42.7 101.8,42.7 C102.2,42.7 102.1,42.1 102.1,41.8 L102,38.8 C102,38.4 101.8,38.4 101.7,38.4 C101.4,38.4 101.3,40 99.8,40 L98.7,40 C98,40 98,39.9 98,39.1 L98,36.8 L98.1,36.8 L98.1,36.8 Z"></path>
                        <path d="M119.3,36.5 C119.3,35.4 119.8,35.4 120.5,35.4 C122.3,35.4 123.3,36.7 123.3,38.4 C123.3,39.4 123.2,40.3 120.5,40.3 C120,40.3 119.3,40.3 119.3,39.9 L119.3,36.5 L119.3,36.5 L119.3,36.5 Z M117.2,44.3 C117.2,46.4 115.8,45.9 115.8,46.4 C115.8,46.7 116.1,46.7 116.3,46.7 C117.2,46.7 118.1,46.6 119,46.6 C119.7,46.6 120.2,46.7 120.5,46.7 C120.9,46.7 121,46.6 121,46.5 C121,45.9 119.3,46.6 119.3,44.8 L119.3,41.8 C119.3,41.2 119.2,41.1 120.2,41.1 C121.1,41.1 121.4,41.2 121.8,42 L123.3,44.7 C123.8,45.7 124.4,46.7 125.8,46.7 C126.5,46.7 127.7,46.3 127.7,45.8 C127.7,45.7 127.6,45.6 127.5,45.6 C127.3,45.6 127.2,45.7 127,45.7 C126.9,45.7 126.6,45.7 126.4,45.4 C125.1,43.3 123.6,40.8 123.6,40.7 C123.6,40.5 124.1,40.4 124.7,40 C125.2,39.6 125.8,38.9 125.8,37.9 C125.8,37.2 125.5,34.7 121.5,34.7 C120.3,34.7 119.2,34.8 118,34.8 C116.9,34.8 116.7,34.7 116,34.7 C115.8,34.7 115.6,34.8 115.6,34.9 C115.6,35.5 117.5,34.9 117.5,36.8 L117.5,44.4 L117.2,44.4 L117.2,44.3 Z"></path>
                        <path d="M139.8,45.6 C139.9,46 139.9,46.1 140.3,46.2 C141.4,46.4 142.2,46.8 143.3,46.8 C145.6,46.8 147.2,45.3 147.2,43.1 C147.2,41 146,40.2 144.1,39.4 C141.8,38.4 140.8,38.1 140.8,37.1 C140.8,35.9 141.5,35.3 142.7,35.3 C145.7,35.3 146,38.5 146.4,38.5 C146.8,38.5 146.8,38.3 146.8,38 L146.6,35.8 C146.6,35.4 146.6,35.2 146.4,35.2 C146.2,35.2 145.8,35.5 145.5,35.5 C145,35.5 144.2,34.9 142.8,34.9 C140.8,34.9 139.3,36.3 139.3,38.3 C139.3,40.1 140.4,40.8 141.9,41.4 C144.8,42.6 145.8,42.8 145.8,44.3 C145.8,45.7 144.7,46.4 143.3,46.4 C141.4,46.4 140.2,44.8 139.7,43.2 C139.6,43 139.6,42.8 139.3,42.8 C138.9,42.8 139.1,43.3 139.1,43.5 L139.8,45.6 L139.8,45.6 L139.8,45.6 Z"></path>
                        <path d="M163.2,36.6 C163.2,35 164.5,35.6 164.5,35 C164.5,34.8 164.4,34.8 163.9,34.8 C162.9,34.8 162.3,34.9 161.7,34.9 C161.1,34.9 160.4,34.8 159.7,34.8 C159.6,34.8 159.1,34.8 159.1,35 C159.1,35.6 161.1,35.1 161.1,36.7 L161.1,44.9 C161.1,46.5 159.8,46.1 159.8,46.7 C159.8,46.8 159.8,46.9 160,46.9 C160.4,46.9 161.2,46.8 162,46.8 C163.4,46.8 164,46.9 164.7,46.9 C165.1,46.9 165.2,46.8 165.2,46.7 C165.2,46.2 163.2,46.9 163.2,44.9 L163.2,36.6 L163.2,36.6 L163.2,36.6 Z"></path>
                        <path d="M181.2,44.6 C181.2,46.6 179.2,45.8 179.2,46.5 C179.2,46.9 179.5,46.8 179.8,46.8 C180.5,46.8 181.1,46.7 182.3,46.7 C183.5,46.7 184.1,46.8 184.8,46.8 C185.3,46.8 185.7,46.8 185.7,46.5 C185.7,46.1 183.5,46.5 183.5,44.4 L183.5,36.7 C183.5,35.8 183.7,35.8 184.4,35.8 L185.9,35.8 C187.9,35.7 187.4,37.6 188,37.6 C188.4,37.6 188.2,37 188.2,36.7 L188,35.1 C188,34.9 188,34.7 187.7,34.7 C186.1,34.7 184.9,34.8 182.3,34.8 C179.6,34.8 178.6,34.7 176.9,34.7 C176.6,34.7 176.6,34.9 176.6,35.1 L176.3,37.3 C176.3,37.5 176.2,37.9 176.5,37.9 C177.2,37.9 176.7,35.7 178.7,35.7 L180.2,35.7 C180.9,35.7 181.1,35.8 181.1,36.6 L181.1,44.5 L181.2,44.5 L181.2,44.6 Z"></path>
                        <path d="M203.8,41.4 C204,41.8 204.1,41.9 204.1,42.5 L204.1,44.7 C204.1,46.8 202.2,46 202.2,46.7 C202.2,46.8 202.4,46.9 202.6,46.9 C203.1,46.9 203.6,46.8 205.2,46.8 C207.4,46.8 207.7,46.9 207.9,46.9 C208.2,46.9 208.4,46.9 208.4,46.7 C208.4,45.8 206.3,47 206.3,44.9 L206.3,42.3 C206.3,41.7 206.3,41.6 206.5,41.2 L208.8,36.9 C209.9,35 210.6,35.4 210.6,34.9 C210.6,34.8 210.5,34.7 210.3,34.7 C209.8,34.7 209.7,34.8 208.3,34.8 C207.3,34.8 207,34.7 206.8,34.7 C206.6,34.7 206.5,34.8 206.5,34.9 C206.5,35.4 208.2,35 208.2,36.2 C208.2,36.3 208.2,36.5 207.9,37.2 L206.3,40 C206.1,40.4 206,40.5 205.9,40.5 C205.8,40.5 205.7,40.3 205.4,39.8 L203.8,36.6 C203.6,36.2 203.6,36 203.6,35.9 C203.6,35.4 204.6,35.5 204.6,35 C204.6,34.9 204.6,34.8 204.3,34.8 C203.2,34.9 202.5,34.9 201.7,34.9 C200.8,34.9 200.4,34.8 200.1,34.8 C199.7,34.8 199.5,34.8 199.5,35 C199.5,35.5 200.6,35.1 201.3,36.4 L203.8,41.4 L203.8,41.4 L203.8,41.4 Z"></path>
                        <path d="M8.1,5.1 C8.1,3.1 8.2,1.8 10.6,1.8 C13.8,1.8 16.4,4 16.4,7.2 C16.4,9.8 15.3,11.1 12.7,11.1 L10.6,11.1 C8.6,10.9 8.3,10.8 8.3,9.1 L8.3,5.1 L8.1,5.1 L8.1,5.1 Z M3.7,20.9 C3.7,24.3 0.6,23.4 0.6,24.5 C0.6,25 1,25 1.8,25 C2.5,25 3.5,24.9 4.4,24.9 C6.2,24.9 7.9,25 13.3,25 C19.1,25 22.4,22 22.4,17.4 C22.4,14.3 21,12.4 16.7,11.3 L16.7,11.2 C19.3,10.3 20.5,8.4 20.5,6.3 C20.5,5.4 20.5,0.3 11.8,0.3 C8.8,0.2 5.8,0.3 2.8,0.3 C1.1,0.3 0.9,0.2 0.7,0.2 C0.5,0.2 0,0.3 0,0.8 C0,2.5 3.7,0.6 3.7,5.4 L3.7,20.9 L3.7,20.9 L3.7,20.9 Z M8.1,15.4 C8.1,13.6 8.2,12.7 10.2,12.7 C16.7,12.7 17.7,15.8 17.7,17.9 C17.7,21.3 15.9,23.6 12.4,23.6 C9,23.6 8,22.6 8,19.3 L8,15.4 L8.1,15.4 L8.1,15.4 Z"></path>
                        <path d="M30.4,8.2 C30.4,5.5 32.5,6.6 32.5,5.6 C32.5,5.3 32.4,5.2 31.5,5.2 C29.9,5.2 28.8,5.3 27.9,5.3 C27,5.3 25.8,5.2 24.7,5.2 C24.5,5.2 23.7,5.1 23.7,5.6 C23.7,6.6 26.9,5.8 26.9,8.4 L26.9,21.8 C26.9,24.5 24.9,23.7 24.9,24.7 C24.9,24.8 25,25 25.2,25 C25.9,25 27.1,24.9 28.4,24.9 C30.6,24.9 31.7,25 32.7,25 C33.3,25 33.7,24.9 33.7,24.6 C33.7,23.7 30.5,25 30.5,21.5 L30.5,8.2 L30.4,8.2 L30.4,8.2 Z"></path>
                        <path d="M37,21.2 C37,24.1 34.2,23.5 34.2,24.6 C34.2,25 34.7,24.9 35.1,24.9 C35.8,24.9 36.6,24.8 37.6,24.8 C38.6,24.8 39.5,24.9 40.9,24.9 C41.2,24.9 42,24.9 42,24.6 C42,23.3 38.4,25.2 38.4,19.8 L38.4,10.3 C38.5,10.1 38.6,9.9 38.7,9.9 C38.8,9.9 39,10 39.2,10.2 L52.8,24.8 C53,25 53.1,25.2 53.5,25.2 C53.8,25.2 53.8,25 53.8,24.3 L53.8,8.7 C53.8,5.8 56.3,6.5 56.3,5.6 C56.3,5.5 56.3,5.3 55.8,5.3 C55.6,5.3 54.5,5.4 52.8,5.4 C50.9,5.4 50,5.3 49.6,5.3 C49.2,5.2 49.1,5.5 49.1,5.6 C49.1,6.6 52.5,6 52.5,8.6 L52.5,17.9 C52.5,18.6 52.4,19 52.3,19 C52.1,19 51.8,18.7 51.4,18.3 L40,6 C39.5,5.5 39.8,5.3 38.9,5.3 C37.4,5.3 36.7,5.4 35.9,5.4 C35.4,5.4 34.8,5.3 34.3,5.3 C34,5.3 33.8,5.5 33.8,5.7 C33.8,7.1 37,5.3 37,10.6 L37,21.2 L37,21.2 L37,21.2 Z"></path>
                        <path d="M76.4,7 C76.4,6.6 76.4,5.9 76,5.9 C75.6,5.9 75.5,6.6 74.8,6.6 C74.1,6.6 71.6,4.8 67.7,4.8 C60.6,4.8 57.7,11 57.7,15.7 C57.7,17.9 59,25.1 67.3,25.1 C70.4,25.1 73.6,23.8 76.3,22.3 C76.5,22.2 76.6,22 76.6,21.6 C76.6,21.2 76.5,20.4 76.5,19.3 C76.5,15.7 78.4,17.3 78.4,16 C78.4,15.7 78.2,15.6 78.1,15.6 C77,15.6 76.1,15.7 75,15.7 C73.6,15.7 72.3,15.6 71.1,15.6 C70.6,15.6 69.7,15.4 69.7,16.1 C69.7,17.2 73.1,15.2 73.1,19.6 C73.1,21.2 73,23.5 67.9,23.5 C63.3,23.5 61.3,18.4 61.3,14.6 C61.3,7.6 65,5.9 67.7,5.9 C75,6 75,12 75.6,12 C76.1,12 76.3,11.9 76.3,11.5 L76.3,7 L76.4,7 L76.4,7 Z"></path>
                        <path d="M99.1,8.2 C99.1,5.4 101.1,6.7 101.1,5.6 C101.1,5.4 101,5.3 100.5,5.3 C99.3,5.3 98.3,5.4 96.8,5.4 C95.1,5.4 94.3,5.3 93.2,5.3 C92.8,5.3 92.6,5.2 92.6,5.7 C92.6,6.6 95.7,5.5 95.7,8.6 L95.7,12.5 C95.7,13.1 95.5,13.8 94.7,13.8 L86.3,13.8 C85.7,13.8 85.6,13.5 85.6,12.7 L85.6,8.1 C85.6,5.6 87.7,6.4 87.7,5.5 C87.7,5.2 87.5,5.1 87.1,5.1 C86.2,5.1 85.2,5.2 83.5,5.2 C82,5.2 81.2,5.1 80.3,5.1 C79.8,5.1 78.9,5.1 78.9,5.5 C78.9,6.6 82.1,5.3 82.1,8.4 L82.1,21 C82.1,24.4 79.6,23.5 79.6,24.5 C79.6,24.8 79.9,24.9 80.2,24.9 C81.6,24.9 82.8,24.8 84,24.8 C86,24.8 87,24.9 88.2,24.9 C89.2,24.9 89.1,24.7 89.1,24.5 C89.1,23.5 85.6,24.5 85.6,21.1 L85.6,16.7 C85.6,15.4 85.7,15.2 87,15.2 L94.6,15.2 C95.9,15.2 95.8,15.5 95.8,16.7 L95.8,21.7 C95.8,24.4 93.8,23.6 93.8,24.6 C93.8,24.8 94,24.9 94.3,24.9 C95.8,24.9 96.9,24.8 97.9,24.8 C99.1,24.8 100.8,24.9 101.6,24.9 C101.9,24.9 102.2,24.9 102.2,24.6 C102.2,23.5 99.2,24.5 99.2,21 L99.1,8.2 L99.1,8.2 L99.1,8.2 Z"></path>
                        <path d="M109.7,16.6 C109.2,16.6 108.7,16.6 108.7,16.4 C108.7,16 108.9,15.7 109,15.3 L111.1,10.4 C111.2,10.1 111.3,10.1 111.4,10.1 C111.5,10.1 111.5,10.1 111.6,10.3 L113.9,15.3 C114,15.6 114.2,15.9 114.2,16.4 C114.2,16.7 113.8,16.6 113.2,16.6 L109.7,16.6 L109.7,16.6 L109.7,16.6 Z M114.4,18.1 C115.1,18.1 115.3,18.4 116.2,20.6 C116.5,21.3 116.7,21.9 116.7,22.5 C116.7,24.2 114.7,23.9 114.7,24.7 C114.7,25.1 115,25 115.6,25 C116.5,25 117.5,24.9 118.7,24.9 C120.6,24.9 121.4,25 122.3,25 C123,25 123.4,25.1 123.4,24.6 C123.4,23.6 121.9,24.8 120.9,22.8 L113.2,5.7 C112.9,4.8 112.8,4.8 112.6,4.8 C112.3,4.8 112.1,5.3 111.9,5.8 L104.2,22.6 C103.5,24.2 102.1,24 102.1,24.6 C102.1,24.9 102.5,24.9 103,24.9 C103.9,24.9 104.6,24.8 105.5,24.8 C106.5,24.8 107.2,24.9 108.2,24.9 C108.8,24.9 109.7,25.1 109.7,24.5 C109.7,23.8 106.6,24.2 106.6,22.2 C106.6,21.6 107,20.6 107.2,20 C107.8,18.2 108.5,18.1 108.9,18.1 L114.4,18.1 L114.4,18.1 L114.4,18.1 Z"></path>
                        <path d="M127.9,12.5 C127.9,12.3 127.9,11.8 128.1,11.8 C128.2,11.8 128.3,12.1 128.4,12.2 L133.9,24.3 C134,24.6 134.2,25 134.6,25 C135,25 135.1,24.6 135.3,24.3 L140.6,13.3 C141,12.3 141.3,11.8 141.5,11.8 C141.7,11.8 141.7,12.2 141.7,13.1 L142.1,21.5 C142.3,24.6 140.1,23.6 140.1,24.6 C140.1,25.1 140.8,25 141.4,25 C142,25 142.7,24.9 144.6,24.9 C145.5,24.9 146.2,25 147.1,25 C148.1,25 148.5,25 148.5,24.6 C148.5,23.5 145.9,24.8 145.7,21.2 L145.2,8.8 C145.1,5.6 147.9,6.7 147.9,5.7 C147.9,5.5 147.8,5.4 147,5.4 C146.2,5.4 145.7,5.5 145.2,5.5 C144.8,5.5 144.2,5.4 143.6,5.4 C143.1,5.4 143,5.7 142.9,5.9 L136.3,19.4 C136.3,19.5 136,19.9 135.9,19.9 C135.7,19.9 135.7,19.7 135.6,19.5 L129.3,6.1 C128.9,5.2 128.7,5.2 128.3,5.2 C127.3,5.2 126.3,5.3 125.6,5.3 C124.6,5.3 124.2,5.2 123.9,5.2 C123.7,5.2 123.6,5.4 123.6,5.6 C123.6,6.9 126.6,5.5 126.5,10.1 L126,21.3 C125.9,24.2 123.5,23.5 123.5,24.5 C123.5,24.7 123.6,24.9 124,24.9 C124.4,24.9 125.4,24.8 126.8,24.8 C128.1,24.8 128.7,24.9 129.7,24.9 C130.4,24.9 130.3,24.6 130.3,24.5 C130.3,23.3 127.2,24.9 127.3,20.2 L127.9,12.5 L127.9,12.5 L127.9,12.5 Z"></path>
                        <path d="M156.8,21.3 C156.8,24.6 153.6,23.3 153.6,24.4 C153.6,25 154.1,24.9 154.6,24.9 C155.8,24.9 156.6,24.8 158.5,24.8 C160.4,24.8 161.4,24.9 162.4,24.9 C163.3,24.9 163.8,25 163.8,24.4 C163.8,23.7 160.2,24.4 160.2,21 L160.2,8.4 C160.2,7 160.5,6.9 161.7,6.9 L164.2,6.9 C167.5,6.8 166.5,9.9 167.7,9.9 C168.4,9.9 168.1,8.8 168,8.5 L167.7,5.9 C167.7,5.6 167.7,5.3 167.3,5.3 C164.6,5.3 162.7,5.4 158.7,5.4 C154.5,5.4 152.6,5.3 150.1,5.3 C149.7,5.3 149.7,5.7 149.7,5.9 L149.3,9.6 C149.2,9.9 149.1,10.6 149.6,10.6 C150.9,10.6 150,7 153.2,7 L155.5,7 C156.7,7 157,7.1 157,8.5 L157,21.3 L156.8,21.3 L156.8,21.3 Z"></path>
                        <path d="M168.9,15.8 C168.9,21.5 172.7,25.2 178.4,25.2 C187.5,25.2 189.2,18.4 189.2,14.4 C189.2,8.5 184.9,4.9 179.4,4.9 C172.8,5 168.9,9.6 168.9,15.8 L168.9,15.8 L168.9,15.8 Z M172.4,14.2 C172.4,10.1 173.8,6.3 178.6,6.2 C182.2,6.1 185.7,9.4 185.7,15.6 C185.7,20.2 184.1,24 179.2,24 C174.3,24.1 172.4,18.2 172.4,14.2 L172.4,14.2 L172.4,14.2 Z"></path>
                        <path d="M193.2,21.2 C193.2,24.1 190.4,23.5 190.4,24.6 C190.4,25 190.9,24.9 191.3,24.9 C192,24.9 192.8,24.8 193.8,24.8 C194.8,24.8 195.7,24.9 197.1,24.9 C197.4,24.9 198.2,24.9 198.2,24.6 C198.2,23.3 194.6,25.2 194.6,19.8 L194.6,10.3 C194.6,10.1 194.7,9.9 194.8,9.9 C194.9,9.9 195.1,10 195.3,10.2 L209,24.8 C209.2,25 209.3,25.2 209.7,25.2 C210,25.2 210,25 210,24.3 L210,8.7 C210,5.8 212.5,6.5 212.5,5.6 C212.5,5.5 212.5,5.3 212,5.3 C211.8,5.3 210.7,5.4 209,5.4 C207.1,5.4 206.2,5.3 205.8,5.3 C205.5,5.3 205.4,5.6 205.4,5.7 C205.4,6.7 208.8,6.1 208.8,8.7 L208.8,18 C208.8,18.7 208.7,19.1 208.6,19.1 C208.4,19.1 208.1,18.8 207.7,18.4 L196.2,6 C195.7,5.5 196,5.3 195.1,5.3 C193.6,5.3 192.9,5.4 192.1,5.4 C191.6,5.4 191,5.3 190.5,5.3 C190.2,5.3 190,5.5 190,5.7 C190,7.1 193.2,5.3 193.2,10.6 L193.2,21.2 L193.2,21.2 L193.2,21.2 Z"></path>
                    </g>
                    <g transform="translate(11.000000, 59.000000)">
                        <path d="M3.7,1.9 C3.6,1.2 3.2,0.7 2.5,0.7 C1.6,0.7 1.3,1.2 1.3,1.7 C1.3,2.1 1.6,2.4 2.3,2.7 L3,3 C4,3.3 4.5,3.9 4.5,4.6 C4.5,5.6 3.6,6.2 2.5,6.2 C1.4,6.2 0.6,5.7 0.5,4.5 L1.2,4.5 C1.3,5.1 1.6,5.6 2.5,5.6 C3.1,5.6 3.7,5.2 3.7,4.6 C3.7,4.2 3.3,3.9 2.7,3.6 L1.8,3.3 C0.8,3 0.4,2.4 0.4,1.7 C0.4,0.6 1.4,0.1 2.3,0.1 C3.4,0.1 4.1,0.6 4.2,1.9 C4.4,1.9 3.7,1.9 3.7,1.9 L3.7,1.9 Z"></path>
                        <path d="M8.8,0.8 L7.2,0.8 L7.2,0.1 L11.1,0.1 L11.1,0.8 L9.5,0.8 L9.5,6 L8.8,6 L8.8,0.8 L8.8,0.8 Z"></path>
                        <path d="M17.5,4.6 L14.5,4.6 L14,6 L13.1,6 L15.7,0.1 L16.4,0.1 L19,6 L18.1,6 L17.5,4.6 L17.5,4.6 Z M16,1.1 L14.8,4 L17.1,4 L16,1.1 L16,1.1 Z"></path>
                        <path d="M22.3,0.8 L20.7,0.8 L20.7,0.1 L24.6,0.1 L24.6,0.8 L23.1,0.8 L23.1,6 L22.4,6 L22.4,0.8 L22.3,0.8 L22.3,0.8 Z"></path>
                        <path d="M27.7,0.2 L31,0.2 L31,0.9 L28.5,0.9 L28.5,2.7 L31,2.7 L31,3.4 L28.5,3.4 L28.5,5.3 L31,5.3 L31,6 L27.7,6 L27.7,0.2 L27.7,0.2 Z"></path>
                        <path d="M38.7,0.2 L39.4,0.2 L39.4,3.7 C39.4,4.7 39.9,5.4 41.1,5.4 C42.2,5.4 42.8,4.7 42.8,3.7 L42.8,0.2 L43.5,0.2 L43.5,3.9 C43.5,5.2 42.4,6.1 41,6.1 C39.6,6.1 38.5,5.1 38.5,3.9 L38.5,0.2 L38.7,0.2 Z"></path>
                        <path d="M51.3,0.2 L52,0.2 L52,6.1 L51.3,6.1 L47.9,1.5 L47.9,1.5 L47.9,6.1 L47.2,6.1 L47.2,0.2 L47.9,0.2 L51.3,4.8 L51.3,4.8 L51.3,0.2 L51.3,0.2 Z"></path>
                        <path d="M55.5,0.2 L56.2,0.2 L56.2,6.1 L55.5,6.1 L55.5,0.2 L55.5,0.2 Z"></path>
                        <path d="M63.9,0.2 L64.8,0.2 L62.5,6.1 L61.9,6.1 L59.6,0.2 L60.5,0.2 L62.3,4.9 L62.3,4.9 L63.9,0.2 L63.9,0.2 Z"></path>
                        <path d="M67.7,0.2 L71,0.2 L71,0.9 L68.5,0.9 L68.5,2.7 L71,2.7 L71,3.4 L68.5,3.4 L68.5,5.3 L71,5.3 L71,6 L67.7,6 L67.7,0.2 L67.7,0.2 Z"></path>
                        <path d="M75.1,3.6 L75.1,6.2 L74.4,6.2 L74.4,0.3 L76.2,0.3 C77.4,0.3 78.3,0.9 78.3,2.1 C78.3,3.2 77.4,3.8 76.4,3.8 L78.9,6.1 L77.7,6.1 L75.1,3.6 L75.1,3.6 Z M75.1,3 L75.8,3 C77,3 77.4,2.5 77.4,1.8 C77.4,1.1 76.9,0.6 76,0.6 L75,0.6 C75.1,0.7 75.1,3 75.1,3 L75.1,3 Z"></path>
                        <path d="M84.8,1.9 C84.7,1.2 84.3,0.7 83.6,0.7 C82.7,0.7 82.4,1.2 82.4,1.7 C82.4,2.1 82.7,2.4 83.4,2.7 L84.1,3 C85.1,3.3 85.6,3.9 85.6,4.6 C85.6,5.6 84.7,6.2 83.6,6.2 C82.5,6.2 81.7,5.7 81.6,4.5 L82.3,4.5 C82.4,5.1 82.7,5.6 83.6,5.6 C84.2,5.6 84.8,5.2 84.8,4.6 C84.8,4.2 84.4,3.9 83.8,3.6 L82.9,3.3 C81.9,3 81.5,2.4 81.5,1.7 C81.5,0.6 82.5,0.1 83.4,0.1 C84.5,0.1 85.2,0.6 85.3,1.9 C85.4,1.9 84.8,1.9 84.8,1.9 L84.8,1.9 Z"></path>
                        <path d="M88.8,0.2 L89.5,0.2 L89.5,6.1 L88.8,6.1 L88.8,0.2 L88.8,0.2 Z"></path>
                        <path d="M94.1,0.8 L92.5,0.8 L92.5,0.1 L96.4,0.1 L96.4,0.8 L94.8,0.8 L94.8,6 L94.1,6 L94.1,0.8 L94.1,0.8 Z"></path>
                        <path d="M103.2,0.2 L104.2,0.2 L102.1,3.7 L102.1,6 L101.4,6 L101.4,3.7 L99.3,0.2 L100.3,0.2 L101.9,3 L103.2,0.2 L103.2,0.2 Z"></path>
                        <path d="M114.6,0.1 C116.7,0.1 117.9,1.7 117.9,3.1 C117.9,4.6 116.7,6.1 114.6,6.1 C112.5,6.1 111.3,4.5 111.3,3.1 C111.3,1.7 112.5,0.1 114.6,0.1 L114.6,0.1 Z M114.6,5.4 C115.9,5.4 117.1,4.4 117.1,3.1 C117.1,1.8 115.9,0.8 114.6,0.8 C113.3,0.8 112.1,1.8 112.1,3.1 C112.2,4.5 113.3,5.4 114.6,5.4 L114.6,5.4 Z"></path>
                        <path d="M121.3,0.2 L124.6,0.2 L124.6,0.9 L122.1,0.9 L122.1,2.7 L124.6,2.7 L124.6,3.4 L122.1,3.4 L122.1,6.1 L121.4,6.1 L121.4,0.1 L121.3,0.1 L121.3,0.2 Z"></path>
                        <path d="M136.4,0.2 L137.1,0.2 L137.1,6.1 L136.4,6.1 L133,1.5 L133,1.5 L133,6.1 L132.1,6.1 L132.1,0.2 L132.8,0.2 L136.2,4.8 L136.2,4.8 L136.2,0.2 L136.4,0.2 L136.4,0.2 Z"></path>
                        <path d="M140.6,0.2 L143.9,0.2 L143.9,0.9 L141.4,0.9 L141.4,2.7 L143.9,2.7 L143.9,3.4 L141.4,3.4 L141.4,5.3 L143.9,5.3 L143.9,6 L140.6,6 L140.6,0.2 L140.6,0.2 Z"></path>
                        <path d="M154.1,0.2 L155,0.2 L153,6 L152.4,6 L150.9,1.3 L150.9,1.3 L149.4,6 L148.8,6 L146.9,0.1 L147.8,0.1 L149.2,4.6 L149.2,4.6 L150.7,0.1 L151.4,0.1 L152.9,4.6 L152.9,4.6 L154.1,0.2 L154.1,0.2 Z"></path>
                        <path d="M165.7,0.2 L166.7,0.2 L164.6,3.7 L164.6,6 L163.9,6 L163.9,3.7 L161.8,0.2 L162.8,0.2 L164.4,3 L165.7,0.2 L165.7,0.2 Z"></path>
                        <path d="M172.4,0.1 C174.5,0.1 175.7,1.7 175.7,3.1 C175.7,4.6 174.5,6.1 172.4,6.1 C170.3,6.1 169.1,4.5 169.1,3.1 C169.1,1.7 170.3,0.1 172.4,0.1 L172.4,0.1 Z M172.4,5.4 C173.7,5.4 174.9,4.4 174.9,3.1 C174.9,1.8 173.7,0.8 172.4,0.8 C171.1,0.8 169.9,1.8 169.9,3.1 C170,4.5 171.1,5.4 172.4,5.4 L172.4,5.4 Z"></path>
                        <path d="M179.9,3.6 L179.9,6.2 L179.2,6.2 L179.2,0.3 L181,0.3 C182.2,0.3 183.1,0.9 183.1,2.1 C183.1,3.2 182.2,3.8 181.2,3.8 L183.7,6.1 L182.5,6.1 L179.9,3.6 L179.9,3.6 Z M179.9,3 L180.6,3 C181.8,3 182.2,2.5 182.2,1.8 C182.2,1.1 181.7,0.6 180.8,0.6 L179.8,0.6 L179.8,3 L179.9,3 Z"></path>
                        <path d="M190,0.2 L191.1,0.2 L188.2,3.1 L191.1,6.1 L189.9,6.1 L187.3,3.4 L187.3,6.1 L186.6,6.1 L186.6,0.2 L187.3,0.2 L187.3,2.9 L190,0.2 L190,0.2 Z"></path>
                    </g>
                </g>
                <path d="M230.1,4 L230.1,67.7" id="Shape" stroke="#353C47" stroke-width="1.25"></path>
                <g transform="translate(247.000000, 28.000000)" id="Shape" fill="#353C47">
                    <path d="M0,2.6 L0,0.7 L1.9,0.7 L1.9,2.6 L0,2.6 L0,2.6 Z M0,13.1 L0,4.4 L1.8,4.4 L1.8,13.1 L0,13.1 L0,13.1 Z"></path>
                    <path d="M9.8,13.1 L9.8,7.8 C9.8,6.4 9.1,5.9 8,5.9 C6.9,5.9 6.2,6.5 6.2,7.8 L6.2,13.1 L4.4,13.1 L4.4,4.4 L6.1,4.4 L6.1,5.3 C6.7,4.7 7.6,4.3 8.4,4.3 C9.3,4.3 10,4.6 10.5,5 C11.1,5.6 11.4,6.5 11.4,7.5 L11.4,13.2 L9.8,13.2 L9.8,13.1 Z"></path>
                    <path d="M19.5,13.1 L19.5,7.8 C19.5,6.4 18.8,5.9 17.7,5.9 C16.6,5.9 15.9,6.5 15.9,7.8 L15.9,13.1 L14.1,13.1 L14.1,4.4 L15.8,4.4 L15.8,5.3 C16.4,4.7 17.3,4.3 18.1,4.3 C18.9,4.3 19.7,4.6 20.2,5 C20.8,5.6 21.1,6.5 21.1,7.5 L21.1,13.2 L19.5,13.2 L19.5,13.1 Z"></path>
                    <path d="M29.6,12.2 C29.1,12.8 28.1,13.3 26.9,13.3 C25.7,13.3 24.9,12.9 24.2,12.2 C23.3,11.3 23.1,10.2 23.1,8.7 C23.1,7.2 23.3,6.1 24.2,5.3 C24.7,4.7 25.6,4.2 26.9,4.2 C28.1,4.2 28.9,4.6 29.6,5.3 C30.5,6.2 30.7,7.3 30.7,8.7 C30.7,10.3 30.5,11.3 29.6,12.2 L29.6,12.2 Z M28.3,6.3 C28,6 27.6,5.8 27,5.8 C26.4,5.8 26,6 25.7,6.3 C25.2,6.8 25.1,7.8 25.1,8.8 C25.1,9.8 25.2,10.7 25.7,11.3 C26,11.6 26.4,11.8 27,11.8 C27.6,11.8 28,11.6 28.3,11.3 C28.8,10.8 28.9,9.8 28.9,8.8 C28.9,7.8 28.9,6.9 28.3,6.3 L28.3,6.3 Z"></path>
                    <path d="M36.1,13.1 L34.6,13.1 L31.4,4.4 L33.3,4.4 L35.4,10.6 L37.4,4.4 L39.3,4.4 L36.1,13.1 L36.1,13.1 Z"></path>
                    <path d="M45.3,13.1 L45.3,12.4 C44.7,13 44,13.3 43,13.3 C42,13.3 41.2,13.1 40.7,12.6 C40.3,12.2 40,11.4 40,10.7 C40,9.2 41.1,8.1 43,8.1 L45.3,8.1 L45.3,7.5 C45.3,6.4 44.8,5.9 43.4,5.9 C42.4,5.9 42,6.1 41.5,6.8 L40.3,5.7 C41.2,4.7 42,4.4 43.5,4.4 C46,4.4 47.1,5.5 47.1,7.4 L47.1,13.3 C47,13.1 45.3,13.1 45.3,13.1 L45.3,13.1 Z M45.3,9.3 L43.3,9.3 C42.2,9.3 41.7,9.7 41.7,10.6 C41.7,11.3 42.2,11.9 43.3,11.9 C43.9,11.9 44.5,11.9 44.9,11.4 C45.1,11.2 45.3,10.8 45.3,10.1 L45.3,9.3 L45.3,9.3 Z"></path>
                    <path d="M52.2,13.1 C50.6,13.1 49.7,11.9 49.7,10.6 L49.7,5.8 L48.7,5.8 L48.7,4.4 L49.7,4.4 L49.7,1.7 L51.5,1.7 L51.5,4.4 L53.2,4.4 L53.2,5.8 L51.5,5.8 L51.5,10.6 C51.5,11.2 51.8,11.7 52.5,11.7 L53.2,11.7 L53.2,13.2 L52.1,13.2 L52.1,13.1 L52.2,13.1 Z"></path>
                    <path d="M55.3,2.6 L55.3,0.7 L57.2,0.7 L57.2,2.6 L55.3,2.6 L55.3,2.6 Z M55.3,13.1 L55.3,4.4 L57.1,4.4 L57.1,13.1 L55.3,13.1 L55.3,13.1 Z"></path>
                    <path d="M65.7,12.2 C65.2,12.8 64.2,13.3 63,13.3 C61.8,13.3 61,12.9 60.3,12.2 C59.4,11.3 59.2,10.2 59.2,8.7 C59.2,7.2 59.4,6.1 60.3,5.3 C60.8,4.7 61.7,4.2 63,4.2 C64.3,4.2 65,4.6 65.7,5.3 C66.6,6.2 66.8,7.3 66.8,8.7 C66.6,10.3 66.4,11.3 65.7,12.2 L65.7,12.2 Z M64.3,6.3 C64,6 63.6,5.8 63,5.8 C62.4,5.8 62,6 61.7,6.3 C61.2,6.8 61.1,7.8 61.1,8.8 C61.1,9.8 61.2,10.7 61.7,11.3 C62,11.6 62.4,11.8 63,11.8 C63.6,11.8 64,11.6 64.3,11.3 C64.8,10.8 64.9,9.8 64.9,8.8 C64.9,7.8 64.8,6.9 64.3,6.3 L64.3,6.3 Z"></path>
                    <path d="M74.2,13.1 L74.2,7.8 C74.2,6.4 73.5,5.9 72.4,5.9 C71.3,5.9 70.6,6.5 70.6,7.8 L70.6,13.1 L68.8,13.1 L68.8,4.4 L70.5,4.4 L70.5,5.3 C71.1,4.7 72,4.3 72.8,4.3 C73.7,4.3 74.4,4.6 74.9,5 C75.5,5.6 75.8,6.5 75.8,7.5 L75.8,13.2 L74.2,13.2 L74.2,13.1 Z"></path>
                    <path d="M89.5,9.9 L89.5,10.3 C89.5,10.4 89.5,10.5 89.6,10.6 C89.7,10.7 89.7,10.7 89.8,10.7 C90.1,10.7 90.3,10.6 90.7,10.4 C91,10.2 91.2,10 91.4,9.7 C91.6,9.4 91.8,9 91.9,8.5 C92,8.1 92.1,7.5 92.1,7 C92.1,6.1 92,5.5 91.7,4.9 C91.4,4.3 91.1,3.7 90.5,3.3 C90,2.9 89.4,2.6 88.8,2.3 C88.2,2.1 87.4,2 86.7,2 C85.8,2 85.1,2.1 84.4,2.4 C83.7,2.7 83.1,3.1 82.6,3.7 C82.1,4.2 81.7,4.9 81.4,5.6 C81.1,6.3 81,7.1 81,7.9 C81,8.8 81.1,9.6 81.4,10.4 C81.7,11.2 82.1,11.8 82.7,12.2 C83.2,12.7 83.9,13.2 84.6,13.4 C85.3,13.7 86.1,13.8 87.1,13.8 C88,13.8 88.8,13.7 89.6,13.4 C90.3,13.1 91,12.7 91.5,12.2 L93.2,12.2 C92.6,13.3 91.6,14 90.5,14.7 C89.4,15.4 88.3,15.6 87,15.6 C85.9,15.6 84.9,15.4 84,15.1 C83,14.7 82.2,14.2 81.5,13.5 C80.9,12.8 80.2,12 79.8,11 C79.4,10 79.2,9.1 79.2,8 C79.2,6.9 79.4,6 79.8,5 C80.2,4 80.8,3.3 81.5,2.5 C82.2,1.9 83,1.3 84,0.9 C85,0.5 85.9,0.3 87,0.3 C88,0.3 88.8,0.4 89.7,0.7 C90.6,1 91.3,1.4 91.9,2 C92.5,2.5 93.1,3.2 93.5,3.9 C93.9,4.6 94.1,5.5 94.1,6.5 C94.1,7.6 93.9,8.4 93.6,9.2 C93.3,9.9 92.7,10.6 92.2,11 C91.7,11.4 91.1,11.9 90.6,12.1 C90.1,12.3 89.6,12.4 89.3,12.4 C88.9,12.4 88.6,12.3 88.2,12.1 C88,11.9 87.8,11.6 87.8,11.2 L87.8,11.2 C87.6,11.6 87.3,11.9 86.8,12.1 C86.4,12.3 85.9,12.4 85.5,12.4 C85.1,12.4 84.6,12.3 84.3,12.1 C83.9,11.9 83.6,11.7 83.2,11.4 C82.9,11.1 82.7,10.8 82.6,10.3 C82.4,9.9 82.4,9.4 82.4,8.9 C82.4,8.3 82.5,7.6 82.7,7 C82.9,6.4 83.2,5.8 83.6,5.3 C84,4.8 84.5,4.4 85,4.1 C85.5,3.8 86.2,3.7 86.8,3.7 C87.2,3.7 87.7,3.8 88.2,4 C88.6,4.2 89.1,4.5 89.3,5.1 L89.6,4 L91.3,4 L90,9.2 C89.5,9.6 89.5,9.7 89.5,9.9 L89.5,9.9 Z M84.5,10.2 C84.8,10.5 85.1,10.7 85.7,10.7 C86,10.7 86.4,10.6 86.7,10.4 C87,10.2 87.2,10 87.4,9.7 C87.6,9.4 87.8,9.1 87.9,8.7 C88,8.4 88.1,8 88.1,7.6 C88.1,7.1 88,6.6 87.7,6.3 C87.4,6 87.1,5.8 86.6,5.8 C86.3,5.8 85.9,5.9 85.5,6.1 C85.2,6.3 85,6.5 84.6,6.8 C84.4,7.1 84.2,7.4 84.1,7.8 C84,8.2 83.9,8.5 83.9,8.9 C84.1,9.4 84.2,9.8 84.5,10.2 L84.5,10.2 Z"></path>
                    <path d="M102.7,12.5 C102.2,13 101.4,13.2 100.6,13.2 C99.6,13.2 98.9,13 98.3,12.1 L98.3,13.1 L96.5,13.1 L96.5,0.7 L98.3,0.7 L98.3,5.2 C98.9,4.5 99.7,4.2 100.6,4.2 C101.5,4.2 102.2,4.5 102.7,4.9 C103.6,5.8 103.7,7.2 103.7,8.6 C103.7,10 103.5,11.7 102.7,12.5 L102.7,12.5 Z M100,5.9 C98.4,5.9 98.2,7.3 98.2,8.8 C98.2,10.4 98.4,11.7 100,11.7 C101.6,11.7 101.8,10.3 101.8,8.8 C101.8,7.2 101.6,5.9 100,5.9 L100,5.9 Z"></path>
                    <path d="M105.8,2.6 L105.8,0.7 L107.7,0.7 L107.7,2.6 L105.8,2.6 L105.8,2.6 Z M105.9,13.1 L105.9,4.4 L107.7,4.4 L107.7,13.1 L105.9,13.1 L105.9,13.1 Z"></path>
                    <path d="M115.6,13.1 L115.6,7.8 C115.6,6.4 114.9,5.9 113.8,5.9 C112.7,5.9 112,6.5 112,7.8 L112,13.1 L110.3,13.1 L110.3,4.4 L112,4.4 L112,5.3 C112.6,4.7 113.5,4.3 114.3,4.3 C115.2,4.3 115.9,4.6 116.4,5 C117,5.6 117.3,6.5 117.3,7.5 L117.3,13.2 L115.6,13.2 L115.6,13.1 Z"></path>
                    <path d="M122.9,16.8 C121.5,16.8 120.8,16.5 119.8,15.6 L121,14.4 C121.5,14.9 122.1,15.1 122.9,15.1 C124.4,15.1 124.9,14 124.9,12.9 L124.9,11.7 C124.3,12.4 123.5,12.7 122.7,12.7 C121.8,12.7 121.1,12.4 120.6,12 C119.7,11.1 119.6,9.9 119.6,8.4 C119.6,6.9 119.7,5.6 120.6,4.8 C121.1,4.3 121.9,4.1 122.7,4.1 C123.7,4.1 124.3,4.3 125,5.2 L125,4.2 L126.7,4.2 L126.7,12.9 C126.7,15.3 125.2,16.8 122.9,16.8 L122.9,16.8 Z M123,5.9 C121.4,5.9 121.2,7.3 121.2,8.7 C121.2,10.1 121.4,11.5 123,11.5 C124.6,11.5 124.8,10.1 124.8,8.7 C124.9,7.3 124.6,5.9 123,5.9 L123,5.9 Z"></path>
                    <path d="M134.6,13.1 L134.6,7.7 C134.6,6.3 133.9,5.8 132.8,5.8 C131.8,5.8 131,6.4 131,7.7 L131,13.1 L129.2,13.1 L129.2,0.7 L131,0.7 L131,5.2 C131.6,4.6 132.4,4.2 133.2,4.2 C135.1,4.2 136.3,5.5 136.3,7.4 L136.3,13.1 L134.6,13.1 L134.6,13.1 Z"></path>
                    <path d="M143.6,13.1 L143.6,12.4 C143,13 142.3,13.3 141.3,13.3 C140.3,13.3 139.5,13.1 139,12.6 C138.6,12.2 138.3,11.4 138.3,10.7 C138.3,9.2 139.4,8.1 141.3,8.1 L143.6,8.1 L143.6,7.5 C143.6,6.4 143.1,5.9 141.7,5.9 C140.7,5.9 140.3,6.1 139.8,6.8 L138.6,5.7 C139.5,4.7 140.3,4.4 141.8,4.4 C144.3,4.4 145.4,5.5 145.4,7.4 L145.4,13.3 C145.3,13.1 143.6,13.1 143.6,13.1 L143.6,13.1 Z M143.6,9.3 L141.6,9.3 C140.5,9.3 140,9.7 140,10.6 C140,11.3 140.5,11.9 141.6,11.9 C142.2,11.9 142.8,11.9 143.2,11.4 C143.4,11.2 143.6,10.8 143.6,10.1 L143.6,9.3 L143.6,9.3 Z"></path>
                    <path d="M158.7,13.1 L158.7,7.8 C158.7,6.4 158,5.9 156.9,5.9 C155.9,5.9 155.1,6.5 155.1,7.8 L155.1,13.2 L153.3,13.2 L153.3,7.9 C153.3,6.5 152.6,6 151.5,6 C150.4,6 149.8,6.4 149.8,7.8 L149.8,13.1 L148,13.1 L148,4.4 L149.7,4.4 L149.7,5.3 C150.3,4.7 151.2,4.3 152,4.3 C153.1,4.3 153.9,4.7 154.5,5.6 C155.2,4.7 156.1,4.3 157.3,4.3 C158.2,4.3 159,4.6 159.5,5 C160.1,5.6 160.5,6.5 160.5,7.5 L160.5,13.2 L158.7,13.2 L158.7,13.1 Z"></path>
                    <path d="M165.6,13.1 C164,13.1 163.1,11.9 163.1,10.6 L163.1,5.8 L162.1,5.8 L162.1,4.4 L163.1,4.4 L163.1,1.7 L164.9,1.7 L164.9,4.4 L166.6,4.4 L166.6,5.8 L165,5.8 L165,10.6 C165,11.2 165.3,11.7 166,11.7 L166.7,11.7 L166.7,13.2 L165.6,13.2 L165.6,13.1 L165.6,13.1 Z"></path>
                    <path d="M174.5,12.2 C174,12.8 173,13.3 171.8,13.3 C170.6,13.3 169.8,12.9 169.1,12.2 C168.2,11.3 168,10.2 168,8.7 C168,7.2 168.2,6.1 169.1,5.3 C169.6,4.7 170.5,4.2 171.8,4.2 C173.1,4.2 173.8,4.6 174.5,5.3 C175.4,6.2 175.6,7.3 175.6,8.7 C175.6,10.3 175.4,11.3 174.5,12.2 L174.5,12.2 Z M173.3,6.3 C173,6 172.6,5.8 172,5.8 C171.4,5.8 171,6 170.7,6.3 C170.2,6.8 170.1,7.8 170.1,8.8 C170.1,9.8 170.2,10.7 170.7,11.3 C171,11.6 171.4,11.8 172,11.8 C172.6,11.8 173,11.6 173.3,11.3 C173.8,10.8 173.9,9.8 173.9,8.8 C173.8,7.8 173.8,6.9 173.3,6.3 L173.3,6.3 Z"></path>
                    <path d="M183.2,13.1 L183.2,7.8 C183.2,6.4 182.5,5.9 181.4,5.9 C180.3,5.9 179.6,6.4 179.6,7.8 L179.6,13.1 L177.8,13.1 L177.8,4.4 L179.5,4.4 L179.5,5.3 C180.1,4.7 181,4.3 181.8,4.3 C182.6,4.3 183.4,4.6 183.9,5 C184.5,5.6 184.8,6.5 184.8,7.5 L184.8,13.2 L183.2,13.2 L183.2,13.1 Z"></path>
                </g>
            </g>
        </g>
    </g>
</svg>