<?xml version="1.0" encoding="UTF-8" standalone="no"?>
<svg width="433px" height="73px" viewBox="0 0 433 73" version="1.1" xmlns="http://www.w3.org/2000/svg" xmlns:xlink="http://www.w3.org/1999/xlink" xmlns:sketch="http://www.bohemiancoding.com/sketch/ns">
    <!-- Generator: Sketch 3.4.4 (17249) - http://www.bohemiancoding.com/sketch -->
    <title>Slice 1</title>
    <desc>Created with Sketch.</desc>
    <defs></defs>
    <g id="Page-1" stroke="none" stroke-width="1" fill="none" fill-rule="evenodd" sketch:type="MSPage">
        <g id="bu-watson-office" sketch:type="MSLayerGroup">
            <g id="Group" sketch:type="MSShapeGroup">
                <g id="Shape" fill="#353C47">
                    <g>
                        <path d="M15.8,38.9 C15.8,36.9 17.1,37.6 17.1,37 C17.1,36.8 17,36.8 16.8,36.8 C15.9,36.8 15.3,36.9 14.7,36.9 C14.1,36.9 13.7,36.9 13.1,36.8 C12.9,36.8 12.5,36.7 12.5,37 C12.5,37.7 14.7,37.1 14.7,39.1 L14.7,42.7 C14.7,45.7 14.3,48.5 10.6,48.5 C7.2,48.5 6.6,46.3 6.6,43.5 L6.6,39.6 C6.6,36.7 8.2,37.6 8.2,37 C8.2,36.9 8.2,36.8 8,36.8 C7.7,36.8 6.3,36.9 5.4,36.9 C4.5,36.9 3,36.8 2.8,36.8 C2.7,36.8 2.5,36.8 2.5,37.1 C2.5,37.8 4.4,37.2 4.4,38.8 L4.4,44.6 C4.4,48.1 6.3,49.6 9.7,49.6 C14.9,49.6 15.9,46.6 15.9,42.9 L15.8,38.9 L15.8,38.9 L15.8,38.9 Z"></path>
                        <path d="M30.9,47 C30.9,48.8 29.1,48.5 29.1,49.2 C29.1,49.5 29.4,49.4 29.7,49.4 C30.1,49.4 30.7,49.3 31.3,49.3 C32,49.3 32.5,49.4 33.5,49.4 C33.7,49.4 34.2,49.4 34.2,49.2 C34.2,48.3 31.8,49.5 31.8,46.2 L31.8,40.1 C31.8,40 31.8,39.8 31.9,39.8 C32,39.8 32.1,39.9 32.2,40 L41.2,49.3 C41.3,49.4 41.4,49.5 41.6,49.5 C41.8,49.5 41.8,49.4 41.8,48.9 L41.8,38.8 C41.8,36.9 43.4,37.3 43.4,36.8 C43.4,36.8 43.4,36.6 43.1,36.6 C42.9,36.6 42.3,36.7 41.1,36.7 C39.9,36.7 39.3,36.6 39,36.6 C38.8,36.6 38.7,36.8 38.7,36.9 C38.7,37.5 40.9,37.1 40.9,38.8 L40.9,44.7 C40.9,45.1 40.9,45.4 40.8,45.4 C40.7,45.4 40.5,45.2 40.2,45 L32.7,37 C32.4,36.7 32.6,36.6 32,36.6 C31,36.6 30.5,36.7 30.1,36.7 C29.8,36.7 29.4,36.6 29.1,36.6 C28.9,36.6 28.8,36.7 28.8,36.9 C28.8,37.8 30.9,36.6 30.9,40 L30.9,47 L30.9,47 L30.9,47 Z"></path>
                        <path d="M59.8,38.7 C59.8,37 61.1,37.7 61.1,37 C61.1,36.8 61,36.8 60.4,36.8 C59.4,36.8 58.7,36.9 58,36.9 C57.3,36.9 56.7,36.8 55.9,36.8 C55.8,36.8 55.2,36.8 55.2,37 C55.2,37.7 57.3,37.1 57.3,38.8 L57.3,47.4 C57.3,49.1 56,48.6 56,49.3 C56,49.4 56,49.5 56.2,49.5 C56.6,49.5 57.4,49.4 58.3,49.4 C59.8,49.4 60.4,49.5 61.1,49.5 C61.5,49.5 61.7,49.4 61.7,49.3 C61.7,48.7 59.6,49.5 59.6,47.4 L59.6,38.7 L59.8,38.7 L59.8,38.7 Z"></path>
                        <path d="M86.2,38.4 C86.6,37.4 87.4,37.4 87.4,37.1 C87.4,36.8 87.2,36.9 86.7,36.9 C86.1,36.9 85.7,37 85.1,37 C84.5,37 84.1,36.9 83.5,36.9 C83.3,36.9 82.7,36.9 82.7,37.2 C82.7,37.9 84.6,37.2 84.6,38.9 C84.6,39.2 84.6,39.8 84,41 L81.4,46.5 C81.4,46.6 81.3,46.8 81.2,46.8 C81.1,46.8 81,46.6 81,46.5 L78.5,40.8 C78.1,39.7 77.8,38.9 77.8,38.3 C77.8,37.5 78.9,37.9 78.9,37.3 C78.9,37 78.8,37 78.2,37 C77.9,37 77.4,37.1 76.2,37.1 C75.5,37.1 75,37 74.3,37 C74.1,37 73.4,36.9 73.4,37.3 C73.4,37.4 73.6,37.5 73.7,37.5 C74.5,37.7 74.7,37.8 75,38.6 L79.6,49 C79.9,49.8 80.2,49.9 80.3,49.9 C80.5,49.9 80.6,49.8 80.7,49.3 L86.2,38.4 L86.2,38.4 L86.2,38.4 Z"></path>
                        <path d="M103.1,38.9 C103.1,37.7 103.2,37.7 105.5,37.7 C109.1,37.7 107.6,39.8 108.5,39.8 C108.9,39.8 108.8,39.2 108.8,39 L108.7,37.1 C108.7,37 108.6,36.8 108.4,36.8 C106.7,36.8 105.5,36.9 104.1,36.9 C101.3,36.9 100,36.8 99.2,36.8 C99,36.8 98.8,36.9 98.8,37.1 C98.8,37.8 100.9,37.2 100.9,38.9 L100.9,47.3 C100.9,49.5 99.4,48.5 99.4,49.3 C99.4,49.4 99.5,49.5 99.7,49.5 C100.7,49.5 101.5,49.4 102.1,49.4 C103,49.4 104.1,49.5 106.9,49.5 C108.5,49.5 109.5,48 109.5,46.6 C109.5,46.3 109.4,46.2 109.3,46.2 C108.6,46.2 108.9,48.6 104.3,48.6 C103,48.6 103.1,47.9 103.1,46.8 L103.1,44.6 C103.1,43.6 103,43.4 103.9,43.4 L105.2,43.4 C107.1,43.4 106.7,45.3 107.2,45.3 C107.6,45.3 107.5,44.6 107.5,44.4 L107.4,41.3 C107.4,40.9 107.2,40.9 107.1,40.9 C106.8,40.9 106.7,42.6 105.1,42.6 L104,42.6 C103.2,42.6 103.2,42.5 103.2,41.7 L103.2,38.9 L103.1,38.9 L103.1,38.9 Z"></path>
                        <path d="M125.4,38.6 C125.4,37.5 126,37.5 126.6,37.5 C128.5,37.5 129.5,38.8 129.5,40.6 C129.5,41.6 129.4,42.6 126.6,42.6 C126,42.6 125.4,42.6 125.4,42.2 L125.4,38.6 L125.4,38.6 L125.4,38.6 Z M123.2,46.9 C123.2,49.1 121.7,48.6 121.7,49.1 C121.7,49.4 122,49.4 122.3,49.4 C123.2,49.4 124.2,49.3 125.1,49.3 C125.9,49.3 126.3,49.4 126.7,49.4 C127.1,49.4 127.3,49.3 127.3,49.2 C127.3,48.5 125.5,49.3 125.5,47.4 L125.5,44.3 C125.5,43.6 125.4,43.5 126.4,43.5 C127.3,43.5 127.6,43.6 128.1,44.4 L129.7,47.2 C130.3,48.2 130.8,49.3 132.3,49.3 C133.1,49.3 134.3,48.9 134.3,48.4 C134.3,48.3 134.2,48.2 134.1,48.2 C133.9,48.2 133.8,48.3 133.5,48.3 C133.4,48.3 133.1,48.3 132.8,48 C131.5,45.8 129.9,43.2 129.9,43.1 C129.9,42.9 130.5,42.8 131,42.3 C131.6,41.9 132.1,41.2 132.1,40.1 C132.1,39.3 131.8,36.7 127.6,36.7 C126.4,36.7 125.1,36.8 123.9,36.8 C122.8,36.8 122.6,36.7 121.8,36.7 C121.6,36.7 121.4,36.8 121.4,36.9 C121.4,37.6 123.4,36.9 123.4,38.9 L123.4,46.9 L123.2,46.9 L123.2,46.9 Z"></path>
                        <path d="M146.9,48.2 C147,48.6 147,48.8 147.5,48.9 C148.6,49.1 149.5,49.6 150.6,49.6 C153.1,49.6 154.7,48 154.7,45.7 C154.7,43.5 153.5,42.7 151.5,41.8 C149,40.8 148,40.5 148,39.3 C148,38.1 148.8,37.4 150,37.4 C153.1,37.4 153.5,40.8 153.9,40.8 C154.3,40.8 154.3,40.6 154.3,40.2 L154.1,37.8 C154.1,37.4 154.1,37.1 153.9,37.1 C153.7,37.1 153.2,37.4 153,37.4 C152.4,37.4 151.7,36.7 150.2,36.7 C148.1,36.7 146.5,38.2 146.5,40.3 C146.5,42.2 147.6,42.9 149.2,43.5 C152.2,44.7 153.3,45 153.3,46.5 C153.3,48 152.2,48.7 150.7,48.7 C148.7,48.7 147.5,47 146.9,45.3 C146.8,45.1 146.8,44.9 146.5,44.9 C146.1,44.9 146.3,45.5 146.3,45.7 L146.9,48.2 L146.9,48.2 L146.9,48.2 Z"></path>
                        <path d="M171.5,38.7 C171.5,37 172.8,37.7 172.8,37 C172.8,36.8 172.7,36.8 172.1,36.8 C171.1,36.8 170.4,36.9 169.7,36.9 C169,36.9 168.4,36.8 167.6,36.8 C167.5,36.8 166.9,36.8 166.9,37 C166.9,37.7 169,37.1 169,38.8 L169,47.4 C169,49.1 167.7,48.6 167.7,49.3 C167.7,49.4 167.7,49.5 167.9,49.5 C168.3,49.5 169.1,49.4 170,49.4 C171.5,49.4 172.1,49.5 172.8,49.5 C173.2,49.5 173.4,49.4 173.4,49.3 C173.4,48.7 171.3,49.5 171.3,47.4 L171.3,38.7 L171.5,38.7 L171.5,38.7 Z"></path>
                        <path d="M190.4,47.1 C190.4,49.2 188.3,48.3 188.3,49.1 C188.3,49.5 188.6,49.4 189,49.4 C189.8,49.4 190.3,49.3 191.6,49.3 C192.8,49.3 193.5,49.4 194.2,49.4 C194.8,49.4 195.1,49.4 195.1,49.1 C195.1,48.7 192.7,49.1 192.7,46.9 L192.7,38.8 C192.7,37.9 192.9,37.9 193.6,37.9 L195.2,37.9 C197.3,37.8 196.8,39.8 197.4,39.8 C197.8,39.8 197.6,39.1 197.6,38.9 L197.4,37.2 C197.4,37 197.4,36.8 197.1,36.8 C195.4,36.8 194.2,36.9 191.4,36.9 C188.6,36.9 187.5,36.8 185.7,36.8 C185.4,36.8 185.4,37 185.4,37.2 L185.1,39.6 C185.1,39.8 185,40.3 185.3,40.3 C186.1,40.3 185.5,37.9 187.7,37.9 L189.3,37.9 C190.1,37.9 190.2,38 190.2,38.8 L190.2,47.1 L190.4,47.1 L190.4,47.1 Z"></path>
                        <path d="M214.2,43.7 C214.4,44.1 214.5,44.3 214.5,44.8 L214.5,47.2 C214.5,49.4 212.5,48.5 212.5,49.3 C212.5,49.4 212.7,49.5 212.9,49.5 C213.5,49.5 213.9,49.4 215.6,49.4 C218,49.4 218.2,49.5 218.4,49.5 C218.7,49.5 219,49.5 219,49.3 C219,48.4 216.8,49.6 216.8,47.4 L216.8,44.7 C216.8,44 216.8,43.9 217,43.6 L219.5,39.1 C220.6,37.1 221.4,37.5 221.4,37 C221.4,36.9 221.3,36.8 221.1,36.8 C220.5,36.8 220.4,36.9 219,36.9 C218,36.9 217.7,36.8 217.4,36.8 C217.1,36.8 217.1,36.9 217.1,37 C217.1,37.6 218.9,37.1 218.9,38.3 C218.9,38.4 218.9,38.6 218.6,39.3 L216.9,42.2 C216.7,42.6 216.6,42.8 216.5,42.8 C216.4,42.8 216.3,42.6 215.9,42 L214.2,38.6 C214,38.2 214,37.9 214,37.8 C214,37.2 215,37.4 215,36.9 C215,36.8 215,36.7 214.7,36.7 C213.6,36.8 212.8,36.8 212,36.8 C211.1,36.8 210.7,36.7 210.3,36.7 C209.9,36.7 209.6,36.7 209.6,36.9 C209.6,37.5 210.7,37 211.5,38.4 L214.2,43.7 L214.2,43.7 L214.2,43.7 Z"></path>
                        <path d="M8.5,5.6 C8.5,3.5 8.6,2.1 11.1,2.1 C14.5,2.1 17.2,4.5 17.2,7.8 C17.2,10.5 16.1,11.9 13.3,11.9 L11,11.9 C8.9,11.7 8.5,11.6 8.5,9.8 L8.5,5.6 L8.5,5.6 L8.5,5.6 Z M3.9,22.2 C3.9,25.8 0.7,24.8 0.7,26 C0.7,26.6 1,26.6 1.9,26.6 C2.7,26.6 3.7,26.5 4.6,26.5 C6.5,26.5 8.3,26.6 13.9,26.6 C20,26.6 23.4,23.5 23.4,18.6 C23.4,15.4 21.9,13.3 17.5,12.2 L17.5,12.1 C20.2,11.2 21.5,9.2 21.5,6.9 C21.5,6 21.5,0.6 12.3,0.6 C9.2,0.5 6,0.6 2.9,0.6 C1.1,0.6 0.9,0.5 0.7,0.5 C0.5,0.5 0,0.6 0,1.1 C0,2.9 3.9,0.9 3.9,5.9 L3.9,22.2 L3.9,22.2 L3.9,22.2 Z M8.5,16.5 C8.5,14.6 8.6,13.7 10.7,13.7 C17.5,13.7 18.5,16.9 18.5,19.2 C18.5,22.8 16.6,25.1 12.9,25.1 C9.3,25.1 8.3,24.1 8.3,20.6 L8.3,16.5 L8.5,16.5 L8.5,16.5 Z"></path>
                        <path d="M31.9,8.9 C31.9,6.1 34.1,7.2 34.1,6.2 C34.1,5.9 34,5.8 33.1,5.8 C31.4,5.8 30.3,5.9 29.3,5.9 C28.3,5.9 27.1,5.8 25.9,5.8 C25.7,5.8 24.9,5.7 24.9,6.2 C24.9,7.2 28.3,6.4 28.3,9.1 L28.3,23.2 C28.3,26 26.2,25.2 26.2,26.2 C26.2,26.3 26.3,26.5 26.5,26.5 C27.3,26.5 28.5,26.4 29.9,26.4 C32.3,26.4 33.4,26.5 34.4,26.5 C35.1,26.5 35.4,26.4 35.4,26.1 C35.4,25.2 32,26.5 32,22.9 L32,8.9 L31.9,8.9 L31.9,8.9 Z"></path>
                        <path d="M38.9,22.6 C38.9,25.6 36,25.1 36,26.2 C36,26.6 36.6,26.5 36.9,26.5 C37.7,26.5 38.5,26.4 39.5,26.4 C40.5,26.4 41.5,26.5 43,26.5 C43.3,26.5 44.1,26.5 44.1,26.2 C44.1,24.9 40.3,26.9 40.3,21.2 L40.3,11.2 C40.4,11 40.5,10.8 40.6,10.8 C40.7,10.8 40.9,10.9 41.2,11.1 L55.5,26.5 C55.7,26.7 55.8,26.9 56.3,26.9 C56.6,26.9 56.6,26.7 56.6,26 L56.6,9.4 C56.6,6.4 59.2,7 59.2,6.2 C59.2,6.1 59.2,5.9 58.6,5.9 C58.4,5.9 57.3,6 55.5,6 C53.5,6 52.6,5.9 52.1,5.9 C51.7,5.8 51.5,6.1 51.5,6.2 C51.5,7.2 55.1,6.6 55.1,9.3 L55.1,19 C55.1,19.8 55,20.1 54.9,20.1 C54.7,20.1 54.3,19.8 54,19.3 L42,6.5 C41.4,5.9 41.8,5.7 40.9,5.7 C39.3,5.7 38.5,5.8 37.8,5.8 C37.2,5.8 36.7,5.7 36.1,5.7 C35.8,5.7 35.5,5.9 35.5,6.1 C35.5,7.6 38.9,5.7 38.9,11.3 L38.9,22.6 L38.9,22.6 L38.9,22.6 Z"></path>
                        <path d="M80.2,7.6 C80.2,7.2 80.2,6.5 79.8,6.5 C79.4,6.5 79.2,7.3 78.6,7.3 C77.8,7.3 75.2,5.4 71.1,5.4 C63.6,5.4 60.6,11.9 60.6,16.8 C60.6,19.2 61.9,26.7 70.7,26.7 C73.9,26.7 77.3,25.4 80.1,23.8 C80.3,23.7 80.4,23.5 80.4,23 C80.4,22.6 80.3,21.8 80.3,20.5 C80.3,16.7 82.3,18.4 82.3,17 C82.3,16.7 82.1,16.6 82,16.6 C80.9,16.6 79.9,16.7 78.8,16.7 C77.3,16.7 76,16.6 74.7,16.6 C74.1,16.6 73.2,16.4 73.2,17.2 C73.2,18.3 76.8,16.3 76.8,20.9 C76.8,22.6 76.7,25 71.3,25 C66.5,25 64.4,19.6 64.4,15.7 C64.4,8.3 68.3,6.5 71.1,6.5 C78.9,6.5 78.9,12.9 79.6,12.9 C80.2,12.9 80.4,12.8 80.4,12.3 L80.4,7.6 L80.2,7.6 L80.2,7.6 Z"></path>
                        <path d="M104.1,8.9 C104.1,6 106.2,7.3 106.2,6.2 C106.2,6 106.1,5.9 105.5,5.9 C104.3,5.9 103.1,6 101.6,6 C99.8,6 99,5.9 97.8,5.9 C97.4,5.9 97.1,5.8 97.1,6.3 C97.1,7.2 100.3,6.1 100.3,9.3 L100.3,13.4 C100.3,14.1 100.1,14.7 99.3,14.7 L90.4,14.7 C89.7,14.7 89.6,14.4 89.6,13.6 L89.6,8.8 C89.6,6.2 91.8,7 91.8,6.1 C91.8,5.8 91.6,5.7 91.1,5.7 C90.2,5.7 89.1,5.8 87.3,5.8 C85.7,5.8 84.8,5.7 83.9,5.7 C83.3,5.7 82.4,5.7 82.4,6.1 C82.4,7.2 85.8,5.9 85.8,9.1 L85.8,22.2 C85.8,25.8 83.2,24.8 83.2,25.9 C83.2,26.2 83.5,26.3 83.9,26.3 C85.4,26.3 86.6,26.2 87.9,26.2 C90,26.2 91,26.3 92.3,26.3 C93.3,26.3 93.2,26.1 93.2,25.9 C93.2,24.9 89.5,25.9 89.5,22.3 L89.5,17.7 C89.5,16.4 89.6,16.1 91,16.1 L99,16.1 C100.3,16.1 100.2,16.4 100.2,17.7 L100.2,23 C100.2,25.8 98.1,25 98.1,26 C98.1,26.2 98.3,26.3 98.7,26.3 C100.3,26.3 101.4,26.2 102.5,26.2 C103.7,26.2 105.5,26.3 106.4,26.3 C106.7,26.3 107.1,26.3 107.1,26 C107.1,24.9 104,25.9 104,22.2 L104.1,8.9 L104.1,8.9 L104.1,8.9 Z"></path>
                        <path d="M115.3,17.7 C114.7,17.7 114.3,17.7 114.3,17.5 C114.3,17.1 114.5,16.7 114.6,16.4 L116.8,11.2 C116.9,10.9 117,10.9 117.1,10.9 C117.2,10.9 117.2,10.9 117.3,11.1 L119.8,16.4 C119.9,16.7 120.1,17.1 120.1,17.5 C120.1,17.8 119.7,17.7 119.1,17.7 L115.3,17.7 L115.3,17.7 L115.3,17.7 Z M120.2,19.3 C121,19.3 121.1,19.6 122.1,21.9 C122.4,22.7 122.7,23.2 122.7,23.9 C122.7,25.7 120.6,25.4 120.6,26.3 C120.6,26.7 120.9,26.6 121.5,26.6 C122.4,26.6 123.5,26.5 124.7,26.5 C126.7,26.5 127.5,26.6 128.5,26.6 C129.3,26.6 129.6,26.7 129.6,26.2 C129.6,25.2 128,26.4 127,24.3 L119,6.3 C118.7,5.4 118.6,5.4 118.3,5.4 C118,5.4 117.7,6 117.5,6.4 L109.4,24.1 C108.6,25.8 107.2,25.6 107.2,26.2 C107.2,26.5 107.6,26.5 108.1,26.5 C109,26.5 109.8,26.4 110.7,26.4 C111.7,26.4 112.5,26.5 113.5,26.5 C114.2,26.5 115.1,26.7 115.1,26.1 C115.1,25.3 111.9,25.8 111.9,23.6 C111.9,22.9 112.3,21.9 112.6,21.2 C113.3,19.3 113.9,19.2 114.4,19.2 L120.2,19.2 L120.2,19.3 L120.2,19.3 Z"></path>
                        <path d="M134.4,13.4 C134.4,13.2 134.4,12.6 134.6,12.6 C134.7,12.6 134.8,12.9 134.9,13 L140.7,25.7 C140.8,26 141,26.5 141.5,26.5 C142,26.5 142.1,26.1 142.3,25.7 L147.9,14.2 C148.3,13.2 148.7,12.6 148.8,12.6 C149,12.6 149,13 149,13.9 L149.4,22.8 C149.6,26 147.3,25 147.3,26 C147.3,26.6 148.1,26.4 148.6,26.4 C149.3,26.4 149.9,26.3 152,26.3 C152.9,26.3 153.7,26.4 154.6,26.4 C155.6,26.4 156.1,26.4 156.1,26 C156.1,24.9 153.4,26.2 153.2,22.4 L152.6,9.4 C152.5,6 155.4,7.2 155.4,6.2 C155.4,6 155.3,5.9 154.5,5.9 C153.7,5.9 153.2,6 152.6,6 C152.2,6 151.6,5.9 150.9,5.9 C150.3,5.9 150.2,6.2 150.1,6.5 L143.2,20.7 C143.2,20.8 142.9,21.3 142.8,21.3 C142.6,21.3 142.6,21.1 142.5,20.9 L135.9,6.8 C135.5,5.9 135.2,5.9 134.9,5.9 C133.9,5.9 132.8,6 132.1,6 C131.1,6 130.6,5.9 130.3,5.9 C130.1,5.9 130,6.1 130,6.3 C130,7.6 133.1,6.2 133,11 L132.6,22.8 C132.5,25.8 130,25.2 130,26.2 C130,26.4 130.1,26.6 130.6,26.6 C131.1,26.6 132.1,26.5 133.5,26.5 C134.8,26.5 135.5,26.6 136.5,26.6 C137.3,26.6 137.2,26.3 137.2,26.2 C137.2,25 134,26.6 134.1,21.7 L134.4,13.4 L134.4,13.4 L134.4,13.4 Z"></path>
                        <path d="M164.7,22.7 C164.7,26.2 161.3,24.8 161.3,25.9 C161.3,26.6 161.9,26.5 162.3,26.5 C163.5,26.5 164.4,26.4 166.4,26.4 C168.4,26.4 169.4,26.5 170.5,26.5 C171.4,26.5 172,26.6 172,25.9 C172,25.1 168.2,25.9 168.2,22.3 L168.2,9.1 C168.2,7.6 168.5,7.5 169.8,7.5 L172.4,7.5 C175.9,7.4 174.9,10.6 176.1,10.6 C176.9,10.6 176.5,9.5 176.4,9.1 L176.1,6.4 C176.1,6.1 176.1,5.7 175.7,5.7 C172.9,5.7 170.9,5.8 166.6,5.8 C162.2,5.8 160.2,5.7 157.5,5.7 C157.1,5.7 157.1,6.1 157.1,6.4 L156.7,10.3 C156.6,10.6 156.5,11.3 157,11.3 C158.3,11.3 157.4,7.5 160.8,7.5 L163.3,7.5 C164.5,7.5 164.9,7.6 164.9,9.1 L164.9,22.5 L164.7,22.5 L164.7,22.7 Z"></path>
                        <path d="M177.5,16.8 C177.5,22.7 181.5,26.7 187.5,26.7 C197,26.7 198.8,19.5 198.8,15.4 C198.8,9.2 194.3,5.4 188.5,5.4 C181.5,5.5 177.5,10.3 177.5,16.8 L177.5,16.8 L177.5,16.8 Z M181.2,15.2 C181.2,10.9 182.7,6.9 187.7,6.8 C191.5,6.7 195.2,10.2 195.2,16.7 C195.2,21.5 193.5,25.6 188.4,25.6 C183.1,25.6 181.2,19.4 181.2,15.2 L181.2,15.2 L181.2,15.2 Z"></path>
                        <path d="M203.1,22.6 C203.1,25.6 200.2,25.1 200.2,26.2 C200.2,26.6 200.8,26.5 201.1,26.5 C201.9,26.5 202.7,26.4 203.7,26.4 C204.7,26.4 205.7,26.5 207.2,26.5 C207.5,26.5 208.3,26.5 208.3,26.2 C208.3,24.9 204.5,26.9 204.5,21.2 L204.5,11.2 C204.5,11 204.6,10.8 204.7,10.8 C204.8,10.8 205,10.9 205.3,11.1 L219.8,26.5 C220,26.7 220.1,26.9 220.6,26.9 C220.9,26.9 220.9,26.7 220.9,26 L220.9,9.4 C220.9,6.4 223.5,7 223.5,6.2 C223.5,6.1 223.5,5.9 222.9,5.9 C222.7,5.9 221.6,6 219.8,6 C217.8,6 216.9,5.9 216.4,5.9 C216.1,5.9 216,6.2 216,6.3 C216,7.3 219.6,6.7 219.6,9.4 L219.6,19.1 C219.6,19.9 219.5,20.2 219.4,20.2 C219.2,20.2 218.8,19.9 218.5,19.4 L206.4,6.4 C205.8,5.8 206.2,5.6 205.3,5.6 C203.7,5.6 202.9,5.7 202.2,5.7 C201.6,5.7 201.1,5.6 200.5,5.6 C200.2,5.6 199.9,5.8 199.9,6 C199.9,7.5 203.3,5.6 203.3,11.2 L203.3,22.6 L203.1,22.6 L203.1,22.6 Z"></path>
                    </g>
                    <g transform="translate(12.000000, 62.000000)">
                        <path d="M3.5,2.2 C3.4,1.4 2.9,1 2.3,1 C1.4,1 1.1,1.6 1.1,2 C1.1,2.4 1.4,2.8 2.1,3 L2.9,3.3 C3.9,3.6 4.5,4.2 4.5,5 C4.5,6 3.6,6.7 2.4,6.7 C1.2,6.7 0.4,6.1 0.3,4.9 L1.1,4.9 C1.2,5.6 1.5,6 2.4,6 C3.1,6 3.6,5.6 3.6,5 C3.6,4.6 3.2,4.2 2.6,4 L1.7,3.7 C0.7,3.4 0.2,2.8 0.2,2 C0.2,0.9 1.2,0.3 2.2,0.3 C3.3,0.3 4.1,0.9 4.2,2.2 L3.5,2.2 L3.5,2.2 Z"></path>
                        <path d="M8.8,1.1 L7.1,1.1 L7.1,0.3 L11.2,0.3 L11.2,1.1 L9.5,1.1 L9.5,6.6 L8.7,6.6 L8.7,1.1 L8.8,1.1 Z"></path>
                        <path d="M17.9,5.2 L14.8,5.2 L14.2,6.7 L13.3,6.7 L16,0.5 L16.8,0.5 L19.5,6.7 L18.6,6.7 L17.9,5.2 L17.9,5.2 Z M16.4,1.5 L15.2,4.5 L17.7,4.5 L16.4,1.5 L16.4,1.5 Z"></path>
                        <path d="M23,1.1 L21.3,1.1 L21.3,0.3 L25.4,0.3 L25.4,1.1 L23.8,1.1 L23.8,6.6 L23,6.6 L23,1.1 L23,1.1 L23,1.1 Z"></path>
                        <path d="M28.7,0.4 L32.2,0.4 L32.2,1.2 L29.6,1.2 L29.6,3.1 L32.2,3.1 L32.2,3.9 L29.6,3.9 L29.6,5.9 L32.2,5.9 L32.2,6.7 L28.7,6.7 L28.7,0.4 L28.7,0.4 Z"></path>
                        <path d="M40.2,0.4 L41,0.4 L41,4.1 C41,5.1 41.6,5.9 42.8,5.9 C43.9,5.9 44.6,5.1 44.6,4.1 L44.6,0.4 L45.4,0.4 L45.4,4.3 C45.4,5.6 44.3,6.7 42.8,6.7 C41.3,6.7 40.2,5.7 40.2,4.3 L40.2,0.4 L40.2,0.4 Z"></path>
                        <path d="M53.4,0.4 L54.2,0.4 L54.2,6.6 L53.4,6.6 L49.8,1.8 L49.8,1.8 L49.8,6.6 L49,6.6 L49,0.4 L49.8,0.4 L53.4,5.2 L53.4,5.2 L53.4,0.4 L53.4,0.4 Z"></path>
                        <path d="M57.9,0.4 L58.7,0.4 L58.7,6.6 L57.9,6.6 L57.9,0.4 L57.9,0.4 Z"></path>
                        <path d="M66.7,0.4 L67.6,0.4 L65.1,6.6 L64.4,6.6 L61.9,0.4 L62.8,0.4 L64.7,5.3 L64.7,5.3 L66.7,0.4 L66.7,0.4 Z"></path>
                        <path d="M70.7,0.4 L74.2,0.4 L74.2,1.2 L71.6,1.2 L71.6,3.1 L74.2,3.1 L74.2,3.9 L71.6,3.9 L71.6,5.9 L74.2,5.9 L74.2,6.7 L70.7,6.7 L70.7,0.4 L70.7,0.4 Z"></path>
                        <path d="M78.4,4 L78.4,6.7 L77.6,6.7 L77.6,0.5 L79.5,0.5 C80.7,0.5 81.7,1.2 81.7,2.4 C81.7,3.5 80.8,4.2 79.7,4.2 L82.3,6.7 L81.1,6.7 L78.4,4 L78.4,4 Z M78.4,3.5 L79.2,3.5 C80.4,3.5 80.9,2.9 80.9,2.3 C80.9,1.6 80.3,1.1 79.4,1.1 L78.4,1.1 C78.4,1 78.4,3.5 78.4,3.5 L78.4,3.5 Z"></path>
                        <path d="M88.6,2.2 C88.5,1.4 88,1 87.4,1 C86.5,1 86.2,1.6 86.2,2 C86.2,2.4 86.5,2.8 87.2,3 L88,3.3 C89,3.6 89.6,4.2 89.6,5 C89.6,6 88.7,6.7 87.5,6.7 C86.3,6.7 85.5,6.1 85.4,4.9 L86.2,4.9 C86.3,5.6 86.6,6 87.5,6 C88.2,6 88.7,5.6 88.7,5 C88.7,4.6 88.3,4.2 87.7,4 L86.8,3.7 C85.8,3.4 85.3,2.8 85.3,2 C85.3,0.9 86.3,0.3 87.3,0.3 C88.4,0.3 89.2,0.9 89.3,2.2 C89.3,2.2 88.6,2.2 88.6,2.2 L88.6,2.2 Z"></path>
                        <path d="M92.9,0.4 L93.7,0.4 L93.7,6.6 L92.9,6.6 L92.9,0.4 L92.9,0.4 Z"></path>
                        <path d="M98.5,1.1 L96.8,1.1 L96.8,0.3 L100.9,0.3 L100.9,1.1 L99.2,1.1 L99.2,6.6 L98.4,6.6 L98.4,1.1 L98.5,1.1 Z"></path>
                        <path d="M108,0.4 L109,0.4 L106.8,4.1 L106.8,6.6 L106,6.6 L106,4.1 L103.8,0.4 L104.8,0.4 L106.5,3.3 L108,0.4 L108,0.4 Z"></path>
                        <path d="M120,0.3 C122.2,0.3 123.5,2 123.5,3.4 C123.5,5 122.3,6.5 120,6.5 C117.7,6.5 116.5,4.8 116.5,3.4 C116.5,2 117.8,0.3 120,0.3 L120,0.3 Z M120,5.9 C121.3,5.9 122.6,4.9 122.6,3.4 C122.6,1.9 121.4,0.9 120,0.9 C118.7,0.9 117.4,1.9 117.4,3.4 C117.4,5 118.7,5.9 120,5.9 L120,5.9 Z"></path>
                        <path d="M127.1,0.4 L130.6,0.4 L130.6,1.2 L128,1.2 L128,3.1 L130.6,3.1 L130.6,3.9 L128,3.9 L128,6.7 L127.2,6.7 L127.2,0.4 L127.1,0.4 L127.1,0.4 Z"></path>
                        <path d="M142.9,0.4 L143.7,0.4 L143.7,6.6 L142.9,6.6 L139.3,1.8 L139.3,1.8 L139.3,6.6 L138.4,6.6 L138.4,0.4 L139.2,0.4 L142.8,5.2 L142.8,5.2 L142.8,0.4 L142.9,0.4 L142.9,0.4 Z"></path>
                        <path d="M147.4,0.4 L150.9,0.4 L150.9,1.2 L148.3,1.2 L148.3,3.1 L150.9,3.1 L150.9,3.9 L148.3,3.9 L148.3,5.9 L150.9,5.9 L150.9,6.7 L147.4,6.7 L147.4,0.4 L147.4,0.4 Z"></path>
                        <path d="M161.5,0.4 L162.4,0.4 L160.4,6.6 L159.7,6.6 L158.1,1.7 L158.1,1.7 L156.5,6.6 L155.8,6.6 L153.8,0.4 L154.7,0.4 L156.2,5.1 L156.2,5.1 L157.8,0.4 L158.6,0.4 L160.2,5.1 L160.2,5.1 L161.5,0.4 L161.5,0.4 Z"></path>
                        <path d="M173.7,0.4 L174.7,0.4 L172.5,4.1 L172.5,6.6 L171.7,6.6 L171.7,4.1 L169.5,0.4 L170.5,0.4 L172.2,3.3 L173.7,0.4 L173.7,0.4 Z"></path>
                        <path d="M180.7,0.3 C182.9,0.3 184.2,2 184.2,3.4 C184.2,5 183,6.5 180.7,6.5 C178.4,6.5 177.2,4.8 177.2,3.4 C177.3,2 178.5,0.3 180.7,0.3 L180.7,0.3 Z M180.7,5.9 C182,5.9 183.3,4.9 183.3,3.4 C183.3,1.9 182.1,0.9 180.7,0.9 C179.3,0.9 178.1,1.9 178.1,3.4 C178.2,5 179.4,5.9 180.7,5.9 L180.7,5.9 Z"></path>
                        <path d="M188.6,4 L188.6,6.7 L187.8,6.7 L187.8,0.5 L189.7,0.5 C190.9,0.5 191.9,1.2 191.9,2.4 C191.9,3.5 191,4.2 189.9,4.2 L192.5,6.7 L191.3,6.7 L188.6,4 L188.6,4 Z M188.6,3.5 L189.4,3.5 C190.6,3.5 191.1,2.9 191.1,2.3 C191.1,1.6 190.5,1.1 189.6,1.1 L188.6,1.1 L188.6,3.5 L188.6,3.5 Z"></path>
                        <path d="M199.2,0.4 L200.3,0.4 L197.3,3.4 L200.3,6.5 L199.1,6.5 L196.4,3.7 L196.4,6.5 L195.6,6.5 L195.6,0.3 L196.4,0.3 L196.4,3.1 L199.2,0.4 L199.2,0.4 Z"></path>
                    </g>
                </g>
                <path d="M241.8,4.5 L241.8,71.4" id="Shape" stroke="#353C47" stroke-width="1.25"></path>
                <g transform="translate(258.000000, 5.000000)" id="Shape" fill="#353C47">
                    <path d="M6.1,2.5 L6.1,13.7 L4.2,13.7 L4.2,2.5 L0.6,2.5 L0.6,0.7 L9.7,0.7 L9.7,2.5 L6.1,2.5 L6.1,2.5 Z"></path>
                    <path d="M17.2,13.7 L17.2,8 C17.2,6.5 16.4,6 15.3,6 C14.3,6 13.4,6.7 13.4,8 L13.4,13.7 L11.5,13.7 L11.5,0.7 L13.4,0.7 L13.4,5.4 C14.1,4.7 14.9,4.4 15.8,4.4 C17.8,4.4 19,5.7 19,7.8 L19,13.7 L17.2,13.7 L17.2,13.7 Z"></path>
                    <path d="M27.9,12.7 C27.3,13.4 26.3,13.8 25.1,13.8 C23.9,13.8 23,13.4 22.3,12.7 C21.4,11.8 21.2,10.6 21.2,9 C21.2,7.4 21.4,6.3 22.3,5.4 C22.9,4.7 23.8,4.3 25.1,4.3 C26.4,4.3 27.2,4.7 27.9,5.4 C28.8,6.3 29,7.5 29,9 C29,10.7 28.8,11.8 27.9,12.7 L27.9,12.7 Z M26.5,6.6 C26.2,6.3 25.7,6 25.2,6 C24.6,6 24.2,6.2 23.9,6.6 C23.3,7.2 23.2,8.2 23.2,9.2 C23.2,10.2 23.3,11.2 23.9,11.8 C24.2,12.1 24.7,12.4 25.2,12.4 C25.8,12.4 26.2,12.2 26.5,11.8 C27.1,11.2 27.2,10.2 27.2,9.2 C27.1,8.1 27.1,7.1 26.5,6.6 L26.5,6.6 Z"></path>
                    <path d="M42.6,13.7 L42.6,8.1 C42.6,6.6 41.8,6.1 40.7,6.1 C39.7,6.1 38.8,6.8 38.8,8.1 L38.8,13.8 L36.9,13.8 L36.9,8.2 C36.9,6.7 36.1,6.2 35,6.2 C33.9,6.2 33.1,6.9 33.1,8.2 L33.1,13.8 L31.2,13.8 L31.2,4.4 L33,4.4 L33,5.3 C33.7,4.6 34.6,4.3 35.5,4.3 C36.6,4.3 37.5,4.7 38.1,5.6 C38.9,4.7 39.8,4.3 41,4.3 C41.9,4.3 42.8,4.6 43.4,5.1 C44.1,5.8 44.4,6.7 44.4,7.7 L44.4,13.6 L42.7,13.6 L42.7,13.7 L42.6,13.7 Z"></path>
                    <path d="M52.1,13.7 L52.1,13 C51.4,13.7 50.8,13.9 49.6,13.9 C48.5,13.9 47.7,13.7 47.1,13.1 C46.7,12.7 46.3,11.9 46.3,11.1 C46.3,9.5 47.4,8.4 49.4,8.4 L51.9,8.4 L51.9,7.7 C51.9,6.6 51.3,6 49.9,6 C48.9,6 48.4,6.2 47.9,6.9 L46.8,5.7 C47.7,4.7 48.6,4.4 50.2,4.4 C52.8,4.4 54,5.5 54,7.5 L54,13.7 L52.1,13.7 L52.1,13.7 L52.1,13.7 Z M52.1,9.6 L50,9.6 C48.9,9.6 48.3,10 48.3,10.9 C48.3,11.8 48.9,12.2 50,12.2 C50.7,12.2 51.2,12.2 51.7,11.6 C51.9,11.4 52.1,10.9 52.1,10.3 L52.1,9.6 L52.1,9.6 Z"></path>
                    <path d="M59.6,13.9 C58,13.9 56.8,13.7 55.7,12.6 L56.9,11.4 C57.7,12.2 58.7,12.4 59.6,12.4 C60.7,12.4 61.6,12 61.6,11.2 C61.6,10.5 61.3,10.2 60.4,10.1 L58.9,10 C57.2,9.9 56.2,9.1 56.2,7.4 C56.2,5.6 57.8,4.6 59.7,4.6 C61,4.6 62.3,4.9 63.2,5.6 L62.1,6.8 C61.5,6.4 60.6,6.1 59.9,6.1 C58.8,6.1 58.2,6.5 58.2,7.3 C58.2,7.9 58.5,8.3 59.4,8.3 L60.9,8.4 C62.6,8.5 63.7,9.4 63.7,11 C63.4,12.8 61.8,13.9 59.6,13.9 L59.6,13.9 Z"></path>
                    <path d="M71.7,13.9 C70.4,13.9 69.5,13.6 68.6,12.7 L69.9,11.4 C70.3,11.8 70.8,12.2 71.7,12.2 C73.2,12.2 74.1,11.3 74.1,9.6 L74.1,0.9 L76.1,0.9 L76.1,9.8 C75.9,12.3 74,13.9 71.7,13.9 L71.7,13.9 Z"></path>
                    <path d="M78.7,13.7 L78.7,11.5 L80.9,11.5 L80.9,13.7 L78.7,13.7 L78.7,13.7 Z"></path>
                    <path d="M98.7,13.7 L97,13.7 L94.3,4.6 L91.7,13.7 L90,13.7 L86.6,0.7 L88.7,0.7 L90.9,10 L93.5,0.7 L95.1,0.7 L97.7,10 L99.9,0.7 L102,0.7 L98.7,13.7 L98.7,13.7 Z"></path>
                    <path d="M107.8,13.7 L107.8,13 C107.1,13.7 106.5,13.9 105.3,13.9 C104.2,13.9 103.4,13.7 102.8,13.1 C102.4,12.7 102,11.9 102,11.1 C102,9.5 103.1,8.4 105.1,8.4 L107.6,8.4 L107.6,7.7 C107.6,6.6 107,6 105.6,6 C104.6,6 104.1,6.2 103.6,6.9 L102.4,5.8 C103.3,4.8 104.2,4.5 105.8,4.5 C108.4,4.5 109.6,5.6 109.6,7.6 L109.6,13.8 L107.8,13.8 L107.8,13.7 Z M107.8,9.6 L105.7,9.6 C104.6,9.6 104,10 104,10.9 C104,11.8 104.6,12.2 105.7,12.2 C106.4,12.2 106.9,12.2 107.4,11.6 C107.6,11.4 107.8,10.9 107.8,10.3 L107.8,9.6 L107.8,9.6 Z"></path>
                    <path d="M115.1,13.7 C113.4,13.7 112.5,12.5 112.5,11.1 L112.5,6.1 L111.5,6.1 L111.5,4.6 L112.5,4.6 L112.5,1.8 L114.4,1.8 L114.4,4.6 L116.2,4.6 L116.2,6.1 L114.4,6.1 L114.4,11.1 C114.4,11.8 114.7,12.2 115.4,12.2 L116.2,12.2 L116.2,13.8 L115.1,13.8 L115.1,13.7 L115.1,13.7 Z"></path>
                    <path d="M121.3,13.9 C119.7,13.9 118.5,13.7 117.4,12.6 L118.6,11.4 C119.4,12.2 120.4,12.4 121.3,12.4 C122.4,12.4 123.3,12 123.3,11.2 C123.3,10.5 123,10.2 122.1,10.1 L120.6,10 C118.9,9.9 117.9,9.1 117.9,7.4 C117.9,5.6 119.5,4.6 121.4,4.6 C122.7,4.6 124,4.9 124.9,5.6 L123.8,6.8 C123.2,6.4 122.3,6.1 121.6,6.1 C120.5,6.1 119.9,6.5 119.9,7.3 C119.9,7.9 120.2,8.3 121.1,8.3 L122.6,8.4 C124.3,8.5 125.4,9.4 125.4,11 C125.1,12.8 123.6,13.9 121.3,13.9 L121.3,13.9 Z"></path>
                    <path d="M133.4,12.7 C132.8,13.4 131.8,13.8 130.6,13.8 C129.4,13.8 128.5,13.4 127.8,12.7 C126.9,11.8 126.7,10.6 126.7,9 C126.7,7.4 126.9,6.3 127.8,5.4 C128.4,4.7 129.3,4.3 130.6,4.3 C131.9,4.3 132.7,4.7 133.4,5.4 C134.3,6.3 134.5,7.5 134.5,9 C134.6,10.7 134.3,11.8 133.4,12.7 L133.4,12.7 Z M132,6.6 C131.7,6.3 131.2,6 130.7,6 C130.1,6 129.7,6.2 129.4,6.6 C128.8,7.2 128.7,8.2 128.7,9.2 C128.7,10.2 128.8,11.2 129.4,11.8 C129.7,12.1 130.2,12.4 130.7,12.4 C131.3,12.4 131.7,12.2 132,11.8 C132.6,11.2 132.7,10.2 132.7,9.2 C132.7,8.2 132.6,7.1 132,6.6 L132,6.6 Z"></path>
                    <path d="M142.5,13.7 L142.5,8.1 C142.5,6.6 141.7,6.1 140.6,6.1 C139.5,6.1 138.7,6.8 138.7,8.1 L138.7,13.7 L136.8,13.7 L136.8,4.4 L138.6,4.4 L138.6,5.3 C139.3,4.6 140.2,4.3 141.1,4.3 C142,4.3 142.8,4.6 143.3,5.1 C144,5.8 144.2,6.7 144.2,7.7 L144.2,13.6 L142.5,13.6 L142.5,13.7 L142.5,13.7 Z"></path>
                    <path d="M5.2,37.9 C3.3,37.9 1.8,37.5 0.6,36.2 L1.9,34.9 C2.8,35.8 3.9,36.1 5.3,36.1 C7,36.1 8,35.3 8,34.1 C8,33.5 7.9,33.1 7.4,32.8 C7.1,32.5 6.7,32.4 5.9,32.2 L4.3,32 C3.3,31.9 2.4,31.4 1.8,31 C1.1,30.4 0.9,29.5 0.9,28.5 C0.9,26.3 2.6,24.7 5.3,24.7 C7,24.7 8.2,25.1 9.3,26.2 L8.1,27.4 C7.3,26.6 6.4,26.4 5.3,26.4 C3.7,26.4 2.9,27.3 2.9,28.4 C2.9,28.8 3,29.3 3.3,29.6 C3.6,29.9 4.2,30.2 4.8,30.2 L6.3,30.4 C7.5,30.6 8.2,30.8 8.8,31.4 C9.5,32.1 9.8,33 9.8,34.1 C9.9,36.5 7.9,37.9 5.2,37.9 L5.2,37.9 Z"></path>
                    <path d="M15.8,37.9 C13.7,37.9 11.7,36.7 11.7,33.2 C11.7,29.7 13.7,28.5 15.8,28.5 C17,28.5 17.9,28.8 18.8,29.8 L17.6,31 C17,30.3 16.6,30.1 15.8,30.1 C15.1,30.1 14.5,30.4 14.1,30.9 C13.7,31.5 13.5,32 13.5,33.1 C13.5,34.2 13.6,34.9 14.1,35.3 C14.5,35.9 15.1,36.1 15.8,36.1 C16.6,36.1 17,35.9 17.6,35.2 L18.8,36.4 C17.9,37.6 17,37.9 15.8,37.9 L15.8,37.9 Z"></path>
                    <path d="M26.4,37.8 L26.4,32.1 C26.4,30.6 25.6,30.1 24.5,30.1 C23.5,30.1 22.6,30.8 22.6,32.1 L22.6,37.8 L20.7,37.8 L20.7,24.8 L22.6,24.8 L22.6,29.5 C23.3,28.8 24.1,28.5 25,28.5 C27,28.5 28.2,29.8 28.2,31.9 L28.2,37.8 L26.4,37.8 L26.4,37.8 Z"></path>
                    <path d="M37.1,36.8 C36.5,37.5 35.5,37.9 34.3,37.9 C33.1,37.9 32.2,37.5 31.5,36.8 C30.6,35.9 30.4,34.7 30.4,33.1 C30.4,31.5 30.6,30.4 31.5,29.5 C32.1,28.8 33,28.4 34.3,28.4 C35.6,28.4 36.4,28.8 37.1,29.5 C38,30.4 38.2,31.6 38.2,33.1 C38.2,34.8 38,35.9 37.1,36.8 L37.1,36.8 Z M35.7,30.7 C35.4,30.4 34.9,30.1 34.4,30.1 C33.9,30.1 33.4,30.3 33.1,30.7 C32.5,31.3 32.4,32.3 32.4,33.3 C32.4,34.3 32.5,35.3 33.1,35.9 C33.4,36.2 33.9,36.5 34.4,36.5 C34.9,36.5 35.4,36.3 35.7,35.9 C36.3,35.3 36.4,34.3 36.4,33.3 C36.4,32.3 36.3,31.2 35.7,30.7 L35.7,30.7 Z"></path>
                    <path d="M46.7,36.8 C46.1,37.5 45.1,37.9 43.9,37.9 C42.7,37.9 41.8,37.5 41.1,36.8 C40.2,35.9 40,34.7 40,33.1 C40,31.5 40.2,30.4 41.1,29.5 C41.7,28.8 42.6,28.4 43.9,28.4 C45.2,28.4 46,28.8 46.7,29.5 C47.6,30.4 47.8,31.6 47.8,33.1 C47.8,34.8 47.6,35.9 46.7,36.8 L46.7,36.8 Z M45.4,30.7 C45.1,30.4 44.6,30.1 44.1,30.1 C43.6,30.1 43.1,30.3 42.8,30.7 C42.2,31.3 42.1,32.3 42.1,33.3 C42.1,34.3 42.2,35.3 42.8,35.9 C43.1,36.2 43.6,36.5 44.1,36.5 C44.6,36.5 45.1,36.3 45.4,35.9 C46,35.3 46.1,34.3 46.1,33.3 C46.1,32.3 45.9,31.2 45.4,30.7 L45.4,30.7 Z"></path>
                    <path d="M52.6,37.8 C50.8,37.8 50,36.6 50,35.2 L50,24.8 L51.9,24.8 L51.9,35.1 C51.9,35.8 52.1,36.2 52.9,36.2 L53.7,36.2 L53.7,37.8 C53.8,37.8 52.6,37.8 52.6,37.8 L52.6,37.8 Z"></path>
                    <path d="M66,36.8 C65.4,37.5 64.4,37.9 63.2,37.9 C62,37.9 61.1,37.5 60.4,36.8 C59.5,35.9 59.3,34.7 59.3,33.1 C59.3,31.5 59.5,30.4 60.4,29.5 C61,28.8 61.9,28.4 63.2,28.4 C64.5,28.4 65.3,28.8 66,29.5 C66.9,30.4 67.1,31.6 67.1,33.1 C67.1,34.8 66.9,35.9 66,36.8 L66,36.8 Z M64.6,30.7 C64.3,30.4 63.8,30.1 63.3,30.1 C62.8,30.1 62.3,30.3 62,30.7 C61.4,31.3 61.3,32.3 61.3,33.3 C61.3,34.3 61.4,35.3 62,35.9 C62.3,36.2 62.8,36.5 63.3,36.5 C63.8,36.5 64.3,36.3 64.6,35.9 C65.2,35.3 65.3,34.3 65.3,33.3 C65.3,32.3 65.2,31.2 64.6,30.7 L64.6,30.7 Z"></path>
                    <path d="M71.6,30.2 L71.6,37.8 L69.7,37.8 L69.7,30.2 L68.7,30.2 L68.7,28.7 L69.7,28.7 L69.7,27.2 C69.7,25.9 70.5,24.6 72.3,24.6 L73.4,24.6 L73.4,26.2 L72.6,26.2 C71.9,26.2 71.6,26.6 71.6,27.3 L71.6,28.6 L73.4,28.6 L73.4,30.1 C73.4,30.2 71.6,30.2 71.6,30.2 L71.6,30.2 Z"></path>
                    <path d="M79.6,37.8 L79.6,24.8 L87.9,24.8 L87.9,26.6 L81.6,26.6 L81.6,30.4 L87,30.4 L87,32.2 L81.6,32.2 L81.6,36.1 L87.9,36.1 L87.9,37.9 L79.6,37.9 L79.6,37.8 L79.6,37.8 Z"></path>
                    <path d="M95.9,37.8 L95.9,32.2 C95.9,30.7 95.1,30.2 94,30.2 C92.9,30.2 92.1,30.9 92.1,32.2 L92.1,37.8 L90.2,37.8 L90.2,28.6 L92,28.6 L92,29.5 C92.7,28.8 93.6,28.5 94.5,28.5 C95.4,28.5 96.2,28.8 96.7,29.3 C97.4,30 97.6,30.9 97.6,31.9 L97.6,37.8 L95.9,37.8 L95.9,37.8 Z"></path>
                    <path d="M103.5,41.6 C102,41.6 101.3,41.3 100.3,40.4 L101.5,39.2 C102.1,39.8 102.6,40 103.5,40 C105.1,40 105.6,38.9 105.6,37.6 L105.6,36.4 C104.9,37.2 104.1,37.4 103.2,37.4 C102.3,37.4 101.5,37.1 101,36.6 C100.1,35.7 100,34.4 100,32.8 C100,31.2 100.1,29.9 101,29 C101.6,28.4 102.3,28.2 103.2,28.2 C104.2,28.2 104.9,28.4 105.7,29.3 L105.7,28.3 L107.5,28.3 L107.5,37.5 C107.4,40.1 106,41.6 103.5,41.6 L103.5,41.6 Z M103.7,30.1 C102,30.1 101.8,31.6 101.8,33 C101.8,34.4 102,35.9 103.7,35.9 C105.4,35.9 105.6,34.4 105.6,33 C105.6,31.6 105.4,30.1 103.7,30.1 L103.7,30.1 Z"></path>
                    <path d="M110.1,26.7 L110.1,24.7 L112.1,24.7 L112.1,26.7 L110.1,26.7 L110.1,26.7 Z M110.2,37.8 L110.2,28.6 L112.1,28.6 L112.1,37.8 L110.2,37.8 L110.2,37.8 Z"></path>
                    <path d="M120.5,37.8 L120.5,32.2 C120.5,30.7 119.7,30.2 118.6,30.2 C117.5,30.2 116.7,30.9 116.7,32.2 L116.7,37.8 L114.8,37.8 L114.8,28.6 L116.6,28.6 L116.6,29.5 C117.3,28.8 118.2,28.5 119.1,28.5 C120,28.5 120.8,28.8 121.3,29.3 C122,30 122.2,30.9 122.2,31.9 L122.2,37.8 L120.5,37.8 L120.5,37.8 Z"></path>
                    <path d="M126.4,33.8 C126.4,35.4 127.2,36.4 128.8,36.4 C129.8,36.4 130.4,36.1 131,35.5 L132.2,36.6 C131.3,37.5 130.4,38.1 128.7,38.1 C126.3,38.1 124.6,36.9 124.6,33.4 C124.6,30.4 126.2,28.7 128.5,28.7 C131,28.7 132.4,30.5 132.4,33.2 L132.4,34 L126.3,34 L126.3,33.8 L126.4,33.8 Z M130.3,31.2 C130,30.5 129.4,30.1 128.5,30.1 C127.6,30.1 126.9,30.5 126.7,31.2 C126.5,31.6 126.5,31.9 126.5,32.4 L130.6,32.4 C130.5,31.9 130.5,31.7 130.3,31.2 L130.3,31.2 Z"></path>
                    <path d="M136,33.8 C136,35.4 136.8,36.4 138.4,36.4 C139.4,36.4 140,36.1 140.6,35.5 L141.8,36.6 C140.9,37.5 140,38.1 138.3,38.1 C135.9,38.1 134.2,36.9 134.2,33.4 C134.2,30.4 135.8,28.7 138.1,28.7 C140.6,28.7 142,30.5 142,33.2 L142,34 L136,34 L136,33.8 L136,33.8 Z M139.9,31.2 C139.6,30.5 139,30.1 138.1,30.1 C137.2,30.1 136.5,30.5 136.3,31.2 C136.1,31.6 136.1,31.9 136.1,32.4 L140.2,32.4 C140.2,31.9 140.2,31.7 139.9,31.2 L139.9,31.2 Z"></path>
                    <path d="M149.5,30.8 C149.1,30.4 148.7,30.1 148.2,30.1 C147.2,30.1 146.4,30.9 146.4,32.2 L146.4,37.8 L144.4,37.8 L144.4,28.6 L146.2,28.6 L146.2,29.6 C146.6,28.9 147.7,28.5 148.7,28.5 C149.6,28.5 150.3,28.7 150.9,29.4 L149.5,30.8 L149.5,30.8 Z"></path>
                    <path d="M152,26.7 L152,24.7 L154,24.7 L154,26.7 L152,26.7 L152,26.7 Z M152.1,37.8 L152.1,28.6 L154,28.6 L154,37.8 L152.1,37.8 L152.1,37.8 Z"></path>
                    <path d="M162.3,37.8 L162.3,32.2 C162.3,30.7 161.5,30.2 160.4,30.2 C159.3,30.2 158.5,30.9 158.5,32.2 L158.5,37.8 L156.6,37.8 L156.6,28.6 L158.4,28.6 L158.4,29.5 C159.1,28.8 160,28.5 160.9,28.5 C161.8,28.5 162.6,28.8 163.1,29.3 C163.8,30 164,30.9 164,31.9 L164,37.8 L162.3,37.8 L162.3,37.8 Z"></path>
                    <path d="M170.1,41.6 C168.6,41.6 167.9,41.3 166.9,40.4 L168.1,39.2 C168.7,39.8 169.2,40 170.1,40 C171.7,40 172.2,38.9 172.2,37.6 L172.2,36.4 C171.5,37.2 170.7,37.4 169.8,37.4 C168.9,37.4 168.1,37.1 167.6,36.6 C166.7,35.7 166.6,34.4 166.6,32.8 C166.6,31.2 166.7,29.9 167.6,29 C168.2,28.4 168.9,28.2 169.8,28.2 C170.8,28.2 171.5,28.4 172.3,29.3 L172.3,28.3 L174.1,28.3 L174.1,37.5 C174,40.1 172.5,41.6 170.1,41.6 L170.1,41.6 Z M170.3,30.1 C168.6,30.1 168.4,31.6 168.4,33 C168.4,34.4 168.6,35.9 170.3,35.9 C172,35.9 172.2,34.4 172.2,33 C172.1,31.6 172,30.1 170.3,30.1 L170.3,30.1 Z"></path>
                    <path d="M6.6,61.9 L6.6,61.1 C5.9,61.8 5.3,62 4.1,62 C3,62 2.2,61.8 1.6,61.2 C1.2,60.8 0.8,60 0.8,59.2 C0.8,57.6 1.9,56.5 3.9,56.5 L6.4,56.5 L6.4,55.8 C6.4,54.7 5.8,54.1 4.4,54.1 C3.4,54.1 2.9,54.3 2.4,55 L1.2,53.9 C2.1,52.9 3,52.6 4.6,52.6 C7.2,52.6 8.4,53.7 8.4,55.7 L8.4,61.9 L6.6,61.9 L6.6,61.9 Z M6.5,57.9 L4.4,57.9 C3.3,57.9 2.7,58.3 2.7,59.2 C2.7,60 3.3,60.5 4.4,60.5 C5.1,60.5 5.6,60.5 6.1,59.9 C6.3,59.7 6.5,59.2 6.5,58.6 L6.5,57.9 L6.5,57.9 Z"></path>
                    <path d="M16.7,61.9 L16.7,56.3 C16.7,54.8 15.9,54.3 14.8,54.3 C13.7,54.3 12.9,55 12.9,56.3 L12.9,61.9 L11,61.9 L11,52.7 L12.8,52.7 L12.8,53.6 C13.5,52.9 14.4,52.6 15.3,52.6 C16.2,52.6 17,52.9 17.5,53.4 C18.2,54.1 18.4,55 18.4,56 L18.4,61.9 C18.3,61.9 16.7,61.9 16.7,61.9 L16.7,61.9 Z"></path>
                    <path d="M26.5,61.9 L26.5,60.9 C25.8,61.7 25,62 24,62 C23.1,62 22.2,61.7 21.8,61.2 C20.9,60.3 20.8,58.7 20.8,57.3 C20.8,55.8 20.9,54.3 21.8,53.4 C22.4,52.8 23.1,52.6 24,52.6 C25,52.6 25.8,52.8 26.5,53.6 L26.5,48.9 L28.4,48.9 L28.4,61.9 C28.4,61.9 26.5,61.9 26.5,61.9 L26.5,61.9 Z M24.6,54.2 C22.9,54.2 22.7,55.7 22.7,57.2 C22.7,58.8 22.9,60.2 24.6,60.2 C26.3,60.2 26.5,58.7 26.5,57.2 C26.5,55.7 26.2,54.2 24.6,54.2 L24.6,54.2 Z"></path>
                    <path d="M43,61.9 L42.1,59.3 L36.9,59.3 L36,61.9 L33.9,61.9 L38.6,48.9 L40.2,48.9 L44.9,61.9 L43,61.9 L43,61.9 Z M39.5,51.8 L37.5,57.5 L41.5,57.5 L39.5,51.8 L39.5,51.8 Z"></path>
                    <path d="M53.1,61.3 C52.5,61.9 51.8,62.1 50.9,62.1 C49.9,62.1 49.1,61.9 48.4,61.1 L48.4,65.8 L46.5,65.8 L46.5,52.8 L48.3,52.8 L48.3,53.8 C49,53 49.8,52.7 50.8,52.7 C51.7,52.7 52.6,53 53,53.5 C53.9,54.4 54,56 54,57.4 C54.1,58.7 54,60.2 53.1,61.3 L53.1,61.3 Z M50.3,54.2 C48.6,54.2 48.4,55.7 48.4,57.2 C48.4,58.8 48.6,60.2 50.3,60.2 C52,60.2 52.2,58.7 52.2,57.2 C52.2,55.7 52,54.2 50.3,54.2 L50.3,54.2 Z"></path>
                    <path d="M62.9,61.3 C62.3,61.9 61.6,62.1 60.7,62.1 C59.7,62.1 58.9,61.9 58.2,61.1 L58.2,65.8 L56.3,65.8 L56.3,52.8 L58.1,52.8 L58.1,53.8 C58.8,53 59.6,52.7 60.6,52.7 C61.5,52.7 62.4,53 62.8,53.5 C63.7,54.4 63.8,56 63.8,57.4 C64,58.7 63.8,60.2 62.9,61.3 L62.9,61.3 Z M60.3,54.2 C58.6,54.2 58.4,55.7 58.4,57.2 C58.4,58.8 58.6,60.2 60.3,60.2 C62,60.2 62.2,58.7 62.2,57.2 C62.2,55.7 61.9,54.2 60.3,54.2 L60.3,54.2 Z"></path>
                    <path d="M68.8,61.9 C67,61.9 66.2,60.7 66.2,59.3 L66.2,48.9 L68.1,48.9 L68.1,59.2 C68.1,59.9 68.3,60.3 69.1,60.3 L69.9,60.3 L69.9,61.9 L68.8,61.9 L68.8,61.9 Z"></path>
                    <path d="M71.8,50.8 L71.8,48.8 L73.8,48.8 L73.8,50.8 L71.8,50.8 L71.8,50.8 Z M71.8,61.9 L71.8,52.7 L73.7,52.7 L73.7,61.9 L71.8,61.9 L71.8,61.9 Z"></path>
                    <path d="M77.9,57.9 C77.9,59.5 78.7,60.5 80.3,60.5 C81.3,60.5 81.9,60.2 82.5,59.6 L83.7,60.7 C82.8,61.6 81.9,62.2 80.2,62.2 C77.8,62.2 76.1,61 76.1,57.5 C76.1,54.5 77.7,52.8 80,52.8 C82.5,52.8 83.9,54.6 83.9,57.3 L83.9,58.1 L77.8,58.1 L77.8,57.9 L77.9,57.9 Z M81.7,55.3 C81.4,54.6 80.8,54.2 79.9,54.2 C79,54.2 78.3,54.6 78.1,55.3 C77.9,55.7 77.9,56 77.9,56.5 L82,56.5 C81.9,56 81.9,55.8 81.7,55.3 L81.7,55.3 Z"></path>
                    <path d="M91.4,61.9 L91.4,60.9 C90.7,61.7 89.9,62 88.9,62 C88,62 87.1,61.7 86.7,61.2 C85.8,60.3 85.7,58.7 85.7,57.3 C85.7,55.8 85.8,54.3 86.7,53.4 C87.3,52.8 88,52.6 88.9,52.6 C89.9,52.6 90.7,52.8 91.4,53.6 L91.4,48.9 L93.3,48.9 L93.3,61.9 C93.3,61.9 91.4,61.9 91.4,61.9 L91.4,61.9 Z M89.4,54.2 C87.7,54.2 87.5,55.7 87.5,57.2 C87.5,58.8 87.7,60.2 89.4,60.2 C91.1,60.2 91.3,58.7 91.3,57.2 C91.3,55.7 91.1,54.2 89.4,54.2 L89.4,54.2 Z"></path>
                    <path d="M103.8,62 C101.9,62 100.4,61.6 99.2,60.3 L100.5,59 C101.4,59.9 102.5,60.2 103.9,60.2 C105.6,60.2 106.6,59.4 106.6,58.2 C106.6,57.6 106.5,57.2 106,56.9 C105.7,56.6 105.3,56.5 104.5,56.3 L102.9,56.1 C101.9,56 101,55.5 100.4,55.1 C99.7,54.5 99.5,53.6 99.5,52.6 C99.5,50.4 101.2,48.8 103.9,48.8 C105.6,48.8 106.8,49.2 107.9,50.3 L106.7,51.5 C105.9,50.7 105,50.5 103.9,50.5 C102.3,50.5 101.5,51.4 101.5,52.5 C101.5,52.9 101.6,53.4 101.9,53.7 C102.2,54 102.8,54.3 103.4,54.3 L104.9,54.5 C106.1,54.7 106.8,54.9 107.4,55.5 C108.1,56.2 108.4,57.1 108.4,58.2 C108.4,60.6 106.5,62 103.8,62 L103.8,62 Z"></path>
                    <path d="M114.4,62 C112.3,62 110.3,60.8 110.3,57.3 C110.3,53.8 112.3,52.6 114.4,52.6 C115.6,52.6 116.5,52.9 117.4,53.9 L116.2,55.1 C115.6,54.4 115.2,54.2 114.4,54.2 C113.7,54.2 113.1,54.5 112.7,55 C112.3,55.6 112.1,56.1 112.1,57.2 C112.1,58.3 112.2,59 112.7,59.4 C113.1,60 113.7,60.2 114.4,60.2 C115.2,60.2 115.6,60 116.2,59.3 L117.4,60.5 C116.5,61.7 115.6,62 114.4,62 L114.4,62 Z"></path>
                    <path d="M119.3,50.8 L119.3,48.8 L121.3,48.8 L121.3,50.8 L119.3,50.8 L119.3,50.8 Z M119.4,61.9 L119.4,52.7 L121.3,52.7 L121.3,61.9 L119.4,61.9 L119.4,61.9 Z"></path>
                    <path d="M125.4,57.9 C125.4,59.5 126.2,60.5 127.8,60.5 C128.8,60.5 129.4,60.2 130,59.6 L131.2,60.7 C130.3,61.6 129.4,62.2 127.7,62.2 C125.3,62.2 123.6,61 123.6,57.5 C123.6,54.5 125.2,52.8 127.5,52.8 C130,52.8 131.4,54.6 131.4,57.3 L131.4,58.1 L125.3,58.1 L125.3,57.9 L125.4,57.9 Z M129.3,55.3 C129,54.6 128.4,54.2 127.5,54.2 C126.6,54.2 125.9,54.6 125.7,55.3 C125.5,55.7 125.5,56 125.5,56.5 L129.6,56.5 C129.5,56 129.5,55.8 129.3,55.3 L129.3,55.3 Z"></path>
                    <path d="M139.3,61.9 L139.3,56.3 C139.3,54.8 138.5,54.3 137.4,54.3 C136.3,54.3 135.5,55 135.5,56.3 L135.5,61.9 L133.6,61.9 L133.6,52.7 L135.4,52.7 L135.4,53.6 C136.1,52.9 137,52.6 137.9,52.6 C138.8,52.6 139.6,52.9 140.1,53.4 C140.8,54.1 141,55 141,56 L141,61.9 C140.9,61.9 139.3,61.9 139.3,61.9 L139.3,61.9 Z"></path>
                    <path d="M147.4,62 C145.3,62 143.3,60.8 143.3,57.3 C143.3,53.8 145.3,52.6 147.4,52.6 C148.6,52.6 149.5,52.9 150.4,53.9 L149.2,55.1 C148.6,54.4 148.2,54.2 147.4,54.2 C146.7,54.2 146.1,54.5 145.7,55 C145.3,55.6 145.1,56.1 145.1,57.2 C145.1,58.3 145.2,59 145.7,59.4 C146.1,60 146.7,60.2 147.4,60.2 C148.2,60.2 148.6,60 149.2,59.3 L150.4,60.5 C149.7,61.7 148.8,62 147.4,62 L147.4,62 Z"></path>
                    <path d="M153.5,57.9 C153.5,59.5 154.3,60.5 155.9,60.5 C156.9,60.5 157.5,60.2 158.1,59.6 L159.3,60.7 C158.4,61.6 157.5,62.2 155.8,62.2 C153.4,62.2 151.7,61 151.7,57.5 C151.7,54.5 153.3,52.8 155.6,52.8 C158.1,52.8 159.5,54.6 159.5,57.3 L159.5,58.1 L153.4,58.1 L153.4,57.9 L153.5,57.9 Z M157.4,55.3 C157.1,54.6 156.5,54.2 155.6,54.2 C154.7,54.2 154,54.6 153.8,55.3 C153.6,55.7 153.6,56 153.6,56.5 L157.7,56.5 C157.6,56 157.6,55.8 157.4,55.3 L157.4,55.3 Z"></path>
                </g>
            </g>
        </g>
    </g>
</svg>