<?xml version="1.0" encoding="UTF-8" standalone="no"?>
<svg width="100px" height="100px" viewBox="0 0 100 100" version="1.1" xmlns="http://www.w3.org/2000/svg" xmlns:xlink="http://www.w3.org/1999/xlink" xmlns:sketch="http://www.bohemiancoding.com/sketch/ns">
    <!-- Generator: Sketch 3.5.1 (25234) - http://www.bohemiancoding.com/sketch -->
    <title>General_Electric_logo</title>
    <desc>Created with Sketch.</desc>
    <defs></defs>
    <g id="Page-1" stroke="none" stroke-width="1" fill="none" fill-rule="evenodd" sketch:type="MSPage">
        <g id="General_Electric_logo" sketch:type="MSLayerGroup">
            <g id="#fefffeff" transform="translate(2.409639, 2.409639)" fill="#FEFFFE" sketch:type="MSShapeGroup">
                <path d="M43.8162651,0.186746988 C52.8704819,-0.551204819 62.1295181,1.45481928 70.0813253,5.8373494 C83.6415663,13.1445783 93.25,27.3975904 94.6144578,42.7801205 C95.6415663,52.2590361 93.6174699,62.0271084 89.0060241,70.3644578 C84.3915663,78.7620482 77.1716867,85.7168675 68.5783133,89.9698795 C61.8343373,93.3704819 54.2439759,95.0873494 46.689759,94.9216867 C36.3433735,94.8343373 26.0993976,91.1325301 18,84.7078313 C11.0301205,79.1777108 5.63855422,71.6837349 2.68674699,63.2831325 C-1.91566265,50.3644578 -0.560240964,35.4307229 6.46084337,23.6295181 C11.1746988,15.4487952 18.4427711,8.79216867 26.9427711,4.69578313 C32.2259036,2.1686747 37.9728916,0.605421687 43.8162651,0.186746988 L43.8162651,0.186746988 Z M35.4277108,4.69578313 C27.2620482,6.90060241 19.6385542,11.7048193 14.7951807,18.7228916 C11.5331325,23.3373494 9.65662651,28.8012048 8.69277108,34.3313253 C8.23493976,37.7831325 8.04518072,41.5481928 9.77108434,44.7018072 C10.5692771,46.2680723 11.9638554,47.4518072 12.6506024,49.0783133 C13.3042169,50.5210843 12.8403614,52.4728916 11.4337349,53.2951807 C10.1144578,54.2409639 8.25,53.8795181 7.05722892,52.8945783 C5.3373494,51.5451807 4.60843373,49.3433735 4.24096386,47.2650602 C3.51506024,42.5843373 4.45783133,37.8493976 5.65060241,33.3313253 C4.71686747,33.7198795 4.85240964,35.0120482 4.5,35.8313253 C2.46084337,43.7379518 2.47590361,52.189759 4.71084337,60.0542169 C6.82228916,67.5662651 11.1325301,74.5421687 17.3554217,79.3253012 C22.0421687,83.0331325 27.7861446,85.1415663 33.5993976,86.2831325 C37.1054217,86.873494 40.9186747,87.1084337 44.2048193,85.5120482 C45.8343373,84.6957831 47.0542169,83.2740964 48.6506024,82.4096386 C49.9939759,81.7108434 51.7439759,81.939759 52.7951807,83.0481928 C54.0090361,84.2590361 54.0301205,86.3343373 53.0421687,87.689759 C51.9759036,89.1415663 50.2590361,89.9487952 48.563253,90.4156627 C44.8222892,91.3524096 40.9096386,90.9307229 37.1656627,90.25 C35.7951807,90.0331325 34.496988,89.4246988 33.0963855,89.4277108 C33.8463855,90.1686747 34.9457831,90.2981928 35.9126506,90.5873494 C43.2590361,92.3975904 51.0572289,92.4096386 58.4156627,90.6506024 C66.8825301,88.6144578 74.8945783,83.8493976 79.9246988,76.6295181 C83.1837349,72.1475904 84.9789157,66.7921687 86.0873494,61.4126506 C86.6777108,57.439759 86.9759036,52.9487952 84.563253,49.4849398 C83.439759,47.8313253 81.6355422,46.2409639 81.996988,44.0331325 C82.1506024,41.9698795 84.4608434,40.6656627 86.3584337,41.3373494 C88.8373494,42.1415663 89.996988,44.7981928 90.503012,47.1536145 C91.4668675,52.0331325 90.5090361,57.0481928 89.2198795,61.7740964 C89.5572289,61.7228916 89.7650602,61.5331325 89.8433735,61.2078313 C92.0662651,54.2680723 92.4518072,46.7831325 91.1686747,39.6204819 C89.6957831,31.2259036 85.8162651,23.0391566 79.3614458,17.3373494 C75.4879518,13.8042169 70.7138554,11.313253 65.6656627,9.93674699 C61.4608434,8.68674699 56.9096386,7.82228916 52.5692771,8.89759036 C50.4337349,9.36445783 48.7740964,10.8614458 47.063253,12.1174699 C45.6144578,13.2349398 43.2951807,13.310241 41.9879518,11.9277108 C40.810241,10.6746988 40.9186747,8.60240964 41.9337349,7.28313253 C43.2831325,5.5060241 45.5150602,4.68373494 47.6415663,4.30120482 C51.0361446,3.79518072 54.5060241,4.12650602 57.8554217,4.79518072 C59.1837349,5.02409639 60.4246988,5.63554217 61.7771084,5.73493976 C61.496988,5.5 61.2228916,5.23795181 60.8674699,5.12650602 C52.6746988,2.48192771 43.7108434,2.38253012 35.4277108,4.69578313 L35.4277108,4.69578313 Z" id="Shape"></path>
                <path d="M36.5481928,21.4879518 C38.3795181,20.5240964 40.7198795,20.2349398 42.5873494,21.253012 C44.0813253,22.1084337 44.6656627,23.9608434 44.5180723,25.5963855 C44.253012,28.8433735 42.6837349,31.8373494 40.7108434,34.373494 C38.5783133,36.9518072 35.9487952,39.2349398 32.7981928,40.4578313 C33.0391566,41.4638554 33.7981928,42.5361446 34.936747,42.5301205 C36.9307229,42.6024096 38.6596386,41.3433735 40.0933735,40.0903614 C41.123494,39.3072289 41.1777108,37.936747 41.6596386,36.8313253 C42.3614458,35.1024096 43.3162651,33.2590361 45.0572289,32.3855422 C45.873494,31.9518072 47.1204819,31.8674699 47.6837349,32.7379518 C48.2981928,33.9126506 47.7409639,35.2590361 47.1506024,36.3222892 C46.3433735,37.8644578 45.0662651,39.0722892 44.0512048,40.4608434 C43.6686747,41.75 43.5993976,43.1054217 43.5753012,44.4427711 C44.9849398,43.8192771 46.25,42.9307229 47.5783133,42.1596386 C49.8885542,40.6656627 52.2861446,39.2740964 54.4307229,37.5451807 C54.6777108,36.7108434 54.3403614,35.8012048 54.3795181,34.9337349 C54.246988,30.7349398 55.6987952,26.4307229 58.560241,23.3253012 C60.3403614,21.4487952 63.0210843,20.126506 65.6415663,20.7861446 C67.2138554,21.0722892 68.4457831,22.3493976 68.8885542,23.8524096 C69.4487952,26.1204819 68.6716867,28.4909639 67.4789157,30.4216867 C65.4246988,33.6355422 62.436747,36.0903614 59.4126506,38.3493976 C59.8162651,39.3554217 60.3915663,40.496988 61.4789157,40.8704819 C63.0361446,40.5722892 64.6204819,40.1475904 66.2138554,40.4638554 C67.2801205,40.686747 68.560241,41.0060241 69.0813253,42.0692771 C69.563253,43.1054217 68.6415663,44.1656627 67.6957831,44.4879518 C65.6837349,45.1445783 63.5542169,44.7740964 61.5,44.6174699 C59.0542169,45.2018072 56.9277108,46.8192771 55.4036145,48.7891566 C53.0361446,51.9006024 52.3042169,56.0180723 52.8192771,59.8343373 C53.310241,63 54.9006024,66.189759 57.6957831,67.9096386 C60.8433735,69.9246988 65.3795181,69.496988 67.9879518,66.7771084 C70.4487952,64.2379518 71.2259036,60.1957831 69.8554217,56.9337349 C69.2740964,55.5 68.0240964,54.2771084 66.4578313,54.0331325 C64.6295181,53.6204819 62.4578313,54.810241 62.1927711,56.753012 C61.9277108,58.246988 62.9759036,59.4849398 63.8614458,60.5542169 C64.5451807,61.2620482 64.626506,62.5692771 63.7771084,63.1807229 C62.4608434,64.0813253 60.6355422,63.4487952 59.5873494,62.4036145 C57,59.8493976 57.0813253,55.2379518 59.560241,52.6295181 C62.7108434,49.0150602 68.9849398,48.9457831 72.2078313,52.5060241 C75.6536145,56.3222892 76.0873494,62.439759 73.436747,66.813253 C71.4487952,70.246988 67.8644578,72.7259036 63.9246988,73.2861446 C59.6385542,73.9216867 55.0090361,72.563253 51.996988,69.3855422 C46.1054217,63.3855422 46.1987952,52.8343373 51.8192771,46.686747 C53.3222892,44.8885542 55.3072289,43.6084337 57.2981928,42.4216867 C56.8674699,41.8403614 56.4156627,41.2740964 55.9578313,40.7108434 C52.0903614,43.5150602 48.0451807,46.063253 43.8825301,48.4036145 C43.1777108,48.6626506 43.3042169,49.5120482 43.2018072,50.1114458 C42.8313253,55.2349398 42.3945783,60.5753012 39.8463855,65.1536145 C38.123494,68.3885542 35.5180723,71.3524096 32.0240964,72.6837349 C29.253012,73.7289157 25.9006024,73.8222892 23.3584337,72.1385542 C20.9246988,70.6114458 19.8192771,67.563253 20.0060241,64.7861446 C20.3915663,61.253012 22.4006024,58.063253 24.9548193,55.6656627 C28.4608434,52.4638554 32.7108434,50.25 36.8825301,48.0512048 C37.7319277,47.5783133 38.6566265,47.2198795 39.4156627,46.6084337 C39.6957831,45.8433735 39.7379518,45.0210843 39.8162651,44.2198795 C37.6536145,45.5271084 34.9216867,46.5783133 32.4337349,45.5753012 C30.4006024,44.7921687 29.1355422,42.8463855 28.4879518,40.8524096 C26.5692771,40.6475904 24.6385542,39.8825301 23.4156627,38.3343373 C21.2831325,35.7771084 21.1475904,31.8885542 22.689759,29.0060241 C23.2048193,27.9668675 24.3614458,27.4096386 25.4939759,27.4789157 C25.7138554,27.9246988 26.126506,28.3674699 25.9759036,28.9096386 C25.6385542,30.7801205 24.9819277,32.7228916 25.6024096,34.6174699 C25.9096386,35.9126506 26.9819277,36.9457831 28.313253,37.123494 C28.5963855,34.0572289 29.1927711,30.9789157 30.6355422,28.2228916 C31.9939759,25.5421687 33.8493976,22.9427711 36.5481928,21.4879518 L36.5481928,21.4879518 Z M38.3524096,24.4879518 C36.5331325,25.7259036 35.4246988,27.7048193 34.4668675,29.6295181 C33.436747,31.8012048 32.6054217,34.1355422 32.5120482,36.5572289 C33.2078313,36.25 33.8644578,35.8493976 34.4277108,35.3343373 C36.7048193,33.3524096 38.6957831,30.9909639 40.0301205,28.2680723 C40.5,27.2831325 40.9066265,26.1656627 40.6385542,25.063253 C40.2921687,24.1686747 39.0843373,23.9337349 38.3524096,24.4879518 L38.3524096,24.4879518 Z M61.8975904,25.4337349 C59.7710843,27.9096386 58.6024096,31.1927711 58.6385542,34.4548193 C61.0361446,32.4759036 63.246988,30.1566265 64.7379518,27.4066265 C65.1656627,26.5271084 65.7319277,25.0903614 64.6475904,24.4487952 C63.6596386,23.939759 62.5451807,24.686747 61.8975904,25.4337349 L61.8975904,25.4337349 Z M29.6536145,57.0753012 C27.563253,58.9518072 25.5240964,61.1385542 24.7650602,63.9126506 C24.4006024,65.4006024 24.3162651,67.2801205 25.5662651,68.3885542 C26.8855422,69.5933735 28.873494,69.2349398 30.3975904,68.6626506 C33.3373494,67.5301205 35.1114458,64.6837349 36.3072289,61.9186747 C37.7018072,58.4849398 38.5662651,54.8283133 38.9186747,51.1385542 C35.5813253,52.6807229 32.4638554,54.7108434 29.6536145,57.0753012 L29.6536145,57.0753012 Z" id="Shape"></path>
            </g>
            <g id="#3a73b8ff" fill="#353C47" sketch:type="MSShapeGroup">
                <path d="M46.2379518,0.204819277 C56.0722892,-0.545180723 66.1084337,1.75301205 74.6445783,6.68975904 C81.4728916,10.626506 87.376506,16.1807229 91.6506024,22.810241 C96.9578313,30.9156627 99.7650602,40.6174699 99.6837349,50.3042169 C99.6204819,60.4277108 96.3975904,70.5150602 90.5090361,78.7590361 C84.5361446,87.2138554 75.8524096,93.7259036 66.0512048,97.0572289 C57.3463855,100.069277 47.8072289,100.542169 38.8253012,98.5301205 C29.4066265,96.4307229 20.6566265,91.4759036 13.9638554,84.5271084 C6.87048193,77.1807229 2.06927711,67.6174699 0.602409639,57.5 C-0.840361446,48.4879518 0.352409639,39.0873494 3.87349398,30.6777108 C7.14156627,22.8554217 12.4638554,15.9216867 19.126506,10.689759 C26.8493976,4.59939759 36.4216867,0.885542169 46.2379518,0.204819277 L46.2379518,0.204819277 Z M46.2259036,2.59638554 C40.3825301,3.01506024 34.6355422,4.57831325 29.3524096,7.10542169 C20.8524096,11.2018072 13.5843373,17.8584337 8.87048193,26.0391566 C1.84939759,37.8403614 0.493975904,52.7740964 5.09638554,65.6927711 C8.04819277,74.0933735 13.439759,81.5873494 20.4096386,87.1174699 C28.5090361,93.5421687 38.753012,97.2439759 49.0993976,97.3313253 C56.6536145,97.496988 64.2439759,95.7801205 70.9879518,92.3795181 C79.5813253,88.126506 86.8012048,81.1716867 91.4156627,72.7740964 C96.0271084,64.436747 98.0512048,54.6686747 97.0240964,45.189759 C95.6596386,29.8072289 86.0512048,15.5542169 72.4909639,8.24698795 C64.5391566,3.86445783 55.2801205,1.85843373 46.2259036,2.59638554 L46.2259036,2.59638554 Z" id="Shape"></path>
                <path d="M37.8373494,7.10542169 C46.1204819,4.79216867 55.0843373,4.89156627 63.2771084,7.53614458 C63.6325301,7.64759036 63.9066265,7.90963855 64.186747,8.14457831 C62.8343373,8.04518072 61.5933735,7.43373494 60.2650602,7.20481928 C56.9156627,6.53614458 53.4457831,6.20481928 50.0512048,6.71084337 C47.9246988,7.09337349 45.6927711,7.91566265 44.3433735,9.69277108 C43.3283133,11.0120482 43.2198795,13.0843373 44.3975904,14.3373494 C45.7048193,15.7198795 48.0240964,15.6445783 49.4728916,14.5271084 C51.1837349,13.2710843 52.8433735,11.7740964 54.9789157,11.3072289 C59.3192771,10.2319277 63.8704819,11.0963855 68.0753012,12.3463855 C73.123494,13.7228916 77.8975904,16.2138554 81.7710843,19.746988 C88.2259036,25.4487952 92.1054217,33.6355422 93.5783133,42.0301205 C94.8614458,49.1927711 94.4759036,56.6777108 92.253012,63.6174699 C92.1746988,63.9427711 91.9668675,64.1325301 91.6295181,64.1837349 C92.9186747,59.4578313 93.876506,54.4427711 92.9126506,49.563253 C92.4066265,47.2078313 91.246988,44.5512048 88.7680723,43.746988 C86.8704819,43.0753012 84.560241,44.3795181 84.4066265,46.4427711 C84.0451807,48.6506024 85.8493976,50.2409639 86.9728916,51.8945783 C89.3855422,55.3584337 89.0873494,59.8493976 88.496988,63.8222892 C87.3885542,69.2018072 85.5933735,74.5572289 82.3343373,79.0391566 C77.3042169,86.2590361 69.2921687,91.0240964 60.8253012,93.060241 C53.4668675,94.8192771 45.6686747,94.8072289 38.3222892,92.996988 C37.3554217,92.7078313 36.2560241,92.5783133 35.5060241,91.8373494 C36.9066265,91.8343373 38.2048193,92.4427711 39.5753012,92.6596386 C43.3192771,93.3403614 47.2319277,93.7620482 50.9728916,92.8253012 C52.6686747,92.3584337 54.3855422,91.5512048 55.4518072,90.0993976 C56.439759,88.7439759 56.4186747,86.6686747 55.2048193,85.4578313 C54.1536145,84.3493976 52.4036145,84.1204819 51.060241,84.8192771 C49.4638554,85.6837349 48.2439759,87.1054217 46.6144578,87.9216867 C43.3283133,89.5180723 39.5150602,89.2831325 36.0090361,88.6927711 C30.1957831,87.5512048 24.4518072,85.4427711 19.7650602,81.7349398 C13.5421687,76.9518072 9.23192771,69.9759036 7.12048193,62.4638554 C4.88554217,54.5993976 4.87048193,46.1475904 6.90963855,38.2409639 C7.26204819,37.4216867 7.12650602,36.1295181 8.06024096,35.7409639 C6.86746988,40.2590361 5.9246988,44.9939759 6.65060241,49.6746988 C7.01807229,51.753012 7.74698795,53.9548193 9.46686747,55.3042169 C10.6596386,56.2891566 12.5240964,56.6506024 13.8433735,55.7048193 C15.25,54.8825301 15.7138554,52.9307229 15.060241,51.4879518 C14.373494,49.8614458 12.9789157,48.6777108 12.1807229,47.1114458 C10.4548193,43.9578313 10.6445783,40.1927711 11.1024096,36.7409639 C12.0662651,31.2108434 13.9427711,25.746988 17.2048193,21.1325301 C22.0481928,14.1144578 29.6716867,9.31024096 37.8373494,7.10542169 L37.8373494,7.10542169 Z M38.9578313,23.8975904 C36.2590361,25.3524096 34.4036145,27.9518072 33.0451807,30.6325301 C31.6024096,33.3885542 31.0060241,36.4668675 30.7228916,39.5331325 C29.3915663,39.3554217 28.3192771,38.3222892 28.0120482,37.0271084 C27.3915663,35.1325301 28.0481928,33.189759 28.3855422,31.3192771 C28.5361446,30.7771084 28.123494,30.3343373 27.9036145,29.8885542 C26.7710843,29.8192771 25.6144578,30.376506 25.0993976,31.4156627 C23.5572289,34.2981928 23.6927711,38.186747 25.8253012,40.7439759 C27.0481928,42.2921687 28.9789157,43.0572289 30.8975904,43.2620482 C31.5451807,45.2560241 32.810241,47.2018072 34.8433735,47.9849398 C37.3313253,48.9879518 40.063253,47.936747 42.2259036,46.6295181 C42.1475904,47.4307229 42.1054217,48.253012 41.8253012,49.0180723 C41.0662651,49.6295181 40.1415663,49.9879518 39.2921687,50.4608434 C35.1204819,52.6596386 30.8704819,54.873494 27.3644578,58.0753012 C24.810241,60.4728916 22.8012048,63.6626506 22.4156627,67.1957831 C22.2289157,69.9728916 23.3343373,73.0210843 25.7680723,74.5481928 C28.310241,76.2319277 31.6626506,76.1385542 34.4337349,75.0933735 C37.9277108,73.7620482 40.5331325,70.7981928 42.2560241,67.563253 C44.8042169,62.9849398 45.2409639,57.6445783 45.6114458,52.5210843 C45.7138554,51.9216867 45.5873494,51.0722892 46.2921687,50.813253 C50.4548193,48.4728916 54.5,45.9246988 58.3674699,43.1204819 C58.8253012,43.6837349 59.2771084,44.25 59.7078313,44.8313253 C57.7168675,46.0180723 55.7319277,47.2981928 54.2289157,49.0963855 C48.6084337,55.2439759 48.5150602,65.7951807 54.4066265,71.7951807 C57.4186747,74.9728916 62.0481928,76.3313253 66.3343373,75.6957831 C70.2740964,75.1355422 73.8584337,72.6566265 75.8463855,69.2228916 C78.496988,64.8493976 78.063253,58.7319277 74.6174699,54.9156627 C71.3945783,51.3554217 65.1204819,51.4246988 61.9698795,55.0391566 C59.4909639,57.6475904 59.4096386,62.2590361 61.996988,64.813253 C63.0451807,65.8584337 64.8704819,66.4909639 66.186747,65.5903614 C67.0361446,64.9789157 66.9548193,63.6716867 66.2710843,62.9638554 C65.3855422,61.8945783 64.3373494,60.6566265 64.6024096,59.1626506 C64.8674699,57.2198795 67.0391566,56.0301205 68.8674699,56.4427711 C70.4337349,56.686747 71.6837349,57.9096386 72.2650602,59.3433735 C73.6355422,62.6054217 72.8584337,66.6475904 70.3975904,69.186747 C67.7891566,71.9066265 63.253012,72.3343373 60.1054217,70.3192771 C57.310241,68.5993976 55.7198795,65.4096386 55.2289157,62.2439759 C54.7138554,58.4277108 55.4457831,54.310241 57.813253,51.1987952 C59.3373494,49.2289157 61.4638554,47.6114458 63.9096386,47.0271084 C65.9638554,47.1837349 68.0933735,47.5542169 70.1054217,46.8975904 C71.0512048,46.5753012 71.9728916,45.5150602 71.4909639,44.4789157 C70.9698795,43.4156627 69.689759,43.0963855 68.623494,42.873494 C67.0301205,42.5572289 65.4457831,42.9819277 63.8885542,43.2801205 C62.8012048,42.9066265 62.2259036,41.7650602 61.8222892,40.7590361 C64.8463855,38.5 67.8343373,36.0451807 69.8885542,32.8313253 C71.0813253,30.9006024 71.8584337,28.5301205 71.2981928,26.2620482 C70.8554217,24.7590361 69.623494,23.4819277 68.0512048,23.1957831 C65.4307229,22.5361446 62.75,23.8584337 60.9698795,25.7349398 C58.1084337,28.8403614 56.6566265,33.1445783 56.7891566,37.3433735 C56.75,38.2108434 57.0873494,39.1204819 56.8403614,39.9548193 C54.6957831,41.6837349 52.2981928,43.0753012 49.9879518,44.5692771 C48.6596386,45.3403614 47.3945783,46.2289157 45.9849398,46.8524096 C46.0090361,45.5150602 46.0783133,44.1596386 46.4608434,42.8704819 C47.4759036,41.4819277 48.753012,40.2740964 49.560241,38.7319277 C50.1506024,37.6686747 50.7078313,36.3222892 50.0933735,35.1475904 C49.5301205,34.2771084 48.2831325,34.3614458 47.4668675,34.7951807 C45.7259036,35.6686747 44.7710843,37.5120482 44.0692771,39.2409639 C43.5873494,40.3463855 43.5331325,41.7168675 42.503012,42.5 C41.0692771,43.753012 39.3403614,45.0120482 37.3463855,44.939759 C36.2078313,44.9457831 35.4487952,43.873494 35.2078313,42.8674699 C38.3584337,41.6445783 40.9879518,39.3614458 43.1204819,36.7831325 C45.0933735,34.246988 46.6626506,31.253012 46.9277108,28.0060241 C47.0753012,26.3704819 46.4909639,24.5180723 44.996988,23.6626506 C43.1295181,22.6445783 40.7891566,22.9337349 38.9578313,23.8975904 L38.9578313,23.8975904 Z" id="Shape"></path>
                <path d="M40.7620482,26.8975904 C41.4939759,26.3433735 42.7018072,26.5783133 43.0481928,27.4728916 C43.3162651,28.5753012 42.9096386,29.6927711 42.439759,30.6777108 C41.1054217,33.4006024 39.1144578,35.7620482 36.8373494,37.7439759 C36.2740964,38.2590361 35.6174699,38.6596386 34.9216867,38.9668675 C35.0150602,36.5451807 35.8463855,34.2108434 36.876506,32.0391566 C37.8343373,30.1144578 38.9427711,28.1355422 40.7620482,26.8975904 L40.7620482,26.8975904 Z" id="Shape"></path>
                <path d="M64.3072289,27.8433735 C64.9548193,27.0963855 66.0692771,26.3493976 67.0572289,26.8584337 C68.1415663,27.5 67.5753012,28.936747 67.1475904,29.8162651 C65.6566265,32.5662651 63.4457831,34.8855422 61.0481928,36.8644578 C61.0120482,33.6024096 62.1807229,30.3192771 64.3072289,27.8433735 L64.3072289,27.8433735 Z" id="Shape"></path>
                <path d="M32.063253,59.4849398 C34.873494,57.1204819 37.9909639,55.0903614 41.3283133,53.5481928 C40.9759036,57.2379518 40.1114458,60.8945783 38.7168675,64.3283133 C37.5210843,67.0933735 35.746988,69.939759 32.8072289,71.0722892 C31.2831325,71.6445783 29.2951807,72.003012 27.9759036,70.7981928 C26.7259036,69.689759 26.810241,67.810241 27.1746988,66.3222892 C27.9337349,63.5481928 29.9728916,61.3614458 32.063253,59.4849398 L32.063253,59.4849398 Z" id="Shape"></path>
            </g>
        </g>
    </g>
</svg>