<?xml version="1.0" encoding="UTF-8" standalone="no"?>
<svg width="296px" height="191px" viewBox="0 0 296 191" version="1.1" xmlns="http://www.w3.org/2000/svg" xmlns:xlink="http://www.w3.org/1999/xlink" xmlns:sketch="http://www.bohemiancoding.com/sketch/ns">
    <!-- Generator: Sketch 3.4.4 (17249) - http://www.bohemiancoding.com/sketch -->
    <title>Slice 1</title>
    <desc>Created with Sketch.</desc>
    <defs></defs>
    <g id="Page-1" stroke="none" stroke-width="1" fill="none" fill-rule="evenodd" sketch:type="MSPage">
        <g id="hudson-river-trading" sketch:type="MSLayerGroup" fill="#3B3B3B">
            <rect id="Rectangle-path" sketch:type="MSShapeGroup" x="140.49" y="48.76" width="19.93" height="14.08"></rect>
            <path d="M263.91,4.98 C263.91,3.73 263.73,2.48 263.62,0.98 L260.08,0.98 C196.586667,0.98 133.093333,1.01 69.6,1.07 C67.7094229,1.15078898 65.9075455,1.89419617 64.51,3.17 C54.28,13.1 44.28,23.25 34.07,33.17 C32.2414912,34.8569988 31.2684427,37.2767683 31.42,39.76 C31.5,68.67 31.47,97.58 31.47,126.49 L31.47,131.3 C32.71,131.37 33.47,131.44 34.24,131.44 C98.1333333,131.44 162.026667,131.41 225.92,131.35 C227.692784,131.26513 229.378614,130.556798 230.68,129.35 C241.173333,119.13 251.56,108.796667 261.84,98.35 C263.089631,96.9247223 263.797676,95.1050472 263.84,93.21 C263.95,63.85 263.92,34.42 263.91,4.98 L263.91,4.98 Z M115.26,96.69 L101.19,96.69 L101.19,76.21 L81.4,76.21 L81.4,96.69 L67.05,96.69 L67.05,35.79 L81.4,35.79 L81.4,63.24 L101.19,63.24 L101.19,35.79 L115.26,35.79 L115.26,96.68 L115.26,96.69 Z M164.73,96.69 L150.82,75.79 L140.48,75.79 L140.48,96.69 L126.13,96.69 L126.13,35.79 L167.52,35.79 C169.416976,35.7346816 171.263216,36.4073427 172.68,37.67 C174.013336,38.7958318 174.7788,40.4549485 174.77,42.2 L174.77,69.2 C174.805213,70.9905719 174.038719,72.7032646 172.68,73.87 C171.263748,75.1335465 169.417141,75.8063411 167.52,75.75 L181.45,96.65 L164.73,96.65 L164.73,96.69 Z M228.27,48.61 L214.2,48.61 L214.2,96.69 L199.82,96.69 L199.82,48.61 L185.82,48.61 L185.82,35.79 L228.32,35.79 L228.32,48.61 L228.27,48.61 Z" id="Shape" sketch:type="MSShapeGroup"></path>
            <path d="M295.32,165.65 L292.57,165.65 L292.57,167.92 L292.5,167.92 C291.216137,166.166203 289.163316,165.141655 286.99,165.17 C282.2,165.17 279.18,169.22 279.18,173.77 C279.18,178.32 282.18,182.24 286.89,182.24 C289.070202,182.246056 291.134716,181.259799 292.5,179.56 L292.57,179.56 L292.57,181.48 C292.57,185.13 291.64,188.27 287.37,188.27 C286.0208,188.368689 284.692412,187.894658 283.71049,186.964115 C282.728567,186.033573 282.183896,184.732553 282.21,183.38 L279.46,183.38 C279.56,187.96 282.9,190.81 287.46,190.81 C289.87773,190.878026 292.191512,189.826306 293.73,187.96 C295.38,185.83 295.38,183.59 295.38,180.96 L295.38,165.65 L295.32,165.65 Z M287.26,167.75 C290.67,167.75 292.7,170.37 292.7,173.61 C292.7,176.85 290.84,179.74 287.29,179.74 C283.74,179.74 281.99,176.74 281.99,173.58 C281.99,170.42 284.06,167.76 287.26,167.76 L287.26,167.75 Z M265.26,165.66 L262.51,165.66 L262.51,181.84 L265.26,181.84 L265.26,174.16 C265.26,171.27 265.5,167.76 269.26,167.76 C272.46,167.76 272.67,170.1 272.67,172.76 L272.67,181.88 L275.42,181.88 L275.42,172.22 C275.42,168.43 274.42,165.22 269.91,165.22 C268.065398,165.184887 266.329161,166.088785 265.3,167.62 L265.23,167.62 L265.23,165.62 L265.26,165.66 Z M255.38,157.61 C254.275431,157.61 253.38,158.505431 253.38,159.61 C253.218641,160.404642 253.553046,161.218072 254.226651,161.669457 C254.900257,162.120841 255.779743,162.120841 256.453349,161.669457 C257.126954,161.218072 257.461359,160.404642 257.3,159.61 C257.3,158.505431 256.404569,157.61 255.3,157.61 L255.38,157.61 Z M256.68,165.66 L253.93,165.66 L253.93,181.84 L256.82,181.84 L256.82,165.65 L256.68,165.66 Z M245.56,181.84 L248.31,181.84 L248.31,153.44 L245.56,153.44 L245.56,167.92 L245.62,167.92 C244.298268,166.190189 242.246972,165.173781 240.07,165.17 C235.21,165.17 232.29,169.17 232.29,173.73 C232.29,178.29 235.29,182.23 240.03,182.23 C242.208151,182.264761 244.275518,181.271832 245.61,179.55 L245.68,179.55 L245.68,181.78 L245.56,181.84 Z M240.26,167.76 C243.67,167.76 245.7,170.38 245.7,173.62 C245.7,176.86 243.84,179.75 240.3,179.75 C236.76,179.75 234.99,176.75 234.99,173.59 C234.99,170.43 237.06,167.77 240.26,167.77 L240.26,167.76 Z M228.45,165.67 L225.82,165.67 L225.82,167.92 L225.75,167.92 C224.430407,166.192972 222.383454,165.176885 220.21,165.17 C215.35,165.17 212.43,169.17 212.43,173.74 C212.43,178.31 215.43,182.24 220.17,182.24 C222.352002,182.292491 224.426949,181.295922 225.75,179.56 L225.82,179.56 L225.82,181.79 L228.57,181.79 L228.57,165.65 L228.45,165.67 Z M220.39,167.77 C223.8,167.77 225.84,170.39 225.84,173.63 C225.84,176.87 223.98,179.76 220.43,179.76 C216.88,179.76 215.13,176.76 215.13,173.6 C215.13,170.44 217.2,167.78 220.4,167.78 L220.39,167.77 Z M204.77,165.68 L202.02,165.68 L202.02,181.86 L204.77,181.86 L204.77,173.77 C204.77,171.67 204.9,167.77 207.93,167.77 C208.549872,167.811118 209.136406,168.065518 209.59,168.49 L211.02,165.92 C210.276013,165.451108 209.419144,165.191974 208.54,165.17 C206.75,165.17 205.92,166.1 204.96,167.36 L204.89,167.36 L204.89,165.61 L204.77,165.68 Z M196.77,168.22 L199.82,168.22 L199.82,165.68 L196.93,165.68 L196.93,159.87 L194.18,159.87 L194.18,165.68 L192.49,165.68 L192.49,168.22 L194.18,168.22 L194.18,181.85 L196.93,181.85 L196.93,168.2 L196.77,168.22 Z M174.36,165.68 L171.61,165.68 L171.61,181.86 L174.36,181.86 L174.36,173.77 C174.36,171.67 174.49,167.77 177.53,167.77 C178.146369,167.813375 178.729015,168.06762 179.18,168.49 L180.62,165.92 C179.876013,165.451108 179.019144,165.191974 178.14,165.17 C176.35,165.17 175.52,166.1 174.56,167.36 L174.49,167.36 L174.49,165.61 L174.36,165.68 Z M155.36,172.02 C155.779002,169.61421 157.838713,167.839176 160.28,167.78 C162.684455,167.848384 164.690122,169.638705 165.03,172.02 L155.52,172.02 L155.36,172.02 Z M167.93,174.35 C168.21,169.54 165.45,165.24 160.25,165.24 C155.05,165.24 152.41,169.24 152.41,173.98 C152.41,178.72 155.5,182.31 160.32,182.31 C163.478954,182.370471 166.388923,180.601895 167.79,177.77 L165.45,176.43 C164.38,178.36 162.87,179.77 160.53,179.77 C159.099922,179.787132 157.724982,179.218989 156.724132,178.197366 C155.723281,177.175743 155.183498,175.789424 155.23,174.36 L167.93,174.36 L167.93,174.35 Z M138.47,165.68 L135.34,165.68 L143.34,182.93 L151.25,165.68 L148.15,165.68 L143.33,176.56 L138.47,165.68 Z M130.79,157.63 C129.685431,157.63 128.79,158.525431 128.79,159.63 C128.628641,160.424642 128.963046,161.238072 129.636651,161.689457 C130.310257,162.140841 131.189743,162.140841 131.863349,161.689457 C132.536954,161.238072 132.871359,160.424642 132.71,159.63 C132.71,158.525431 131.814569,157.63 130.71,157.63 L130.79,157.63 Z M132.09,165.68 L129.34,165.68 L129.34,181.86 L132.09,181.86 L132.09,165.65 L132.09,165.68 Z M119.9,165.68 L117.15,165.68 L117.15,181.86 L119.9,181.86 L119.9,173.77 C119.9,171.67 120.04,167.77 123.07,167.77 C123.686567,167.812567 124.269472,168.066926 124.72,168.49 L126.03,165.98 C125.286013,165.511108 124.429144,165.251974 123.55,165.23 C121.76,165.23 120.93,166.16 119.97,167.42 L119.9,167.42 L119.9,165.67 L119.9,165.68 Z M91.26,165.68 L88.51,165.68 L88.51,181.86 L91.26,181.86 L91.26,174.18 C91.26,171.29 91.5,167.78 95.26,167.78 C98.47,167.78 98.67,170.12 98.67,172.78 L98.67,181.9 L101.42,181.9 L101.42,172.22 C101.42,168.43 100.42,165.22 95.92,165.22 C94.0723125,165.183325 92.3323707,166.08719 91.3,167.62 L91.23,167.62 L91.23,165.62 L91.26,165.68 Z M76.26,167.78 C78.7069466,167.677956 80.9703067,169.073342 81.9782694,171.305376 C82.986232,173.537409 82.536454,176.15802 80.841927,177.926222 C79.1474,179.694424 76.5482914,180.25526 74.2754057,179.343146 C72.0025199,178.431033 70.5121268,176.229072 70.51,173.78 C70.4417682,172.212168 71.0173124,170.684569 72.1031304,169.551542 C73.1889483,168.418514 74.690685,167.778516 76.26,167.78 L76.26,167.78 Z M76.26,182.31 C79.7154929,182.322132 82.8369274,180.248324 84.1648975,177.058171 C85.4928676,173.868019 84.7649858,170.191849 82.3215683,167.748432 C79.8781507,165.305014 76.2019815,164.577132 73.0118289,165.905103 C69.8216762,167.233073 67.7478683,170.354507 67.76,173.81 C67.7465965,176.068422 68.6378249,178.238227 70.2347989,179.835201 C71.8317729,181.432175 74.0015775,182.323403 76.26,182.31 L76.26,182.31 Z M64.31,168.23 C63.5812067,166.479543 61.9044357,165.309703 60.01,165.23 C58.7575455,165.170013 57.5348814,165.623902 56.6249637,166.486625 C55.7150461,167.349347 55.1967418,168.546128 55.19,169.8 C55.19,174.9 62.49,173.66 62.49,177.27 C62.497018,177.954591 62.2184305,178.611139 61.7212244,179.081777 C61.2240182,179.552415 60.5531749,179.794565 59.87,179.75 C58.04,179.75 57.25,178.68 56.56,177.17 L54.12,178.17 C54.8905648,180.659706 57.2247607,182.331661 59.83,182.26 C61.2587242,182.308661 62.6463204,181.777012 63.676753,180.786139 C64.7071856,179.795266 65.2927213,178.429534 65.3,177 C65.3,174.28 63.44,173.14 61.55,172.35 C59.66,171.56 57.79,171.01 57.79,169.53 C57.8978734,168.508163 58.7625003,167.734322 59.79,167.74 C60.7797679,167.820768 61.6353273,168.462438 61.99,169.39 L64.31,168.23 Z M47.82,181.83 L50.57,181.83 L50.57,153.43 L47.82,153.43 L47.82,167.92 L47.75,167.92 C46.4282682,166.190189 44.3769722,165.173781 42.2,165.17 C37.35,165.17 34.42,169.17 34.42,173.73 C34.42,178.29 37.42,182.23 42.17,182.23 C44.3481508,182.264761 46.4155179,181.271832 47.75,179.55 L47.82,179.55 L47.82,181.78 L47.82,181.83 Z M42.52,167.75 C45.93,167.75 47.96,170.37 47.96,173.61 C47.96,176.85 46.1,179.74 42.56,179.74 C39.02,179.74 37.25,176.74 37.25,173.58 C37.25,170.42 39.32,167.76 42.52,167.76 L42.52,167.75 Z M20.73,165.66 L17.97,165.66 L17.97,174.99 C17.97,179.29 19.58,182.29 24.37,182.29 C29.16,182.29 30.77,179.29 30.77,174.99 L30.77,165.66 L28.02,165.66 L28.02,174.66 C28.02,177.38 27.71,179.72 24.37,179.72 C21.03,179.72 20.72,177.38 20.72,174.66 L20.72,165.66 L20.73,165.66 Z M0,153.43 L0,181.83 L2.75,181.83 L2.75,174.15 C2.75,171.26 2.99,167.75 6.75,167.75 C9.95,167.75 10.16,170.09 10.16,172.75 L10.16,181.87 L12.91,181.87 L12.91,172.22 C12.91,168.43 11.91,165.22 7.41,165.22 C5.5618771,165.18146 3.82109541,166.085762 2.79,167.62 L2.72,167.55 L2.72,153.43 L0,153.43 L0,153.43 Z" id="Shape" sketch:type="MSShapeGroup"></path>
        </g>
    </g>
</svg>