<?xml version="1.0" encoding="UTF-8" standalone="no"?>
<svg width="1202px" height="258px" viewBox="0 0 1202 258" version="1.1" xmlns="http://www.w3.org/2000/svg" xmlns:xlink="http://www.w3.org/1999/xlink" xmlns:sketch="http://www.bohemiancoding.com/sketch/ns">
    <!-- Generator: Sketch 3.4.4 (17249) - http://www.bohemiancoding.com/sketch -->
    <title>Slice 1</title>
    <desc>Created with Sketch.</desc>
    <defs></defs>
    <g id="Page-1" stroke="none" stroke-width="1" fill="none" fill-rule="evenodd" sketch:type="MSPage">
        <g id="kloudless" sketch:type="MSLayerGroup" fill="#353C47">
            <g id="Group" sketch:type="MSShapeGroup">
                <g transform="translate(324.000000, 44.000000)" id="Shape">
                    <path d="M3.1,165.9 L3.1,26.6 C3.1,11.8 0.2,3.5 0.2,3.5 L17.9,0.1 C17.9,0.1 20.8,9.6 20.8,26.9 L20.8,166 L3.1,166 L3.1,165.9 Z M73.4,165.9 L21.5,101.9 L64.6,52.9 L86.8,52.9 L42.3,101.9 L97,165.9 L73.4,165.9 L73.4,165.9 Z"></path>
                    <path d="M134.8,168.2 C129.4,168.2 124.8,166.6 121.4,163.4 C117.7,160.3 115.9,155.5 115.9,147.3 L115.9,27.5 C115.9,12.8 113.2,4.4 113.2,4.4 L130.9,1 C130.9,1 133.9,10.5 133.9,27.8 L133.9,143.3 C133.9,152.1 135.3,154.6 140.2,154.6 C140.9,154.6 142.5,154.2 142.5,154.2 L146.1,165.8 C141.6,167.7 139.6,168.2 134.8,168.2 L134.8,168.2 Z"></path>
                    <path d="M211.7,168.9 C180.6,168.9 162.9,146 162.9,108.8 C162.9,72 181.3,49.6 211,49.6 C229.8,49.6 242.1,58.2 249.8,69.3 C256.8,79.5 260.2,92.9 260.2,111.3 C260.3,148.9 240.1,168.9 211.7,168.9 L211.7,168.9 Z M234.9,78.6 C230.1,68.6 220.1,64.1 210.9,64.1 C200.9,64.1 191.6,68.8 187.8,76.3 C184.2,83.3 182.3,92.4 182.3,105.8 C182.3,121.7 185,135.7 189.3,142.8 C193.4,149.6 202.5,154.1 212.2,154.1 C224,154.1 232.9,148 236.7,137.1 C239.2,130.1 240.1,123.7 240.1,112.6 C240.1,96.7 238.5,86.1 234.9,78.6 L234.9,78.6 Z"></path>
                    <path d="M369.4,170.7 C361.9,164.6 358.7,160 357.1,152.5 C348.5,164.1 336.7,169.7 321.2,169.7 C306.9,169.7 296.3,163.6 291.5,153.6 C289.5,149.3 288.6,143.4 288.6,136.8 L288.6,53.8 L306.1,50.4 L306.1,131.6 C306.1,142.3 307.7,147 312.9,150.6 C316.5,153.1 321.7,154.5 326.7,154.5 C337.8,154.5 349.4,146.3 355.5,134.1 L355.5,54.1 L373,51.1 L373,133.5 C373,147.8 375,153.4 380.7,158.7 L369.4,170.7 L369.4,170.7 Z"></path>
                    <path d="M480.9,165.9 C480.9,165.9 478.6,160.2 478.4,154.4 C470.2,163.7 461.6,167.5 448.5,167.5 C419.2,167.5 402.4,146.4 402.4,110.3 C402.4,86.2 410.3,68.6 425.8,57.9 C433.1,52.9 439.4,50.9 447.6,50.9 C460.3,50.9 471.4,56.1 478.2,65.2 C478.2,65.2 478,55.9 478,47.8 L478,0.3 L495.7,3.2 L495.7,129.4 C495.7,148.9 496.6,159.3 499.1,165.9 L480.9,165.9 L480.9,165.9 Z M477.7,77.2 C472,69.3 463.6,65.4 450.3,65.4 C441.5,65.4 434,69.5 429.2,77.2 C423.8,85.8 421.9,94 421.9,109.9 C421.9,123.1 422.8,132.8 426.4,139.4 C431.6,148.7 438.7,152.5 449.1,152.5 C458.4,152.5 463.6,150.5 470.9,145.3 C475.7,141.9 477.7,137.1 477.7,137.1 L477.7,77.2 L477.7,77.2 Z"></path>
                    <path d="M550,168.2 C544.6,168.2 540,166.6 536.6,163.4 C533,160.3 531.2,155.5 531.2,147.3 L531.2,27.5 C531.2,12.8 528.5,4.4 528.5,4.4 L546.2,1 C546.2,1 549.2,10.5 549.2,27.8 L549.2,143.3 C549.2,152.1 550.5,154.6 555.5,154.6 C556.2,154.6 557.8,154.2 557.8,154.2 L561.4,165.8 C556.8,167.7 554.7,168.2 550,168.2 L550,168.2 Z"></path>
                    <path d="M599.1,112.4 L599.1,115.1 C599.1,125.8 600.5,133.9 604.3,139.8 C610.6,149.6 621.1,153.6 632.4,153.6 C643.3,153.6 652.1,150.2 660.1,142.9 L666.9,154.3 C656.9,163.3 643.3,168.3 628.8,168.3 C597.5,168.3 578.7,145.6 578.7,108.2 C578.7,89.1 582.8,76.9 592.3,65.5 C601.4,55 612.5,50 626.1,50 C638.3,50 649,54.3 656.7,62.3 C666.4,72.3 669.6,82.9 669.6,109.9 L669.6,112.4 L599.1,112.4 L599.1,112.4 Z M645.6,73.8 C641.7,67.7 633.8,63.8 625.2,63.8 C609.1,63.8 600,75.6 599.1,99 L650.8,99 C650.6,86.8 649,79.3 645.6,73.8 L645.6,73.8 Z"></path>
                    <path d="M731.4,169.3 C717.1,169.3 701.5,165 689.9,157.9 L696.7,144.7 C708.3,151.8 720,155.4 732.5,155.4 C746.3,155.4 755.4,147.9 755.4,135.9 C755.4,125.7 749.7,120 736.8,117.3 L722.7,114.4 C704.1,110.5 694.1,99 694.1,83.3 C694.1,62.9 710.7,48.6 734.3,48.6 C746.1,48.6 759.2,52.2 768.8,57.7 L762.2,70.9 C752.2,66.1 743.8,62.7 733.9,62.7 C721,62.7 712.6,70.2 712.6,81.3 C712.6,89.9 716.9,95.2 728.9,97.7 L743.9,100.9 C764.3,105.2 774.1,115.6 774.1,132.4 C774.1,154.4 756.8,169.3 731.4,169.3 L731.4,169.3 Z"></path>
                    <path d="M834.4,169.3 C820.1,169.3 804.5,165 792.9,157.9 L799.7,144.7 C811.3,151.8 823.1,155.4 835.5,155.4 C849.3,155.4 858.4,147.9 858.4,135.9 C858.4,125.7 852.7,120 839.8,117.3 L825.7,114.4 C807.1,110.5 797.1,99 797.1,83.3 C797.1,62.9 813.7,48.6 837.3,48.6 C849.1,48.6 862.3,52.2 871.8,57.7 L865.2,70.9 C855.2,66.1 846.8,62.7 836.8,62.7 C823.9,62.7 815.5,70.2 815.5,81.3 C815.5,89.9 819.8,95.2 831.8,97.7 L846.8,100.9 C867.2,105.2 877,115.6 877,132.4 C877,154.4 859.8,169.3 834.4,169.3 L834.4,169.3 Z"></path>
                </g>
                <path d="M255.1,145.6 L222.9,119 C220.1,116.7 219.4,112.4 221.4,109.3 L243.8,74.1 C245.7,71.1 244.4,68.4 240.8,68.2 L199.1,65.6 C195.5,65.4 192.4,62.3 192.2,58.7 L189.6,17 C189.4,13.4 186.7,12.1 183.7,14 L148.5,36.4 C145.5,38.3 141.1,37.6 138.8,34.9 L112.3,2.8 C110,2.22044605e-16 107.1,0.5 105.8,3.8 L90.5,42.7 C89.2,46 85.3,48 81.8,47.1 L41.4,36.7 C37.9,35.8 35.8,37.9 36.7,41.4 L47.1,81.8 C48,85.3 46,89.2 42.7,90.5 L3.8,105.8 C0.5,107.1 0,110.1 2.8,112.3 L35,138.9 C37.8,141.2 38.4,145.5 36.5,148.6 L14.1,183.8 C12.2,186.8 13.5,189.5 17.1,189.7 L58.7,192.3 C62.3,192.5 65.4,195.6 65.6,199.2 L68.2,240.9 C68.4,244.5 71.1,245.8 74.1,243.9 L109.3,221.5 C112.3,219.6 116.7,220.3 119,223 L145.6,255.2 C147.9,258 150.8,257.5 152.2,254.2 L167.5,215.4 C168.8,212.1 172.7,210.1 176.2,211 L216.6,221.4 C220.1,222.3 222.2,220.2 221.3,216.7 L210.9,176.3 C210,172.8 212,168.9 215.3,167.6 L254.1,152.3 C257.4,150.8 257.9,147.9 255.1,145.6 L255.1,145.6 Z M160.2,190.2 C126.4,207.4 84.9,193.9 67.7,160.1 C57.8,140.6 58,118.6 66.5,100.2 L87.7,142 C95.1,156.5 112.9,162.3 127.5,154.9 L129.9,153.7 C144.4,146.3 150.2,128.4 142.8,113.9 L127.7,84.3 C122.8,74.6 111.1,70.6 101.7,75.4 C92.3,80.2 88.7,92 93.6,101.6 L108.1,130.1 C110,133.7 114.4,135.2 118,133.3 C121.6,131.4 123.1,127 121.2,123.4 L106.7,94.9 C105.5,92.5 106.2,89.6 108.4,88.5 C110.5,87.4 113.3,88.5 114.5,90.9 L129.6,120.5 C133.3,127.8 130.4,136.7 123.1,140.4 L120.7,141.6 C113.4,145.3 104.5,142.4 100.8,135.1 L69.8,74.1 L78.6,82.1 C83.9,76.3 90.3,71.3 97.7,67.6 C131.5,50.4 173,63.9 190.2,97.7 C207.5,131.5 194,173 160.2,190.2 L160.2,190.2 Z" id="Shape"></path>
            </g>
        </g>
    </g>
</svg>