<?xml version="1.0" encoding="UTF-8" standalone="no"?>
<svg width="196px" height="315px" viewBox="0 0 196 315" version="1.1" xmlns="http://www.w3.org/2000/svg" xmlns:xlink="http://www.w3.org/1999/xlink" xmlns:sketch="http://www.bohemiancoding.com/sketch/ns">
    <!-- Generator: Sketch 3.4.4 (17249) - http://www.bohemiancoding.com/sketch -->
    <title>Untitled</title>
    <desc>Created with Sketch.</desc>
    <defs>
        <path id="path-1" d="M0.06,0 L194.215,0 L194.215,315 L0.06,315"></path>
    </defs>
    <g id="Page-1" stroke="none" stroke-width="1" fill="none" fill-rule="evenodd" sketch:type="MSPage">
        <g id="Peloton-Logo-Vertical" sketch:type="MSLayerGroup" transform="translate(1.000000, 0.000000)">
            <g id="Group-3">
                <mask id="mask-2" sketch:name="Clip 2" fill="white">
                    <use xlink:href="#path-1"></use>
                </mask>
                <g id="Clip-2"></g>
                <path d="M162.781,66.234 L182.707,31.684 C188.54,21.585 185.074,8.668 174.983,2.831 C164.896,-2.997 151.977,0.46 146.151,10.568 L126.219,45.11 C83.752,31.713 36.209,49.045 13.022,89.231 C-1.693,114.734 -3.535,144.143 5.468,169.917 L42.269,106.135 L42.269,106.129 C50.725,91.476 64.38,80.99 80.714,76.607 C97.058,72.227 114.119,74.477 128.767,82.94 C159.008,100.41 169.402,139.24 151.945,169.494 C134.488,199.754 95.685,210.161 65.448,192.692 L86.553,156.103 C96.648,161.939 109.556,158.475 115.385,148.376 C121.212,138.274 117.757,125.363 107.659,119.526 C97.566,113.693 84.657,117.154 78.826,127.255 L11.502,243.949 C5.676,254.052 9.133,266.966 19.226,272.798 C29.323,278.635 42.236,275.17 48.059,265.067 L67.996,230.525 C110.461,243.919 158.003,226.585 181.19,186.393 C204.381,146.208 195.611,96.336 162.781,66.234" id="Fill-1" fill="#353C47" sketch:type="MSShapeGroup" mask="url(#mask-2)"></path>
            </g>
            <path d="M15.353,302.238 C17.831,302.238 19.411,301.127 19.411,298.431 C19.411,295.7 17.759,294.659 15.353,294.659 L11.94,294.659 L11.94,302.238 L15.353,302.238 L15.353,302.238 Z M6.913,290.239 L15.496,290.239 C20.488,290.239 24.582,292.716 24.582,298.431 C24.582,304.145 20.453,306.661 15.496,306.661 L11.94,306.661 L11.94,314.678 L6.913,314.678 L6.913,290.239 L6.913,290.239 Z" id="Fill-4" fill="#353C47" sketch:type="MSShapeGroup"></path>
            <path d="M31.967,290.239 L48.126,290.239 L48.126,294.659 L36.995,294.659 L36.995,300.264 L46.8,300.264 L46.8,304.577 L36.995,304.577 L36.995,310.258 L48.631,310.258 L48.631,314.678 L31.967,314.678 L31.967,290.239" id="Fill-5" fill="#353C47" sketch:type="MSShapeGroup"></path>
            <path d="M57.093,290.239 L62.118,290.239 L62.118,310.258 L73.181,310.258 L73.181,314.678 L57.093,314.678 L57.093,290.239" id="Fill-6" fill="#353C47" sketch:type="MSShapeGroup"></path>
            <path d="M98.904,302.455 C98.904,297.894 95.892,294.407 91.437,294.407 C86.983,294.407 83.968,297.894 83.968,302.455 C83.968,307.02 86.983,310.507 91.437,310.507 C95.892,310.507 98.904,307.02 98.904,302.455 L98.904,302.455 Z M78.796,302.455 C78.796,295.232 84.398,289.915 91.437,289.915 C98.476,289.915 104.078,295.232 104.078,302.455 C104.078,309.681 98.476,315 91.437,315 C84.398,315 78.796,309.681 78.796,302.455 L78.796,302.455 Z" id="Fill-7" fill="#353C47" sketch:type="MSShapeGroup"></path>
            <path d="M116.462,294.659 L109.495,294.659 L109.495,290.239 L128.458,290.239 L128.458,294.659 L121.489,294.659 L121.489,314.678 L116.462,314.678 L116.462,294.659" id="Fill-8" fill="#353C47" sketch:type="MSShapeGroup"></path>
            <path d="M153.953,302.455 C153.953,297.894 150.937,294.407 146.485,294.407 C142.029,294.407 139.014,297.894 139.014,302.455 C139.014,307.02 142.029,310.507 146.485,310.507 C150.937,310.507 153.953,307.02 153.953,302.455 L153.953,302.455 Z M133.841,302.455 C133.841,295.232 139.443,289.915 146.485,289.915 C153.523,289.915 159.125,295.232 159.125,302.455 C159.125,309.681 153.523,315 146.485,315 C139.443,315 133.841,309.681 133.841,302.455 L133.841,302.455 Z" id="Fill-9" fill="#353C47" sketch:type="MSShapeGroup"></path>
            <path d="M174.485,303.318 C173.266,302.168 171.577,299.976 171.577,299.976 C171.577,299.976 171.936,302.67 171.936,304.433 L171.936,314.678 L167.231,314.678 L167.231,290.02 L167.732,290.02 L180.049,301.596 C181.235,302.71 182.923,304.932 182.923,304.932 C182.923,304.932 182.6,302.168 182.6,300.48 L182.6,290.239 L187.304,290.239 L187.304,314.892 L186.804,314.892 L174.485,303.318" id="Fill-10" fill="#353C47" sketch:type="MSShapeGroup"></path>
        </g>
    </g>
</svg>