<?xml version="1.0" encoding="UTF-8" standalone="no"?>
<svg width="1001px" height="760px" viewBox="0 0 1001 760" version="1.1" xmlns="http://www.w3.org/2000/svg" xmlns:xlink="http://www.w3.org/1999/xlink" xmlns:sketch="http://www.bohemiancoding.com/sketch/ns">
    <!-- Generator: Sketch 3.4.4 (17249) - http://www.bohemiancoding.com/sketch -->
    <title>Untitled</title>
    <desc>Created with Sketch.</desc>
    <defs></defs>
    <g id="Page-1" stroke="none" stroke-width="1" fill="none" fill-rule="evenodd" sketch:type="MSPage">
        <g id="PWC_Original" sketch:type="MSLayerGroup">
            <path d="M1001,325.90288 L637.26464,325.90288 L637.26464,232.803 L1001,232.803 L1001,325.90288 L1001,325.90288 Z" id="path4061" fill="#5C677A" sketch:type="MSShapeGroup"></path>
            <path d="M953.75557,325.90288 L637.26464,325.90288 L637.26464,93.051274 L953.75557,93.051274 L953.75557,325.90288 L953.75557,325.90288 Z" id="path4103" fill="#5C677A" sketch:type="MSShapeGroup"></path>
            <path d="M822.99817,325.90288 L637.26464,325.90288 L637.26464,3.8618832e-05 L822.99817,3.8618832e-05 L822.99817,325.90288 L822.99817,325.90288 Z" id="path4089" fill="#5C677A" sketch:type="MSShapeGroup"></path>
            <path d="M859.53875,325.90288 L637.26464,325.90288 L637.26464,36.365789 L859.53875,36.365789 L859.53875,325.90288 L859.53875,325.90288 Z" id="path4075" fill="#5C677A" sketch:type="MSShapeGroup"></path>
            <path d="M637.21316,36.420649 L637.21316,325.87335 L822.97769,325.87335 L822.97769,36.420649 L637.21316,36.420649 L637.21316,36.420649 Z" id="path4688" fill="#545F70" sketch:type="MSShapeGroup"></path>
            <path d="M451.0164,325.90296 L637.26464,325.90296 L637.26464,372.45775 L451.0164,372.45775 L451.0164,325.90296 L451.0164,325.90296 Z" id="path4119" fill="#353C47" sketch:type="MSShapeGroup"></path>
            <path d="M637.21316,92.99991 L637.21316,325.87335 L859.64494,325.87335 L859.64494,92.99991 L637.21316,92.99991 L637.21316,92.99991 Z" id="path4698" fill="#545F70" sketch:type="MSShapeGroup"></path>
            <path d="M637.21316,92.99991 L637.21316,325.87335 L822.97769,325.87335 L822.97769,92.99991 L637.21316,92.99991 L637.21316,92.99991 Z" id="path4693" fill="#4C5666" sketch:type="MSShapeGroup"></path>
            <path d="M753.41366,325.90288 L637.26464,325.90288 L637.26464,186.14144 L753.41366,186.14144 L753.41366,325.90288 L753.41366,325.90288 Z" id="path4117" fill="#454D5C" sketch:type="MSShapeGroup"></path>
            <path d="M637.21316,232.86967 L637.21316,325.87335 L953.86276,325.87335 L953.86276,232.86967 L637.21316,232.86967 L637.21316,232.86967 Z" id="path4713" fill="#545F70" sketch:type="MSShapeGroup"></path>
            <path d="M637.21316,232.86967 L637.21316,325.87335 L859.64494,325.87335 L859.64494,232.86967 L637.21316,232.86967 L637.21316,232.86967 Z" id="path4708" fill="#4C5666" sketch:type="MSShapeGroup"></path>
            <path d="M637.21316,232.86967 L637.21316,325.87335 L822.97769,325.87335 L822.97769,232.86967 L637.21316,232.86967 L637.21316,232.86967 Z" id="path4703" fill="#454D5C" sketch:type="MSShapeGroup"></path>
            <path d="M637.21316,232.86967 L637.21316,325.87335 L753.52847,325.87335 L753.52847,232.86967 L637.21316,232.86967 L637.21316,232.86967 Z" id="path4625" fill="#3D4551" sketch:type="MSShapeGroup"></path>
            <g id="g2925" transform="translate(0.501080, 479.791780)" fill="#353C47" sketch:type="MSShapeGroup">
                <path d="M677.25948,21.45637 C645.56934,27.09017 628.66793,51.03384 628.66793,92.58313 C628.66793,134.83665 651.20315,163.00567 684.30174,163.00567 C700.49892,163.00567 714.58343,157.37186 744.16089,142.58313 L744.16089,177.09017 C708.2454,193.99158 687.11864,198.21693 658.94962,198.21693 C627.25948,198.21693 604.72427,190.47046 587.11864,171.45637 C568.80878,153.14651 558.94962,129.20285 558.94962,101.73806 C558.94962,41.87891 604.02005,0.32961 669.513,0.32961 C712.47075,0.32961 742.75244,20.75215 742.75244,49.62539 C742.75244,68.63947 728.66793,82.01975 708.2454,82.01975 C697.68202,82.01975 689.23131,78.49862 677.25948,72.1606" id="path2850"></path>
                <path d="M518.80878,101.73806 C547.68202,65.82257 558.2454,51.03384 558.2454,33.4282 C558.2454,15.82257 544.16089,0.32961 524.44258,0.32961 C513.17498,0.32961 502.6116,6.66764 497.68202,12.30144 L497.68202,86.2451 L450.49892,149.62539 L450.49892,5.96341 L405.4285,5.96341 L330.78061,129.20285 L330.78061,5.96341 L305.4285,5.96341 L237.11864,21.45637 L237.11864,39.062 L274.44258,42.58313 L274.44258,195.40003 L321.62568,195.40003 L393.45667,77.09017 L393.45667,195.40003 L446.27357,195.40003" id="path2852"></path>
                <path d="M94.16089,171.45637 L104.72427,171.45637 C142.75244,171.45637 163.8792,148.21693 163.8792,101.73806 C163.8792,63.00567 146.97779,41.87891 115.28765,41.87891 C111.0623,41.87891 104.72427,42.58313 94.16089,44.69581 L94.16089,171.45637 L94.16089,171.45637 Z M94.16089,254.55496 L125.14681,261.59722 L125.14681,279.20285 L3.31582,279.20285 L3.31582,261.59722 L31.48484,254.55496 L31.48484,41.87891 L0.49892,41.87891 L0.49892,24.27327 L74.44258,1.73806 L94.16089,1.73806 L94.16089,27.09017 C128.66793,5.96341 140.63977,2.44229 158.94962,2.44229 C199.79469,2.44229 230.78061,40.47046 230.78061,93.28736 C230.78061,153.85074 189.23131,195.40003 125.85103,195.40003 C118.80878,195.40003 106.83695,194.69581 94.16089,193.99158 L94.16089,254.55496 Z" id="path2862"></path>
            </g>
        </g>
    </g>
</svg>