<?xml version="1.0" encoding="UTF-8" standalone="no"?>
<svg width="625px" height="100px" viewBox="0 0 625 100" version="1.1" xmlns="http://www.w3.org/2000/svg" xmlns:xlink="http://www.w3.org/1999/xlink" xmlns:sketch="http://www.bohemiancoding.com/sketch/ns">
    <!-- Generator: Sketch 3.5.1 (25234) - http://www.bohemiancoding.com/sketch -->
    <title>viacom</title>
    <desc>Created with Sketch.</desc>
    <defs></defs>
    <g id="Page-1" stroke="none" stroke-width="1" fill="none" fill-rule="evenodd" sketch:type="MSPage">
        <g id="viacom" sketch:type="MSLayerGroup" fill="#353C47">
            <g id="Page-1" sketch:type="MSShapeGroup">
                <g id="viacom">
                    <path d="M406.956522,98.6434087 C394.565557,95.9725391 382.549591,87.5134087 377.2094,77.7017165 C369.267313,63.1094965 369.238583,38.0109896 377.146991,23.196067 C380.318357,17.2551043 388.940061,8.61281565 394.5126,5.78899565 C402.634722,1.67320843 410.641687,0 422.215243,0 C439.487148,0 449.531235,3.49402 458.94907,12.7785287 C465.049078,18.7921852 469.457609,27.08178 471.344843,36.0869565 C472.775035,42.9112939 472.770383,58.2970235 471.336296,64.3478261 C467.119991,82.1376122 454.343539,94.4939478 435.915296,98.6041043 C428.30707,100.301009 414.732096,100.319435 406.956522,98.6434087 L406.956522,98.6434087 L406.956522,98.6434087 Z M435.327809,78.6797183 C440.802791,76.0010583 444.310217,71.7588904 446.690096,64.9372165 C449.076191,58.0977461 448.835278,40.4333217 446.266983,33.9130435 C443.776174,27.5895026 440.282574,23.5029243 435.108348,20.8604191 C431.427661,18.9806765 429.724652,18.6956522 422.173913,18.6956522 C414.391722,18.6956522 412.95267,18.9537452 408.474904,21.1525557 C400.232026,25.200227 396.110487,32.9790409 395.137861,46.3243139 C393.789191,64.8292635 400.034235,76.9592035 412.758548,80.5494826 C419.285357,82.3910817 429.465939,81.5476652 435.327809,78.6797183 L435.327809,78.6797183 L435.327809,78.6797183 Z M124.620713,97.4345826 C123.096887,96.5054435 121.433843,94.9674174 120.925061,94.0167391 C120.305009,92.8581652 120,77.2170522 120,46.5789052 L120,0.869565217 L131.304348,0.869565217 L142.608696,0.869565217 L142.608696,50 L142.608696,99.1304348 L135,99.1271826 C129.000513,99.1246174 126.80533,98.7666435 124.620713,97.4345826 L124.620713,97.4345826 L124.620713,97.4345826 Z M191.088217,98.2411565 C176.682104,96.600487 168.89153,89.7033565 166.084565,76.1049861 C163.38927,63.0476009 168.992713,48.2065209 178.437174,43.3883191 C185.153426,39.9619426 192.15193,39.16154 215.534974,39.1455339 L237.591696,39.1304348 L236.993,34.1304348 C236.144226,27.0417704 234.146435,23.3775661 230,21.3043478 C226.829774,19.719233 224.270817,19.5267139 201.104513,19.1304348 L175.687278,18.6956522 L173.295165,16.3013304 C171.190974,14.1951887 170.863043,13.1145765 170.570583,7.32313217 L170.238113,0.739254696 L203.162539,1.07659922 C239.245635,1.44630757 240.886139,1.65577052 248.734991,6.89540435 C253.47447,10.0593226 256.809878,15.2441939 258.61233,22.2496557 C260.444939,29.3723774 260.61113,69.2615157 258.838965,76.6499548 C256.375861,86.9190696 249.801122,94.0170174 240.011017,96.9761739 C234.362252,98.6835652 202.261096,99.5136 191.088217,98.2411565 L191.088217,98.2411565 L191.088217,98.2411565 Z M231.506817,77.5681626 C234.811096,75.6162774 236.31133,71.95644 237.022009,64.1137635 L237.631183,57.3913043 L218.163417,57.4403843 C197.049183,57.4936157 193.926096,58.0078383 191.035565,61.9070374 C187.611357,66.5261443 189.18,76.0183522 193.754426,78.3594452 C196.607565,79.8196209 218.461591,80.7665635 224.781739,79.7038687 C227.172565,79.301867 230.198852,78.3407983 231.506817,77.5681626 L231.506817,77.5681626 L231.506817,77.5681626 Z M315.25847,98.1640783 C295.217157,95.2437043 282.189061,82.6017165 278.617139,62.6086957 C275.770791,46.6768591 278.330791,31.0853165 285.684522,19.5652174 C291.176026,10.9624165 297.263539,6.40749217 307.826087,2.99799704 C311.804522,1.71379278 316.739209,1.39156774 337.173913,1.0816407 L361.73913,0.709067478 L361.73913,6.86255391 C361.73913,12.4308504 361.498061,13.2861035 359.204174,15.8558461 L356.669217,18.6956522 L338.11447,19.1350896 C319.641052,19.5726009 319.536861,19.5859417 314.345078,22.1785678 C305.123704,26.7834513 301.73913,34.2439348 301.73913,49.9653278 C301.73913,64.5666557 305.798948,73.1238713 314.6896,77.2621183 C319.301243,79.4086574 320.530357,79.5578243 337.391304,80.0172391 C349.098174,80.3362191 355.885922,80.8732226 357.164913,81.5816009 C360.244643,83.2873365 361.73913,87.160087 361.73913,93.4350783 L361.73913,99.1304348 L341.086957,99.0244 C329.728261,98.9660783 318.105443,98.5789391 315.25847,98.1640783 L315.25847,98.1640783 L315.25847,98.1640783 Z M39.2017748,96.3304174 C38.7755235,95.2399913 33.2648522,82.0217391 26.9558374,66.9565217 C3.12400417,10.0487835 0,2.48457757 0,1.68788417 C0,1.22034165 4.63850617,0.869565217 10.8210748,0.869565217 C20.8243035,0.869565217 21.8051243,1.0174373 23.7984957,2.82608696 C25.8325365,4.671638 27.977187,9.79253043 47.1255139,58.5252061 C49.531653,64.6488522 51.6096174,69.5401565 51.743213,69.3947713 C51.96876,69.1493209 70.1745713,26.3685348 76.5768687,11.0395974 C80.6557504,1.27358522 81.3700826,0.869565217 94.5581304,0.869565217 C102.894183,0.869565217 105.299557,1.12105374 104.9544,1.95652174 C104.182896,3.82396035 74.2722817,70.5022183 66.0448539,88.6956522 L61.9158922,97.826087 L50.9463339,98.0695478 C40.2289852,98.3074087 39.9589574,98.2674174 39.2017748,96.3304174 L39.2017748,96.3304174 L39.2017748,96.3304174 Z M491.304348,49.5652174 L491.304348,0.869565217 L509.51673,0.869565217 C527.163339,0.869565217 527.798365,0.930344957 529.958609,2.82608696 C532.067678,4.67691713 535.616096,13.1434096 553.711817,59.5009783 L557.759965,69.8715226 L559.8374,65.1531522 C560.979991,62.5580487 567.188122,47.9130435 573.633252,32.6086957 C581.252209,14.5170157 586.105643,4.09815826 587.50693,2.82608696 C589.590617,0.934544261 590.238183,0.869565217 607.005009,0.869565217 L624.347826,0.869565217 L624.347826,49.5652174 L624.347826,98.2608696 L616.280443,98.2608696 C607.729652,98.2608696 605.440722,97.4500174 603.2676,93.6510609 C602.462348,92.2433565 602.059252,82.775907 601.73913,57.7524687 L601.304348,23.7658078 L584.764974,60.795947 L568.2256,97.826087 L557.261157,98.0686783 L546.296713,98.3112609 L541.98567,88.0686783 C539.614591,82.4352513 532.426096,65.247753 526.011226,49.874233 L514.347826,21.92238 L513.913043,56.8307548 C513.592139,82.5959626 513.1918,92.2399043 512.384574,93.6510609 C510.211452,97.4500174 507.922522,98.2608696 499.37173,98.2608696 L491.304348,98.2608696 L491.304348,49.5652174 L491.304348,49.5652174 L491.304348,49.5652174 Z" id="path2222"></path>
                </g>
            </g>
        </g>
    </g>
</svg>